<!-- Generator: Adobe Illustrator 22.1.0, SVG Export Plug-In  -->
<svg version="1.1"
	 xmlns="http://www.w3.org/2000/svg" xmlns:xlink="http://www.w3.org/1999/xlink" xmlns:a="http://ns.adobe.com/AdobeSVGViewerExtensions/3.0/"
	 x="0px" y="0px" width="72.2px" height="72.2px" viewBox="0 0 72.2 72.2" style="enable-background:new 0 0 72.2 72.2;"
	 xml:space="preserve">
<style type="text/css">
	.st0{fill:#59EDE5;}
	.st1{fill:#7DFAE5;}
	.st2{fill:#69F1E5;}
	.st3{fill:#44E3E5;}
	.st4{fill:#9AFAE9;}
	.st5{fill:#CCFAF0;}
	.st6{fill:#59DF93;}
	.st7{fill:#86EA9B;}
	.st8{fill:#A5F0BC;}
	.st9{fill:#4AC693;}
	.st10{fill:#3EB193;}
</style>
<defs>
</defs>
<g>
	<g>
		<circle class="st0" cx="36.1" cy="36.1" r="36.1"/>
		<path class="st0" d="M62.8,11.8c1.4,3.8,2.2,8,2.2,12.3c0,19.9-16.2,36.1-36.1,36.1c-10.6,0-20.1-4.5-26.7-11.8
			c5,13.9,18.3,23.8,34,23.8c19.9,0,36.1-16.2,36.1-36.1C72.2,26.7,68.7,18.2,62.8,11.8z"/>
		<path class="st0" d="M62.8,11.8c1.4,3.8,2.2,8,2.2,12.3c0,19.9-16.2,36.1-36.1,36.1c-10.6,0-20.1-4.5-26.7-11.8
			c5,13.9,18.3,23.8,34,23.8c19.9,0,36.1-16.2,36.1-36.1C72.2,26.7,68.7,18.2,62.8,11.8z"/>
		<path class="st0" d="M61.8,10.7c3.6,5.6,5.7,12.3,5.7,19.5c0,19.9-16.2,36.1-36.1,36.1c-10,0-19.1-4.1-25.7-10.7
			c6.4,10,17.6,16.6,30.4,16.6c19.9,0,36.1-16.2,36.1-36.1C72.2,26.2,68.3,17.2,61.8,10.7z"/>
		<path class="st0" d="M36.1,0C16.2,0,0,16.2,0,36.1c0,2.3,0.2,4.6,0.7,6.8c2.5-21,20.4-37.3,42.1-37.3c6.4,0,12.4,1.4,17.8,3.9
			C54.1,3.6,45.6,0,36.1,0z"/>
		<path class="st0" d="M40.9,2.5c4.4,0,8.6,0.7,12.6,2C48.4,1.6,42.4,0,36.1,0C16.2,0,0,16.2,0,36.1c0,1.2,0.1,2.3,0.2,3.4
			C2.1,18.7,19.6,2.5,40.9,2.5z"/>
	</g>
	<circle class="st1" cx="36.1" cy="36.1" r="36.1"/>
	<path class="st2" d="M62.8,11.8c1.4,3.8,2.2,8,2.2,12.3c0,19.9-16.2,36.1-36.1,36.1c-10.6,0-20.1-4.5-26.7-11.8
		c5,13.9,18.3,23.8,34,23.8c19.9,0,36.1-16.2,36.1-36.1C72.2,26.7,68.7,18.2,62.8,11.8z"/>
	<path class="st3" d="M61.8,10.7c3.6,5.6,5.7,12.3,5.7,19.5c0,19.9-16.2,36.1-36.1,36.1c-10,0-19.1-4.1-25.7-10.7
		c6.4,10,17.6,16.6,30.4,16.6c19.9,0,36.1-16.2,36.1-36.1C72.2,26.2,68.3,17.2,61.8,10.7z"/>
	<path class="st4" d="M36.1,0C16.2,0,0,16.2,0,36.1c0,2.3,0.2,4.6,0.7,6.8c2.5-21,20.4-37.3,42.1-37.3c6.4,0,12.4,1.4,17.8,3.9
		C54.1,3.6,45.6,0,36.1,0z"/>
	<path class="st5" d="M40.9,2.5c4.4,0,8.6,0.7,12.6,2C48.4,1.6,42.4,0,36.1,0C16.2,0,0,16.2,0,36.1c0,1.2,0.1,2.3,0.2,3.4
		C2.1,18.7,19.6,2.5,40.9,2.5z"/>
	<path class="st6" d="M22.2,2.8c0.6,0.9,1.1,2.1,1.4,3.4c1.2,6.5-4.3,13-4.1,19.7c0.1,4.1,2,8.4,5.5,10.4c1.4,0.8,3.1,1.3,4.4,2.2
		c1.4,0.9,2.4,2.6,1.9,4.2c-0.3,0.9-1.1,1.6-1.4,2.6c-0.5,1.5,0.4,3.1,0.9,4.7c0.6,1.9,0.4,4.1-0.9,5.6c-1.2,1.5-3.7,2.1-5.3,1
		c-1.4-1-1.9-3-3.1-4.2c-2.9-3.1-9.1-1.4-11.2-5c-1.4-2.4,0-5.8-1.7-7.9c-1.5-1.9-4.6-1.7-6.2-3.5c-0.9-1-1.2-2.4-1.3-3.7
		C1.1,30.6,1,29,1.1,27.3C3.9,16.2,11.8,7.2,22.2,2.8z M47.6,1.9c-1,1.4-1.8,2.8-2.5,3.9c-1.1,1.8-2,3.8-1.6,5.8
		c0.8,3.7,5.7,5.3,6.4,9c0.5,2.5-1.2,4.8-2.3,7.1c-1.1,2.3-1.6,5.6,0.6,6.9c0.8,0.5,1.9,0.7,2.7,1.2c1.3,1,1.5,3,1,4.6
		c-0.4,1.6-1.3,3.1-1.6,4.8c-0.1,0.7-0.1,1.4,0.4,1.8c0.7,0.6,1.7,0.2,2.4-0.4c0.7-0.6,1.2-1.4,2-1.7c1.7-0.6,3.5,1,5.2,0.5
		c2.8-0.8,1.9-5.8,4.6-7.1c2.2-1,4.6,1.7,7,1.8c0.1-1.3,0.2-2.7,0.2-4C72.2,20.2,61.9,6.7,47.6,1.9z M24,31.9
		c0.4,0.6,1.1,1.2,1.8,1.2c0.7,0,1.3-0.5,1.4-1.2c0-0.1,0-0.2,0-0.2c0-0.1-0.2-0.3-0.3-0.3c-0.5-0.3-1-0.6-1.3-1.1s-0.6-1.1-0.4-1.6
		c0.1-0.3,0.4-0.5,0.5-0.8c0.1-0.5-0.3-1.1-0.8-1.2C22,26,23.2,30.7,24,31.9z M67.4,42.2c-0.1-0.1-0.2-0.1-0.2-0.2
		c0-0.1,0.2-0.1,0.2-0.1l-0.4-0.5c-0.5-0.1-1,0.1-1.4,0.4s-0.6,0.8-0.8,1.3c-0.2,0.6-0.4,1.2-0.2,1.8c0.2,0.6,0.7,1.1,1.4,1
		c0.6-0.1,1-0.7,1.3-1.2c0.2-0.4,0.4-0.8,0.5-1.3C67.9,43,67.8,42.5,67.4,42.2z M48.5,38.5c-0.4-0.2-0.9-0.2-1.3,0l-0.6,0.7
		c-0.6,0.5-0.7,1.6-0.1,2.2c0.6,0.6,1.7,0.4,2.2-0.2C49.2,40.4,48.9,39.4,48.5,38.5z"/>
	<g>
		<path class="st7" d="M47.6,1.9C47.6,1.9,47.6,1.9,47.6,1.9c-1,1.3-1.8,2.7-2.5,3.8C50.6,6,55.8,7.3,60.6,9.5
			C56.9,6.1,52.5,3.5,47.6,1.9z"/>
		<path class="st7" d="M23.5,6.2c-0.2-1.4-0.7-2.5-1.4-3.4C11.8,7.2,3.9,16.2,1.1,27.3c0,1.7,0,3.3,0.2,4.8c0.1,1.2,0.3,2.4,1,3.3
			c3.4-11,11.2-20,21.3-25.2C23.7,8.9,23.8,7.6,23.5,6.2z"/>
	</g>
	<g>
		<path class="st8" d="M46.8,2.9c2.3,0.3,4.5,0.9,6.7,1.6c-1.8-1-3.8-1.9-5.8-2.6c0,0-0.1,0-0.1,0C47.3,2.2,47.1,2.6,46.8,2.9z"/>
		<path class="st8" d="M22.2,2.8C11.8,7.2,3.9,16.2,1.1,27.3c0,1.7,0,3.3,0.2,4.8c0,0.2,0.1,0.5,0.1,0.7
			C4.5,21.1,12.7,11.4,23.6,6.3c0,0,0-0.1,0-0.1C23.3,4.8,22.8,3.7,22.2,2.8z"/>
	</g>
	<path class="st9" d="M62.8,11.8c5.9,6.4,9.5,15,9.5,24.4c0,0.7,0,1.3-0.1,2c0,0,0,0,0,0.1c0,0.7-0.1,1.3-0.2,1.9
		c-2.4-0.1-4.7-2.8-7-1.8c-2.7,1.2-1.8,6.2-4.6,7.1c-0.8,0.2-1.5,0-2.3-0.2c4.3-5.9,6.8-13.2,6.8-21.1
		C64.9,19.8,64.2,15.6,62.8,11.8z M67.4,41.9l-0.4-0.5c-0.5-0.1-1,0.1-1.4,0.4s-0.6,0.8-0.8,1.3c-0.2,0.6-0.4,1.2-0.2,1.8
		c0.2,0.6,0.7,1.1,1.4,1c0.6-0.1,1-0.7,1.3-1.2c0.2-0.4,0.4-0.8,0.5-1.3c0.1-0.4,0-1-0.4-1.2c-0.1-0.1-0.2-0.1-0.2-0.2
		C67.3,41.9,67.4,41.8,67.4,41.9z"/>
	<g>
		<path class="st10" d="M62.8,11.8c0.2,0.5,0.4,1,0.5,1.5c2.7,5,4.2,10.8,4.2,16.9c0,2.7-0.3,5.4-0.9,8c1.8,0.3,3.6,1.9,5.4,2
			c0.1-0.6,0.1-1.3,0.2-1.9c0-0.7,0.1-1.4,0.1-2.1C72.2,26.7,68.7,18.2,62.8,11.8z"/>
		<path class="st10" d="M66,45.9c0.6-0.1,1-0.7,1.3-1.2c0.2-0.4,0.4-0.8,0.5-1.3c0.1-0.4,0-1-0.4-1.2c-0.1-0.1-0.2-0.1-0.2-0.2
			c0-0.1,0.2-0.1,0.2-0.1l-0.4-0.5c-0.5-0.1-1,0.1-1.4,0.4c0,0-0.1,0.1-0.1,0.1c-0.3,0.9-0.6,1.8-1,2.6c0,0.1,0,0.2,0,0.4
			C64.8,45.5,65.4,46,66,45.9z"/>
	</g>
	<path class="st6" d="M26,14.8c0,0.5,0.2,1.1,0.4,1.5c0.3,0.6,0.8,1.1,1.4,1.1c1.8,0.1,2.3-3.5,1.6-4.7C28.3,11,26.1,13.4,26,14.8z"
		/>
	<path class="st6" d="M17.9,53.1c-0.8-0.5-1.8-0.6-2.7-0.4l-0.7,0.9c-0.1,0.1-0.1,0.3,0,0.5c0.4,0.7,1,1.2,1.7,1.5
		c0.5,0.2,1.1,0.3,1.7,0.1c0.5-0.2,1-0.7,1-1.3C18.8,53.8,18.4,53.3,17.9,53.1z"/>
</g>
</svg>
