<svg xmlns="http://www.w3.org/2000/svg" viewBox="0 0 116.9 116.9">
  <style>
    .st0{fill:#c7aba4}.st3{fill:#b98c8f}.st5{fill:#a5718f}.st9{fill:#ddd3bb}.st12{fill:#ccc0ac}
  </style>
  <circle transform="rotate(-45.001 58.463 58.465)" class="st0" cx="58.5" cy="58.5" r="58.5"/>
  <circle transform="rotate(-45.001 58.463 58.465)" class="st0" cx="58.5" cy="58.5" r="58.5"/>
  <path d="M61.1 5.9c18.5 0 35 8 46.4 20.8C97.1 10.6 79 0 58.5 0 27.1 0 1.5 24.7.1 55.8 5.8 27.3 31 5.9 61.1 5.9z" fill="#d4c4b6"/>
  <path d="M107.8 27.2c2.8 6.9 4.4 14.4 4.4 22.3 0 32.3-26.2 58.5-58.5 58.5-20.8 0-39-10.8-49.4-27.2C13.1 102 34 117 58.4 117c32.3 0 58.5-26.2 58.5-58.5 0-11.5-3.3-22.3-9.1-31.3z" fill="#bf939d"/>
  <path class="st3" d="M109.5 87c-4.5-.1-8.9-.2-13.4-.4-4.3-.1-8.9-.2-12.7 1.8-2 1.1-3.6 2.6-5.5 3.9-6.9 4.6-16.7 4.1-23.1-1.1-2.1-1.7-3.9-3.8-6.4-4.7-1.8-.6-3.8-.5-5.7-.4-7.4.5-14.7.8-22.1.8-5.4 0-10.9.9-14.8-3.5l-.1-.1c-.5-1-.9-2-1.3-3 .8-.8 4.1.1 6.3.6 7.2 1.6 14.6 1.8 22 2 4.9.2 9.7.3 14.5-.4 10.3-1.6 20.4-7.3 30.6-5.2 2.8.6 5.4 1.7 8.1 2.4 8.6 2.4 17.7 1 26.5 1.6-1 2-1.9 3.9-2.9 5.7zm-70.8 3.1c-2.6 2.8 2.1 3.5 4.1 3.7 1.4.1 2.8-.1 4-.9.9-.6 1.6-1.7 1-2.6-.2-.3-.6-.5-1-.7-2.1-1-6.2-1.6-8.1.5zm74.7-51.7c-2-.8-4.3-1-6.4-.8-3.6.3-7.3 1.4-10.9.9-2-.2-3.9-.9-5.8-1.2-7.8-1.3-15.3 3.1-23.1 4.1C55.1 43 42.8 36.8 31 39.6c-2.8.7-5.4 1.8-8.3 2.2-5.8.8-13.8-2.5-20-.9-.8 2.4-1.4 5-1.8 7.5 2.2-.1 4.3-.8 6.7-.3 2.6.5 4.9 1.9 7.4 2.3 5.9 1 11.6-3 17.6-3.3 4.2-.3 8.3 1.2 12.4 1.3 4.8.1 9.4-1.6 14.2-1.8 6-.3 12 1.7 18.1 1.6 6.3-.1 12.5-2.4 18.7-1.9 3.4.3 6.8 1.4 10.2 2 3.3.5 6.9.3 9.6-1.7-.6-2.7-1.4-5.5-2.4-8.2zm-16 14.1c.3-.1.6-.4.7-.6.1-.1.1-.3.1-.4 0-.2-.2-.4-.3-.6-4.7-5-8.5 5.5-.5 1.6zM25 38.5c1.2-.2 2.7-.6 3-1.8.1-.4.1-.8-.1-1.2-.1-.3-.4-.4-.6-.6-2.2-1.7-8.5-3.8-10.2-.3-2 4.4 5.6 4.2 7.9 3.9zm60.3 53.4c.1 2 2.7 1.5 3.8.7.7-.5 1.2-1.5.9-2.4 0-.1-.1-.2-.2-.2-.1-.1-.2-.1-.3-.1-1.4-.2-4.3 0-4.2 2zM67.7 38.2c.3-.4.4-1 .1-1.5-.1-.2-.4-.3-.6-.4-1.3-.7-6.7-1.4-6.2 1.3.4 2.8 5.4 2.3 6.7.6z"/>
  <path class="st3" d="M109.5 87c-4.5-.1-8.9-.2-13.4-.4-4.3-.1-8.9-.2-12.7 1.8-2 1.1-3.6 2.6-5.5 3.9-6.9 4.6-16.7 4.1-23.1-1.1-2.1-1.7-3.9-3.8-6.4-4.7-1.8-.6-3.8-.5-5.7-.4-7.4.5-14.7.8-22.1.8-5.4 0-10.9.9-14.8-3.5l-.1-.1c-.5-1-.9-2-1.3-3 .8-.8 4.1.1 6.3.6 7.2 1.6 14.6 1.8 22 2 4.9.2 9.7.3 14.5-.4 10.3-1.6 20.4-7.3 30.6-5.2 2.8.6 5.4 1.7 8.1 2.4 8.6 2.4 17.7 1 26.5 1.6-1 2-1.9 3.9-2.9 5.7zm-70.8 3.1c-2.6 2.8 2.1 3.5 4.1 3.7 1.4.1 2.8-.1 4-.9.9-.6 1.6-1.7 1-2.6-.2-.3-.6-.5-1-.7-2.1-1-6.2-1.6-8.1.5zm74.7-51.7c-2-.8-4.3-1-6.4-.8-3.6.3-7.3 1.4-10.9.9-2-.2-3.9-.9-5.8-1.2-7.8-1.3-15.3 3.1-23.1 4.1C55.1 43 42.8 36.8 31 39.6c-2.8.7-5.4 1.8-8.3 2.2-5.8.8-13.8-2.5-20-.9-.8 2.4-1.4 5-1.8 7.5 2.2-.1 4.3-.8 6.7-.3 2.6.5 4.9 1.9 7.4 2.3 5.9 1 11.6-3 17.6-3.3 4.2-.3 8.3 1.2 12.4 1.3 4.8.1 9.4-1.6 14.2-1.8 6-.3 12 1.7 18.1 1.6 6.3-.1 12.5-2.4 18.7-1.9 3.4.3 6.8 1.4 10.2 2 3.3.5 6.9.3 9.6-1.7-.6-2.7-1.4-5.5-2.4-8.2zm-16 14.1c.3-.1.6-.4.7-.6.1-.1.1-.3.1-.4 0-.2-.2-.4-.3-.6-4.7-5-8.5 5.5-.5 1.6zM25 38.5c1.2-.2 2.7-.6 3-1.8.1-.4.1-.8-.1-1.2-.1-.3-.4-.4-.6-.6-2.2-1.7-8.5-3.8-10.2-.3-2 4.4 5.6 4.2 7.9 3.9zm60.3 53.4c.1 2 2.7 1.5 3.8.7.7-.5 1.2-1.5.9-2.4 0-.1-.1-.2-.2-.2-.1-.1-.2-.1-.3-.1-1.4-.2-4.3 0-4.2 2zM67.7 38.2c.3-.4.4-1 .1-1.5-.1-.2-.4-.3-.6-.4-1.3-.7-6.7-1.4-6.2 1.3.4 2.8 5.4 2.3 6.7.6z"/>
  <path d="M2 48.4c.9-2.7 2-5.3 3.2-7.8-.9.1-1.8.2-2.6.4-.1.2-.1.4-.2.7 0 .1-.1.2-.1.3-.2.7-.4 1.5-.6 2.2 0 .2-.1.3-.1.5-.2.7-.3 1.4-.5 2.1-.1.4-.2.9-.2 1.3 0 .1-.1.3-.1.4.5 0 .9 0 1.2-.1z" fill="#cdb3a7"/>
  <path class="st5" d="M111.1 37.8c.7 3.4 1.1 6.9 1.2 10.5 1.3-.3 2.5-.8 3.5-1.5 0-.2-.1-.4-.1-.6-.1-.2-.1-.5-.2-.7-.1-.5-.2-.9-.3-1.4 0-.2-.1-.3-.1-.5-.1-.5-.3-1.1-.4-1.6 0-.1 0-.1-.1-.2-.3-1.1-.7-2.3-1.1-3.4-.9-.3-1.6-.5-2.4-.6zM102.9 81.2c-1.2 1.9-2.5 3.7-4 5.4l10.6.3c.5-.9 1-1.8 1.4-2.7v-.1c.5-.9.9-1.9 1.3-2.8-3.1-.1-6.2-.1-9.3-.1z"/>
  <path d="M5.5 83.1c0 .1.1.1.1.2l.1.1c.5.6 1.1 1.1 1.7 1.6-1-1.3-2-2.7-2.9-4.2.3.8.6 1.6 1 2.3z" fill="#a97e8f"/>
  <path d="M58 85c-.6.2-1.2.4-1.5 1-.5 1 .7 2 1.7 2.4 3.2 1.3 6.7 2 10.2 1.8 1.3-.1 2.7-.2 3.9-.7 2.8-1.1 5-3.6 8-4.1.9-.1 2.1-.3 2.1-1.2 0-.6-.6-1-1.2-1.2-2-.7-4.2-.2-6.3-.1-1.5.1-3-.2-4.6-.3-4.1-.2-8.3 1.2-12.3 2.4z" fill="#9b5f70"/>
  <path d="M70.4 83.7c.5.1 1 .2 1.1.6.1.3-.1.7-.3.9-.9 1-2.3 1.3-3.6 1.5-1 .2-2.8.8-3.8.4-.9-.4-.5-1.2 0-1.7 1.5-1.6 4.5-1.9 6.6-1.7z" fill="#7a4b58"/>
  <g>
    <path class="st9" d="M107.2 26.1c-1.9-2.9-4.1-5.6-6.5-8.1-6.7-.3-13.3.4-19.7 2.2-3.2.9-6.4 2-9.7 1.9-3.3-.2-6.4-1.6-9.7-2-7.5-.9-15.2 3.6-22.3 1.2-1.8-.6-3.4-1.6-5.2-2.4-3.8-1.7-10.6-2.4-16.6-2-2.9 2.8-5.5 6-7.7 9.4 2-.1 4.2-.7 6 0 1.1.4 1.9 1.2 2.9 1.8 3.8 1.9 8.1-1 12.3-1.3 5.5-.4 10.4 3.7 15.9 3.9 2.7.1 5.3-.7 7.9-1.3 4.7-1 9.5-1.2 14.3-1.4 12.7-.8 25.4-1.3 38.1-1.9z"/>
    <path d="M100.6 18c-.9 0-1.8-.1-2.8-.1 3.3 2.4 6.4 5.2 9.2 8.2h.1c-1.9-2.9-4.1-5.6-6.5-8.1z" fill="#ebe3d1"/>
    <path d="M25.7 16.9c-2.7-.3-5.5-.3-8.2-.2-2.9 2.8-5.5 6-7.7 9.4 1.8-.1 3.8-.6 5.5-.1 3.1-3.4 6.6-6.4 10.4-9.1z" fill="#ebeddc"/>
    <path class="st9" d="M79.9 100.1c-7 1.7-14.1 5.1-21.1 3.5-4.1-.9-7.9-3.5-12-3.1-1.3.1-2.5.5-3.8.7-2.7.4-5.4 0-8-.3-5.6-.6-11.5-1-17.1-.5 1.9 1.8 3.9 3.6 6 5.1 1.9-.1 3.7 0 5.5.5 1.4.4 2.7 1 4.1 1.4 2.6.6 5.2.2 7.9 0 4.9-.4 9.9-.1 14.7.9 2.6.5 5.1 1.2 7.7 1.3 3.1.1 6.1-.5 9.2-1.2 5.2-1.2 10.5-2.4 15.7-3.6 2.5-.6 5-1.1 7.5-1.5 1.7-1.4 3.3-3 4.8-4.6-7.2-.4-14.3-.3-21.1 1.4zM60.1 71.5c.3 0 .7 0 .8.3.3.4 0 1-.4 1.4-1.4 1.2-3.1 2-4.9 2.3-1 .2-3.8.6-4.1-.9-.7-3.3 7-3.1 8.6-3.1zM49.1 61.5c.4-.1.9-.3 1.1-.6.2-.4 0-.9-.2-1.2-.3-.3-.7-.5-1.1-.6-2.4-.8-5-.6-7.5-.2-1.1.2-5.7.5-5.7 2.2.1 1.5 4.9 1.3 6 1.3 2.5 0 5-.3 7.4-.9z"/>
    <path class="st9" d="M114.6 63.4c-2.7.1-5.3 1.3-8 1.2-3.8-.2-7-2.9-10.7-3.6-3.7-.7-7.5.8-11.3 1.4-9.9 1.5-20.1-3.4-29.8-1-3.2.8-6.2 2.4-9.4 3.4-7 2.3-14.6 1.8-21.6-.2-2.8-.8-5.7-1.9-8.6-1.7-1.9.1-9.7 1.2-14.7 3.2.2 1.9.6 3.8 1 5.6 5.6 0 13.8-1.6 15.8-1.6 4.2.1 8.2 1.1 12.4 1.3 4.6.2 9.1-.7 13.6-1.4 18.9-3 38.2-3 57.1 0 4.4.7 8.9 1.6 13.4 1.6.6 0 1.2 0 1.7-.1.6-2.5 1-5.1 1.2-7.7-.7-.4-1.4-.5-2.1-.4zM81.8 16.6c.2-.1.4-.3.5-.6.1-.5-.4-.8-.8-1-2.3-1-12.1-3.5-11.5 1.4.6 5 9.5 1.8 11.8.2zM47.4 17.2c.9-2.9-6.2-4.5-6.7-1-.5 3 5.9 3.3 6.7 1zM54.1 110.3c.3.1.7.1 1 .4.3.3.3.9.1 1.3-.2.4-.6.7-1 .9-1.7.9-3.8.7-5.7.4-.8-.1-2-.3-2.3-1.2-.3-.8.4-1.4 1.1-1.8 2-1 4.7-.3 6.8 0z"/>
  </g>
  <g>
    <path class="st12" d="M100.8 98.7c-5.5-.3-10.9-.3-16.3.5-8.9 5.5-19.3 8.7-30.5 8.7.7.1 1.3.2 1.9.4 2.6.5 5.1 1.2 7.7 1.3 3.1.1 6.1-.5 9.2-1.2 5.2-1.2 10.5-2.4 15.7-3.6 2.5-.6 5-1.1 7.5-1.5.8-.7 1.6-1.4 2.4-2.2l.1-.1c.8-.7 1.6-1.5 2.3-2.3zM29.2 106c1.4.4 2.7 1 4.1 1.4 2.6.6 5.2.2 7.9 0 1.2-.1 2.4-.1 3.5-.2-7.2-1.1-14-3.6-20.1-7.1-2.3 0-4.6 0-6.9.3 1.9 1.8 3.9 3.6 6 5.1 1.9 0 3.8 0 5.5.5zM114.6 63.4c-1.4.1-2.8.4-4.2.7-.6 2.4-1.4 4.7-2.3 7 1.9.2 3.8.4 5.6.4.6 0 1.2 0 1.7-.1.4-1.8.7-3.7 1-5.5v-.3c.1-.6.1-1.2.2-1.8-.6-.4-1.3-.5-2-.4z"/>
    <path d="M48.5 113.2c1.9.3 4 .5 5.7-.4.4-.2.8-.5 1-.9.2-.4.2-.9-.1-1.3-.2-.2-.6-.3-1-.4-2.1-.3-4.8-1-6.8-.1-.7.3-1.4.9-1.1 1.8.4.9 1.5 1.2 2.3 1.3z" fill="#ccc3ad"/>
  </g>
</svg>