<svg xmlns="http://www.w3.org/2000/svg" viewBox="0 0 59.4 59.4">
  <style>
    .st0{fill:#ff5757}.st5{fill:#e14057}.st6{fill:#d63b57}.st7{fill:#b73357}.st8{fill:#e75761}.st9{fill:#e7786f}
  </style>
  <circle class="st0" cx="29.7" cy="29.7" r="29.7"/>
  <path class="st0" d="M51.6 9.7c1.2 3.2 1.8 6.6 1.8 10.1 0 16.4-13.3 29.7-29.7 29.7-8.7 0-16.5-3.7-21.9-9.7 4.1 11.4 15.1 19.6 27.9 19.6 16.4 0 29.7-13.3 29.7-29.7 0-7.7-2.9-14.7-7.8-20z"/>
  <path class="st0" d="M51.6 9.7c1.2 3.2 1.8 6.6 1.8 10.1 0 16.4-13.3 29.7-29.7 29.7-8.7 0-16.5-3.7-21.9-9.7 4.1 11.4 15.1 19.6 27.9 19.6 16.4 0 29.7-13.3 29.7-29.7 0-7.7-2.9-14.7-7.8-20z"/>
  <path class="st0" d="M50.8 8.8c3 4.6 4.7 10.1 4.7 16 0 16.4-13.3 29.7-29.7 29.7-8.3 0-15.7-3.4-21.1-8.8 5.3 8.2 14.5 13.7 25 13.7 16.4 0 29.7-13.3 29.7-29.7 0-8.1-3.3-15.5-8.6-20.9zM29.7 0C13.3 0 0 13.3 0 29.7c0 1.9.2 3.8.5 5.6C2.6 18 17.3 4.6 35.2 4.6c5.2 0 10.2 1.2 14.6 3.2C44.5 3 37.5 0 29.7 0z"/>
  <path class="st0" d="M33.7 2c3.6 0 7.1.6 10.4 1.6C39.8 1.3 34.9 0 29.7 0 13.3 0 0 13.3 0 29.7c0 .9 0 1.9.1 2.8C1.7 15.4 16.1 2 33.7 2z"/>
  <circle class="st0" cx="29.7" cy="29.7" r="29.7"/>
  <path d="M51.6 9.7c1.2 3.2 1.8 6.6 1.8 10.1 0 16.4-13.3 29.7-29.7 29.7-8.7 0-16.5-3.7-21.9-9.7 4.1 11.4 15.1 19.6 27.9 19.6 16.4 0 29.7-13.3 29.7-29.7 0-7.7-2.9-14.7-7.8-20z" fill="#f04257"/>
  <path d="M50.8 8.8c3 4.6 4.7 10.1 4.7 16 0 16.4-13.3 29.7-29.7 29.7-8.3 0-15.7-3.4-21.1-8.8 5.3 8.2 14.5 13.7 25 13.7 16.4 0 29.7-13.3 29.7-29.7 0-8.1-3.3-15.5-8.6-20.9z" fill="#df3457"/>
  <path d="M29.7 0C13.3 0 0 13.3 0 29.7c0 1.9.2 3.8.5 5.6C2.6 18 17.3 4.6 35.2 4.6c5.2 0 10.2 1.2 14.6 3.2C44.5 3 37.5 0 29.7 0z" fill="#ff8072"/>
  <path d="M33.7 2c3.6 0 7.1.6 10.4 1.6C39.8 1.3 34.9 0 29.7 0 13.3 0 0 13.3 0 29.7c0 .9 0 1.9.1 2.8C1.7 15.4 16.1 2 33.7 2z" fill="#ffa78d"/>
  <g>
    <path class="st5" d="M23.9 11.7c-.1 1.7 1.5 3.2 3.2 3.4 1.7.2 3.4-.5 4.9-1.4 1.5-.9 2.9-1.9 4.5-2.5 3.3-1.1 7.1-.1 10-1.9 1-.6 1.7-1.4 2.2-2.4C43.6 2.6 37 0 29.7 0c-1.2 0-2.3.1-3.5.2.1.4.2.7.2 1 .4 2.8-.2 5.5-1.6 8-.4.8-.9 1.6-.9 2.5z"/>
  </g>
  <g>
    <path class="st5" d="M0 29.7C0 46 13.2 59.3 29.5 59.4c1.3-1.3 2.4-2.9 2.8-4.7.4-1.6.1-3.3-.2-5-.5-2.8-1-5.8-3-7.9-2.1-2.2-5.4-2.8-8.4-3.4-3-.6-6.3-1.5-8-4.1-.4-.6-.7-1.4-.6-2.1.3-1.5 2.3-1.8 3.9-2 1.5-.2 2.9-.6 4.1-1.5 1.1-.9 1.9-2.5 1.5-3.9-.5-2-2.6-2.9-4.4-3.9-1.8-1-3.6-2.9-2.8-4.7.3-.8 1-1.3 1.6-1.9 2.4-2.8 1.6-7.8-1.1-10.4C6.1 9 0 18.6 0 29.7z"/>
    <path class="st6" d="M1.8 39.9c4.1 11.4 15 19.5 27.7 19.6 1.3-1.3 2.4-2.9 2.8-4.7.4-1.6.1-3.3-.2-5-.1-.5-.2-.9-.2-1.4-2.6.8-5.4 1.2-8.2 1.2-8.7-.1-16.5-3.8-21.9-9.7z"/>
    <path class="st7" d="M29.5 59.4c1.3-1.3 2.4-2.9 2.8-4.7.1-.3.1-.6.1-1-2.1.5-4.4.8-6.7.8-8.3 0-15.7-3.4-21.1-8.8 5.3 8.2 14.5 13.7 24.9 13.7z"/>
    <path class="st5" d="M54.9 37.4c-.8-2.9-2.6-5.4-4.5-7.7-.5-.7-1.1-1.3-1.4-2.1-.9-2-.1-4.4.3-6.5.4-2.2.4-4.8-1.4-6.1-.6-.4-1.3-.6-2-.8-6.8-1.4-12.3 3.5-14.6 9.4-1 2.6-2.4 4.7-3.9 7-1 1.7-1.8 3.3-.1 4.8 2.7 2.6 7.2 1.2 10.5 2.3 1.6.5 2.9 1.6 3.8 3 1.3 2.1 1.7 4.9 3.9 6 .8.4 1.8.4 2.7.4 1.6-.1 3.3-.6 4.5-1.6 2.4-1.8 3-5.3 2.2-8.1z"/>
    <path class="st6" d="M54.9 37.4c-.6-2.4-2-4.6-3.6-6.6-1.9 4.7-4.9 8.8-8.7 12 .7 1.6 1.4 3.3 3 4 .8.4 1.8.4 2.7.4 1.6-.1 3.3-.6 4.5-1.6 2.3-1.9 2.9-5.4 2.1-8.2z"/>
    <path class="st7" d="M54.9 37.4c-.2-.9-.6-1.8-1.1-2.7-1.7 4.7-4.5 8.9-8.1 12.2.8.3 1.6.4 2.5.3 1.6-.1 3.3-.6 4.5-1.6 2.4-1.9 3-5.4 2.2-8.2z"/>
  </g>
  <g>
    <path class="st8" d="M17.6 9.4c-.2-2.1-1.1-4.1-2.5-5.5C6.1 9 0 18.6 0 29.7c0 1.9.2 3.8.5 5.6 1.4-11 7.9-20.5 17.1-25.9zM29.7 0c-1.2 0-2.3.1-3.5.2.1.4.2.7.2 1 .2 1.6.1 3.1-.2 4.6 2.9-.8 5.9-1.2 9-1.2 4.7 0 9.2.9 13.3 2.6.1-.1.2-.3.2-.4C43.6 2.6 37 0 29.7 0z"/>
  </g>
  <g>
    <path class="st9" d="M16.8 6.5c-.4-1-1-1.9-1.8-2.7C6.1 9 0 18.6 0 29.7c0 .9 0 1.9.1 2.8 1.1-11.1 7.5-20.6 16.7-26zM26.2.2c.1.4.2.7.2 1 .1.5.1 1.1.1 1.6 2.3-.5 4.6-.7 7-.7 3.6 0 7.1.6 10.4 1.6-4.1-2.4-9-3.7-14.2-3.7-1.2 0-2.3.1-3.5.2z"/>
  </g>
  <path class="st5" d="M29.9 19.1c0-.3-.2-.6-.4-.8-.4-.4-1.1-.3-1.7-.3-1 .1-3.5.4-4.1 1.9-.2.6.1 1.3.7 1.7.5.3 1.2.4 1.9.4.9 0 1.7-.2 2.5-.7.7-.5 1.2-1.3 1.1-2.2z"/>
</svg>