<svg version="1.1"
	 xmlns="http://www.w3.org/2000/svg" xmlns:xlink="http://www.w3.org/1999/xlink" xmlns:a="http://ns.adobe.com/AdobeSVGViewerExtensions/3.0/"
	 x="0px" y="0px" width="71.7px" height="71.7px" viewBox="0 0 71.7 71.7" style="enable-background:new 0 0 71.7 71.7;"
	 xml:space="preserve">
<style type="text/css">
	.st0{fill:#D1DBE6;}
	.st1{fill:#C4CAD8;}
	.st2{fill:#B5BACA;}
	.st3{fill:#D9E5E8;}
	.st4{fill:#E8F1EF;}
	.st5{fill:#C0CEDE;}
	.st6{fill:#CBD9E5;}
	.st7{fill:#D0E2EA;}
	.st8{fill:#B3C3D9;}
	.st9{fill:#9AB3D9;}
</style>
<defs>
</defs>
<g>
	<ellipse transform="matrix(0.2333 -0.9724 0.9724 0.2333 -7.3702 62.3034)" class="st0" cx="35.8" cy="35.8" rx="35.8" ry="35.8"/>
	<path class="st1" d="M62.3,11.7c1.4,3.8,2.1,7.9,2.1,12.2c0,19.8-16,35.8-35.8,35.8c-10.5,0-19.9-4.5-26.4-11.7
		c5,13.8,18.2,23.6,33.7,23.6c19.8,0,35.8-16,35.8-35.8C71.7,26.5,68.1,18,62.3,11.7z"/>
	<path class="st2" d="M61.3,10.6C64.9,16.2,67,22.8,67,30c0,19.8-16,35.8-35.8,35.8c-10,0-19-4.1-25.5-10.6
		c6.4,9.9,17.5,16.5,30.2,16.5c19.8,0,35.8-16,35.8-35.8C71.7,26,67.7,17.1,61.3,10.6z"/>
	<path class="st3" d="M35.8,0C16,0,0,16,0,35.8c0,2.3,0.2,4.6,0.6,6.8c2.5-20.8,20.3-37,41.8-37c6.3,0,12.3,1.4,17.7,3.9
		C53.7,3.6,45.2,0,35.8,0z"/>
	<path class="st4" d="M40.6,2.5c4.4,0,8.6,0.7,12.5,2C48,1.6,42.1,0,35.8,0C16,0,0,16,0,35.8c0,1.1,0.1,2.3,0.2,3.4
		C2.1,18.6,19.4,2.5,40.6,2.5z"/>
	<path class="st5" d="M16.4,41.3c-1.3-0.8-2.6-1.6-3.9-2.5c-0.7-0.5-1.3-1-1.7-1.7c-0.8-1.4-0.4-3.2,0.3-4.7
		c0.7-1.5,1.8-2.8,2.2-4.4c1.6-5.9-3.9-9.6-9-9.1C1.5,23.9,0,29.7,0,35.8c0,11.6,5.5,21.9,14.1,28.5c3.7-0.5,7.1-2.5,9.1-5.7
		c2.5-4,2.3-9.7-0.9-13.2C20.7,43.7,18.5,42.5,16.4,41.3z"/>
	<path class="st6" d="M4.3,18.9C4.3,18.9,4.3,18.9,4.3,18.9C1.5,23.9,0,29.7,0,35.8c0,2.3,0.2,4.6,0.6,6.8c1-8.4,4.5-16.1,9.8-22.2
		C8.7,19.2,6.4,18.6,4.3,18.9z"/>
	<path class="st7" d="M4.3,18.9C4.3,18.9,4.3,18.9,4.3,18.9C1.5,23.9,0,29.7,0,35.8c0,1.1,0.1,2.3,0.2,3.4c0.7-7.5,3.4-14.3,7.6-20
		C6.6,18.9,5.4,18.7,4.3,18.9z"/>
	<path class="st8" d="M14.1,64.3C14.1,64.3,14.1,64.3,14.1,64.3c3.5-0.5,6.7-2.3,8.7-5c-8.1-1.3-15.3-5.4-20.6-11.2
		C4.5,54.5,8.7,60.2,14.1,64.3z"/>
	<path class="st9" d="M17.8,63.2c-4.6-1.8-8.7-4.6-12.2-8.1c2.3,3.5,5.1,6.6,8.4,9.2C15.4,64.1,16.6,63.7,17.8,63.2z"/>
	<path class="st5" d="M22.5,36.1c2.5,1.5,4.7,3.4,6,6c0.5,0.9,0.8,1.9,1.3,2.7c1.6,2.6,4.7,3.9,7.7,4c3,0.1,6-0.9,8.8-1.9
		c1.6-0.6,3.1-1.2,4.4-2.3c1.1-0.9,1.9-2.1,2.7-3.2c1.3-1.8,2.5-3.5,3.5-5.4c1.8-3.6,2.6-7.5,3.1-11.5c0.3-2.5,0.4-5.1-0.5-7.5
		c-0.9-2.3-3-4.4-5.6-4.4c-1.1,0-2.2,0.4-2.9,1.2c-1.5,1.8-0.2,4.8-1.7,6.6c-0.9,1.1-2.4,1.3-3.7,1.3s-2.8-0.2-4.1,0.3
		c-2.4,0.9-3.5,3.6-5.1,5.5c-2,2.5-5.4,3.9-8.6,3.1c-2.4-0.6-5.2-2.6-7.4-0.8C17.6,32.2,20.2,34.7,22.5,36.1z"/>
	<path class="st5" d="M29.6,27.8c1,0.1,2.1,0.1,3-0.3c2.1-0.8,3.2-3,4-5.1c0.8-2.1,1.3-4.4,2.8-6c1-1.1,2.5-1.9,2.7-3.4
		c0.2-1.2-0.6-2.5-1.7-3.1c-1.1-0.6-2.4-0.8-3.6-0.9C35.9,9,34.9,9,34,9.3c-1.4,0.4-2.4,1.5-3.4,2.5c-1.4,1.4-2.8,2.8-4.2,4.2
		c-1.7,1.7-4.4,4.5-3.4,7.2C23.7,25.6,27.1,27.4,29.6,27.8z"/>
	<path class="st5" d="M46.6,15.5c-0.5-0.8-1.7-1.2-2.5-0.7c-1.1,0.6-1.3,2.2-0.7,3.3l0.2,0.4c0.9,0.4,2,0.3,2.7-0.4
		C47,17.5,47.1,16.3,46.6,15.5z"/>
	<path class="st5" d="M47.2,51.1c1.5-0.3,3.2-0.2,4.4,0.8c1.1,0.9,1.4,2.4,1.7,3.8c0.3,1.4,0.5,2.8,0,4.1c-0.3,0.9-1,1.7-1.7,2.4
		c-2.5,2.5-6.1,4.5-9.6,3.7c-1.6-0.4-3-1.3-4.3-2.4c-1.7-1.4-3.3-2.9-4.1-4.9c-1.1-2.8-0.6-5.7,2.7-5.7c1.8,0,3.3,0.3,5.1-0.1
		C43.4,52.3,45.3,51.5,47.2,51.1z"/>
	<path class="st8" d="M37.8,63.5c1.3,1,2.7,2,4.3,2.4c3.5,0.8,7-1.2,9.6-3.7c0.7-0.7,1.3-1.4,1.7-2.4c0.5-1.3,0.3-2.8,0-4.1
		c-0.3-1.4-0.6-2.9-1.7-3.8c-0.1-0.1-0.2-0.2-0.3-0.2c-4.9,4-10.8,6.7-17.2,7.7C34.9,60.9,36.3,62.3,37.8,63.5z"/>
	<path class="st9" d="M53.3,59.8c0.2-0.6,0.3-1.3,0.3-1.9c-4,3.3-8.8,5.6-14,6.9c0.8,0.5,1.6,0.9,2.5,1.1c3.5,0.8,7-1.2,9.6-3.7
		C52.3,61.5,52.9,60.7,53.3,59.8z"/>
</g>
</svg>
