<?xml version="1.0" encoding="utf-8"?>
<!-- Generator: Adobe Illustrator 22.1.0, SVG Export Plug-In . SVG Version: 6.00 Build 0)  -->
<svg version="1.1" id="Layer_1" xmlns="http://www.w3.org/2000/svg" xmlns:xlink="http://www.w3.org/1999/xlink" x="0px" y="0px"
	 viewBox="0 0 77.2 77.2" style="enable-background:new 0 0 77.2 77.2;" xml:space="preserve">
<style type="text/css">
	.st0{fill:#008CEF;}
	.st1{fill:#00A1EF;}
	.st2{fill:#00B8FF;}
	.st3{fill:#00CAEF;}
	.st4{fill:#0070EF;}
	.st5{fill:#005EEF;}
	.st6{fill:#0057D9;}
	.st7{fill:#0039D9;}
	.st8{fill:#0095EF;}
	.st9{fill:#00B9EF;}
</style>
<g>
	<circle class="st0" cx="38.6" cy="38.6" r="38.6"/>
	<path class="st1" d="M4.1,32.1C12,10.6,35.8-0.3,57.2,7.6c3.9,1.4,7.4,3.4,10.5,5.7C63.6,8.5,58.3,4.7,52,2.4
		C32-5,9.8,5.2,2.4,25.2c-3,8.2-3.1,16.7-0.7,24.5C1.2,43.9,1.9,37.9,4.1,32.1z"/>
	<g>
		<path class="st2" d="M1.9,29.4c8-21.6,32-32.7,53.6-24.7c2,0.8,4,1.7,5.8,2.7c-2.8-2-5.9-3.7-9.3-5C32-5,9.8,5.2,2.4,25.2
			c-1.2,3.4-2,6.8-2.3,10.2C0.6,33.4,1.1,31.4,1.9,29.4z"/>
		<path class="st3" d="M1.6,44.7c-0.2,1-0.3,2.1-0.4,3.1c0.2,0.6,0.3,1.3,0.5,1.9C1.5,48.1,1.5,46.4,1.6,44.7z"/>
	</g>
	<path class="st4" d="M72.5,20.1c0.6,6.2-0.1,12.7-2.4,18.9C62,61,37.7,72.2,15.8,64.1c-3.7-1.4-7-3.2-10.1-5.3
		c4.4,7.1,11.1,12.9,19.5,16c20,7.4,42.2-2.8,49.6-22.8C78.8,41.1,77.6,29.6,72.5,20.1z"/>
	<path class="st5" d="M75.6,27.7c0.5,5.9-0.3,11.9-2.5,17.8c-8,21.7-32.2,32.9-53.9,24.8c-2.2-0.8-4.3-1.8-6.3-3
		c3.5,3.1,7.7,5.7,12.3,7.4c20,7.4,42.2-2.8,49.6-22.8C77.8,43.9,77.9,35.4,75.6,27.7z"/>
	<g>
		<path class="st4" d="M36.1,58.1c-3.8,0-7.5,0-11,0.1c-1.6,0-3,1.5-4.5,1.6c-1.8,0-3.8-1.4-5.5-1.4c-3.5,0.1-6.6,0.2-9.5,0.4
			c0.7,1.1,1.4,2.2,2.2,3.2c5,0.2,11,0.4,17.5,0.5c1.7,0,3.5-1.3,5.3-1.3c1.8,0,3.6,1.4,5.4,1.4c13.4,0,25.4-0.3,33.4-0.8
			c0.6-0.9,1.2-1.7,1.8-2.6c-5-0.3-11.9-0.6-20.1-0.8c-2.3,0-4.8,1.2-7.3,1.2C41.4,59.4,38.8,58.1,36.1,58.1z"/>
		<path class="st4" d="M36.1,8.2c9.6,0,18.5-0.2,25.7-0.4C60,6.4,58,5.2,55.9,4.1C50,4,43.3,3.9,36.1,3.9c-5.1,0-10,0-14.6,0.1
			c-2.2,1.1-4.4,2.4-6.4,3.9C21.4,8.1,28.5,8.2,36.1,8.2z"/>
		<path class="st4" d="M0,37.4c0,0.8,0,1.6,0,2.4c7.8,0.6,21,1,36.1,1c3.6,0,7.2,0,10.6-0.1c2.8,0,6,1.8,8.6,1.7
			c1.7,0,2.8-1.9,4.4-2c8.1-0.3,14.3-0.7,17.5-1.1c0-0.5,0-0.9,0-1.4c-5.8-0.9-22-1.5-41-1.5C21.1,36.4,7.8,36.8,0,37.4z"/>
		<path class="st4" d="M36.1,47.3c-2.7,0-5.1-1.2-7.6-1.1c-2.8,0-5.7,1.2-8.3,1.3c-7.6,0.2-14.2,0.4-19,0.7C1.4,49,1.7,49.9,2,50.8
			c7.9,0.5,20.3,0.8,34.1,0.8c3.9,0,7.6-0.8,11.1-0.9c3.7,0,7.3,0.7,10.5,0.6c7.6-0.2,13.8-0.6,17.6-1c0.2-0.6,0.4-1.2,0.5-1.8
			C69.2,47.8,53.9,47.3,36.1,47.3z"/>
		<path class="st4" d="M36.1,25.6c-3.8,0-6.6,1-10.1,1c-3.8,0-8.3-0.8-11.6-0.7C9.6,26,5.4,26.2,2,26.4c-0.3,0.9-0.6,1.7-0.8,2.6
			c5,0.3,12,0.6,20.1,0.8c4.6,0.1,7.4,2,12.6,2c3,0,8.3-1.8,11.2-1.9c13.9-0.1,25.3-0.6,30.8-1.3c-0.2-0.6-0.3-1.2-0.5-1.8
			c-2.5-0.3-6.3-1.6-10.6-0.7c-4.2,0.9-8.2-0.3-13-0.4C46.9,25.6,41.6,25.6,36.1,25.6z"/>
		<path class="st4" d="M55.9,73.1c2.1-1,4.1-2.3,5.9-3.7C54.6,69.1,45.7,69,36.1,69c-7.6,0-14.8,0.1-21,0.3c2,1.5,4.1,2.8,6.3,3.9
			c4.6,0.1,9.5,0.1,14.6,0.1C43.2,73.3,50,73.2,55.9,73.1z"/>
		<path class="st4" d="M36.1,14.7c-10.8,0-20.7,0.2-28.3,0.5c-0.8,1-1.5,2.1-2.2,3.2c5.7,0.3,13.1,0.5,21.2,0.6
			c3,0,9.2,2.2,12.4,2.2c3.6,0,4-2.1,7.3-2.2c10.1-0.1,18.7-0.4,24.6-0.8c-0.6-0.9-1.2-1.8-1.8-2.6c-4.8-0.3-10.8,0.7-18,0.6
			c-2,0-4.3-1.3-6.5-1.3C42.2,14.7,39.2,14.7,36.1,14.7z"/>
	</g>
	<g>
		<path class="st6" d="M49,62.4c8.1-0.1,15.2-0.4,20.5-0.7c0.6-0.9,1.2-1.7,1.8-2.6c-4.1-0.3-9.5-0.5-15.7-0.7
			C53.5,59.9,51.3,61.2,49,62.4z"/>
		<path class="st6" d="M15.2,69.3c0.1,0.1,0.1,0.1,0.2,0.2c0.4,0.3,0.8,0.6,1.2,0.9c0.2,0.1,0.3,0.2,0.5,0.3c0.3,0.2,0.7,0.4,1,0.7
			c0.2,0.1,0.4,0.2,0.5,0.3c0.3,0.2,0.7,0.4,1,0.6c0.2,0.1,0.4,0.2,0.5,0.3c0.4,0.2,0.7,0.4,1.1,0.6c0.1,0.1,0.2,0.1,0.3,0.2
			c4.6,0.1,9.5,0.1,14.6,0.1c7.1,0,13.8-0.1,19.7-0.2c0,0,0,0,0,0c0.5-0.3,1-0.5,1.5-0.8c0,0,0,0,0,0c0.5-0.3,1-0.6,1.5-0.9
			c0,0,0,0,0,0c0.5-0.3,1-0.6,1.4-0.9c0,0,0,0,0,0c0.5-0.3,0.9-0.7,1.4-1C54.6,69.1,45.7,69,36.1,69C28.5,69,21.4,69.1,15.2,69.3z"
			/>
		<path class="st6" d="M65.6,47.9c-0.8,1.1-1.6,2.2-2.4,3.3c5.1-0.2,9.3-0.5,12.1-0.8c0,0,0-0.1,0-0.1c0.1-0.5,0.3-0.9,0.4-1.4
			c0-0.1,0.1-0.2,0.1-0.3C73.4,48.3,69.9,48.1,65.6,47.9z"/>
		<path class="st6" d="M77.2,39.3c0-0.5,0-0.9,0-1.4c-1.5-0.2-3.7-0.4-6.5-0.6c-0.2,0.6-0.4,1.2-0.6,1.8c-0.1,0.3-0.2,0.6-0.4,0.9
			C72.9,39.8,75.5,39.5,77.2,39.3z"/>
		<path class="st6" d="M11.2,62.1c-1.9-1-3.7-2.1-5.4-3.3c0,0,0,0,0,0c0,0,0,0,0,0c0.3,0.5,0.6,1,0.9,1.4c0.1,0.1,0.2,0.3,0.3,0.4
			c0.2,0.3,0.5,0.7,0.7,1c0.1,0.1,0.1,0.1,0.2,0.2C8.9,62,10,62,11.2,62.1z"/>
		<path class="st6" d="M75.8,28.6c0-0.2-0.1-0.3-0.1-0.5c-0.1-0.3-0.2-0.7-0.3-1c0-0.1-0.1-0.2-0.1-0.3c-0.8-0.1-1.7-0.2-2.7-0.2
			c0,0.8-0.1,1.6-0.2,2.4C73.7,28.8,74.9,28.7,75.8,28.6z"/>
	</g>
	<g>
		<path class="st7" d="M75.7,28.2c0-0.2-0.1-0.3-0.1-0.4c0,0.3,0,0.6,0,0.9c0.1,0,0.1,0,0.2,0C75.8,28.5,75.8,28.3,75.7,28.2z"/>
		<path class="st7" d="M61.9,62c2.8-0.1,5.3-0.2,7.6-0.4c0.6-0.9,1.2-1.7,1.8-2.6c-1.8-0.1-3.8-0.2-6.1-0.3
			C64.2,59.9,63.1,61,61.9,62z"/>
		<path class="st7" d="M19.2,70.3c-0.9-0.3-1.8-0.7-2.7-1.1c-0.5,0-0.9,0-1.4,0c0.1,0.1,0.2,0.2,0.3,0.2c0.2,0.1,0.3,0.2,0.5,0.3
			c0.3,0.2,0.6,0.5,1,0.7c0.2,0.1,0.4,0.3,0.6,0.4c0.3,0.2,0.6,0.4,0.9,0.6c0.3,0.2,0.5,0.3,0.8,0.5c0.3,0.2,0.5,0.3,0.8,0.5
			c0.3,0.2,0.6,0.3,1,0.5c0.2,0.1,0.4,0.2,0.6,0.3c4.6,0.1,9.5,0.1,14.6,0.1c7.1,0,13.8-0.1,19.7-0.2c0,0,0,0,0,0
			c0.5-0.3,1-0.5,1.5-0.8c0,0,0,0,0,0c0.5-0.3,1-0.6,1.5-0.9c0,0,0,0,0,0c0.5-0.3,1-0.6,1.4-0.9c0,0,0,0,0,0c0.5-0.3,0.9-0.7,1.4-1
			c-3.2-0.1-6.8-0.2-10.6-0.3C41.5,73.6,30,74.3,19.2,70.3z"/>
		<path class="st7" d="M75.9,48.6c-1.1-0.1-2.4-0.2-3.9-0.3c-0.4,0.9-0.8,1.7-1.2,2.5c1.8-0.1,3.3-0.2,4.6-0.4
			C75.5,49.8,75.7,49.2,75.9,48.6z"/>
		<path class="st7" d="M77.2,37.9c-0.6-0.1-1.2-0.2-2-0.2c-0.1,0.6-0.2,1.3-0.4,1.9c0.9-0.1,1.7-0.2,2.3-0.3c0,0,0-0.1,0-0.1
			C77.2,38.8,77.2,38.3,77.2,37.9z"/>
	</g>
	<g>
		<path class="st8" d="M5.2,29.3c0.5-1.1,1-2.1,1.6-3.1c-1.7,0.1-3.4,0.2-4.8,0.3c-0.1,0.4-0.3,0.8-0.4,1.2c0,0.1,0,0.1-0.1,0.2
			c-0.1,0.3-0.2,0.6-0.2,0.9c0,0.1-0.1,0.2-0.1,0.3C2.4,29.1,3.8,29.2,5.2,29.3z"/>
		<path class="st8" d="M2,39.9c0.1-0.9,0.3-1.8,0.5-2.7c-0.9,0.1-1.7,0.1-2.5,0.2c0,0.8,0,1.6,0,2.4c0,0,0,0,0,0
			C0.7,39.8,1.3,39.9,2,39.9z"/>
		<path class="st8" d="M16,15c-2.9,0.1-5.6,0.2-8.1,0.3c0,0,0,0,0,0c-0.8,1-1.5,2.1-2.2,3.2c2,0.1,4.1,0.2,6.5,0.3
			C13.4,17.4,14.6,16.1,16,15z"/>
		<path class="st8" d="M57.2,7.6c0.3,0.1,0.6,0.2,0.8,0.3c1.3,0,2.5-0.1,3.7-0.1c-0.2-0.2-0.4-0.3-0.6-0.5c-0.2-0.2-0.5-0.4-0.7-0.5
			c-0.5-0.4-1-0.7-1.6-1c-0.3-0.2-0.6-0.3-0.8-0.5c-0.3-0.2-0.7-0.4-1-0.6c-0.3-0.2-0.6-0.3-0.9-0.5c-0.1,0-0.2-0.1-0.2-0.1
			C49.9,4,43.2,3.9,36.1,3.9c-5.1,0-10,0-14.6,0.1c0,0,0,0,0,0c-0.6,0.3-1.1,0.6-1.7,0.9c0,0,0,0,0,0c-0.5,0.3-1.1,0.6-1.6,0.9
			c0,0,0,0,0,0c-0.5,0.3-1.1,0.7-1.6,1c0,0,0,0,0,0c-0.5,0.4-1,0.7-1.5,1.1c3.7,0.1,7.7,0.2,11.9,0.2C36.4,4.3,47.1,3.8,57.2,7.6z"
			/>
		<path class="st8" d="M1.6,48.1c-0.1,0-0.2,0-0.3,0c0.1,0.5,0.3,1,0.4,1.5C1.6,49.2,1.6,48.7,1.6,48.1z"/>
	</g>
	<g>
		<path class="st9" d="M2,29.1c0.4-0.9,0.7-1.8,1.2-2.7c-0.4,0-0.8,0-1.2,0.1c-0.2,0.7-0.5,1.5-0.7,2.2c0,0.1-0.1,0.2-0.1,0.4
			C1.5,29,1.7,29.1,2,29.1z"/>
		<path class="st9" d="M7.9,15.2C7.9,15.2,7.9,15.2,7.9,15.2c-0.8,1-1.5,2.1-2.2,3.2c0.7,0,1.4,0.1,2.1,0.1c0.9-1.2,1.9-2.3,2.9-3.4
			C9.7,15.2,8.8,15.2,7.9,15.2z"/>
		<path class="st9" d="M19.6,8c2.9-1.8,6.1-3.1,9.4-4.1c-2.6,0-5.1,0.1-7.5,0.1c0,0,0,0,0,0c-0.6,0.3-1.1,0.6-1.7,0.9c0,0,0,0,0,0
			c-0.5,0.3-1.1,0.6-1.6,0.9c0,0,0,0,0,0c-0.5,0.3-1.1,0.7-1.6,1c0,0,0,0,0,0c-0.5,0.4-1,0.7-1.5,1.1C16.6,8,18.1,8,19.6,8z"/>
		<path class="st9" d="M53.5,4c0.7,0.2,1.3,0.4,2,0.7c2,0.8,4,1.7,5.8,2.7c-1-0.7-2-1.4-3-2c-0.1-0.1-0.3-0.2-0.4-0.3
			c-0.2-0.1-0.5-0.3-0.7-0.4c-0.3-0.2-0.7-0.4-1-0.5c-0.1,0-0.2-0.1-0.2-0.1C55.1,4.1,54.3,4.1,53.5,4z"/>
	</g>
</g>
</svg>
