<?xml version="1.0" encoding="utf-8"?>
<!-- Generator: Adobe Illustrator 22.1.0, SVG Export Plug-In . SVG Version: 6.00 Build 0)  -->
<svg version="1.1" id="Layer_1" xmlns="http://www.w3.org/2000/svg" xmlns:xlink="http://www.w3.org/1999/xlink" x="0px" y="0px"
	 viewBox="0 0 51.3 51.3" style="enable-background:new 0 0 51.3 51.3;" xml:space="preserve">
<style type="text/css">
	.st0{fill:#B98C8F;}
	.st1{fill:#C7979A;}
	.st2{fill:#D6A3A6;}
	.st3{fill:#AE7F8D;}
	.st4{fill:#966E7A;}
	.st5{fill:#AF7D8F;}
	.st6{fill:#B08688;}
	.st7{fill:#C49598;}
	.st8{fill:#A87B89;}
</style>
<g>
	
		<ellipse transform="matrix(0.7071 -0.7071 0.7071 0.7071 -10.6206 25.6402)" class="st0" cx="25.6" cy="25.6" rx="25.6" ry="25.6"/>
	<path class="st1" d="M51.2,27.7c-2-0.7-4.4-0.6-6.5,0.2c-2.9,1.1-5.3,3.4-7.4,5.7c-0.8,0.9-2.2,0.9-2.9,0c-1.7-2-3.8-3.6-6.1-4.7
		c-1-0.5-2-0.9-3.1-0.8c-1.4,0.2-2.6,1.2-3.3,2.5c-0.7,1.3-0.9,2.7-1,4.1c-0.3,3.7,0.2,7.5,1.3,11.1c0.5,1.7,1.1,3.6,2,5.4
		c0.5,0,1,0,1.5,0C39.1,51.3,50.1,40.9,51.2,27.7z"/>
	<path class="st2" d="M50.3,32.8c-1.7-0.5-3.7-0.4-5.4,0.2c-2.5,1-4.5,2.9-6.4,4.9c-0.7,0.8-1.9,0.7-2.5,0c-1.5-1.7-3.3-3.1-5.3-4.1
		c-0.8-0.4-1.7-0.8-2.7-0.7c-1.2,0.1-2.2,1-2.8,2.1c-0.6,1.1-0.7,2.3-0.8,3.5c-0.2,3.2,0.2,6.5,1.1,9.6c0.3,0.9,0.6,1.8,0.9,2.8
		C37.7,50.9,47.2,43.3,50.3,32.8z"/>
	<path class="st3" d="M25.6,0C11.5,0,0,11.5,0,25.6c0,4.1,1,8.1,2.7,11.5c5-0.2,9.6-4.8,10.2-9.5c0.4-3-0.5-6.5,1.5-8.8
		c1.8-2,5-2,7.5-0.9c2.5,1.1,4.5,3,6.8,4.3c2.3,1.4,5.3,2.2,7.7,1c2.2-1.1,3.3-3.7,4.1-6.1c1.2-3.4,2.2-6.9,2.3-10.5
		C38.3,2.5,32.3,0,25.6,0z"/>
	<path class="st4" d="M25.6,0C11.5,0,0,11.5,0,25.6c0,4.1,1,8.1,2.7,11.5c5-0.2,9.6-4.8,10.2-9.5c0.4-3-0.5-6.5,1.5-8.8
		c1.8-2,5-2,7.5-0.9c2.5,1.1,4.5,3,6.8,4.3c2.3,1.4,5.3,2.2,7.7,1c2.2-1.1,3.3-3.7,4.1-6.1c1.2-3.4,2.2-6.9,2.3-10.5
		C38.3,2.5,32.3,0,25.6,0z"/>
	<path class="st4" d="M25.6,0C11.5,0,0,11.5,0,25.6c0,4.1,1,8.1,2.7,11.5c5-0.2,9.6-4.8,10.2-9.5c0.4-3-0.5-6.5,1.5-8.8
		c1.8-2,5-2,7.5-0.9c2.5,1.1,4.5,3,6.8,4.3c2.3,1.4,5.3,2.2,7.7,1c2.2-1.1,3.3-3.7,4.1-6.1c1.2-3.4,2.2-6.9,2.3-10.5
		C38.3,2.5,32.3,0,25.6,0z"/>
	<path class="st4" d="M44,24.6c1.2,0.2,2.3-0.7,3-1.6c1.7-2.3,0.2-6-2.9-4.6C41.5,19.5,40.5,23.9,44,24.6z"/>
	<path class="st4" d="M13.4,41.6c0.2-0.2,0.3-0.5,0.4-0.9c0.4-1.4,0.8-2.9,0.3-4.3c0-0.1-0.1-0.2-0.2-0.3c-0.2-0.2-0.6-0.2-0.8-0.1
		c-1.4,0.5-2.6,2.6-2.7,4C10.2,41.5,12.3,42.7,13.4,41.6z"/>
	<path class="st4" d="M17.5,25.1c2.7,0.6,4.4-3.5,1.3-4.2C16.1,20.3,14.8,24.5,17.5,25.1z"/>
	<path class="st0" d="M33.9,20.7c1.3-0.1,2.5-0.8,3.2-1.9c0.2-0.3,0.3-0.7,0.2-1c-0.1-0.3-0.3-0.5-0.5-0.7c-1.8-1.7-5.3-2.2-7.1-0.2
		C27.5,19.4,32.1,20.9,33.9,20.7z"/>
	<path class="st5" d="M44.4,8.1c3.5,4.4,5.6,9.9,5.6,16c0,14.2-11.5,25.6-25.6,25.6c-7.4,0-14-3.1-18.7-8.1
		c4.7,5.9,11.9,9.7,20.1,9.7c14.2,0,25.6-11.5,25.6-25.6C51.3,18.9,48.6,12.7,44.4,8.1z"/>
	<path class="st6" d="M51.2,27.7c-0.5-0.2-1-0.3-1.5-0.3C48.1,40,37.3,49.7,24.3,49.7c-0.3,0-0.5,0-0.8,0c0.2,0.5,0.4,1,0.7,1.5
		c0.5,0,1,0,1.5,0C39.1,51.3,50.1,40.9,51.2,27.7z"/>
	<path class="st7" d="M48.5,32.5c-3.3,9.6-12.2,16.6-22.7,17.2c0.2,0.5,0.4,1.1,0.6,1.6c11.4-0.3,20.9-8,23.9-18.5
		C49.7,32.6,49.1,32.5,48.5,32.5z"/>
	<path class="st0" d="M28.7,15.5c0,0.5-0.4,0.9-0.9,0.9s-0.9-0.4-0.9-0.9c0-0.5,0.4-0.9,0.9-0.9S28.7,15,28.7,15.5z"/>
	<path class="st8" d="M36.7,2.5C33.4,0.9,29.6,0,25.6,0C11.5,0,0,11.5,0,25.6c0,2.6,0.4,5.1,1.1,7.5C1.4,23.7,5-2.5,36.7,2.5z"/>
	<path class="st1" d="M31,37.1l-0.3-0.2c-0.3-0.3-0.7-0.5-1.2-0.4c-0.4,0.1-0.8,0.4-0.9,0.8c-0.2,0.6,0.1,1.2,0.5,1.7
		c0.2,0.2,0.3,0.4,0.5,0.5c0.6,0.3,1.5,0.1,1.8-0.5C31.8,38.3,31.6,37.5,31,37.1z"/>
	<path class="st1" d="M41.9,37.2L41.7,37c-0.5,0.2-0.9,0.5-1.1,1c-0.1,0.5,0.2,1.1,0.7,1.2c0.3,0,0.5-0.1,0.8-0.2
		c0.4-0.2,0.7-0.6,0.7-1C42.8,37.6,42.4,37.1,41.9,37.2z"/>
	<path class="st2" d="M37,30.1c-0.7-0.3-1.5-0.5-2-0.1l-0.4,0.2c-0.2,0.8,0.5,1.6,1.3,1.6C36.7,31.7,37.3,30.8,37,30.1z"/>
	<path class="st4" d="M16,28.6c0,0.5-0.4,0.8-0.8,0.8c-0.5,0-0.8-0.4-0.8-0.8c0-0.5,0.4-0.8,0.8-0.8C15.6,27.8,16,28.1,16,28.6z"/>
	<path class="st0" d="M8.6,29.3c-0.5,1.1-1.5,1.6-2.3,1.3c-0.8-0.3-1.1-1.5-0.6-2.5C6.2,27,7.2,26.4,8,26.8
		C8.8,27.1,9,28.3,8.6,29.3z"/>
</g>
</svg>
