<svg version="1.1"
	 xmlns="http://www.w3.org/2000/svg" xmlns:xlink="http://www.w3.org/1999/xlink" xmlns:a="http://ns.adobe.com/AdobeSVGViewerExtensions/3.0/"
	 x="0px" y="0px" width="116.7px" height="82.4px" viewBox="0 0 116.7 82.4" style="enable-background:new 0 0 116.7 82.4;"
	 xml:space="preserve">
<style type="text/css">
	.st0{fill:#FFE57E;}
	.st1{fill:#FFD370;}
	.st2{fill:#FFEFCF;}
	.st3{fill:#FFC27E;}
	.st4{fill:#FFF5AF;}
	.st5{fill:#FFAD7E;}
	.st6{fill:#FFFFF0;}
	.st7{fill:#FFDFA6;}
	.st8{fill:#FFFFE9;}
	.st9{fill:#FFDFD2;}
</style>
<defs>
</defs>
<g id="saturn-planet">
	
		<ellipse transform="matrix(1.941296e-02 -0.9998 0.9998 1.941296e-02 13.9467 96.6337)" class="st0" cx="56.2" cy="41.2" rx="41.2" ry="41.2"/>
	<path class="st1" d="M97.2,37.1c-0.3,3.8-1.1,7.6-2.4,11.3c-7.9,21.3-31.6,32.3-52.9,24.4c-15.3-5.6-25.2-19.4-26.7-34.6
		C13.8,56.1,24.3,73.3,42,79.9c21.3,7.9,45-3,52.9-24.4C97.1,49.4,97.8,43.2,97.2,37.1z"/>
	<g>
		<path class="st2" d="M77.2,71.6c-1.5-0.6-3.3-0.5-5-1.2c-1.5-0.6-3.1-1.1-4.7-1.7c-1.5-0.6-2.8-2.1-4.4-2.7
			c-1.5-0.6-3.1-1.1-4.8-1.7c-1.5-0.6-2.9-1.7-4.6-2.3c-1.6-0.6-3.6,0-5.2-0.6c-1.6-0.6-2.8-2.2-4.4-2.8c-1.6-0.6-3.5-0.4-5-1
			c-1.6-0.6-3-1.8-4.5-2.3c-1.6-0.6-3.6-0.2-5.1-0.7c-1.6-0.6-3-1.9-4.5-2.4c-1.7-0.6-3.4-0.8-4.9-1.3c-1.5-0.5-3-1-4.3-1.5
			c0.1,0.6,0.3,1.2,0.4,1.8c1.2,0.6,2.4,1.6,3.8,2.1c1.5,0.6,3,1.1,4.6,1.7c1.5,0.6,3.3,0.5,4.9,1.1c1.5,0.6,2.6,2.2,4.2,2.8
			c1.5,0.6,3.1,0.9,4.7,1.5C40,61,41.4,62,43,62.6c1.5,0.6,3.5,0.1,5,0.6c1.6,0.6,3,1.3,4.6,1.9c1.6,0.6,2.7,2.2,4.2,2.8
			c1.6,0.6,3.6-0.2,5.1,0.3c1.6,0.6,2.8,2.2,4.3,2.7c1.6,0.6,3.3,0.7,4.8,1.2c1.6,0.6,3.1,1.4,4.6,1.9c1.4,0.5,2.8,0.8,4.1,1.1
			c0.7-0.5,1.4-1,2.1-1.5C80.4,72.9,78.9,72.2,77.2,71.6z"/>
		<path class="st2" d="M43.8,3.9c1.5,0.6,2.8,1.8,4.3,2.4c1.5,0.6,3,1.1,4.6,1.7c1.5,0.6,3.2,0.8,4.7,1.3c1.5,0.6,3.1,0.9,4.7,1.5
			c1.5,0.6,2.8,1.7,4.4,2.3c1.6,0.6,2.9,1.7,4.4,2.3c1.6,0.6,3.4,0.4,4.9,1c1.6,0.6,3,1.4,4.5,1.9c1.6,0.6,3.3,0.7,4.8,1.2
			c1.6,0.6,3,1.5,4.5,2c1.2,0.4,2.4,0.8,3.6,1.2c-0.7-1.5-1.6-3-2.5-4.4c-0.4-0.2-0.8-0.5-1.3-0.7c-1.4-0.5-2.7-1.3-4.2-1.8
			c-1.4-0.5-2.9-1-4.3-1.6c-1.4-0.5-3.1-0.5-4.5-1c-1.4-0.5-2.9-1-4.3-1.6c-1.4-0.5-2.9-1-4.3-1.5c-1.5-0.5-3-0.6-4.5-1.2
			c-1.5-0.5-2.7-1.7-4.1-2.2c-1.5-0.5-3-0.8-4.4-1.3C53,5.2,51.8,4,50.4,3.5C49,2.9,47.3,3,45.9,2.5c-0.6-0.2-1.2-0.5-1.7-0.7
			C43,2.2,41.9,2.6,40.8,3C41.8,3.3,42.8,3.5,43.8,3.9z"/>
		<path class="st3" d="M68.7,77.8c-1.5-0.6-3.2-0.5-4.8-1.1c-1.5-0.6-2.7-2-4.2-2.6c-1.5-0.6-3.3-0.5-4.8-1.1
			c-1.5-0.6-2.8-1.7-4.4-2.2c-1.5-0.6-3.2-0.6-4.8-1.2c-1.6-0.6-3-1.4-4.5-1.9c-1.6-0.6-2.9-1.8-4.4-2.4c-1.6-0.6-3.4-0.4-4.9-0.9
			c-1.6-0.6-2.9-1.9-4.4-2.4c-1.6-0.6-3.2-0.9-4.7-1.4c-1.1-0.4-2.3-0.5-3.4-0.8c0.6,1.2,1.2,2.3,1.9,3.4c0.6,0.3,1.2,0.6,1.8,0.8
			c1.4,0.5,2.7,1.3,4.2,1.9c1.4,0.5,2.6,1.6,4.1,2.1c1.4,0.5,3.1,0.5,4.5,1c1.4,0.5,3,0.6,4.5,1.1c1.4,0.5,2.8,1.2,4.2,1.8
			c1.5,0.5,2.7,1.7,4.1,2.2c1.5,0.5,2.8,1.4,4.2,1.9c1.5,0.5,3.3,0,4.7,0.5c1.5,0.5,2.7,1.6,4.1,2.1c1.5,0.5,2.9,1,4.3,1.5
			c0.6,0.2,1.2,0.4,1.8,0.6c1.2-0.4,2.4-0.8,3.6-1.3C70.7,78.9,69.8,78.3,68.7,77.8z"/>
		<path class="st3" d="M69.6,4.6c1.5,0.6,3.1,0.9,4.6,1.5c1.5,0.6,2.9,1.4,4.4,1.9c1.1,0.4,2.2,0.6,3.3,1c-3.3-2.6-7.1-4.8-11.4-6.4
			C66.1,0.9,61.6,0.1,57.2,0c1.1,0.6,2.1,1.3,3.3,1.7c1.5,0.6,3.2,0.6,4.7,1.2C66.6,3.4,68.1,4,69.6,4.6z"/>
		<path class="st3" d="M42.8,77.3c-1.5-0.6-3.2-0.6-4.7-1.2c-1.5-0.6-3.1-0.8-4.6-1.3c-1-0.4-1.9-0.9-2.8-1.3
			c3.3,2.6,7.1,4.8,11.3,6.3c4.2,1.5,8.4,2.4,12.6,2.5c-1-0.5-2-1-3-1.4c-1.5-0.6-3.1-0.8-4.6-1.4C45.6,79,44.3,77.9,42.8,77.3z"/>
		<path class="st2" d="M93.1,39.1c-1.4-0.6-2.9-1.2-4.5-1.8c-1.4-0.6-2.8-1.5-4.4-2.1c-1.5-0.6-2.9-1.4-4.4-2
			c-1.5-0.6-3.3-0.3-4.9-0.9c-1.5-0.6-3.2-0.5-4.8-1.1c-1.5-0.6-2.7-1.9-4.3-2.5c-1.5-0.6-3.2-0.6-4.7-1.2c-1.5-0.6-2.6-2.5-4.1-3
			c-1.5-0.6-3.3-0.4-4.8-1c-1.6-0.6-3-1.4-4.5-1.9c-1.6-0.6-3.1-1.2-4.6-1.7c-1.6-0.6-3.1-1.1-4.6-1.6c-1.6-0.6-3.3-0.5-4.8-1
			c-1.6-0.6-2.9-1.8-4.4-2.2c-1.6-0.5-3.2-0.3-4.6-0.7c-0.3,0.3-0.5,0.7-0.8,1c1.3,0.6,2.4,2.1,4,2.7c1.4,0.6,2.9,1.4,4.5,2
			c1.4,0.6,3.3,0.3,4.9,0.9c1.5,0.6,2.8,1.7,4.4,2.3c1.5,0.6,3.1,1,4.6,1.6c1.5,0.6,2.9,1.5,4.4,2.1c1.5,0.6,3.3,0.3,4.9,0.9
			c1.5,0.6,2.8,1.9,4.3,2.4c1.6,0.6,3.2,0.7,4.8,1.2c1.6,0.6,3.1,1,4.6,1.5c1.6,0.6,2.9,1.8,4.4,2.3c1.6,0.6,3.2,0.9,4.7,1.5
			c1.6,0.6,3.2,1,4.7,1.5c1.6,0.6,3,1.7,4.4,2.2c1.6,0.6,3.6-0.2,5.1,0.3c1.7,0.6,3.3,0.9,4.7,1.3c0-0.3,0-0.5,0-0.8c0,0,0,0,0,0
			C96.1,40.8,94.7,39.8,93.1,39.1z"/>
		<path class="st3" d="M88.7,66c-1.3-0.6-2.9-1.2-4.5-1.9c-1.4-0.6-3.3-0.3-4.9-1c-1.4-0.6-2.8-1.7-4.3-2.3
			c-1.5-0.6-3.4-0.2-4.9-0.8c-1.5-0.6-2.5-2.6-4-3.2c-1.5-0.6-3-1.1-4.6-1.7c-1.5-0.6-3.3-0.5-4.8-1.1c-1.5-0.6-3-1.1-4.6-1.7
			c-1.6-0.6-3-1.4-4.5-1.9c-1.6-0.6-3.2-0.8-4.7-1.3c-1.6-0.6-2.9-1.6-4.4-2.1c-1.6-0.6-3.1-1.2-4.6-1.7c-1.6-0.6-3.5,0-5-0.5
			c-1.6-0.6-2.8-2.1-4.3-2.6c-1.6-0.6-3.2-1-4.7-1.5c-1.7-0.5-3.3-0.6-4.7-1c0,0.7,0,1.3,0,2c1.3,0.4,2.8,0.6,4.2,1.2
			c1.4,0.6,3,1,4.6,1.7c1.4,0.6,3.1,0.9,4.6,1.5c1.5,0.6,2.8,1.7,4.3,2.3c1.5,0.6,2.7,1.9,4.2,2.5c1.5,0.6,3.3,0.4,4.8,1
			c1.5,0.6,3.3,0.4,4.8,1c1.5,0.6,3,1.1,4.5,1.7c1.5,0.6,2.9,1.5,4.4,2.1c1.5,0.6,2.8,1.9,4.3,2.4c1.6,0.6,3.4,0.3,4.9,0.8
			c1.6,0.6,3,1.3,4.5,1.9c1.6,0.6,3.3,0.5,4.8,1c1.6,0.6,2.9,1.7,4.4,2.2c1.6,0.6,3,1.7,4.4,2.2c1.6,0.5,3.1,0.9,4.4,1.3
			c0.6-0.7,1.2-1.5,1.8-2.2C88.9,66.1,88.8,66,88.7,66z"/>
		<path class="st2" d="M88.3,56.7c-1.4-0.6-3.1-1-4.8-1.7c-1.5-0.6-2.9-1.7-4.5-2.4c-1.5-0.6-3.3-0.7-4.9-1.3
			c-1.5-0.6-2.9-1.7-4.6-2.3c-1.5-0.6-3-1.6-4.6-2.3c-1.6-0.6-3.6,0.1-5.2-0.5c-1.6-0.6-2.8-2.1-4.4-2.7c-1.6-0.6-3.1-1.5-4.7-2.1
			c-1.6-0.6-3.3-0.9-4.9-1.5c-1.6-0.6-3.6,0-5.2-0.6c-1.6-0.6-2.8-2.3-4.4-2.8c-1.7-0.6-3.3-1-4.8-1.6c-1.7-0.6-3.6-0.3-5.1-0.8
			c-1.7-0.6-3.4-1-4.8-1.5c-1.8-0.6-3.1-2.3-4.5-2.7c-0.1,0-0.2,0-0.3-0.1c-0.2,0.5-0.3,1.1-0.4,1.6c0.1,0,0.2,0.1,0.2,0.1
			c1.4,0.6,3,1.1,4.7,1.9c1.4,0.6,3,1.3,4.7,2c1.5,0.6,2.6,2.4,4.2,3.1c1.5,0.6,3.6-0.2,5.3,0.5c1.5,0.6,2.6,2.5,4.2,3.1
			c1.5,0.6,3.1,1.3,4.7,2c1.6,0.6,3.2,1,4.8,1.6c1.6,0.6,3.2,1.1,4.8,1.7c1.6,0.6,3.3,1,4.8,1.6c1.6,0.6,3.4,0.7,4.9,1.2
			c1.6,0.6,3.1,1.4,4.7,2c1.6,0.6,3.3,1,4.8,1.5c1.7,0.6,3,1.9,4.5,2.4c1.7,0.6,3.7-0.2,5.3,0.3c1.7,0.6,3.2,1.5,4.7,2
			c1.8,0.6,3.3,1.5,4.7,1.9c0.1,0,0.2,0.1,0.4,0.1c0.3-0.6,0.6-1.1,0.9-1.7c-0.2-0.1-0.3-0.2-0.5-0.2C91.7,57.9,90,57.4,88.3,56.7z"
			/>
		<path class="st3" d="M23.9,25.7c1.4,0.6,2.8,1.7,4.5,2.4c1.5,0.6,3.3,0.7,4.9,1.4c1.5,0.6,2.9,1.7,4.5,2.4c1.5,0.6,3.4,0.6,5,1.2
			c1.5,0.6,3.2,1,4.8,1.6c1.6,0.6,2.8,2,4.5,2.6c1.6,0.6,3.3,0.8,4.9,1.4c1.6,0.6,3,1.8,4.6,2.3c1.6,0.6,3.5,0.3,5.1,0.9
			c1.6,0.6,3.4,0.8,4.9,1.3c1.6,0.6,3.1,1.5,4.6,2.1c1.7,0.6,3.3,0.9,4.9,1.5c1.7,0.6,3.2,1.3,4.8,1.8c1.7,0.6,3.3,1.1,4.8,1.5
			c1.8,0.6,3.5,0.8,4.9,1.2c0.2,0,0.3,0.1,0.5,0.2c0.1-0.4,0.2-0.7,0.3-1.1c-0.1,0-0.2-0.1-0.4-0.1c-1.4-0.6-3.2-0.5-5-1.3
			c-1.4-0.6-3.1-1.1-4.8-1.7c-1.5-0.6-3-1.5-4.6-2.1c-1.5-0.6-3-1.4-4.7-2c-1.5-0.6-2.8-2.1-4.4-2.7c-1.5-0.6-3.3-0.7-4.9-1.3
			c-1.6-0.6-3.5-0.3-5.1-0.9c-1.6-0.6-2.9-1.9-4.5-2.5c-1.6-0.6-3.3-1-4.8-1.6c-1.6-0.6-3.2-1.1-4.8-1.7c-1.6-0.6-2.9-2-4.5-2.6
			c-1.6-0.6-3.2-1.2-4.8-1.7c-1.7-0.6-3.5-0.6-5-1.1c-1.7-0.6-3.5-0.5-5-1c-1.7-0.6-3.2-1.6-4.6-2.1c-1.8-0.6-3.5-0.7-4.9-1.2
			c-0.1,0-0.2-0.1-0.2-0.1c-0.1,0.3-0.3,0.5-0.4,0.8c0.1,0,0.2,0.1,0.2,0.1C20.7,24,22.2,25,23.9,25.7z"/>
		<path class="st3" d="M30.1,9.4c1.4,0.6,3.2,0.7,4.9,1.4c1.5,0.6,3.2,0.7,4.9,1.4c1.5,0.6,2.8,2,4.4,2.6c1.5,0.6,3,1.5,4.6,2.1
			c1.5,0.6,3.2,0.9,4.8,1.5c1.5,0.6,3.5,0.2,5.1,0.8c1.6,0.6,2.9,1.8,4.5,2.4c1.6,0.6,3.4,0.5,5,1.1c1.6,0.6,3.2,1.2,4.7,1.7
			c1.6,0.6,3.1,1.6,4.6,2.1c1.6,0.6,3.3,0.8,4.9,1.4c1.6,0.6,3.1,1.5,4.6,2c1.7,0.6,3.1,1.5,4.6,2c1.7,0.6,3.2,1.6,4.6,2.1
			c0.1,0,0.2,0.1,0.3,0.1c-0.2-0.9-0.3-1.8-0.5-2.6c-1.4-0.6-2.8-1.3-4.3-1.9c-1.5-0.6-2.9-1.4-4.5-2c-1.5-0.6-2.8-1.6-4.4-2.2
			c-1.5-0.6-3.2-0.7-4.8-1.3c-1.5-0.6-3.1-0.9-4.7-1.5c-1.5-0.6-2.6-2.4-4.2-3c-1.5-0.6-3.6,0.3-5.2-0.2c-1.6-0.6-2.6-2.4-4.2-3
			c-1.6-0.6-3.1-1.1-4.6-1.7c-1.6-0.6-3.3-0.5-4.9-1.1c-1.6-0.6-3.1-1.2-4.6-1.8c-1.6-0.6-3.2-1-4.7-1.5c-1.6-0.6-3-1.6-4.5-2.1
			c-1.4-0.5-2.8-0.5-4.1-0.7C31.7,8.1,30.9,8.7,30.1,9.4C30.1,9.4,30.1,9.4,30.1,9.4z"/>
	</g>
	<path class="st4" d="M69.8,8C84.5,13.5,94.5,26,97.4,40.3C97.1,23.9,86.8,8.6,70.5,2.6C50-5,27.3,4.8,18.6,24.6
		C29.5,8.3,50.6,0.9,69.8,8z"/>
	<g>
		<path class="st5" d="M23.2,64c1.4,0.5,2.7,1.3,4.2,1.9c1.4,0.5,2.6,1.6,4.1,2.1c0.6,0.2,1.2,0.3,1.8,0.4c-3.1-2-5.8-4.5-8.2-7.2
			c-0.8-0.2-1.5-0.4-2.3-0.7c-1.1-0.4-2.3-0.5-3.4-0.8c0.6,1.2,1.2,2.3,1.9,3.4C22,63.4,22.6,63.7,23.2,64z"/>
		<path class="st6" d="M96.8,41c-0.1,0.3-0.1,0.6-0.2,0.9c0.3,0.1,0.6,0.2,0.8,0.2c0-0.3,0-0.5,0-0.8c0,0,0,0,0,0
			C97.2,41.2,97,41.1,96.8,41z"/>
		<path class="st5" d="M19.6,53.2c-0.5-1-1-2-1.4-3c-0.8-0.3-1.6-0.5-2.3-0.8c0.1,0.6,0.3,1.2,0.4,1.8
			C17.4,51.8,18.4,52.6,19.6,53.2z"/>
		<path class="st5" d="M96.1,51.4c0.1-0.4,0.2-0.7,0.3-1.1c-0.1,0-0.2-0.1-0.4-0.1c-0.5-0.2-1.1-0.4-1.7-0.5
			c-0.2,0.4-0.3,0.7-0.5,1.1c0.7,0.1,1.3,0.3,1.8,0.4C95.8,51.3,96,51.3,96.1,51.4z"/>
		<path class="st5" d="M15.4,39.8c-0.1,0-0.2,0-0.3-0.1c0,0.7,0,1.3,0,2c0.2,0.1,0.4,0.1,0.7,0.2C15.6,41.2,15.4,40.5,15.4,39.8z"/>
		<path class="st5" d="M68.7,77.8c-1.5-0.6-3.2-0.5-4.8-1.1c-0.9-0.4-1.7-1.1-2.6-1.7c-3.5,0.4-7,0.4-10.6,0c0.8,0.4,1.5,0.8,2.3,1
			c1.5,0.5,3.3,0,4.7,0.5c1.5,0.5,2.7,1.6,4.1,2.1c1.5,0.5,2.9,1,4.3,1.5c0.6,0.2,1.2,0.4,1.8,0.6c1.2-0.4,2.4-0.8,3.6-1.3
			C70.7,78.9,69.8,78.3,68.7,77.8z"/>
		<path class="st5" d="M90.2,57.4c-0.4,0.5-0.7,1-1.1,1.6c1.2,0.5,2.2,1,3.3,1.3c0.1,0,0.2,0.1,0.4,0.1c0.3-0.6,0.6-1.1,0.9-1.7
			c-0.2-0.1-0.3-0.2-0.5-0.2C92.2,58.1,91.2,57.8,90.2,57.4z"/>
		<path class="st5" d="M54.6,82.4c-1-0.5-2-1-3-1.4c-1.5-0.6-3.1-0.8-4.6-1.4c-1.5-0.5-2.8-1.7-4.3-2.2c-1.5-0.6-3.2-0.6-4.7-1.2
			c-1.5-0.6-3.1-0.8-4.6-1.3c-1-0.4-1.9-0.9-2.8-1.3c3.3,2.6,7.1,4.8,11.3,6.3C46.1,81.4,50.4,82.2,54.6,82.4z"/>
		<path class="st5" d="M88.7,66c-1.3-0.6-2.8-1.2-4.3-1.8c-0.9,0.8-1.8,1.6-2.8,2.4c0.4,0.2,0.8,0.4,1.2,0.5
			c1.6,0.5,3.1,0.9,4.4,1.3c0.6-0.7,1.2-1.5,1.8-2.2C88.9,66.1,88.8,66,88.7,66z"/>
		<path class="st5" d="M77.2,71.6c-0.8-0.3-1.7-0.5-2.6-0.6c-1,0.5-1.9,0.9-2.9,1.3c1.4,0.5,2.6,1.2,3.9,1.6
			c1.4,0.5,2.8,0.8,4.1,1.1c0.7-0.5,1.4-1,2.1-1.5C80.4,72.9,78.9,72.2,77.2,71.6z"/>
	</g>
	<g>
		<path class="st6" d="M89.3,17.8c-1.4-0.5-2.7-1.3-4.2-1.8c-1-0.4-2.1-0.8-3.2-1.2c2.3,1.9,4.5,3.9,6.3,6.2
			c0.4,0.2,0.9,0.4,1.4,0.6c1.2,0.4,2.4,0.8,3.6,1.2c-0.8-1.5-1.6-3-2.5-4.4C90.1,18.2,89.7,17.9,89.3,17.8z"/>
		<path class="st7" d="M94.2,30.5c0.5,1,0.9,2,1.3,3.1c0.3,0.2,0.7,0.3,1,0.4c0.1,0,0.2,0.1,0.3,0.1c-0.2-0.9-0.3-1.8-0.6-2.6
			C95.6,31.2,94.9,30.8,94.2,30.5z"/>
		<path class="st6" d="M25.6,16.4c0.7-0.6,1.4-1.2,2.1-1.7c-1-0.1-1.9-0.1-2.8-0.3c-0.3,0.3-0.5,0.7-0.8,1
			C24.7,15.6,25.1,16,25.6,16.4z"/>
		<path class="st6" d="M43.8,3.9C45,4.3,46.2,5.3,47.5,6c2.1-0.4,4.2-0.6,6.3-0.6c-1.2-0.6-2.2-1.5-3.3-1.9C49,2.9,47.3,3,45.9,2.5
			c-0.6-0.2-1.2-0.5-1.7-0.7C43,2.2,41.9,2.6,40.8,3C41.8,3.3,42.8,3.5,43.8,3.9z"/>
		<path class="st7" d="M19.9,22.7c-0.1,0-0.1,0-0.2,0c-0.1,0-0.2-0.1-0.2-0.1c-0.1,0.3-0.2,0.5-0.4,0.8c0.1,0,0.1,0.1,0.2,0.1
			C19.5,23.2,19.7,22.9,19.9,22.7z"/>
		<path class="st7" d="M30.1,9.4c1.2,0.5,2.7,0.7,4.1,1.1c1.2-0.7,2.5-1.2,3.7-1.8c-0.4-0.2-0.8-0.4-1.2-0.5
			c-1.4-0.5-2.8-0.5-4.1-0.7C31.7,8.1,30.9,8.7,30.1,9.4C30.1,9.4,30.1,9.4,30.1,9.4z"/>
		<path class="st7" d="M57.2,0c1.1,0.6,2.1,1.3,3.3,1.7c1.5,0.6,3.2,0.6,4.7,1.2c1.5,0.5,3,1.1,4.5,1.7c1.5,0.6,3.1,0.9,4.6,1.5
			c1.5,0.6,2.9,1.4,4.4,1.9c1.1,0.4,2.2,0.6,3.3,1c-3.3-2.7-7.1-4.8-11.4-6.4C66.1,0.9,61.6,0.1,57.2,0z"/>
	</g>
</g>
<g id="ring">
	<path class="st8" d="M116.4,14.6c-1.6-3.4-8.8-3.9-19.4-1.9c2.3,0.5,4,1.5,4.6,3c3.1,6.9-15.2,22-40.9,33.6S11.7,64.9,8.5,58
		c-0.5-1.2-0.4-2.5,0.2-4.1c-6.5,5.7-9.8,10.5-8.4,13.5c3.3,7.3,32,1.3,64-13.2C96.4,39.6,119.7,21.9,116.4,14.6z"/>
	<path class="st9" d="M97,12.7c2.3,0.5,4,1.5,4.6,3c3.1,6.9-15.2,22-40.9,33.6S11.7,64.9,8.5,58c-0.5-1.2-0.4-2.5,0.2-4.1
		c-3.8,3.3-6.5,6.4-7.8,8.9c7.3,4.5,32.8,1.1,60.3-11.4c29-13.2,49.8-31.8,49.3-39.7C107.1,11.3,102.5,11.7,97,12.7z"/>
</g>
</svg>
