<?xml version="1.0" encoding="utf-8"?>
<!-- Generator: Adobe Illustrator 22.1.0, SVG Export Plug-In . SVG Version: 6.00 Build 0)  -->
<svg version="1.1" id="Layer_1" xmlns="http://www.w3.org/2000/svg" xmlns:xlink="http://www.w3.org/1999/xlink" x="0px" y="0px"
	 viewBox="0 0 95.2 95.2" style="enable-background:new 0 0 95.2 95.2;" xml:space="preserve">
<style type="text/css">
	.st0{fill:#33F5E0;}
	.st1{fill:#15DEE0;}
	.st2{fill:#15C3E0;}
	.st3{fill:#98F5E0;}
	.st4{fill:#C9F5E0;}
</style>
<g>
	<circle class="st0" cx="43.5" cy="47.9" r="33.1"/>
	<path class="st1" d="M67.5,25.1c1.6,3.8,2.4,8,2.4,12.4c0,18.3-14.8,33.1-33.1,33.1c-9.4,0-17.9-4-23.9-10.3
		c4.9,12.1,16.8,20.6,30.6,20.6c18.3,0,33.1-14.8,33.1-33.1C76.6,39.1,73.1,31,67.5,25.1z"/>
	<path class="st2" d="M72.1,31.3c1.3,3.6,2,7.4,2,11.5c0,18.3-14.8,33.1-33.1,33.1c-11.5,0-21.7-5.9-27.6-14.9
		c-0.2-0.2-0.4-0.4-0.6-0.6c4.9,12.1,16.8,20.6,30.6,20.6c18.3,0,33.1-14.8,33.1-33.1C76.6,41.8,75,36.2,72.1,31.3z"/>
	
		<ellipse transform="matrix(0.8987 -0.4385 0.4385 0.8987 -10.2447 18.2286)" class="st3" cx="34.3" cy="31.3" rx="16.7" ry="10.5"/>
	<path class="st4" d="M40,24.6c1.2,2.5-1,6.1-5,8.1c-4,1.9-8.2,1.5-9.4-1c-1.2-2.5,1-6.1,5-8.1C34.5,21.6,38.7,22.1,40,24.6z"/>
	<path class="st4" d="M95.2,56.5c0.4-1.7-5.9-5.4-10.9-7.8c0.9,0.9,5.8,4.4,5.5,6.4c-0.6,4-20.2,1.1-42.2-3.4S7,41.4,7.8,37.4
		c0.2-1,3.6-3.6,5.8-4c-7.5,0-13.1,1.6-13.6,3.7C-0.9,41.7,19.7,49.7,45.9,55S94.3,61,95.2,56.5z"/>
</g>
</svg>
