<svg xmlns="http://www.w3.org/2000/svg" viewBox="0 0 69.7 69.7">
  <style>
    .st0{fill:#ffbb5b}.st1{fill:#ffa55b}.st3{fill:#ffd563}.st4{fill:#ffed88}.st5{fill:#ffac5b}.st7{fill:#ff9052}.st8{fill:#ffc073}.st9{fill:#ffdb91}.st10{fill:#f6814b}
  </style>
  <circle transform="rotate(-22.927 34.84 34.838)" class="st0" cx="34.8" cy="34.8" r="34.8"/>
  <path class="st1" d="M60.5 11.3c1.3 3.7 2.1 7.7 2.1 11.9C62.6 42.4 47 58 27.8 58 17.6 58 8.5 53.6 2.1 46.7 7 60.1 19.8 69.6 34.9 69.6c19.2 0 34.8-15.6 34.8-34.8 0-9-3.5-17.3-9.2-23.5z"/>
  <path class="st1" d="M60.5 11.3c1.3 3.7 2.1 7.7 2.1 11.9C62.6 42.4 47 58 27.8 58 17.6 58 8.5 53.6 2.1 46.7 7 60.1 19.8 69.6 34.9 69.6c19.2 0 34.8-15.6 34.8-34.8 0-9-3.5-17.3-9.2-23.5z"/>
  <path d="M59.6 10.3c3.5 5.4 5.5 11.9 5.5 18.8C65.1 48.4 49.5 64 30.3 64c-9.7 0-18.4-4-24.8-10.3 6.2 9.6 17 16 29.3 16 19.2 0 34.8-15.6 34.8-34.8.1-9.6-3.8-18.3-10-24.6z" fill="#ff965b"/>
  <path class="st3" d="M34.8 0C15.6 0 0 15.6 0 34.8c0 2.2.2 4.4.6 6.6 2.4-20.3 19.7-36 40.6-36 6.1 0 11.9 1.4 17.2 3.8C52.2 3.5 43.9 0 34.8 0z"/>
  <path class="st4" d="M39.5 2.4c4.2 0 8.3.7 12.2 1.9C46.6 1.6 40.9 0 34.8 0 15.6 0 0 15.6 0 34.8c0 1.1.1 2.2.2 3.3C2 18.1 18.9 2.4 39.5 2.4z"/>
  <circle transform="rotate(-22.927 34.84 34.838)" class="st0" cx="34.8" cy="34.8" r="34.8"/>
  <path class="st5" d="M60.5 11.3c1.3 3.7 2.1 7.7 2.1 11.9C62.6 42.4 47 58 27.8 58 17.6 58 8.5 53.6 2.1 46.7 7 60.1 19.8 69.6 34.9 69.6c19.2 0 34.8-15.6 34.8-34.8 0-9-3.5-17.3-9.2-23.5z"/>
  <path d="M59.6 10.3c3.5 5.4 5.5 11.9 5.5 18.8C65.1 48.4 49.5 64 30.3 64c-9.7 0-18.4-4-24.8-10.3 6.2 9.6 17 16 29.3 16 19.2 0 34.8-15.6 34.8-34.8.1-9.6-3.8-18.3-10-24.6z" fill="#ff9957"/>
  <path class="st3" d="M34.8 0C15.6 0 0 15.6 0 34.8c0 2.2.2 4.4.6 6.6 2.4-20.3 19.7-36 40.6-36 6.1 0 11.9 1.4 17.2 3.8C52.2 3.5 43.9 0 34.8 0z"/>
  <path class="st4" d="M39.5 2.4c4.2 0 8.3.7 12.2 1.9C46.6 1.6 40.9 0 34.8 0 15.6 0 0 15.6 0 34.8c0 1.1.1 2.2.2 3.3C2 18.1 18.9 2.4 39.5 2.4z"/>
  <path class="st1" d="M26.5 25.3c1.5 2 3.8 3.1 5.9 4.3 2.1 1.2 4.3 2.9 4.8 5.3.1.6.2 1.3.6 1.8.5.7 1.6.8 2.5.7 2.3-.3 4.3-2 5.2-4.1.7-1.9.6-4.1-.2-5.9-.7-1.9-2-3.5-3.4-5-.7-.7-1.4-1.4-2.3-1.7-2.4-1-6.1-.2-8.6.3-2.3.3-6.9 1-4.5 4.3z"/>
  <path class="st5" d="M48.1 55.7c.1.2.3.3.5.4.2.1.4 0 .6 0 .8-.2 1.6-.4 2.3-.9 1.4-1 2-2.8 2.3-4.6.7-3.5-1.9-9.4-6.6-7.3-4.6 2.1-1.4 9.8.9 12.4z"/>
  <path class="st1" d="M48.1 55.7c.1.2.3.3.5.4.2.1.4 0 .6 0 .8-.2 1.6-.4 2.3-.9 1.4-1 2-2.8 2.3-4.6.7-3.5-1.9-9.4-6.6-7.3-4.6 2.1-1.4 9.8.9 12.4z"/>
  <path class="st7" d="M46.2 52.8c.6 1.2 1.2 2.2 1.8 2.9.1.2.3.3.5.4.2.1.4 0 .6 0 .8-.2 1.6-.4 2.3-.9 1.4-1 2-2.8 2.3-4.6.2-1.1.1-2.5-.3-3.8-2.1 2.3-4.5 4.3-7.2 6z"/>
  <path class="st1" d="M0 34.8C0 50.7 10.6 64 25.1 68.3c.8-.2 1.5-.5 2.2-.9 2.7-1.5 4.7-4.2 5.2-7.3.5-3-.4-6.3-2.4-8.6-.6-.7-1.3-1.3-1.7-2.1-.6-1.1-.5-2.4.1-3.5 1-1.7 3.3-2.4 4.1-4.2.5-1.2.2-2.7-.6-3.7-.7-1.1-1.9-1.9-3-2.5-1.5-.9-3.1-1.7-4.7-2.3-2.6-1-5.4-1.6-7.7-3.3-.4-.3-.8-.7-1.1-1.2-.6-1.1-.1-2.5.6-3.6.7-1 1.8-1.9 2.5-2.9 1.7-2.6 1.2-6.1-.4-8.6-1.2-1.9-3.6-4-6.1-5.1C4.7 14.8 0 24.3 0 34.8z"/>
  <path class="st8" d="M12.1 8.5C4.7 14.8 0 24.3 0 34.8c0 2.2.2 4.4.6 6.6 1.4-11.8 7.9-22 17.1-28.6-1.2-1.6-3.3-3.4-5.6-4.3z"/>
  <path class="st9" d="M0 34.8c0 1.1.1 2.2.2 3.3C1.2 26.9 7 17 15.5 10.5c-1-.8-2.2-1.5-3.4-2.1C4.7 14.8 0 24.3 0 34.8z"/>
  <path class="st7" d="M2.1 46.7c3.8 10.4 12.3 18.5 23 21.6.8-.2 1.5-.5 2.2-.9 2.7-1.5 4.7-4.2 5.2-7.3.1-.8.2-1.6.1-2.4-1.6.2-3.2.3-4.9.3-10.1.1-19.2-4.3-25.6-11.3z"/>
  <path class="st10" d="M30.3 64c-9.7 0-18.4-4-24.8-10.3 4.5 7 11.4 12.3 19.6 14.7.8-.2 1.5-.5 2.2-.9 1.5-.8 2.8-2 3.7-3.4-.2-.1-.5-.1-.7-.1z"/>
  <path class="st5" d="M69.6 33.6C69 14.9 53.7 0 34.8 0c0 1.3.3 2.7 1 3.9.6 1.1 1.7 2 2.8 2.7 2.9 1.8 6.3 2.3 9.5 3.5 3.2 1.2 6.4 3.3 7.1 6.6.5 2.4-.4 4.9-.1 7.4.4 3.5 3.1 6.4 6.2 7.8 2.6 1.3 5.5 1.6 8.3 1.7z"/>
  <path class="st8" d="M34.8 0c0 1.3.3 2.7 1 3.9.4.6.9 1.2 1.4 1.7 1.3-.1 2.6-.2 4-.2 6.1 0 11.9 1.4 17.2 3.8C52.2 3.5 43.9 0 34.8 0z"/>
  <path class="st9" d="M51.6 4.3C46.6 1.6 40.9 0 34.8 0c0 .9.1 1.8.4 2.6 1.4-.1 2.8-.2 4.2-.2 4.3 0 8.4.7 12.2 1.9z"/>
  <path class="st7" d="M62.6 23.2c0 3-.4 6-1.1 8.8 2.5 1.1 5.3 1.5 8.1 1.6v-.2c-.3-8.5-3.7-16.2-9.1-22.1 1.4 3.7 2.1 7.8 2.1 11.9z"/>
  <path class="st10" d="M61.1 12.8c2.6 4.9 4.1 10.4 4.1 16.3 0 1.3-.1 2.7-.2 4 1.6.3 3.2.5 4.8.5-.5-8.6-3.8-16.3-9.2-22.3.1.5.3 1 .5 1.5z"/>
  <path class="st5" d="M49.5 16.5c-.2.4-.5.8-.8 1-.2.2-.5.4-.8.5-2 .7-4.1-2-2.6-3.6 1.5-1.4 5-.1 4.2 2.1z"/>
</svg>