<?xml version="1.0" encoding="utf-8"?>
<!-- Generator: Adobe Illustrator 22.1.0, SVG Export Plug-In . SVG Version: 6.00 Build 0)  -->
<svg version="1.1" id="Layer_1" xmlns="http://www.w3.org/2000/svg" xmlns:xlink="http://www.w3.org/1999/xlink" x="0px" y="0px"
	 viewBox="0 0 1977.4 1436.5" style="enable-background:new 0 0 1977.4 1436.5;" xml:space="preserve">
<style type="text/css">
	.st0{fill:url(#SVGID_1_);}
	.st1{filter:url(#Adobe_OpacityMaskFilter);}
	.st2{filter:url(#Adobe_OpacityMaskFilter_1_);}
	.st3{mask:url(#SVGID_2_);fill:url(#SVGID_3_);}
	.st4{fill:url(#SVGID_4_);}
	.st5{filter:url(#Adobe_OpacityMaskFilter_2_);}
	.st6{filter:url(#Adobe_OpacityMaskFilter_3_);}
	.st7{mask:url(#SVGID_5_);fill:url(#SVGID_6_);}
	.st8{fill:url(#SVGID_7_);}
	.st9{filter:url(#Adobe_OpacityMaskFilter_4_);}
	.st10{filter:url(#Adobe_OpacityMaskFilter_5_);}
	.st11{mask:url(#SVGID_8_);fill:url(#SVGID_9_);}
	.st12{fill:url(#SVGID_10_);}
	.st13{fill:url(#SVGID_11_);}
	.st14{opacity:0.6;fill:url(#SVGID_12_);}
	.st15{filter:url(#Adobe_OpacityMaskFilter_6_);}
	.st16{filter:url(#Adobe_OpacityMaskFilter_7_);}
	.st17{mask:url(#SVGID_13_);fill:url(#SVGID_14_);}
	.st18{fill:url(#SVGID_15_);}
	.st19{filter:url(#Adobe_OpacityMaskFilter_8_);}
	.st20{filter:url(#Adobe_OpacityMaskFilter_9_);}
	.st21{mask:url(#SVGID_16_);fill:url(#SVGID_17_);}
	.st22{fill:url(#SVGID_18_);}
	.st23{fill:url(#SVGID_19_);}
	.st24{opacity:0.39;fill:#AD0000;}
	.st25{opacity:0.45;fill:#FFFF00;}
	.st26{opacity:0.3;fill:#AD0000;}
	.st27{fill:#AD0000;}
	.st28{filter:url(#Adobe_OpacityMaskFilter_10_);}
	.st29{filter:url(#Adobe_OpacityMaskFilter_11_);}
	.st30{mask:url(#SVGID_20_);fill:url(#SVGID_21_);}
	.st31{filter:url(#Adobe_OpacityMaskFilter_12_);}
	.st32{filter:url(#Adobe_OpacityMaskFilter_13_);}
	.st33{mask:url(#SVGID_22_);fill:url(#SVGID_23_);}
	.st34{opacity:0.78;fill:url(#SVGID_24_);}
	.st35{filter:url(#Adobe_OpacityMaskFilter_14_);}
	.st36{filter:url(#Adobe_OpacityMaskFilter_15_);}
	.st37{mask:url(#SVGID_25_);fill:url(#SVGID_26_);}
	.st38{opacity:0.94;fill:url(#SVGID_27_);}
	.st39{opacity:0.8;fill:#FFFFFF;}
	.st40{filter:url(#Adobe_OpacityMaskFilter_16_);}
	.st41{filter:url(#Adobe_OpacityMaskFilter_17_);}
	.st42{mask:url(#SVGID_28_);fill:url(#SVGID_29_);}
	.st43{filter:url(#Adobe_OpacityMaskFilter_18_);}
	.st44{filter:url(#Adobe_OpacityMaskFilter_19_);}
	.st45{mask:url(#SVGID_30_);fill:url(#SVGID_31_);}
	.st46{opacity:0.78;fill:url(#SVGID_32_);}
	.st47{opacity:0.55;fill:#AD0000;}
	.st48{filter:url(#Adobe_OpacityMaskFilter_20_);}
	.st49{filter:url(#Adobe_OpacityMaskFilter_21_);}
	.st50{mask:url(#SVGID_33_);fill:url(#SVGID_34_);}
	.st51{opacity:0.6;fill:url(#SVGID_35_);}
	.st52{filter:url(#Adobe_OpacityMaskFilter_22_);}
	.st53{filter:url(#Adobe_OpacityMaskFilter_23_);}
	.st54{mask:url(#SVGID_36_);fill:url(#SVGID_37_);}
	.st55{filter:url(#Adobe_OpacityMaskFilter_24_);}
	.st56{filter:url(#Adobe_OpacityMaskFilter_25_);}
	.st57{mask:url(#SVGID_38_);fill:url(#SVGID_39_);}
	.st58{opacity:0.78;fill:url(#SVGID_40_);}
</style>
<g>
	<radialGradient id="SVGID_1_" cx="1252.1171" cy="737.274" r="753.056" gradientUnits="userSpaceOnUse">
		<stop  offset="0" style="stop-color:#FFFFFF"/>
		<stop  offset="1" style="stop-color:#000000"/>
	</radialGradient>
	<circle class="st0" cx="1259.2" cy="718.2" r="718.2"/>
	<g>
		<defs>
			<filter id="Adobe_OpacityMaskFilter" filterUnits="userSpaceOnUse" x="442.4" y="278" width="1029.9" height="1047.6">
				<feFlood  style="flood-color:white;flood-opacity:1" result="back"/>
				<feBlend  in="SourceGraphic" in2="back" mode="normal"/>
			</filter>
		</defs>
		<mask maskUnits="userSpaceOnUse" x="442.4" y="278" width="1029.9" height="1047.6" id="SVGID_2_">
			<g class="st1">
				<defs>
					<filter id="Adobe_OpacityMaskFilter_1_" filterUnits="userSpaceOnUse" x="442.4" y="278" width="1029.9" height="1047.6">
						<feFlood  style="flood-color:white;flood-opacity:1" result="back"/>
						<feBlend  in="SourceGraphic" in2="back" mode="normal"/>
					</filter>
				</defs>
				<mask maskUnits="userSpaceOnUse" x="442.4" y="278" width="1029.9" height="1047.6" id="SVGID_2_">
					<g class="st2">
					</g>
				</mask>
				<radialGradient id="SVGID_3_" cx="838.3809" cy="666.7283" r="796.2756" gradientUnits="userSpaceOnUse">
					<stop  offset="0" style="stop-color:#FFFFFF"/>
					<stop  offset="0.6698" style="stop-color:#000000"/>
				</radialGradient>
				<path class="st3" d="M1432.6,1057c-76.1,103.8-210,127.8-304.2,177.4c-94.2,49.6-137.6,107.5-212.5,87
					c-74.8-20.5-113.5-70-171.4-77.2c-57.9-7.2-108-31.4-150.9-77.3c-58.3-62.4-41.6-74.8-74.5-176.2
					c-24.6-75.8-84.8-200.3-75.8-293.3c1.3-13.8,4.2-26.9,8.9-39c6-15.5,15.1-29.5,27.9-41.4c90.5-83.8,118.3-107.1,137.6-137.7
					c19.3-30.6,171.4-210.5,306.6-200.8c135.2,9.7,205.2,80.9,294.5,114.7c89.3,33.8,190.7,88.5,198,153.5
					c7.2,65,10.9,138.6,24.1,202.6C1454.3,813.2,1508.7,953.2,1432.6,1057z"/>
			</g>
		</mask>
		<radialGradient id="SVGID_4_" cx="838.3809" cy="666.7283" r="796.2756" gradientUnits="userSpaceOnUse">
			<stop  offset="0" style="stop-color:#CA0A00"/>
			<stop  offset="0.6698" style="stop-color:#FFED46"/>
		</radialGradient>
		<path class="st4" d="M1432.6,1057c-76.1,103.8-210,127.8-304.2,177.4c-94.2,49.6-137.6,107.5-212.5,87
			c-74.8-20.5-113.5-70-171.4-77.2c-57.9-7.2-108-31.4-150.9-77.3c-58.3-62.4-41.6-74.8-74.5-176.2
			c-24.6-75.8-84.8-200.3-75.8-293.3c1.3-13.8,4.2-26.9,8.9-39c6-15.5,15.1-29.5,27.9-41.4c90.5-83.8,118.3-107.1,137.6-137.7
			c19.3-30.6,171.4-210.5,306.6-200.8c135.2,9.7,205.2,80.9,294.5,114.7c89.3,33.8,190.7,88.5,198,153.5
			c7.2,65,10.9,138.6,24.1,202.6C1454.3,813.2,1508.7,953.2,1432.6,1057z"/>
		<defs>
			<filter id="Adobe_OpacityMaskFilter_2_" filterUnits="userSpaceOnUse" x="447.3" y="286.2" width="1029.9" height="1047.6">
				<feFlood  style="flood-color:white;flood-opacity:1" result="back"/>
				<feBlend  in="SourceGraphic" in2="back" mode="normal"/>
			</filter>
		</defs>
		<mask maskUnits="userSpaceOnUse" x="447.3" y="286.2" width="1029.9" height="1047.6" id="SVGID_5_">
			<g class="st5">
				<defs>
					<filter id="Adobe_OpacityMaskFilter_3_" filterUnits="userSpaceOnUse" x="447.3" y="286.2" width="1029.9" height="1047.6">
						<feFlood  style="flood-color:white;flood-opacity:1" result="back"/>
						<feBlend  in="SourceGraphic" in2="back" mode="normal"/>
					</filter>
				</defs>
				<mask maskUnits="userSpaceOnUse" x="447.3" y="286.2" width="1029.9" height="1047.6" id="SVGID_5_">
					<g class="st6">
					</g>
				</mask>
				
					<radialGradient id="SVGID_6_" cx="1343.0115" cy="720.2215" r="580.6121" fx="1908.2192" fy="587.366" gradientUnits="userSpaceOnUse">
					<stop  offset="0" style="stop-color:#FFFFFF"/>
					<stop  offset="0.6698" style="stop-color:#000000"/>
				</radialGradient>
				<path class="st7" d="M1445.9,757.4c-13.3-64-16.9-137.6-24.1-202.6c-7.2-65-108.6-119.7-198-153.5
					c-89.3-33.8-159.3-105-294.5-114.7C794,276.9,641.9,456.8,622.6,487.4C603.3,518,575.6,541.3,485,625.1
					c-12.8,11.9-21.9,25.9-27.9,41.4c-1.6,5.9-3,11.9-4.4,17.9c-1.7,7-3.2,14-4.5,21.1c-9,93,51.2,217.5,75.8,293.3
					c32.9,101.4,16.2,113.8,74.5,176.2c42.9,45.9,93,70,150.9,77.3c57.9,7.2,96.6,56.7,171.4,77.2c74.9,20.5,118.3-37.4,212.5-87
					c94.2-49.5,228.2-73.6,304.2-177.4C1513.5,961.4,1459.2,821.4,1445.9,757.4z M1416.7,827.3c-0.2,5.3-0.5,10.5-1,15.7
					c-1.1,14.9-3.1,29.6-5.7,43.9c-4.4,24-10.7,47.2-18.9,69.6c-2.1,5.9-4.3,11.7-6.7,17.4c-2.2,5.5-4.6,10.9-7.1,16.3
					c-3.8,8.3-7.9,16.4-12.2,24.4c-8.7,16.1-18.4,31.7-29,46.4c-3.7,5.1-7.4,10.1-11.3,15.1c0,0,0,0.1-0.1,0.1
					c-8.4,10.7-17.2,21-26.6,30.9c-14.3,15.1-29.6,29.1-45.9,42.1c-16.4,12.9-33.7,24.8-51.9,35.3c-64,37.1-138.2,58.3-217.5,58.3
					c-89.9,0-173.5-27.3-242.9-74.2c-2-1.4-4.1-2.8-6.1-4.3c-12-8.5-23.7-17.6-34.8-27.2c-4.7-4-9.3-8.1-13.8-12.4
					c-3.2-3.1-6.4-6.2-9.5-9.3c-4.9-4.8-9.6-9.8-14.2-14.8c-9.9-10.9-19.2-22.3-28-34.1c-9.2-12.4-17.7-25.4-25.5-38.7
					c-2.2-3.6-4.2-7.1-6.2-10.8c-3.7-6.5-7-13.1-10.2-19.8c-3.2-6.3-6.1-12.9-8.8-19.4c-7.4-17.4-13.7-35.4-18.7-53.9
					c-2.9-10.4-5.4-20.9-7.4-31.6c-2.7-13.5-4.7-27.2-6-41.2c-0.3-2.2-0.5-4.5-0.7-6.8c-0.5-6.3-0.9-12.6-1.1-19
					c-0.3-5.5-0.4-11-0.4-16.6c0-7.8,0.2-15.5,0.6-23.1c0.7-13.4,2-26.7,3.9-39.8c1.8-12.1,4-24.2,6.8-35.9c1.6-7,3.4-13.9,5.3-20.8
					c3.1-10.7,6.5-21.2,10.4-31.5c5.6-15.2,12.1-30,19.4-44.4c13.4-26.7,29.5-51.7,47.9-74.8c24.2-30.3,52.3-57.4,83.8-80.3
					c15.9-11.6,32.6-22.2,50-31.6c29.9-16.2,62-29,95.7-37.8c20.3-5.3,41.2-9.2,62.6-11.6c15.6-1.7,31.5-2.6,47.7-2.6
					c64.9,0,126.5,14.2,181.8,39.8c12.6,5.8,24.8,12.2,36.8,19.2c22.1,12.9,42.8,27.6,62.2,44.1c3.8,3.2,7.5,6.4,11.1,9.8
					c7,6.3,13.9,13,20.4,19.8c2,2.1,4,4.1,6,6.2c3.7,3.9,7.3,7.9,10.8,12l0.8,0.8c6.7,7.9,13.3,16,19.3,24.3
					c6.6,8.9,12.9,18.1,18.8,27.6c5.7,9.1,11.2,18.5,16.2,28.1c4.9,9.2,9.5,18.5,13.7,28.1c6.7,15.3,12.6,31.1,17.6,47.4
					c4.4,14.5,8.1,29.3,11,44.4c2.2,11.5,4,23.2,5.3,34.9c0.9,8.3,1.6,16.6,2,25c0.4,7.4,0.7,15,0.7,22.5
					C1417.2,814.7,1417,821,1416.7,827.3z"/>
			</g>
		</mask>
		
			<radialGradient id="SVGID_7_" cx="1343.0115" cy="720.2215" r="580.6121" fx="1908.2192" fy="587.366" gradientUnits="userSpaceOnUse">
			<stop  offset="0" style="stop-color:#FFC700"/>
			<stop  offset="0.6698" style="stop-color:#FFED46"/>
		</radialGradient>
		<path class="st8" d="M1445.9,757.4c-13.3-64-16.9-137.6-24.1-202.6c-7.2-65-108.6-119.7-198-153.5
			c-89.3-33.8-159.3-105-294.5-114.7C794,276.9,641.9,456.8,622.6,487.4C603.3,518,575.6,541.3,485,625.1
			c-12.8,11.9-21.9,25.9-27.9,41.4c-1.6,5.9-3,11.9-4.4,17.9c-1.7,7-3.2,14-4.5,21.1c-9,93,51.2,217.5,75.8,293.3
			c32.9,101.4,16.2,113.8,74.5,176.2c42.9,45.9,93,70,150.9,77.3c57.9,7.2,96.6,56.7,171.4,77.2c74.9,20.5,118.3-37.4,212.5-87
			c94.2-49.5,228.2-73.6,304.2-177.4C1513.5,961.4,1459.2,821.4,1445.9,757.4z M1416.7,827.3c-0.2,5.3-0.5,10.5-1,15.7
			c-1.1,14.9-3.1,29.6-5.7,43.9c-4.4,24-10.7,47.2-18.9,69.6c-2.1,5.9-4.3,11.7-6.7,17.4c-2.2,5.5-4.6,10.9-7.1,16.3
			c-3.8,8.3-7.9,16.4-12.2,24.4c-8.7,16.1-18.4,31.7-29,46.4c-3.7,5.1-7.4,10.1-11.3,15.1c0,0,0,0.1-0.1,0.1
			c-8.4,10.7-17.2,21-26.6,30.9c-14.3,15.1-29.6,29.1-45.9,42.1c-16.4,12.9-33.7,24.8-51.9,35.3c-64,37.1-138.2,58.3-217.5,58.3
			c-89.9,0-173.5-27.3-242.9-74.2c-2-1.4-4.1-2.8-6.1-4.3c-12-8.5-23.7-17.6-34.8-27.2c-4.7-4-9.3-8.1-13.8-12.4
			c-3.2-3.1-6.4-6.2-9.5-9.3c-4.9-4.8-9.6-9.8-14.2-14.8c-9.9-10.9-19.2-22.3-28-34.1c-9.2-12.4-17.7-25.4-25.5-38.7
			c-2.2-3.6-4.2-7.1-6.2-10.8c-3.7-6.5-7-13.1-10.2-19.8c-3.2-6.3-6.1-12.9-8.8-19.4c-7.4-17.4-13.7-35.4-18.7-53.9
			c-2.9-10.4-5.4-20.9-7.4-31.6c-2.7-13.5-4.7-27.2-6-41.2c-0.3-2.2-0.5-4.5-0.7-6.8c-0.5-6.3-0.9-12.6-1.1-19
			c-0.3-5.5-0.4-11-0.4-16.6c0-7.8,0.2-15.5,0.6-23.1c0.7-13.4,2-26.7,3.9-39.8c1.8-12.1,4-24.2,6.8-35.9c1.6-7,3.4-13.9,5.3-20.8
			c3.1-10.7,6.5-21.2,10.4-31.5c5.6-15.2,12.1-30,19.4-44.4c13.4-26.7,29.5-51.7,47.9-74.8c24.2-30.3,52.3-57.4,83.8-80.3
			c15.9-11.6,32.6-22.2,50-31.6c29.9-16.2,62-29,95.7-37.8c20.3-5.3,41.2-9.2,62.6-11.6c15.6-1.7,31.5-2.6,47.7-2.6
			c64.9,0,126.5,14.2,181.8,39.8c12.6,5.8,24.8,12.2,36.8,19.2c22.1,12.9,42.8,27.6,62.2,44.1c3.8,3.2,7.5,6.4,11.1,9.8
			c7,6.3,13.9,13,20.4,19.8c2,2.1,4,4.1,6,6.2c3.7,3.9,7.3,7.9,10.8,12l0.8,0.8c6.7,7.9,13.3,16,19.3,24.3
			c6.6,8.9,12.9,18.1,18.8,27.6c5.7,9.1,11.2,18.5,16.2,28.1c4.9,9.2,9.5,18.5,13.7,28.1c6.7,15.3,12.6,31.1,17.6,47.4
			c4.4,14.5,8.1,29.3,11,44.4c2.2,11.5,4,23.2,5.3,34.9c0.9,8.3,1.6,16.6,2,25c0.4,7.4,0.7,15,0.7,22.5
			C1417.2,814.7,1417,821,1416.7,827.3z"/>
		<defs>
			<filter id="Adobe_OpacityMaskFilter_4_" filterUnits="userSpaceOnUse" x="477.7" y="349.3" width="998.3" height="929.7">
				<feFlood  style="flood-color:white;flood-opacity:1" result="back"/>
				<feBlend  in="SourceGraphic" in2="back" mode="normal"/>
			</filter>
		</defs>
		<mask maskUnits="userSpaceOnUse" x="477.7" y="349.3" width="998.3" height="929.7" id="SVGID_8_">
			<g class="st9">
				<defs>
					<filter id="Adobe_OpacityMaskFilter_5_" filterUnits="userSpaceOnUse" x="477.7" y="349.3" width="998.3" height="929.7">
						<feFlood  style="flood-color:white;flood-opacity:1" result="back"/>
						<feBlend  in="SourceGraphic" in2="back" mode="normal"/>
					</filter>
				</defs>
				<mask maskUnits="userSpaceOnUse" x="477.7" y="349.3" width="998.3" height="929.7" id="SVGID_8_">
					<g class="st10">
					</g>
				</mask>
				
					<radialGradient id="SVGID_9_" cx="1199.6102" cy="1040.5029" r="544.9081" fx="1730.0613" fy="915.8171" gradientTransform="matrix(0.9223 -0.3865 0.3865 0.9223 -244.5172 98.0292)" gradientUnits="userSpaceOnUse">
					<stop  offset="0" style="stop-color:#FFFFFF"/>
					<stop  offset="0.6698" style="stop-color:#000000"/>
				</radialGradient>
				<path class="st11" d="M1366.6,588.9c-34.7-50.6-64.5-113-94.4-166.6c-29.8-53.6-137.5-64.2-227.1-61.1
					c-89.6,3.2-176-33.1-296.5,7.6c-120.6,40.7-187,251.6-192.6,285c-5.6,33.5-21.2,63.7-69.2,169.1c-6.8,14.9-9.6,30.3-9.1,45.9
					c0.8,5.7,1.7,11.4,2.7,17.1c1.1,6.6,2.3,13.2,3.7,19.9c25.9,83.8,123.2,169.7,172,226.4c65.2,75.8,55.3,92.7,128.4,125.5
					c53.8,24.2,105.9,26.9,158.7,12.2c52.8-14.7,104.2,14.1,176.4,4.7c72.2-9.4,88.8-75.3,152.4-152.4
					c63.5-77,170.8-146.4,199-263.9C1499.1,741,1401.3,639.5,1366.6,588.9z M1366.7,660c1.7,4.6,3.3,9.3,4.8,13.9
					c4.4,13.3,8.1,26.7,11,40.1c4.9,22.4,7.9,44.8,8.9,67.1c0.3,5.9,0.5,11.7,0.5,17.5c0.1,5.6,0,11.1-0.2,16.7
					c-0.3,8.5-0.9,17.1-1.7,25.6c-1.7,17.1-4.4,34.1-8.2,50.7c-1.3,5.7-2.7,11.5-4.3,17.2c0,0,0,0.1,0,0.1
					c-3.4,12.3-7.3,24.4-11.8,36.4c-6.9,18.2-15,35.9-24.5,53.1c-9.5,17.1-20.2,33.7-32.1,49.3c-41.9,55.3-98.5,100.6-167.1,129.3
					c-77.8,32.6-160.1,39.3-237.1,23.8c-2.3-0.5-4.5-0.9-6.8-1.5c-13.5-3-26.9-6.6-40-10.9c-5.5-1.7-11-3.6-16.4-5.7
					c-3.9-1.5-7.8-3-11.6-4.6c-6-2.4-11.9-5-17.7-7.7c-12.5-5.8-24.7-12.3-36.6-19.3c-12.4-7.4-24.5-15.5-36.1-24.3
					c-3.2-2.3-6.2-4.7-9.2-7.1c-5.5-4.3-10.8-8.8-16.1-13.4c-5-4.3-9.9-8.9-14.7-13.6c-12.7-12.4-24.7-25.7-35.7-39.9
					c-6.3-7.9-12.3-16.2-17.9-24.7c-7.3-10.7-13.9-21.9-20.2-33.5c-1.1-1.8-2.1-3.7-3-5.7c-2.8-5.3-5.4-10.6-7.8-16
					c-2.2-4.7-4.3-9.4-6.3-14.2c-2.8-6.7-5.4-13.5-7.9-20.3c-4.2-11.9-7.9-23.8-11-35.8c-2.9-11.1-5.3-22.4-7.1-33.5
					c-1.2-6.6-2.1-13.3-2.9-19.9c-1.2-10.4-2.1-20.7-2.5-31c-0.6-15.2-0.4-30.4,0.7-45.5c1.9-27.9,6.8-55.5,14.4-82.2
					c9.9-35,24.5-68.6,43.4-99.9c9.5-15.8,20.2-31,31.9-45.5c20-24.9,43.2-47.6,69.2-67.4c15.7-12,32.3-22.9,50-32.7
					c12.9-7.1,26.4-13.7,40.3-19.5c56.2-23.6,114.7-33.6,171.8-31.5c13,0.4,25.9,1.5,38.8,3.3c23.8,3.1,47.1,8.4,69.8,15.6
					c4.4,1.4,8.8,2.9,13.2,4.5c8.3,3,16.7,6.2,24.9,9.8c2.5,1.1,4.9,2.1,7.4,3.2c4.6,2.1,9.2,4.2,13.7,6.5l1,0.4
					c8.6,4.4,17.3,9.1,25.6,14.1c9,5.3,17.7,11,26.3,17.1c8.2,5.8,16.4,11.9,24.3,18.5c7.6,6.2,14.9,12.6,22,19.4
					c11.4,10.8,22.2,22.4,32.4,34.6c9.1,10.9,17.7,22.4,25.6,34.4c6.1,9.1,11.9,18.6,17.2,28.3c3.8,6.8,7.4,13.8,10.8,20.9
					c3.1,6.3,6,12.7,8.7,19.3C1362.5,648.9,1364.7,654.5,1366.7,660z"/>
			</g>
		</mask>
		
			<radialGradient id="SVGID_10_" cx="1199.6102" cy="1040.5029" r="544.9081" fx="1730.0613" fy="915.8171" gradientTransform="matrix(0.9223 -0.3865 0.3865 0.9223 -244.5172 98.0292)" gradientUnits="userSpaceOnUse">
			<stop  offset="0" style="stop-color:#CA0A00"/>
			<stop  offset="0.6698" style="stop-color:#FFED46"/>
		</radialGradient>
		<path class="st12" d="M1366.6,588.9c-34.7-50.6-64.5-113-94.4-166.6c-29.8-53.6-137.5-64.2-227.1-61.1
			c-89.6,3.2-176-33.1-296.5,7.6c-120.6,40.7-187,251.6-192.6,285c-5.6,33.5-21.2,63.7-69.2,169.1c-6.8,14.9-9.6,30.3-9.1,45.9
			c0.8,5.7,1.7,11.4,2.7,17.1c1.1,6.6,2.3,13.2,3.7,19.9c25.9,83.8,123.2,169.7,172,226.4c65.2,75.8,55.3,92.7,128.4,125.5
			c53.8,24.2,105.9,26.9,158.7,12.2c52.8-14.7,104.2,14.1,176.4,4.7c72.2-9.4,88.8-75.3,152.4-152.4c63.5-77,170.8-146.4,199-263.9
			C1499.1,741,1401.3,639.5,1366.6,588.9z M1366.7,660c1.7,4.6,3.3,9.3,4.8,13.9c4.4,13.3,8.1,26.7,11,40.1
			c4.9,22.4,7.9,44.8,8.9,67.1c0.3,5.9,0.5,11.7,0.5,17.5c0.1,5.6,0,11.1-0.2,16.7c-0.3,8.5-0.9,17.1-1.7,25.6
			c-1.7,17.1-4.4,34.1-8.2,50.7c-1.3,5.7-2.7,11.5-4.3,17.2c0,0,0,0.1,0,0.1c-3.4,12.3-7.3,24.4-11.8,36.4
			c-6.9,18.2-15,35.9-24.5,53.1c-9.5,17.1-20.2,33.7-32.1,49.3c-41.9,55.3-98.5,100.6-167.1,129.3c-77.8,32.6-160.1,39.3-237.1,23.8
			c-2.3-0.5-4.5-0.9-6.8-1.5c-13.5-3-26.9-6.6-40-10.9c-5.5-1.7-11-3.6-16.4-5.7c-3.9-1.5-7.8-3-11.6-4.6c-6-2.4-11.9-5-17.7-7.7
			c-12.5-5.8-24.7-12.3-36.6-19.3c-12.4-7.4-24.5-15.5-36.1-24.3c-3.2-2.3-6.2-4.7-9.2-7.1c-5.5-4.3-10.8-8.8-16.1-13.4
			c-5-4.3-9.9-8.9-14.7-13.6c-12.7-12.4-24.7-25.7-35.7-39.9c-6.3-7.9-12.3-16.2-17.9-24.7c-7.3-10.7-13.9-21.9-20.2-33.5
			c-1.1-1.8-2.1-3.7-3-5.7c-2.8-5.3-5.4-10.6-7.8-16c-2.2-4.7-4.3-9.4-6.3-14.2c-2.8-6.7-5.4-13.5-7.9-20.3
			c-4.2-11.9-7.9-23.8-11-35.8c-2.9-11.1-5.3-22.4-7.1-33.5c-1.2-6.6-2.1-13.3-2.9-19.9c-1.2-10.4-2.1-20.7-2.5-31
			c-0.6-15.2-0.4-30.4,0.7-45.5c1.9-27.9,6.8-55.5,14.4-82.2c9.9-35,24.5-68.6,43.4-99.9c9.5-15.8,20.2-31,31.9-45.5
			c20-24.9,43.2-47.6,69.2-67.4c15.7-12,32.3-22.9,50-32.7c12.9-7.1,26.4-13.7,40.3-19.5c56.2-23.6,114.7-33.6,171.8-31.5
			c13,0.4,25.9,1.5,38.8,3.3c23.8,3.1,47.1,8.4,69.8,15.6c4.4,1.4,8.8,2.9,13.2,4.5c8.3,3,16.7,6.2,24.9,9.8
			c2.5,1.1,4.9,2.1,7.4,3.2c4.6,2.1,9.2,4.2,13.7,6.5l1,0.4c8.6,4.4,17.3,9.1,25.6,14.1c9,5.3,17.7,11,26.3,17.1
			c8.2,5.8,16.4,11.9,24.3,18.5c7.6,6.2,14.9,12.6,22,19.4c11.4,10.8,22.2,22.4,32.4,34.6c9.1,10.9,17.7,22.4,25.6,34.4
			c6.1,9.1,11.9,18.6,17.2,28.3c3.8,6.8,7.4,13.8,10.8,20.9c3.1,6.3,6,12.7,8.7,19.3C1362.5,648.9,1364.7,654.5,1366.7,660z"/>
		<radialGradient id="SVGID_11_" cx="871.9985" cy="695.7731" r="630.2956" gradientUnits="userSpaceOnUse">
			<stop  offset="0.3302" style="stop-color:#FFED46"/>
			<stop  offset="1" style="stop-color:#CA0A00"/>
		</radialGradient>
		<path class="st13" d="M1378.2,801.7c0,6-0.1,12-0.4,17.9c-0.2,5-0.5,9.9-0.9,14.8c-1.1,14.1-2.9,28-5.4,41.6
			c-4.2,22.7-10.1,44.7-17.9,65.9c-2,5.6-4.1,11.1-6.4,16.4c-2.1,5.2-4.4,10.3-6.7,15.4c-3.6,7.8-7.5,15.6-11.6,23.1
			c-8.2,15.2-17.4,30-27.4,43.9c-3.4,4.8-7,9.6-10.7,14.3c0,0,0,0.1-0.1,0.1c-8,10.1-16.3,19.9-25.2,29.2
			c-13.5,14.2-28,27.6-43.5,39.8c-15.5,12.3-31.9,23.5-49.1,33.4c-60.6,35.1-130.9,55.2-206,55.2c-85.2,0-164.3-25.9-230-70.3
			c-1.9-1.3-3.8-2.7-5.8-4c-11.4-8-22.5-16.6-33-25.8c-4.4-3.8-8.8-7.7-13.1-11.7c-3-2.9-6.1-5.8-9-8.8c-4.6-4.6-9.1-9.3-13.5-14.1
			c-9.3-10.3-18.2-21.1-26.5-32.3c-8.7-11.7-16.8-24-24.1-36.7c-2.1-3.4-4-6.8-5.8-10.2c-3.4-6.2-6.6-12.4-9.7-18.8
			c-3-6-5.8-12.2-8.4-18.4c-7-16.5-12.9-33.5-17.7-51c-2.8-9.8-5.1-19.8-7-30c-2.6-12.8-4.4-25.8-5.7-39c-0.3-2.1-0.5-4.3-0.6-6.5
			c-0.5-6-0.9-11.9-1.1-18c-0.3-5.2-0.3-10.5-0.3-15.7c0-7.4,0.2-14.7,0.6-21.9c0.7-12.7,1.9-25.3,3.7-37.6
			c1.7-11.5,3.8-22.9,6.4-34c1.5-6.6,3.2-13.2,5-19.7c2.9-10.1,6.2-20.1,9.8-29.8c5.4-14.4,11.5-28.4,18.4-42
			c12.7-25.3,27.9-49,45.4-70.9c22.9-28.8,49.6-54.3,79.3-76.1c15-11,30.9-21,47.4-29.9c28.4-15.4,58.7-27.4,90.7-35.8
			c19.2-5,39-8.7,59.3-10.9c14.8-1.6,29.9-2.5,45.1-2.5c61.5,0,119.8,13.5,172.2,37.6c11.9,5.5,23.5,11.5,34.8,18.2
			c20.9,12.2,40.6,26.2,58.9,41.8c3.6,3,7.1,6.1,10.5,9.3c6.6,6,13.1,12.3,19.4,18.8c1.9,2,3.8,3.9,5.6,5.9
			c3.5,3.7,6.9,7.5,10.2,11.3l0.7,0.8c6.3,7.5,12.5,15.2,18.3,23.1c6.3,8.4,12.2,17.2,17.8,26.1c5.4,8.6,10.6,17.5,15.4,26.6
			c4.6,8.7,8.9,17.6,12.9,26.6c6.4,14.5,11.9,29.5,16.6,44.9c4.2,13.7,7.7,27.8,10.4,42c2.1,10.9,3.8,21.9,5,33.1
			c0.9,7.8,1.5,15.7,1.9,23.7C1378,787.4,1378.2,794.6,1378.2,801.7z"/>
		<linearGradient id="SVGID_12_" gradientUnits="userSpaceOnUse" x1="555.7845" y1="801.8129" x2="1378.2153" y2="801.8129">
			<stop  offset="0" style="stop-color:#FFFFFF"/>
			<stop  offset="1" style="stop-color:#FFFFFF"/>
		</linearGradient>
		<path class="st14" d="M1377.6,780.4c-0.3-8-1-15.8-1.9-23.7c-1.2-11.1-2.8-22.2-5-33.1c-2.7-14.3-6.2-28.3-10.4-42
			c-4.7-15.4-10.3-30.4-16.6-44.9c-4-9.1-8.3-18-12.9-26.6c-4.8-9.1-9.9-18-15.4-26.6c-5.6-8.9-11.5-17.7-17.8-26.1
			c-5.8-7.9-12-15.6-18.3-23.1l-0.7-0.8c-3.3-3.8-6.7-7.6-10.2-11.3c-1.9-2-3.7-3.9-5.6-5.9c-6.2-6.5-12.7-12.8-19.4-18.8
			c-3.4-3.2-7-6.2-10.5-9.3c-18.4-15.6-38-29.6-58.9-41.8c-11.3-6.6-22.9-12.7-34.8-18.2c-52.4-24.2-110.7-37.6-172.2-37.6
			c-15.2,0-30.4,0.9-45.1,2.5c-20.3,2.2-40,5.9-59.3,10.9c-31.9,8.4-62.3,20.4-90.7,35.8c-16.5,8.9-32.3,18.9-47.4,29.9
			c-29.8,21.7-56.4,47.3-79.3,76.1c-17.5,21.9-32.7,45.6-45.4,70.9c-7,13.6-13.1,27.6-18.4,42c-3.6,9.7-6.9,19.7-9.8,29.8
			c-1.9,6.5-3.5,13.1-5,19.7c-2.7,11.1-4.8,22.5-6.4,34c-1.8,12.4-3,24.9-3.7,37.6c-0.4,7.2-0.6,14.6-0.6,21.9
			c0,5.2,0.1,10.5,0.3,15.7c0.2,6,0.5,12,1.1,18c0.1,2.2,0.3,4.4,0.6,6.5c1.3,13.3,3.1,26.2,5.7,39c1.9,10.1,4.2,20.1,7,30
			c4.8,17.5,10.7,34.5,17.7,51c2.6,6.2,5.4,12.4,8.4,18.4c3,6.4,6.2,12.6,9.7,18.8c1.9,3.4,3.8,6.8,5.8,10.2
			c7.4,12.7,15.4,24.9,24.1,36.7c8.3,11.2,17.2,22,26.5,32.3c4.4,4.8,8.8,9.5,13.5,14.1c2.9,3,6,5.9,9,8.8c4.2,4,8.6,8,13.1,11.7
			c10.5,9.1,21.6,17.8,33,25.8c1.9,1.4,3.8,2.7,5.8,4c65.7,44.4,144.8,70.3,230,70.3c75.1,0,145.4-20.1,206-55.2
			c17.2-9.9,33.6-21.1,49.1-33.4c15.4-12.3,30-25.6,43.5-39.8c8.9-9.3,17.2-19.1,25.2-29.2c0.1,0,0.1-0.1,0.1-0.1
			c3.7-4.7,7.3-9.5,10.7-14.3c10-14,19.2-28.7,27.4-43.9c4.1-7.6,8-15.3,11.6-23.1c2.3-5.1,4.6-10.2,6.7-15.4
			c2.3-5.4,4.4-10.9,6.4-16.4c7.8-21.2,13.7-43.2,17.9-65.9c2.5-13.6,4.3-27.4,5.4-41.6c0.4-4.9,0.7-9.9,0.9-14.8
			c0.3-5.9,0.4-11.9,0.4-17.9C1378.2,794.6,1378,787.4,1377.6,780.4z M1363.2,808.1c-0.2,4.8-0.5,9.6-0.9,14.3
			c-1,13.6-2.8,27-5.2,40.1c-4,21.9-9.8,43.1-17.3,63.6c-1.9,5.4-4,10.7-6.1,15.9c-2,5-4.2,10-6.5,14.9c-3.5,7.5-7.2,15-11.2,22.3
			c-7.9,14.7-16.8,28.9-26.5,42.4c-3.3,4.7-6.8,9.3-10.4,13.8c0,0,0,0.1-0.1,0.1c-7.7,9.8-15.7,19.2-24.3,28.2
			c-13,13.7-27,26.6-41.9,38.4c-15,11.8-30.7,22.6-47.4,32.2c-58.4,33.9-126.2,53.2-198.7,53.2c-82.1,0-158.5-25-221.8-67.8
			c-1.9-1.3-3.7-2.6-5.6-3.9c-11-7.7-21.7-16-31.8-24.9c-4.3-3.6-8.5-7.4-12.6-11.3c-2.9-2.8-5.9-5.6-8.7-8.5
			c-4.5-4.4-8.8-8.9-13-13.6c-9-9.9-17.6-20.3-25.6-31.1c-8.4-11.3-16.2-23.1-23.3-35.3c-2-3.3-3.8-6.5-5.6-9.8
			c-3.3-5.9-6.4-12-9.3-18.1c-2.9-5.8-5.6-11.8-8.1-17.8c-6.8-15.9-12.5-32.3-17.1-49.2c-2.7-9.5-4.9-19.1-6.8-28.9
			c-2.5-12.3-4.3-24.9-5.5-37.6c-0.3-2-0.4-4.2-0.6-6.3c-0.5-5.8-0.8-11.5-1-17.3c-0.3-5-0.3-10.1-0.3-15.1c0-7.1,0.2-14.2,0.6-21.2
			c0.6-12.3,1.9-24.4,3.6-36.3c1.6-11.1,3.6-22.1,6.2-32.8c1.5-6.4,3.1-12.7,4.9-19c2.8-9.8,5.9-19.4,9.5-28.8
			c5.2-13.9,11.1-27.4,17.8-40.5c12.2-24.4,26.9-47.2,43.8-68.3c22.1-27.7,47.8-52.4,76.5-73.4c14.5-10.6,29.8-20.3,45.7-28.8
			c27.4-14.8,56.6-26.5,87.4-34.5c18.5-4.9,37.6-8.4,57.1-10.5c14.3-1.5,28.8-2.4,43.5-2.4c59.3,0,115.6,13,166.1,36.3
			c11.5,5.3,22.7,11.1,33.6,17.5c20.1,11.8,39.1,25.2,56.8,40.3c3.5,2.9,6.8,5.9,10.2,8.9c6.4,5.8,12.7,11.9,18.7,18.2
			c1.9,1.9,3.6,3.8,5.4,5.7c3.4,3.6,6.6,7.2,9.8,10.9l0.7,0.8c6.1,7.2,12.1,14.6,17.6,22.2c6.1,8.1,11.8,16.6,17.2,25.2
			c5.2,8.3,10.2,16.9,14.8,25.7c4.5,8.4,8.6,16.9,12.5,25.7c6.1,14,11.5,28.4,16,43.3c4,13.2,7.4,26.8,10,40.5
			c2,10.5,3.6,21.2,4.8,31.9c0.8,7.5,1.5,15.1,1.8,22.8c0.4,6.8,0.6,13.7,0.6,20.6C1363.6,796.7,1363.5,802.5,1363.2,808.1z"/>
	</g>
	<defs>
		<filter id="Adobe_OpacityMaskFilter_6_" filterUnits="userSpaceOnUse" x="445.1" y="312.8" width="1043.9" height="990.3">
			<feFlood  style="flood-color:white;flood-opacity:1" result="back"/>
			<feBlend  in="SourceGraphic" in2="back" mode="normal"/>
		</filter>
	</defs>
	<mask maskUnits="userSpaceOnUse" x="445.1" y="312.8" width="1043.9" height="990.3" id="SVGID_13_">
		<g class="st15">
			<defs>
				<filter id="Adobe_OpacityMaskFilter_7_" filterUnits="userSpaceOnUse" x="445.1" y="312.8" width="1043.9" height="990.3">
					<feFlood  style="flood-color:white;flood-opacity:1" result="back"/>
					<feBlend  in="SourceGraphic" in2="back" mode="normal"/>
				</filter>
			</defs>
			<mask maskUnits="userSpaceOnUse" x="445.1" y="312.8" width="1043.9" height="990.3" id="SVGID_13_">
				<g class="st16">
				</g>
			</mask>
			
				<radialGradient id="SVGID_14_" cx="1091.573" cy="1438.5806" r="796.2623" gradientTransform="matrix(0.7998 0.6003 -0.6003 0.7998 933.8275 -1183.484)" gradientUnits="userSpaceOnUse">
				<stop  offset="0" style="stop-color:#FFFFFF"/>
				<stop  offset="0.6698" style="stop-color:#000000"/>
			</radialGradient>
			<path class="st17" d="M1184.3,1291.2c-123.1,37.4-244.7-23.8-349.8-40.7c-105.1-16.9-174.6,3.4-222.2-58
				c-47.5-61.3-48.7-124.1-90.7-164.7c-42-40.6-67.5-89.9-74.3-152.4c-9.2-84.9,11.6-84.8,46.2-185.7
				c25.8-75.4,52.4-211.1,115.5-280.1c9.4-10.2,19.5-19,30.6-25.8c14.1-8.8,29.8-14.6,47.1-16.4c122.7-12.7,158.9-14.7,192.7-27.5
				c33.8-12.9,263.4-65.5,365.8,23.4c102.3,88.9,115.5,187.9,166.7,268.5c51.2,80.7,99.4,185.3,66.2,241.6
				c-33.2,56.3-74.5,117.4-102.3,176.5C1348,1109.2,1307.4,1253.8,1184.3,1291.2z"/>
		</g>
	</mask>
	
		<radialGradient id="SVGID_15_" cx="1091.573" cy="1438.5806" r="796.2623" gradientTransform="matrix(0.7998 0.6003 -0.6003 0.7998 933.8275 -1183.484)" gradientUnits="userSpaceOnUse">
		<stop  offset="0" style="stop-color:#CA0A00"/>
		<stop  offset="0.6698" style="stop-color:#FFED46"/>
	</radialGradient>
	<path class="st18" d="M1184.3,1291.2c-123.1,37.4-244.7-23.8-349.8-40.7c-105.1-16.9-174.6,3.4-222.2-58
		c-47.5-61.3-48.7-124.1-90.7-164.7c-42-40.6-67.5-89.9-74.3-152.4c-9.2-84.9,11.6-84.8,46.2-185.7
		c25.8-75.4,52.4-211.1,115.5-280.1c9.4-10.2,19.5-19,30.6-25.8c14.1-8.8,29.8-14.6,47.1-16.4c122.7-12.7,158.9-14.7,192.7-27.5
		c33.8-12.9,263.4-65.5,365.8,23.4c102.3,88.9,115.5,187.9,166.7,268.5c51.2,80.7,99.4,185.3,66.2,241.6
		c-33.2,56.3-74.5,117.4-102.3,176.5C1348,1109.2,1307.4,1253.8,1184.3,1291.2z"/>
	<defs>
		<filter id="Adobe_OpacityMaskFilter_8_" filterUnits="userSpaceOnUse" x="445.1" y="312.8" width="1043.9" height="990.3">
			<feFlood  style="flood-color:white;flood-opacity:1" result="back"/>
			<feBlend  in="SourceGraphic" in2="back" mode="normal"/>
		</filter>
	</defs>
	<mask maskUnits="userSpaceOnUse" x="445.1" y="312.8" width="1043.9" height="990.3" id="SVGID_16_">
		<g class="st19">
			<defs>
				<filter id="Adobe_OpacityMaskFilter_9_" filterUnits="userSpaceOnUse" x="445.1" y="312.8" width="1043.9" height="990.3">
					<feFlood  style="flood-color:white;flood-opacity:1" result="back"/>
					<feBlend  in="SourceGraphic" in2="back" mode="normal"/>
				</filter>
			</defs>
			<mask maskUnits="userSpaceOnUse" x="445.1" y="312.8" width="1043.9" height="990.3" id="SVGID_16_">
				<g class="st20">
				</g>
			</mask>
			
				<radialGradient id="SVGID_17_" cx="1591.3331" cy="1483.848" r="580.6" fx="2156.5291" fy="1350.9952" gradientTransform="matrix(0.7998 0.6003 -0.6003 0.7998 933.8275 -1183.484)" gradientUnits="userSpaceOnUse">
				<stop  offset="0" style="stop-color:#FFFFFF"/>
				<stop  offset="0.6698" style="stop-color:#000000"/>
			</radialGradient>
			<path class="st21" d="M1375.8,1050.1c27.8-59.1,69.1-120.2,102.3-176.5c33.2-56.3-15-161-66.2-241.6
				c-51.2-80.6-64.4-179.6-166.7-268.5c-102.4-88.9-332-36.3-365.8-23.4c-33.8,12.9-70,14.8-192.7,27.5c-17.4,1.8-33,7.6-47.1,16.4
				c-4.8,3.8-9.6,7.7-14.3,11.7c-5.5,4.6-10.9,9.3-16.3,14.1c-63.1,69-89.6,204.7-115.5,280.1c-34.6,100.8-55.4,100.8-46.2,185.7
				c6.8,62.5,32.3,111.8,74.3,152.4c42,40.6,43.2,103.3,90.7,164.7c47.5,61.4,117.1,41.1,222.2,58c105,16.9,226.6,78.1,349.8,40.7
				C1307.4,1253.8,1348,1109.2,1375.8,1050.1z M1310.5,1088.4c-3.3,4.1-6.7,8.1-10.2,12c-9.9,11.3-20.2,21.8-30.9,31.7
				c-17.9,16.6-36.9,31.4-56.9,44.3c-5.2,3.5-10.5,6.7-15.8,9.9c-5.1,3.1-10.2,6-15.4,8.8c-8,4.3-16.2,8.4-24.4,12.2
				c-16.6,7.7-33.7,14.3-51,19.7c-6,1.9-12,3.7-18.1,5.3c0,0,0,0.1-0.1,0c-13.2,3.5-26.4,6.5-39.8,8.7c-20.5,3.5-41.1,5.5-62,6.1
				c-20.9,0.5-41.8-0.4-62.7-2.9c-73.4-8.7-145.5-36.4-208.9-84c-71.9-54-122.4-126-149.7-205.2c-0.8-2.3-1.6-4.7-2.3-7.1
				c-4.5-14-8.4-28.3-11.5-42.7c-1.4-6-2.6-12.1-3.6-18.2c-0.7-4.4-1.5-8.8-2-13.2c-1-6.8-1.8-13.6-2.5-20.4
				c-1.4-14.6-2-29.4-1.9-44.1c0.1-15.4,1.1-30.9,2.9-46.2c0.4-4.2,0.9-8.2,1.6-12.3c1-7.4,2.2-14.7,3.7-22c1.3-7,2.9-13.9,4.6-20.8
				c4.5-18.4,10.3-36.5,17.4-54.3c3.9-10,8.2-20,13-29.7c5.9-12.4,12.6-24.6,20-36.6c1.1-1.9,2.3-3.9,3.6-5.9
				c3.3-5.4,6.8-10.6,10.5-15.8c3.1-4.6,6.3-9.1,9.7-13.5c4.7-6.2,9.5-12.3,14.4-18.1c8.6-10.3,17.6-20.1,27-29.5
				c8.7-8.6,17.7-16.9,27-24.6c5.5-4.6,11.1-9.1,16.7-13.4c8.9-6.7,18-13.1,27.2-19c13.6-8.7,27.7-16.8,42.2-23.8
				c26.7-13.3,54.6-23.7,83.3-31.1c37.6-9.8,76.3-14.5,115.2-14c19.7,0.2,39.4,1.8,59,4.8c33.7,5,67,14,99.2,27.2
				c19.4,7.9,38.5,17.3,57,28.3c13.5,8,26.8,16.8,39.7,26.5c51.9,39,92.7,87.3,121.5,140.9c6.6,12.2,12.6,24.6,17.9,37.4
				c9.9,23.5,17.7,47.8,23.3,72.6c1.1,4.8,2.1,9.7,3,14.5c1.8,9.3,3.3,18.7,4.4,28.1c0.4,2.9,0.7,5.7,1,8.6c0.6,5.4,1.1,10.7,1.4,16
				l0.1,1.1c0.6,10.3,1,20.8,0.9,31.1c0,11.1-0.6,22.2-1.5,33.4c-0.9,10.7-2.1,21.5-3.9,32.2c-1.6,10.3-3.6,20.5-6,30.7
				c-3.8,16.3-8.6,32.4-14.4,48.4c-5.2,14.2-11.1,28.3-17.9,42.1c-5.1,10.5-10.7,20.9-16.8,31.1c-4.2,7.1-8.7,14.2-13.4,21.2
				c-4.1,6.2-8.5,12.4-13,18.4C1318.4,1078.7,1314.5,1083.6,1310.5,1088.4z"/>
		</g>
	</mask>
	
		<radialGradient id="SVGID_18_" cx="1591.3331" cy="1483.848" r="580.6" fx="2156.5291" fy="1350.9952" gradientTransform="matrix(0.7998 0.6003 -0.6003 0.7998 933.8275 -1183.484)" gradientUnits="userSpaceOnUse">
		<stop  offset="0" style="stop-color:#FFD100"/>
		<stop  offset="0.6698" style="stop-color:#FFED46"/>
	</radialGradient>
	<path class="st22" d="M1375.8,1050.1c27.8-59.1,69.1-120.2,102.3-176.5c33.2-56.3-15-161-66.2-241.6
		c-51.2-80.6-64.4-179.6-166.7-268.5c-102.4-88.9-332-36.3-365.8-23.4c-33.8,12.9-70,14.8-192.7,27.5c-17.4,1.8-33,7.6-47.1,16.4
		c-4.8,3.8-9.6,7.7-14.3,11.7c-5.5,4.6-10.9,9.3-16.3,14.1c-63.1,69-89.6,204.7-115.5,280.1c-34.6,100.8-55.4,100.8-46.2,185.7
		c6.8,62.5,32.3,111.8,74.3,152.4c42,40.6,43.2,103.3,90.7,164.7c47.5,61.4,117.1,41.1,222.2,58c105,16.9,226.6,78.1,349.8,40.7
		C1307.4,1253.8,1348,1109.2,1375.8,1050.1z M1310.5,1088.4c-3.3,4.1-6.7,8.1-10.2,12c-9.9,11.3-20.2,21.8-30.9,31.7
		c-17.9,16.6-36.9,31.4-56.9,44.3c-5.2,3.5-10.5,6.7-15.8,9.9c-5.1,3.1-10.2,6-15.4,8.8c-8,4.3-16.2,8.4-24.4,12.2
		c-16.6,7.7-33.7,14.3-51,19.7c-6,1.9-12,3.7-18.1,5.3c0,0,0,0.1-0.1,0c-13.2,3.5-26.4,6.5-39.8,8.7c-20.5,3.5-41.1,5.5-62,6.1
		c-20.9,0.5-41.8-0.4-62.7-2.9c-73.4-8.7-145.5-36.4-208.9-84c-71.9-54-122.4-126-149.7-205.2c-0.8-2.3-1.6-4.7-2.3-7.1
		c-4.5-14-8.4-28.3-11.5-42.7c-1.4-6-2.6-12.1-3.6-18.2c-0.7-4.4-1.5-8.8-2-13.2c-1-6.8-1.8-13.6-2.5-20.4
		c-1.4-14.6-2-29.4-1.9-44.1c0.1-15.4,1.1-30.9,2.9-46.2c0.4-4.2,0.9-8.2,1.6-12.3c1-7.4,2.2-14.7,3.7-22c1.3-7,2.9-13.9,4.6-20.8
		c4.5-18.4,10.3-36.5,17.4-54.3c3.9-10,8.2-20,13-29.7c5.9-12.4,12.6-24.6,20-36.6c1.1-1.9,2.3-3.9,3.6-5.9
		c3.3-5.4,6.8-10.6,10.5-15.8c3.1-4.6,6.3-9.1,9.7-13.5c4.7-6.2,9.5-12.3,14.4-18.1c8.6-10.3,17.6-20.1,27-29.5
		c8.7-8.6,17.7-16.9,27-24.6c5.5-4.6,11.1-9.1,16.7-13.4c8.9-6.7,18-13.1,27.2-19c13.6-8.7,27.7-16.8,42.2-23.8
		c26.7-13.3,54.6-23.7,83.3-31.1c37.6-9.8,76.3-14.5,115.2-14c19.7,0.2,39.4,1.8,59,4.8c33.7,5,67,14,99.2,27.2
		c19.4,7.9,38.5,17.3,57,28.3c13.5,8,26.8,16.8,39.7,26.5c51.9,39,92.7,87.3,121.5,140.9c6.6,12.2,12.6,24.6,17.9,37.4
		c9.9,23.5,17.7,47.8,23.3,72.6c1.1,4.8,2.1,9.7,3,14.5c1.8,9.3,3.3,18.7,4.4,28.1c0.4,2.9,0.7,5.7,1,8.6c0.6,5.4,1.1,10.7,1.4,16
		l0.1,1.1c0.6,10.3,1,20.8,0.9,31.1c0,11.1-0.6,22.2-1.5,33.4c-0.9,10.7-2.1,21.5-3.9,32.2c-1.6,10.3-3.6,20.5-6,30.7
		c-3.8,16.3-8.6,32.4-14.4,48.4c-5.2,14.2-11.1,28.3-17.9,42.1c-5.1,10.5-10.7,20.9-16.8,31.1c-4.2,7.1-8.7,14.2-13.4,21.2
		c-4.1,6.2-8.5,12.4-13,18.4C1318.4,1078.7,1314.5,1083.6,1310.5,1088.4z"/>
	<linearGradient id="SVGID_19_" gradientUnits="userSpaceOnUse" x1="553.9016" y1="807.6213" x2="1376.2382" y2="807.6213">
		<stop  offset="1.980200e-02" style="stop-color:#FFAD00"/>
		<stop  offset="1" style="stop-color:#F65B00"/>
	</linearGradient>
	<path class="st23" d="M1376.2,810.6c0,10.5-0.5,21-1.4,31.6c-0.8,10.2-2,20.3-3.7,30.5c-1.5,9.7-3.4,19.4-5.7,29.1
		c-3.6,15.4-8.1,30.7-13.6,45.9c-4.9,13.5-10.5,26.8-16.9,39.8c-4.8,10-10.1,19.8-15.9,29.4c-4,6.8-8.2,13.5-12.7,20
		c-3.9,5.9-8,11.7-12.3,17.4c-3.6,4.8-7.3,9.5-11.1,14.1c-3.1,3.9-6.4,7.6-9.7,11.3c-9.3,10.7-19.1,20.6-29.2,30
		c-17,15.7-35,29.7-53.9,42c-4.9,3.3-9.9,6.4-14.9,9.3c-4.8,2.9-9.7,5.6-14.6,8.3c-7.6,4-15.3,8-23.2,11.5
		c-15.7,7.3-31.9,13.5-48.3,18.7c-5.7,1.8-11.4,3.5-17.2,5c0,0,0,0.1-0.1,0c-12.5,3.3-25,6.1-37.7,8.2c-19.4,3.3-39,5.2-58.7,5.8
		c-19.8,0.5-39.6-0.4-59.3-2.8c-13.6-1.6-27.2-4-40.7-7c-55.3-12.3-108.9-36.3-157.2-72.5c-2.5-1.9-5-3.8-7.5-5.8
		c-46.5-36.6-83-81.3-109.1-130.6c-4.2-7.9-8.1-15.9-11.7-24c-5-11.1-9.5-22.4-13.4-33.9c-0.8-2.2-1.5-4.4-2.2-6.7
		c-4.3-13.2-8-26.8-10.9-40.5c-1.3-5.7-2.5-11.4-3.4-17.2c-0.7-4.2-1.4-8.3-1.9-12.5c-1-6.4-1.7-12.9-2.3-19.3
		c-1.3-13.8-1.9-27.8-1.8-41.7c0.1-14.6,1-29.3,2.7-43.8c0.4-4,0.9-7.8,1.4-11.7c0.9-7,2.1-13.9,3.5-20.8c1.2-6.6,2.7-13.2,4.4-19.7
		c4.3-17.4,9.8-34.6,16.5-51.4c3.7-9.5,7.8-18.9,12.4-28.2c5.6-11.8,11.9-23.3,18.9-34.6c1.1-1.8,2.2-3.7,3.4-5.5
		c2-3.2,4-6.3,6.1-9.5c1.3-1.9,2.5-3.7,3.8-5.6c2.9-4.4,6-8.6,9.2-12.8c4.4-5.9,9-11.7,13.6-17.2c8.2-9.8,16.7-19,25.6-27.9
		c5.9-5.9,12-11.6,18.2-17c2.4-2.1,4.9-4.2,7.3-6.3c5.2-4.4,10.5-8.6,15.8-12.7c8.4-6.4,17-12.4,25.8-18c12.9-8.3,26.3-15.9,40-22.6
		c8.2-4.1,16.5-7.8,24.8-11.3c17.6-7.4,35.7-13.4,54-18.1c14.8-3.9,29.9-6.9,45.1-9.1c21.2-3.1,42.6-4.5,64-4.2
		c12,0.2,24,0.8,36,2.1c6.6,0.6,13.2,1.5,19.8,2.5c13.3,1.9,26.5,4.6,39.6,7.9c13.8,3.5,27.5,7.7,41,12.7c4.5,1.6,8.9,3.4,13.4,5.2
		c16.3,6.6,32.3,14.4,47.9,23.3c2,1.2,4.1,2.3,6.1,3.5c12.8,7.6,25.4,16,37.6,25.1c11.4,8.6,22.3,17.6,32.6,27.1
		c30.1,27.8,55.3,59.3,75.2,93.3c2.6,4.3,5,8.6,7.3,13c0.7,1.2,1.3,2.4,1.9,3.6c5.5,10.4,10.5,21,15,31.8
		c9.4,22.3,16.7,45.3,22.1,68.8c1,4.6,2,9.1,2.9,13.7c1.7,8.8,3.1,17.7,4.2,26.7c0.3,2.7,0.7,5.4,0.9,8.1c0.6,5.1,1,10.1,1.4,15.2
		l0.1,1C1376,790.9,1376.4,800.8,1376.2,810.6z"/>
	<path class="st24" d="M1375.4,781.1l-0.1-1.1c-0.4-5.1-0.8-10.1-1.4-15.2c-0.3-2.7-0.6-5.4-0.9-8.1c-1.1-8.9-2.5-17.9-4.2-26.7
		c-0.8-4.6-1.8-9.2-2.9-13.7c-5.3-23.5-12.7-46.5-22.1-68.8c-1.1-2.7-2.3-5.4-3.4-8c-4.1-9.3-8.6-18.4-13.5-27.4
		c-2.4-4.4-4.8-8.7-7.4-13c-43.4,15.1-183.8,70.8-157.7,155.3c30.8,99.6,166.4,218,114.1,226.3c-52.3,8.4-141.2-32.6-246.3,7.5
		c-105,40.1-113.6,227.6-113.6,227.6c19.7,2.4,39.5,3.3,59.3,2.8c3.9-0.1,7.9-0.3,11.8-0.5c15.7-0.9,31.3-2.6,46.8-5.3
		c12.7-2.1,25.2-4.9,37.7-8.3c0,0,0.1,0,0.1,0c5.8-1.5,11.6-3.2,17.2-5c16.4-5.2,32.6-11.4,48.3-18.7c7.8-3.5,15.6-7.5,23.2-11.5
		c4.9-2.7,9.8-5.4,14.6-8.3c5-2.9,10-6.1,14.9-9.3c18.9-12.3,36.9-26.3,53.9-42c10.1-9.4,19.9-19.3,29.2-30c2.5-2.8,4.9-5.6,7.3-8.5
		c0.8-0.9,1.6-1.9,2.4-2.9c3.7-4.6,7.4-9.2,11-14.1c4.3-5.8,8.4-11.6,12.3-17.5c4.5-6.6,8.7-13.3,12.7-20c5.7-9.6,11-19.5,15.9-29.4
		c6.4-13,12-26.4,16.9-39.8c0.3-0.9,0.7-1.8,0.9-2.7c5.1-14.3,9.3-28.6,12.7-43.2c2.3-9.6,4.2-19.3,5.6-29.1
		c1.7-10.2,2.9-20.4,3.7-30.5c0.9-10.5,1.4-21.1,1.4-31.6C1376.4,800.8,1376,790.9,1375.4,781.1z M1061,1011.2
		c-5.4,0-9.7-4.4-9.7-9.8c0-5.4,4.3-9.7,9.7-9.7s9.7,4.4,9.7,9.7C1070.7,1006.8,1066.4,1011.2,1061,1011.2z M1243.4,663.9
		c5.5,0,10,4.5,10,10c0,5.5-4.5,10-10,10c-5.5,0-10-4.5-10-10C1233.5,668.4,1237.9,663.9,1243.4,663.9z M1207.2,807.9
		c-5.5,0-10-4.5-10-10c0-5.5,4.5-10,10-10c5.5,0,10,4.5,10,10C1217.2,803.5,1212.7,807.9,1207.2,807.9z M1180.9,728.2
		c0-20,16.2-36.3,36.3-36.3c20,0,36.2,16.2,36.2,36.3c0,20-16.2,36.3-36.2,36.3C1197.1,764.4,1180.9,748.2,1180.9,728.2z
		 M1258.6,798c-10.8,0-19.6-8.8-19.6-19.6c0-10.8,8.8-19.6,19.6-19.6c10.8,0,19.6,8.8,19.6,19.6C1278.1,789.2,1269.4,798,1258.6,798
		z"/>
	<path class="st24" d="M1222.3,606.2c-1.4-1.1-3.2-1.7-5.1-1.7c-4.6,0-8.3,3.7-8.3,8.3c0,3,1.6,5.7,4,7.1
		c-13.3,17.4-29.9,32.1-45.5,35.1c-47.4,9.2-94.2-54.3-64-88.1c30.2-33.8,123.1-27.8,134-10.9
		C1242.5,564.1,1235.3,585.4,1222.3,606.2z"/>
	<path class="st25" d="M1068.6,922.8c32.8-11.9,78.8,2.5,115.9-29c37.1-31.5-41.6-72.4-57.9-125.8c-16.3-53.4-71.5-40.7-66.1,15.4
		s7.2,83.3-19,110.5C1015.2,921,1038.8,933.7,1068.6,922.8z"/>
	<path class="st25" d="M1141.1,775.3c0,0-20.8-67.3-56.4-61.3c-35.6,6-39.8,44-32,76.9c7.8,32.9-7.8,79.4-7.8,79.4s8.5-50.1-3-86.9
		c-11.5-36.8-0.6-86.9,43.5-88.1C1129.3,694.1,1141.1,775.3,1141.1,775.3z"/>
	<path class="st25" d="M1025.5,896.9c0,0-24.7,32.6,0,43.5c24.7,10.9,48.9-13.4,93.6-13.6c44.7-0.3,68.8-10.5,68.8-10.5
		s-31.2,12.7-78.5,17.5c-47.3,4.8-84.5,26.7-103.2,9.4C987.5,925.9,1025.5,896.9,1025.5,896.9z"/>
	<path class="st25" d="M1120.2,453.3c0,0-36.9,38-132.5,32s-133.7-42.9-133.7-42.9s64,27.2,133.1,29
		C1056.3,473.2,1120.2,453.3,1120.2,453.3z"/>
	<path class="st25" d="M1107,421.6c-14.2,11.4-56.4,38.9-119.2,25.4c-44.4-9.6-68.6-30.3-81.3-46.4c21.1-3.1,42.6-4.5,64-4.2
		c12,0.2,24,0.8,36,2.1l59.4,10.4C1079.8,412.4,1093.4,416.6,1107,421.6z"/>
	<path class="st25" d="M875.4,1209c-55.3-12.3-108.9-36.3-157.2-72.5c-50.1-37.6-89.2-84.5-116.6-136.4c15.9-9.7,93-54.2,117.8-17.5
		c27.8,41-1.4,78.8,26.6,119.5c28,40.7,65.2,25.4,91.7,41C859.9,1156.3,872,1196.2,875.4,1209z"/>
	<path class="st24" d="M1211.9,478.7c-12.2-9.2-24.8-17.5-37.6-25.1c-2-1.2-4.1-2.4-6.1-3.5c-40.1,16.3-113.9,48.1-150.5,75.2
		c-14.4,10.6-37.8,7.2-64.2-3.3c-2.4,12.7-13.5,22.4-26.9,22.4c-15.1,0-27.4-12.3-27.4-27.4c0-7.2,2.8-13.8,7.5-18.7
		C865.7,474,826,443,807.3,427.8c-8.4,3.5-16.7,7.2-24.8,11.3c-13.7,6.7-27.1,14.3-40,22.6c-8.8,5.6-17.3,11.6-25.7,18
		c-5.4,4.1-10.6,8.3-15.8,12.7c-2.5,2-4.9,4.1-7.3,6.3c29.5,4.2,65.1,11.5,94.6,24c62.8,26.6,113.5,46,108.6,106.3
		c-4.8,60.4-101.4,11.8-194.3-29.7c-31-13.8-57.6-19.2-79.3-20.1c-2.1,3.1-4.2,6.3-6.1,9.5c-1.2,1.8-2.4,3.7-3.4,5.5
		c-7,11.3-13.3,22.9-18.9,34.6c-4.6,9.3-8.7,18.7-12.4,28.2c-6.7,16.8-12.2,34-16.5,51.4c-1.7,6.5-3.2,13.1-4.4,19.7
		c-0.2,0.8-0.3,1.7-0.5,2.5c-1.2,6.1-2.2,12.2-3,18.3c-0.6,3.9-1.1,7.7-1.4,11.7c-1.7,14.5-2.6,29.2-2.7,43.8
		c-0.1,10.2,0.2,20.4,0.9,30.6c0.2,3.7,0.5,7.5,0.9,11.2c0.7,6.4,1.4,12.9,2.4,19.3c0.5,4.1,1.2,8.3,1.9,12.5
		c0.9,5.8,2.1,11.5,3.4,17.2c2.9,13.7,6.6,27.2,10.9,40.5c0.7,2.2,1.4,4.5,2.2,6.7c3.9,11.4,8.4,22.7,13.4,33.9
		c24.5-14.2,68.7-35.7,111.4-35.7c64,0,43.5,115.9,60.4,132.8c16.9,16.9,35-45.9,82.1-73.6c47.1-27.8,123.3-18.1,131.1-42.3
		c7.8-24.2,7.1-55.5,26.1-79.7c19-24.2-12.5-140,5.7-182.3c18.2-42.2,66.5-50.2,65.3-83c-1.2-32.8-6-74,48.3-95.1
		c0.5-0.2,1.1-0.4,1.6-0.6c6-2.2,12.2-4.1,18.6-5.6c39.8-9.6,85.1-6.8,104-5.1C1234.1,496.4,1223.3,487.3,1211.9,478.7z
		 M688.4,611.4c20,0,36.2,16.2,36.2,36.3c0,20-16.2,36.3-36.2,36.3c-20,0-36.3-16.2-36.3-36.3C652.2,627.6,668.4,611.4,688.4,611.4z
		 M632.8,675.7c10.8,0,19.6,8.8,19.6,19.6c0,10.8-8.8,19.6-19.6,19.6c-10.8,0-19.6-8.7-19.6-19.6C613.2,684.5,622,675.7,632.8,675.7
		z M801.6,991.7c-20,0-36.3-16.2-36.3-36.3c0-20,16.2-36.3,36.3-36.3c20,0,36.2,16.2,36.2,36.3C837.8,975.5,821.6,991.7,801.6,991.7
		z M851.5,926.7c-3.9,0-7.1-3.2-7.1-7.1c0-3.9,3.2-7.1,7.1-7.1c3.9,0,7.1,3.2,7.1,7.1C858.6,923.5,855.4,926.7,851.5,926.7z
		 M871.3,955.4c-5.5,0-10-4.5-10-10c0-5.5,4.5-10,10-10c5.5,0,10,4.5,10,10C881.3,951,876.8,955.4,871.3,955.4z M971.6,563.8
		c-5.4,0-9.7-4.4-9.7-9.8s4.4-9.7,9.7-9.7c5.4,0,9.8,4.3,9.8,9.7S977,563.8,971.6,563.8z M1037.5,549.4c-5.5,0-10-4.5-10-10
		c0-5.5,4.5-10,10-10c5.5,0,10,4.5,10,10C1047.5,544.9,1043,549.4,1037.5,549.4z"/>
	
		<ellipse transform="matrix(0.2298 -0.9732 0.9732 0.2298 -206.337 1793.8005)" class="st26" cx="1030.1" cy="1027.3" rx="21.1" ry="21.1"/>
	
		<ellipse transform="matrix(0.2298 -0.9732 0.9732 0.2298 0.5616 1951.9045)" class="st26" cx="1233.5" cy="975.6" rx="21.1" ry="21.1"/>
	
		<ellipse transform="matrix(0.7071 -0.7071 0.7071 0.7071 -419.9157 689.8545)" class="st26" cx="622.8" cy="851.8" rx="21.1" ry="21.1"/>
	
		<ellipse transform="matrix(0.1602 -0.9871 0.9871 0.1602 -194.1994 1868.5154)" class="st26" cx="1001" cy="1048.4" rx="9.8" ry="9.8"/>
	
		<ellipse transform="matrix(0.7071 -0.7071 0.7071 0.7071 -137.5813 1143.3646)" class="st26" cx="1311.4" cy="737.8" rx="9.8" ry="9.8"/>
	
		<ellipse transform="matrix(0.2298 -0.9732 0.9732 0.2298 370.87 1497.1661)" class="st26" cx="1131.3" cy="514.3" rx="9.8" ry="9.8"/>
	<path class="st26" d="M1190.7,615.8c0,2.4-2,4.4-4.4,4.4s-4.4-2-4.4-4.4s2-4.4,4.4-4.4S1190.7,613.3,1190.7,615.8z"/>
	<path class="st26" d="M1261.1,854.8c0,3.2-2.6,5.9-5.9,5.9c-3.2,0-5.9-2.6-5.9-5.9c0-3.2,2.6-5.9,5.9-5.9
		C1258.5,849,1261.1,851.6,1261.1,854.8z"/>
	<path class="st26" d="M1223,910.5c0,3.2-2.6,5.9-5.9,5.9c-3.2,0-5.9-2.6-5.9-5.9c0-3.2,2.6-5.9,5.9-5.9
		C1220.4,904.6,1223,907.3,1223,910.5z"/>
	<circle class="st26" cx="1261.4" cy="831.1" r="2.1"/>
	<path class="st26" d="M1190,767.7c0,1.2-1,2.1-2.1,2.1c-1.2,0-2.1-1-2.1-2.1c0-1.2,1-2.1,2.1-2.1C1189,765.6,1190,766.5,1190,767.7
		z"/>
	<path class="st26" d="M1246.5,648c0,1.2-1,2.1-2.1,2.1c-1.2,0-2.1-1-2.1-2.1c0-1.2,1-2.1,2.1-2.1
		C1245.6,645.9,1246.5,646.9,1246.5,648z"/>
	<path class="st26" d="M1313.5,681.7c0,1.2-1,2.1-2.1,2.1c-1.2,0-2.1-1-2.1-2.1c0-1.2,1-2.1,2.1-2.1
		C1312.5,679.6,1313.5,680.5,1313.5,681.7z"/>
	<path class="st26" d="M1280.2,645.9c0,3.2-2.6,5.9-5.9,5.9s-5.9-2.6-5.9-5.9c0-3.2,2.6-5.9,5.9-5.9S1280.2,642.7,1280.2,645.9z"/>
	<path class="st26" d="M1289.1,929.6c0,3.2-2.6,5.9-5.9,5.9s-5.9-2.6-5.9-5.9c0-3.2,2.6-5.9,5.9-5.9S1289.1,926.4,1289.1,929.6z"/>
	<path class="st26" d="M1206,645.9c0,3.2-2.6,5.9-5.9,5.9c-3.2,0-5.9-2.6-5.9-5.9c0-3.2,2.6-5.9,5.9-5.9
		C1203.4,640,1206,642.7,1206,645.9z"/>
	<path class="st26" d="M1334.5,786.2c0,3.2-2.6,5.9-5.9,5.9c-3.2,0-5.9-2.6-5.9-5.9c0-3.2,2.6-5.9,5.9-5.9
		C1331.9,780.4,1334.5,783,1334.5,786.2z"/>
	<path class="st26" d="M1328.6,838.2c0,3.2-2.6,5.9-5.9,5.9s-5.9-2.6-5.9-5.9c0-3.2,2.6-5.9,5.9-5.9S1328.6,834.9,1328.6,838.2z"/>
	
		<ellipse transform="matrix(0.1602 -0.9871 0.9871 0.1602 172.5123 1550.5607)" class="st26" cx="997.5" cy="673.9" rx="9.8" ry="9.8"/>
	
		<ellipse transform="matrix(0.9134 -0.407 0.407 0.9134 -129.4169 363.3177)" class="st27" cx="789.4" cy="485.9" rx="9.8" ry="9.8"/>
	
		<ellipse transform="matrix(0.7071 -0.7071 0.7071 0.7071 -311.9952 950.3976)" class="st26" cx="991.2" cy="851.8" rx="9.8" ry="9.8"/>
	
		<ellipse transform="matrix(0.7071 -0.7071 0.7071 0.7071 -404.6796 805.405)" class="st26" cx="769.9" cy="891.2" rx="9.8" ry="9.8"/>
	<defs>
		<filter id="Adobe_OpacityMaskFilter_10_" filterUnits="userSpaceOnUse" x="0" y="607" width="710.7" height="710.7">
			<feColorMatrix  type="matrix" values="1 0 0 0 0  0 1 0 0 0  0 0 1 0 0  0 0 0 1 0"/>
		</filter>
	</defs>
	<mask maskUnits="userSpaceOnUse" x="0" y="607" width="710.7" height="710.7" id="SVGID_20_">
		<g class="st28">
			<defs>
				<filter id="Adobe_OpacityMaskFilter_11_" filterUnits="userSpaceOnUse" x="0" y="607" width="710.7" height="710.7">
					<feFlood  style="flood-color:white;flood-opacity:1" result="back"/>
					<feBlend  in="SourceGraphic" in2="back" mode="normal"/>
				</filter>
			</defs>
			<mask maskUnits="userSpaceOnUse" x="0" y="607" width="710.7" height="710.7" id="SVGID_20_">
				<g class="st29">
				</g>
			</mask>
			<radialGradient id="SVGID_21_" cx="348.2598" cy="984.4932" r="376.2391" gradientUnits="userSpaceOnUse">
				<stop  offset="0" style="stop-color:#FFFFFF"/>
				<stop  offset="0.7822" style="stop-color:#000000"/>
			</radialGradient>
			<circle class="st30" cx="355.4" cy="962.4" r="355.4"/>
		</g>
	</mask>
	<g>
		<defs>
			<filter id="Adobe_OpacityMaskFilter_12_" filterUnits="userSpaceOnUse" x="0" y="607" width="710.7" height="710.7">
				<feFlood  style="flood-color:white;flood-opacity:1" result="back"/>
				<feBlend  in="SourceGraphic" in2="back" mode="normal"/>
			</filter>
		</defs>
		<mask maskUnits="userSpaceOnUse" x="0" y="607" width="710.7" height="710.7" id="SVGID_22_">
			<g class="st31">
				<defs>
					<filter id="Adobe_OpacityMaskFilter_13_" filterUnits="userSpaceOnUse" x="0" y="607" width="710.7" height="710.7">
						<feFlood  style="flood-color:white;flood-opacity:1" result="back"/>
						<feBlend  in="SourceGraphic" in2="back" mode="normal"/>
					</filter>
				</defs>
				<mask maskUnits="userSpaceOnUse" x="0" y="607" width="710.7" height="710.7" id="SVGID_22_">
					<g class="st32">
					</g>
				</mask>
				<radialGradient id="SVGID_23_" cx="351.8795" cy="971.8238" r="372.5912" gradientUnits="userSpaceOnUse">
					<stop  offset="0" style="stop-color:#FFFFFF"/>
					<stop  offset="1" style="stop-color:#000000"/>
				</radialGradient>
				<path class="st33" d="M660.3,771c181.3,337.5-158.8,677.6-496.3,496.3c-48.1-25.8-87.6-65.4-113.5-113.5
					c-181.3-337.5,158.8-677.6,496.3-496.3C594.9,683.3,634.4,722.9,660.3,771z"/>
			</g>
		</mask>
		<radialGradient id="SVGID_24_" cx="351.8795" cy="971.8238" r="372.5912" gradientUnits="userSpaceOnUse">
			<stop  offset="0" style="stop-color:#FFFFFF"/>
			<stop  offset="1" style="stop-color:#000000"/>
		</radialGradient>
		<path class="st34" d="M660.3,771c181.3,337.5-158.8,677.6-496.3,496.3c-48.1-25.8-87.6-65.4-113.5-113.5
			c-181.3-337.5,158.8-677.6,496.3-496.3C594.9,683.3,634.4,722.9,660.3,771z"/>
	</g>
	<path class="st26" d="M1280.6,1071.3c-2.4,2.9-4.8,5.7-7.3,8.5c-9.3,10.6-19.1,20.6-29.2,30c-17,15.7-35,29.7-53.9,42
		c-4.9,3.3-9.9,6.4-14.9,9.3c-4.9,2.9-9.7,5.6-14.6,8.3c-7.6,4.1-15.4,8-23.2,11.5c-15.7,7.3-31.9,13.5-48.3,18.7
		c-5.6,1.8-11.4,3.5-17.2,5c0,0,0,0.1-0.1,0c-12.5,3.3-25,6.1-37.7,8.3c-15.5,2.6-31.1,4.4-46.8,5.3c-13.9-19.3-36.3-56.7-29.9-89.8
		c9-47.1,59.3-47.1,93.9-65.2c34.6-18.1,31.9-64.2,64.5-71.5c32.6-7.3,34.9,46.9,74.9,66.5
		C1217.9,1071.5,1257.9,1072.2,1280.6,1071.3z"/>
	<path class="st26" d="M1376.2,810.6c0,10.5-0.5,21-1.4,31.6c-0.8,10.2-2,20.4-3.7,30.5c-1.5,9.7-3.4,19.4-5.6,29.1
		c-3.4,14.5-7.6,28.9-12.7,43.2c-25.7-15.1-59.8-39.5-69.6-67.4c-16.3-46.5,8.4-66.1,18.1-99.2c9.7-33-31.4-51.8-32-77.1
		c-0.6-23.4,55-40.7,71.1-61.7c1.2,2.6,2.3,5.3,3.4,8c9.4,22.3,16.7,45.3,22.1,68.8c1.1,4.6,2,9.1,2.9,13.7
		c1.7,8.8,3.1,17.7,4.2,26.7c0.3,2.7,0.7,5.4,0.9,8.1c0.6,5.1,1,10.1,1.4,15.2l0.1,1.1C1376,790.9,1376.4,800.8,1376.2,810.6z"/>
	<path class="st26" d="M953.7,909c-27.8,28.3-70.6-24.8-124.9-47.4c-54.3-22.6-81.5,37.9-132.2,47.4c-50.7,9.6-19.3-58-19.3-83.3
		c0-20.4-88.1,0.4-122.4,9.2c-0.7-10.1-1-20.4-0.9-30.6c0.1-14.6,1-29.3,2.7-43.8c0.4-3.9,0.9-7.8,1.4-11.7c0.8-6.2,1.8-12.2,3-18.3
		c53.2,16,110.6,29.1,154.2,28.3c109.2-2,157.9-70.9,200.9-63.6c43,7.3,18.2,58.5,11.6,102.6C921.1,842,981.4,880.7,953.7,909z"/>
	<defs>
		<filter id="Adobe_OpacityMaskFilter_14_" filterUnits="userSpaceOnUse" x="614.6" y="407.4" width="493.5" height="359.6">
			<feColorMatrix  type="matrix" values="1 0 0 0 0  0 1 0 0 0  0 0 1 0 0  0 0 0 1 0"/>
		</filter>
	</defs>
	<mask maskUnits="userSpaceOnUse" x="614.6" y="407.4" width="493.5" height="359.6" id="SVGID_25_">
		<g class="st35">
			<defs>
				<filter id="Adobe_OpacityMaskFilter_15_" filterUnits="userSpaceOnUse" x="614.6" y="407.4" width="493.5" height="359.6">
					<feFlood  style="flood-color:white;flood-opacity:1" result="back"/>
					<feBlend  in="SourceGraphic" in2="back" mode="normal"/>
				</filter>
			</defs>
			<mask maskUnits="userSpaceOnUse" x="614.6" y="407.4" width="493.5" height="359.6" id="SVGID_25_">
				<g class="st36">
				</g>
			</mask>
			
				<linearGradient id="SVGID_26_" gradientUnits="userSpaceOnUse" x1="925.5793" y1="314.7824" x2="955.8792" y2="537.3227" gradientTransform="matrix(1.0265 -0.5286 0.6244 1.2124 -370.3439 567.952)">
				<stop  offset="0" style="stop-color:#FFFFFF"/>
				<stop  offset="1" style="stop-color:#000000"/>
			</linearGradient>
			<path class="st37" d="M1098.5,465.1c37.5,72.9-38.2,186.6-169.2,254.1c-131,67.4-267.6,63-305.1-9.9
				c-37.5-72.9,38.2-186.6,169.2-254.1C924.3,387.8,1060.9,392.2,1098.5,465.1z"/>
		</g>
	</mask>
	
		<linearGradient id="SVGID_27_" gradientUnits="userSpaceOnUse" x1="925.5793" y1="314.7824" x2="955.8792" y2="537.3227" gradientTransform="matrix(1.0265 -0.5286 0.6244 1.2124 -370.3439 567.952)">
		<stop  offset="0" style="stop-color:#FFFFFF"/>
		<stop  offset="1" style="stop-color:#FFFFFF"/>
	</linearGradient>
	<path class="st38" d="M1098.5,465.1c37.5,72.9-38.2,186.6-169.2,254.1c-131,67.4-267.6,63-305.1-9.9
		c-37.5-72.9,38.2-186.6,169.2-254.1C924.3,387.8,1060.9,392.2,1098.5,465.1z"/>
	<path class="st39" d="M954.1,443.8c8,15.6-33.6,53.1-93.1,83.7c-59.5,30.6-114.2,42.8-122.2,27.2c-8-15.6,33.6-53.1,93.1-83.7
		C891.4,440.3,946.1,428.1,954.1,443.8z"/>
	<path class="st39" d="M722.1,575c5.6,10.9,1.3,24.4-9.6,30c-10.9,5.6-24.4,1.3-30-9.6c-5.6-10.9-1.3-24.4,9.6-30
		C703,559.7,716.4,564,722.1,575z"/>
	<defs>
		<filter id="Adobe_OpacityMaskFilter_16_" filterUnits="userSpaceOnUse" x="317" y="45.2" width="925.3" height="925.3">
			<feColorMatrix  type="matrix" values="1 0 0 0 0  0 1 0 0 0  0 0 1 0 0  0 0 0 1 0"/>
		</filter>
	</defs>
	<mask maskUnits="userSpaceOnUse" x="317" y="45.2" width="925.3" height="925.3" id="SVGID_28_">
		<g class="st40">
			<defs>
				<filter id="Adobe_OpacityMaskFilter_17_" filterUnits="userSpaceOnUse" x="317" y="45.2" width="925.3" height="925.3">
					<feFlood  style="flood-color:white;flood-opacity:1" result="back"/>
					<feBlend  in="SourceGraphic" in2="back" mode="normal"/>
				</filter>
			</defs>
			<mask maskUnits="userSpaceOnUse" x="317" y="45.2" width="925.3" height="925.3" id="SVGID_28_">
				<g class="st41">
				</g>
			</mask>
			<radialGradient id="SVGID_29_" cx="770.378" cy="536.5717" r="489.8364" gradientUnits="userSpaceOnUse">
				<stop  offset="0" style="stop-color:#FFFFFF"/>
				<stop  offset="0.7822" style="stop-color:#000000"/>
			</radialGradient>
			<circle class="st42" cx="779.6" cy="507.8" r="462.7"/>
		</g>
	</mask>
	<g>
		<defs>
			<filter id="Adobe_OpacityMaskFilter_18_" filterUnits="userSpaceOnUse" x="317" y="45.2" width="925.3" height="925.3">
				<feFlood  style="flood-color:white;flood-opacity:1" result="back"/>
				<feBlend  in="SourceGraphic" in2="back" mode="normal"/>
			</filter>
		</defs>
		<mask maskUnits="userSpaceOnUse" x="317" y="45.2" width="925.3" height="925.3" id="SVGID_30_">
			<g class="st43">
				<defs>
					<filter id="Adobe_OpacityMaskFilter_19_" filterUnits="userSpaceOnUse" x="317" y="45.2" width="925.3" height="925.3">
						<feFlood  style="flood-color:white;flood-opacity:1" result="back"/>
						<feBlend  in="SourceGraphic" in2="back" mode="normal"/>
					</filter>
				</defs>
				<mask maskUnits="userSpaceOnUse" x="317" y="45.2" width="925.3" height="925.3" id="SVGID_30_">
					<g class="st44">
					</g>
				</mask>
				<radialGradient id="SVGID_31_" cx="775.0905" cy="520.077" r="485.087" gradientUnits="userSpaceOnUse">
					<stop  offset="0" style="stop-color:#FFFFFF"/>
					<stop  offset="1" style="stop-color:#000000"/>
				</radialGradient>
				<path class="st45" d="M1176.6,258.6c236,439.4-206.8,882.2-646.2,646.2c-62.6-33.6-114.1-85.1-147.7-147.7
					c-236-439.4,206.8-882.2,646.2-646.2C1091.4,144.5,1142.9,196,1176.6,258.6z"/>
			</g>
		</mask>
		<radialGradient id="SVGID_32_" cx="775.0905" cy="520.077" r="485.087" gradientUnits="userSpaceOnUse">
			<stop  offset="0" style="stop-color:#FFFFFF"/>
			<stop  offset="1" style="stop-color:#000000"/>
		</radialGradient>
		<path class="st46" d="M1176.6,258.6c236,439.4-206.8,882.2-646.2,646.2c-62.6-33.6-114.1-85.1-147.7-147.7
			c-236-439.4,206.8-882.2,646.2-646.2C1091.4,144.5,1142.9,196,1176.6,258.6z"/>
	</g>
	<path class="st47" d="M1376.2,810.6c0,10.5-0.5,21-1.4,31.6c-0.8,10.2-2,20.3-3.7,30.5c-1.5,9.7-3.4,19.4-5.7,29.1
		c-3.6,15.4-8.1,30.7-13.6,45.9c-4.9,13.5-10.5,26.8-16.9,39.8c-4.8,10-10.1,19.8-15.9,29.4c-4,6.8-8.2,13.5-12.7,20
		c-3.9,5.9-8,11.7-12.3,17.4c-3.6,4.8-7.3,9.5-11.1,14.1c-3.1,3.9-6.4,7.6-9.7,11.3c-9.3,10.7-19.1,20.6-29.2,30
		c-17,15.7-35,29.7-53.9,42c-4.9,3.3-9.9,6.4-14.9,9.3c-4.8,2.9-9.7,5.6-14.6,8.3c-7.6,4-15.3,8-23.2,11.5
		c-15.7,7.3-31.9,13.5-48.3,18.7c-5.7,1.8-11.4,3.5-17.2,5c0,0,0,0.1-0.1,0c-12.5,3.3-25,6.1-37.7,8.2c-19.4,3.3-39,5.2-58.7,5.8
		c-19.8,0.5-39.6-0.4-59.3-2.8c-13.6-1.6-27.2-4-40.7-7c-55.3-12.3-108.9-36.3-157.2-72.5c-2.5-1.9-5-3.8-7.5-5.8
		c157.7,56.8,355.2,31,495.3-82.3c146.4-118.4,157-278.1,122.8-432.6c5.5,10.4,10.5,21,15,31.8c9.4,22.3,16.7,45.3,22.1,68.8
		c1,4.6,2,9.1,2.9,13.7c1.7,8.8,3.1,17.7,4.2,26.7c0.3,2.7,0.7,5.4,0.9,8.1c0.6,5.1,1,10.1,1.4,15.2l0.1,1
		C1376,790.9,1376.4,800.8,1376.2,810.6z"/>
	<defs>
		<filter id="Adobe_OpacityMaskFilter_20_" filterUnits="userSpaceOnUse" x="553.9" y="396.4" width="822.3" height="822.4">
			<feFlood  style="flood-color:white;flood-opacity:1" result="back"/>
			<feBlend  in="SourceGraphic" in2="back" mode="normal"/>
		</filter>
	</defs>
	<mask maskUnits="userSpaceOnUse" x="553.9" y="396.4" width="822.3" height="822.4" id="SVGID_33_">
		<g class="st48">
			<defs>
				<filter id="Adobe_OpacityMaskFilter_21_" filterUnits="userSpaceOnUse" x="553.9" y="396.4" width="822.3" height="822.4">
					<feFlood  style="flood-color:white;flood-opacity:1" result="back"/>
					<feBlend  in="SourceGraphic" in2="back" mode="normal"/>
				</filter>
			</defs>
			<mask maskUnits="userSpaceOnUse" x="553.9" y="396.4" width="822.3" height="822.4" id="SVGID_33_">
				<g class="st49">
				</g>
			</mask>
			
				<linearGradient id="SVGID_34_" gradientUnits="userSpaceOnUse" x1="1114.5486" y1="1176.1958" x2="1325.8889" y2="1971.1301" gradientTransform="matrix(0.7998 0.6003 -0.6003 0.7998 933.8275 -1183.484)">
				<stop  offset="0" style="stop-color:#FFFFFF"/>
				<stop  offset="1" style="stop-color:#000000"/>
			</linearGradient>
			<path class="st50" d="M1306.3,1037c4.5-6.6,8.7-13.3,12.7-20c5.7-9.6,11-19.5,15.9-29.4c6.4-13,12-26.4,16.9-39.9
				c5.5-15.1,10-30.4,13.6-45.9c2.3-9.6,4.2-19.3,5.7-29.1c1.7-10.2,2.9-20.4,3.7-30.5c0.9-10.5,1.4-21.1,1.4-31.6
				c0.1-9.8-0.2-19.7-0.8-29.4l-0.1-1.1c-0.3-5.1-0.8-10.1-1.4-15.2c-0.3-2.7-0.6-5.4-1-8.1c-1.1-8.9-2.5-17.9-4.2-26.7
				c-0.8-4.6-1.8-9.2-2.9-13.7c-5.3-23.5-12.7-46.5-22.1-68.8c-5-12.1-10.7-23.8-16.9-35.4c-27.4-50.8-65.9-96.5-115.1-133.5
				c-12.2-9.2-24.8-17.5-37.6-25.1c-17.5-10.4-35.6-19.3-54-26.8c-30.6-12.5-62.1-21.1-94-25.8c-18.5-2.8-37.2-4.3-55.8-4.5
				c-36.8-0.5-73.5,4-109.1,13.2c-27.1,7-53.6,16.8-78.8,29.4c-13.7,6.7-27,14.3-40,22.5c-8.8,5.6-17.3,11.6-25.7,18
				c-5.4,4.1-10.6,8.3-15.8,12.7c-8.8,7.3-17.3,15.2-25.6,23.3c-8.9,8.8-17.4,18.1-25.6,27.9c-4.7,5.5-9.2,11.3-13.6,17.2
				c-3.1,4.2-6.2,8.4-9.2,12.8c-3.5,4.9-6.8,9.9-9.9,15c-1.2,1.8-2.4,3.7-3.4,5.6c-6.9,11.4-13.3,22.9-18.9,34.6
				c-4.5,9.3-8.7,18.7-12.4,28.2c-6.7,16.9-12.2,34-16.5,51.4c-1.7,6.5-3.1,13.1-4.4,19.7c-1.4,6.9-2.6,13.8-3.5,20.8
				c-0.6,3.9-1.1,7.7-1.5,11.7c-1.7,14.5-2.6,29.2-2.7,43.8c-0.1,13.9,0.5,27.9,1.8,41.7c0.6,6.4,1.4,12.9,2.3,19.3
				c0.5,4.1,1.2,8.3,1.9,12.5c1,5.8,2.1,11.5,3.4,17.2c2.9,13.6,6.6,27.2,10.9,40.4c0.7,2.3,1.4,4.5,2.2,6.7
				c25.9,74.9,73.6,143.2,141.7,194.3c60.1,45.1,128.4,71.2,197.9,79.5c19.7,2.4,39.6,3.3,59.3,2.8c19.7-0.5,39.3-2.5,58.7-5.8
				c12.7-2.1,25.2-4.9,37.7-8.3c0.1,0,0.1,0,0.1,0c5.8-1.5,11.5-3.2,17.2-5c16.4-5.2,32.6-11.4,48.3-18.7
				c7.8-3.6,15.6-7.5,23.2-11.5c4.9-2.7,9.8-5.4,14.6-8.3c5-2.9,10-6.1,15-9.3c18.9-12.3,36.9-26.3,53.9-42
				c10.1-9.4,19.9-19.4,29.2-30c3.3-3.7,6.5-7.5,9.7-11.3c3.8-4.6,7.4-9.2,11.1-14.1C1298.3,1048.7,1302.4,1042.8,1306.3,1037z
				 M1278.2,1050.5c-3,3.7-6.2,7.4-9.3,10.9c-9,10.3-18.4,19.9-28.2,28.9c-16.4,15.1-33.7,28.6-52,40.5c-4.8,3.1-9.6,6.2-14.4,9
				c-4.7,2.8-9.4,5.4-14.1,8c-7.3,3.9-14.8,7.7-22.3,11.1c-15.2,7-30.8,13-46.6,18c-5.5,1.7-11,3.3-16.6,4.8c0,0,0,0.1-0.1,0
				c-12,3.2-24.1,5.9-36.3,8c-18.7,3.2-37.6,5-56.6,5.6c-19.1,0.5-38.2-0.4-57.2-2.7c-67.1-8-132.9-33.2-190.9-76.7
				c-65.7-49.3-111.7-115.1-136.7-187.4c-0.7-2.1-1.4-4.3-2.1-6.5c-4.2-12.8-7.7-25.8-10.5-39c-1.2-5.5-2.3-11-3.3-16.6
				c-0.7-4-1.3-8-1.8-12c-0.9-6.2-1.6-12.4-2.2-18.6c-1.3-13.3-1.9-26.8-1.8-40.2c0.1-14.1,1-28.2,2.6-42.2
				c0.4-3.8,0.8-7.5,1.4-11.2c0.9-6.8,2.1-13.4,3.4-20.1c1.2-6.4,2.6-12.7,4.2-19c4.1-16.8,9.4-33.4,15.9-49.6
				c3.5-9.2,7.5-18.2,11.9-27.2c5.4-11.4,11.5-22.5,18.2-33.4c1-1.8,2.1-3.6,3.3-5.4c3-4.9,6.2-9.7,9.6-14.5
				c2.8-4.2,5.8-8.3,8.8-12.3c4.3-5.7,8.7-11.2,13.2-16.6c7.9-9.4,16.1-18.4,24.7-26.9c7.9-7.9,16.2-15.5,24.6-22.5
				c5-4.2,10.1-8.3,15.3-12.3c8.1-6.1,16.4-11.9,24.8-17.3c12.5-8,25.3-15.3,38.5-21.7c24.4-12.1,49.9-21.6,76-28.4
				c34.3-8.9,69.7-13.2,105.2-12.8c18,0.2,36,1.7,53.9,4.4c30.8,4.6,61.2,12.8,90.7,24.9c17.7,7.2,35.1,15.8,52,25.9
				c12.3,7.3,24.5,15.4,36.2,24.2c47.4,35.6,84.6,79.7,111,128.7c6,11.1,11.5,22.5,16.3,34.2c9,21.5,16.1,43.7,21.3,66.3
				c1,4.4,1.9,8.8,2.8,13.3c1.6,8.5,3,17.1,4,25.7c0.3,2.6,0.6,5.2,0.9,7.8c0.6,4.9,1,9.8,1.3,14.7l0.1,1c0.5,9.4,0.9,19,0.8,28.4
				c0,10.1-0.5,20.3-1.4,30.5c-0.8,9.8-1.9,19.6-3.6,29.5c-1.4,9.4-3.3,18.7-5.5,28c-3.5,14.9-7.9,29.7-13.1,44.2
				c-4.7,13-10.1,25.9-16.3,38.4c-4.7,9.6-9.8,19.1-15.3,28.4c-3.9,6.5-7.9,13-12.3,19.3c-3.8,5.6-7.8,11.3-11.9,16.8
				C1285.3,1041.6,1281.8,1046.1,1278.2,1050.5z"/>
		</g>
	</mask>
	
		<linearGradient id="SVGID_35_" gradientUnits="userSpaceOnUse" x1="1114.5486" y1="1176.1958" x2="1325.8889" y2="1971.1301" gradientTransform="matrix(0.7998 0.6003 -0.6003 0.7998 933.8275 -1183.484)">
		<stop  offset="0" style="stop-color:#FFFFFF"/>
		<stop  offset="1" style="stop-color:#FFFFFF"/>
	</linearGradient>
	<path class="st51" d="M1306.3,1037c4.5-6.6,8.7-13.3,12.7-20c5.7-9.6,11-19.5,15.9-29.4c6.4-13,12-26.4,16.9-39.9
		c5.5-15.1,10-30.4,13.6-45.9c2.3-9.6,4.2-19.3,5.7-29.1c1.7-10.2,2.9-20.4,3.7-30.5c0.9-10.5,1.4-21.1,1.4-31.6
		c0.1-9.8-0.2-19.7-0.8-29.4l-0.1-1.1c-0.3-5.1-0.8-10.1-1.4-15.2c-0.3-2.7-0.6-5.4-1-8.1c-1.1-8.9-2.5-17.9-4.2-26.7
		c-0.8-4.6-1.8-9.2-2.9-13.7c-5.3-23.5-12.7-46.5-22.1-68.8c-5-12.1-10.7-23.8-16.9-35.4c-27.4-50.8-65.9-96.5-115.1-133.5
		c-12.2-9.2-24.8-17.5-37.6-25.1c-17.5-10.4-35.6-19.3-54-26.8c-30.6-12.5-62.1-21.1-94-25.8c-18.5-2.8-37.2-4.3-55.8-4.5
		c-36.8-0.5-73.5,4-109.1,13.2c-27.1,7-53.6,16.8-78.8,29.4c-13.7,6.7-27,14.3-40,22.5c-8.8,5.6-17.3,11.6-25.7,18
		c-5.4,4.1-10.6,8.3-15.8,12.7c-8.8,7.3-17.3,15.2-25.6,23.3c-8.9,8.8-17.4,18.1-25.6,27.9c-4.7,5.5-9.2,11.3-13.6,17.2
		c-3.1,4.2-6.2,8.4-9.2,12.8c-3.5,4.9-6.8,9.9-9.9,15c-1.2,1.8-2.4,3.7-3.4,5.6c-6.9,11.4-13.3,22.9-18.9,34.6
		c-4.5,9.3-8.7,18.7-12.4,28.2c-6.7,16.9-12.2,34-16.5,51.4c-1.7,6.5-3.1,13.1-4.4,19.7c-1.4,6.9-2.6,13.8-3.5,20.8
		c-0.6,3.9-1.1,7.7-1.5,11.7c-1.7,14.5-2.6,29.2-2.7,43.8c-0.1,13.9,0.5,27.9,1.8,41.7c0.6,6.4,1.4,12.9,2.3,19.3
		c0.5,4.1,1.2,8.3,1.9,12.5c1,5.8,2.1,11.5,3.4,17.2c2.9,13.6,6.6,27.2,10.9,40.4c0.7,2.3,1.4,4.5,2.2,6.7
		c25.9,74.9,73.6,143.2,141.7,194.3c60.1,45.1,128.4,71.2,197.9,79.5c19.7,2.4,39.6,3.3,59.3,2.8c19.7-0.5,39.3-2.5,58.7-5.8
		c12.7-2.1,25.2-4.9,37.7-8.3c0.1,0,0.1,0,0.1,0c5.8-1.5,11.5-3.2,17.2-5c16.4-5.2,32.6-11.4,48.3-18.7c7.8-3.6,15.6-7.5,23.2-11.5
		c4.9-2.7,9.8-5.4,14.6-8.3c5-2.9,10-6.1,15-9.3c18.9-12.3,36.9-26.3,53.9-42c10.1-9.4,19.9-19.4,29.2-30c3.3-3.7,6.5-7.5,9.7-11.3
		c3.8-4.6,7.4-9.2,11.1-14.1C1298.3,1048.7,1302.4,1042.8,1306.3,1037z M1278.2,1050.5c-3,3.7-6.2,7.4-9.3,10.9
		c-9,10.3-18.4,19.9-28.2,28.9c-16.4,15.1-33.7,28.6-52,40.5c-4.8,3.1-9.6,6.2-14.4,9c-4.7,2.8-9.4,5.4-14.1,8
		c-7.3,3.9-14.8,7.7-22.3,11.1c-15.2,7-30.8,13-46.6,18c-5.5,1.7-11,3.3-16.6,4.8c0,0,0,0.1-0.1,0c-12,3.2-24.1,5.9-36.3,8
		c-18.7,3.2-37.6,5-56.6,5.6c-19.1,0.5-38.2-0.4-57.2-2.7c-67.1-8-132.9-33.2-190.9-76.7c-65.7-49.3-111.7-115.1-136.7-187.4
		c-0.7-2.1-1.4-4.3-2.1-6.5c-4.2-12.8-7.7-25.8-10.5-39c-1.2-5.5-2.3-11-3.3-16.6c-0.7-4-1.3-8-1.8-12c-0.9-6.2-1.6-12.4-2.2-18.6
		c-1.3-13.3-1.9-26.8-1.8-40.2c0.1-14.1,1-28.2,2.6-42.2c0.4-3.8,0.8-7.5,1.4-11.2c0.9-6.8,2.1-13.4,3.4-20.1
		c1.2-6.4,2.6-12.7,4.2-19c4.1-16.8,9.4-33.4,15.9-49.6c3.5-9.2,7.5-18.2,11.9-27.2c5.4-11.4,11.5-22.5,18.2-33.4
		c1-1.8,2.1-3.6,3.3-5.4c3-4.9,6.2-9.7,9.6-14.5c2.8-4.2,5.8-8.3,8.8-12.3c4.3-5.7,8.7-11.2,13.2-16.6c7.9-9.4,16.1-18.4,24.7-26.9
		c7.9-7.9,16.2-15.5,24.6-22.5c5-4.2,10.1-8.3,15.3-12.3c8.1-6.1,16.4-11.9,24.8-17.3c12.5-8,25.3-15.3,38.5-21.7
		c24.4-12.1,49.9-21.6,76-28.4c34.3-8.9,69.7-13.2,105.2-12.8c18,0.2,36,1.7,53.9,4.4c30.8,4.6,61.2,12.8,90.7,24.9
		c17.7,7.2,35.1,15.8,52,25.9c12.3,7.3,24.5,15.4,36.2,24.2c47.4,35.6,84.6,79.7,111,128.7c6,11.1,11.5,22.5,16.3,34.2
		c9,21.5,16.1,43.7,21.3,66.3c1,4.4,1.9,8.8,2.8,13.3c1.6,8.5,3,17.1,4,25.7c0.3,2.6,0.6,5.2,0.9,7.8c0.6,4.9,1,9.8,1.3,14.7l0.1,1
		c0.5,9.4,0.9,19,0.8,28.4c0,10.1-0.5,20.3-1.4,30.5c-0.8,9.8-1.9,19.6-3.6,29.5c-1.4,9.4-3.3,18.7-5.5,28
		c-3.5,14.9-7.9,29.7-13.1,44.2c-4.7,13-10.1,25.9-16.3,38.4c-4.7,9.6-9.8,19.1-15.3,28.4c-3.9,6.5-7.9,13-12.3,19.3
		c-3.8,5.6-7.8,11.3-11.9,16.8C1285.3,1041.6,1281.8,1046.1,1278.2,1050.5z"/>
	<defs>
		<filter id="Adobe_OpacityMaskFilter_22_" filterUnits="userSpaceOnUse" x="675.8" y="150.7" width="1073.2" height="1073.2">
			<feColorMatrix  type="matrix" values="1 0 0 0 0  0 1 0 0 0  0 0 1 0 0  0 0 0 1 0"/>
		</filter>
	</defs>
	<mask maskUnits="userSpaceOnUse" x="675.8" y="150.7" width="1073.2" height="1073.2" id="SVGID_36_">
		<g class="st52">
			<defs>
				<filter id="Adobe_OpacityMaskFilter_23_" filterUnits="userSpaceOnUse" x="675.8" y="150.7" width="1073.2" height="1073.2">
					<feFlood  style="flood-color:white;flood-opacity:1" result="back"/>
					<feBlend  in="SourceGraphic" in2="back" mode="normal"/>
				</filter>
			</defs>
			<mask maskUnits="userSpaceOnUse" x="675.8" y="150.7" width="1073.2" height="1073.2" id="SVGID_36_">
				<g class="st53">
				</g>
			</mask>
			<radialGradient id="SVGID_37_" cx="1201.688" cy="720.6852" r="568.1044" gradientUnits="userSpaceOnUse">
				<stop  offset="0" style="stop-color:#FFFFFF"/>
				<stop  offset="0.7822" style="stop-color:#000000"/>
			</radialGradient>
			<circle class="st54" cx="1212.4" cy="687.3" r="536.6"/>
		</g>
	</mask>
	<g>
		<defs>
			<filter id="Adobe_OpacityMaskFilter_24_" filterUnits="userSpaceOnUse" x="675.8" y="150.7" width="1073.2" height="1073.2">
				<feFlood  style="flood-color:white;flood-opacity:1" result="back"/>
				<feBlend  in="SourceGraphic" in2="back" mode="normal"/>
			</filter>
		</defs>
		<mask maskUnits="userSpaceOnUse" x="675.8" y="150.7" width="1073.2" height="1073.2" id="SVGID_38_">
			<g class="st55">
				<defs>
					<filter id="Adobe_OpacityMaskFilter_25_" filterUnits="userSpaceOnUse" x="675.8" y="150.7" width="1073.2" height="1073.2">
						<feFlood  style="flood-color:white;flood-opacity:1" result="back"/>
						<feBlend  in="SourceGraphic" in2="back" mode="normal"/>
					</filter>
				</defs>
				<mask maskUnits="userSpaceOnUse" x="675.8" y="150.7" width="1073.2" height="1073.2" id="SVGID_38_">
					<g class="st56">
					</g>
				</mask>
				<radialGradient id="SVGID_39_" cx="1207.1536" cy="701.5549" r="562.5963" gradientUnits="userSpaceOnUse">
					<stop  offset="0" style="stop-color:#FFFFFF"/>
					<stop  offset="1" style="stop-color:#000000"/>
				</radialGradient>
				<path class="st57" d="M1672.8,398.3c273.8,509.6-239.8,1023.2-749.4,749.4c-72.6-39-132.3-98.7-171.3-171.3
					C478.3,466.8,991.9-46.8,1501.5,227C1574,266,1633.8,325.7,1672.8,398.3z"/>
			</g>
		</mask>
		<radialGradient id="SVGID_40_" cx="1207.1536" cy="701.5549" r="562.5963" gradientUnits="userSpaceOnUse">
			<stop  offset="0" style="stop-color:#FFFFFF"/>
			<stop  offset="1" style="stop-color:#000000"/>
		</radialGradient>
		<path class="st58" d="M1672.8,398.3c273.8,509.6-239.8,1023.2-749.4,749.4c-72.6-39-132.3-98.7-171.3-171.3
			C478.3,466.8,991.9-46.8,1501.5,227C1574,266,1633.8,325.7,1672.8,398.3z"/>
	</g>
</g>
</svg>
