<?xml version="1.0" encoding="utf-8"?>
<!-- Generator: Adobe Illustrator 22.1.0, SVG Export Plug-In . SVG Version: 6.00 Build 0)  -->
<svg version="1.1" id="Layer_1" xmlns="http://www.w3.org/2000/svg" xmlns:xlink="http://www.w3.org/1999/xlink" x="0px" y="0px"
	 viewBox="0 0 93.2 115.6" style="enable-background:new 0 0 93.2 115.6;" xml:space="preserve">
<style type="text/css">
	.st0{fill:url(#SVGID_1_);}
	.st1{opacity:0.5;fill:#9C0000;}
	.st2{opacity:0.5;fill:#C6002B;}
	.st3{fill:#670000;}
	.st4{fill:#8C0000;}
	.st5{fill:#D23C00;}
	.st6{fill:#FFD800;}
	.st7{fill:#FFA700;}
	.st8{opacity:0.49;fill:#8C0000;}
	.st9{opacity:0.29;fill:#8C003A;}
	.st10{opacity:0.29;fill:#8C0000;}
	.st11{opacity:0.48;fill:#FFD800;}
	.st12{filter:url(#Adobe_OpacityMaskFilter);}
	.st13{filter:url(#Adobe_OpacityMaskFilter_1_);}
	.st14{mask:url(#SVGID_2_);fill:url(#SVGID_3_);}
	.st15{filter:url(#Adobe_OpacityMaskFilter_2_);}
	.st16{filter:url(#Adobe_OpacityMaskFilter_3_);}
	.st17{mask:url(#SVGID_4_);fill:url(#SVGID_5_);}
	.st18{opacity:0.78;fill:url(#SVGID_6_);}
	.st19{filter:url(#Adobe_OpacityMaskFilter_4_);}
	.st20{filter:url(#Adobe_OpacityMaskFilter_5_);}
	.st21{mask:url(#SVGID_7_);fill:url(#SVGID_8_);}
	.st22{filter:url(#Adobe_OpacityMaskFilter_6_);}
	.st23{filter:url(#Adobe_OpacityMaskFilter_7_);}
	.st24{mask:url(#SVGID_9_);fill:url(#SVGID_10_);}
	.st25{opacity:0.78;fill:url(#SVGID_11_);}
	.st26{filter:url(#Adobe_OpacityMaskFilter_8_);}
	.st27{filter:url(#Adobe_OpacityMaskFilter_9_);}
	.st28{mask:url(#SVGID_12_);fill:url(#SVGID_13_);}
	.st29{filter:url(#Adobe_OpacityMaskFilter_10_);}
	.st30{filter:url(#Adobe_OpacityMaskFilter_11_);}
	.st31{mask:url(#SVGID_14_);fill:url(#SVGID_15_);}
	.st32{opacity:0.78;fill:url(#SVGID_16_);}
	.st33{filter:url(#Adobe_OpacityMaskFilter_12_);}
	.st34{filter:url(#Adobe_OpacityMaskFilter_13_);}
	.st35{mask:url(#SVGID_17_);fill:url(#SVGID_18_);}
	.st36{filter:url(#Adobe_OpacityMaskFilter_14_);}
	.st37{filter:url(#Adobe_OpacityMaskFilter_15_);}
	.st38{mask:url(#SVGID_19_);fill:url(#SVGID_20_);}
	.st39{opacity:0.78;fill:url(#SVGID_21_);}
	.st40{filter:url(#Adobe_OpacityMaskFilter_16_);}
	.st41{filter:url(#Adobe_OpacityMaskFilter_17_);}
	.st42{mask:url(#SVGID_22_);fill:url(#SVGID_23_);}
	.st43{filter:url(#Adobe_OpacityMaskFilter_18_);}
	.st44{filter:url(#Adobe_OpacityMaskFilter_19_);}
	.st45{mask:url(#SVGID_24_);fill:url(#SVGID_25_);}
	.st46{opacity:0.78;fill:url(#SVGID_26_);}
	.st47{filter:url(#Adobe_OpacityMaskFilter_20_);}
	.st48{filter:url(#Adobe_OpacityMaskFilter_21_);}
	.st49{mask:url(#SVGID_27_);fill:url(#SVGID_28_);}
	.st50{filter:url(#Adobe_OpacityMaskFilter_22_);}
	.st51{filter:url(#Adobe_OpacityMaskFilter_23_);}
	.st52{mask:url(#SVGID_29_);fill:url(#SVGID_30_);}
	.st53{opacity:0.78;fill:url(#SVGID_31_);}
	.st54{opacity:0.39;fill:#9F0000;}
	.st55{filter:url(#Adobe_OpacityMaskFilter_24_);}
	.st56{filter:url(#Adobe_OpacityMaskFilter_25_);}
	.st57{mask:url(#SVGID_32_);fill:url(#SVGID_33_);}
	.st58{opacity:0.6;fill:url(#SVGID_34_);}
	.st59{filter:url(#Adobe_OpacityMaskFilter_26_);}
	.st60{filter:url(#Adobe_OpacityMaskFilter_27_);}
	.st61{mask:url(#SVGID_35_);fill:url(#SVGID_36_);}
	.st62{opacity:0.79;fill:url(#SVGID_37_);}
	.st63{opacity:0.8;fill:#FFFFFF;}
	.st64{filter:url(#Adobe_OpacityMaskFilter_28_);}
	.st65{filter:url(#Adobe_OpacityMaskFilter_29_);}
	.st66{mask:url(#SVGID_38_);fill:url(#SVGID_39_);}
	.st67{filter:url(#Adobe_OpacityMaskFilter_30_);}
	.st68{filter:url(#Adobe_OpacityMaskFilter_31_);}
	.st69{mask:url(#SVGID_40_);fill:url(#SVGID_41_);}
	.st70{opacity:0.78;fill:url(#SVGID_42_);}
	.st71{filter:url(#Adobe_OpacityMaskFilter_32_);}
	.st72{filter:url(#Adobe_OpacityMaskFilter_33_);}
	.st73{mask:url(#SVGID_43_);fill:url(#SVGID_44_);}
	.st74{filter:url(#Adobe_OpacityMaskFilter_34_);}
	.st75{filter:url(#Adobe_OpacityMaskFilter_35_);}
	.st76{mask:url(#SVGID_45_);fill:url(#SVGID_46_);}
	.st77{fill:url(#SVGID_47_);}
</style>
<g>
	<radialGradient id="SVGID_1_" cx="32.7387" cy="47.447" r="34.5634" gradientUnits="userSpaceOnUse">
		<stop  offset="0.5" style="stop-color:#FF6F08"/>
		<stop  offset="1" style="stop-color:#AF0004"/>
	</radialGradient>
	<path class="st0" d="M77.6,56.6c0,9.5-3.9,18.2-10.1,24.4c-1.2,1.2-2.4,2.3-3.8,3.3c-0.7,0.5-1.3,1-2,1.4c-1.2,0.8-2.5,1.5-3.8,2.1
		c-0.4,0.2-0.9,0.4-1.3,0.6c-0.5,0.2-1,0.4-1.6,0.6c-0.5,0.2-0.9,0.3-1.4,0.5c-0.5,0.2-0.9,0.3-1.4,0.4c-0.7,0.2-1.5,0.4-2.2,0.5
		c-0.2,0.1-0.5,0.1-0.7,0.1c-0.3,0.1-0.6,0.1-0.9,0.1c-0.4,0.1-0.9,0.1-1.3,0.2c-0.9,0.1-1.7,0.2-2.6,0.2c-0.4,0-0.9,0-1.3,0
		c-0.1,0-0.2,0-0.3,0c-0.1,0-0.2,0-0.3,0c-0.4,0-0.9,0-1.3-0.1c-0.2,0-0.4,0-0.7,0c-0.7-0.1-1.3-0.1-2-0.2c-0.4-0.1-0.9-0.1-1.3-0.2
		c-0.2,0-0.4-0.1-0.6-0.1c-0.5-0.1-1.1-0.2-1.6-0.3c-0.5-0.1-1-0.3-1.5-0.4c-0.2-0.1-0.4-0.1-0.6-0.2c-0.4-0.1-0.8-0.3-1.2-0.4
		c0,0-0.1,0-0.1,0c-0.3-0.1-0.7-0.2-1-0.4c-0.1,0-0.2-0.1-0.2-0.1c-0.4-0.1-0.7-0.3-1.1-0.5c-0.3-0.1-0.6-0.3-0.9-0.4
		c-0.2-0.1-0.4-0.2-0.6-0.3c-0.3-0.1-0.5-0.3-0.8-0.4c-0.7-0.4-1.4-0.8-2.1-1.2c-0.4-0.2-0.7-0.4-1-0.7c-0.7-0.5-1.3-0.9-1.9-1.4
		c-0.8-0.6-1.6-1.3-2.4-2.1c-4.5-4.3-7.9-9.8-9.6-16c-0.3-1.2-0.6-2.4-0.8-3.6c-0.3-1.8-0.5-3.7-0.5-5.6c0-1.2,0.1-2.4,0.2-3.6
		c1.8-17.4,16.5-31,34.4-31c8.1,0,15.6,2.8,21.5,7.5c0.2,0.2,0.4,0.3,0.6,0.5c0.1,0.1,0.2,0.2,0.3,0.2c0.3,0.3,0.7,0.6,1,0.9
		c0.5,0.5,1,1,1.5,1.5c0.5,0.5,0.9,0.9,1.3,1.4l0.1,0.1c0.5,0.6,1,1.2,1.5,1.9l0.1,0.1v0c0.2,0.3,0.4,0.6,0.6,0.9
		c0.2,0.3,0.4,0.6,0.6,0.9c0.2,0.3,0.4,0.7,0.6,1c0.1,0.1,0.2,0.3,0.3,0.4c0.1,0.2,0.2,0.4,0.3,0.6c0.1,0.2,0.2,0.3,0.3,0.5
		c0.6,1.1,1.1,2.2,1.6,3.3c0.1,0.2,0.2,0.4,0.2,0.6c0.1,0.2,0.2,0.5,0.3,0.7c0.2,0.4,0.3,0.9,0.4,1.3c0.1,0.2,0.1,0.3,0.2,0.5
		c0.1,0.3,0.2,0.5,0.2,0.8c0.1,0.2,0.1,0.4,0.2,0.7c0.1,0.2,0.1,0.4,0.2,0.7c0.3,1.1,0.5,2.3,0.6,3.4c0,0.2,0.1,0.5,0.1,0.7
		c0,0.3,0.1,0.6,0.1,0.9c0,0.1,0,0.3,0,0.4c0,0.2,0,0.4,0,0.6c0,0.3,0,0.5,0,0.8C77.6,56.1,77.6,56.4,77.6,56.6z"/>
	<path class="st1" d="M77.6,56.6c0,9.5-3.9,18.2-10.1,24.4c-1.2,1.2-2.4,2.3-3.8,3.3c-0.7,0.5-1.3,1-2,1.4c-1.2,0.8-2.5,1.5-3.8,2.1
		c-0.4,0.2-0.9,0.4-1.3,0.6c-0.5,0.2-1,0.4-1.6,0.6c-0.5,0.2-0.9,0.3-1.4,0.5c-0.5,0.2-0.9,0.3-1.4,0.4c-0.7,0.2-1.5,0.4-2.2,0.5
		c-0.2,0.1-0.5,0.1-0.7,0.1c-0.3,0.1-0.6,0.1-0.9,0.1c-0.4,0.1-0.9,0.1-1.3,0.2c-0.9,0.1-1.7,0.2-2.6,0.2c-0.4,0-0.9,0-1.3,0h-0.3
		c-0.1,0-0.2,0-0.3,0c-0.4,0-0.9,0-1.3-0.1c-0.2,0-0.4,0-0.7,0c-0.7-0.1-1.3-0.1-2-0.2c-0.4-0.1-0.9-0.1-1.3-0.2
		c-0.2,0-0.4-0.1-0.6-0.1c-0.5-0.1-1.1-0.2-1.6-0.3c-0.5-0.1-1-0.3-1.5-0.4c-0.2-0.1-0.4-0.1-0.6-0.2c-0.4-0.1-0.8-0.3-1.2-0.4
		c0,0-0.1,0-0.1,0c-0.3-0.1-0.7-0.2-1-0.4c-0.1,0-0.2-0.1-0.2-0.1c-0.4-0.1-0.7-0.3-1.1-0.5c-0.3-0.1-0.6-0.3-0.9-0.4
		c-0.2-0.1-0.4-0.2-0.6-0.3c-0.3-0.1-0.5-0.3-0.8-0.4c-0.7-0.4-1.4-0.8-2.1-1.2c-0.4-0.2-0.7-0.4-1-0.7l0,0c0,0,0.9-3.9,5.7-6.5
		c4.8-2.5-0.7-6.9-2-9c-1.3-2.2,1.4-4.7,5.3-1.8c3.9,2.9-0.3-6.9,4.6-12.3c5-5.5,8,6.3,10.1,8.5c2.1,2.2,7.3,6.4,11.6,1.9
		c4.3-4.5,1.5-22.8,4.5-28c2.4-4.3,3.9-5.2,4.3-5.3c0.5,0.5,0.9,0.9,1.3,1.4l0.1,0.1l1.5,1.9l0.1,0.1v0c0.2,0.3,0.4,0.6,0.6,0.9
		c0.2,0.3,0.4,0.6,0.6,0.9c0.1,0.2,0.3,0.4,0.4,0.6c0.1,0.1,0.2,0.3,0.3,0.4c0.1,0.1,0.2,0.3,0.3,0.4c0.1,0.2,0.2,0.4,0.3,0.6
		c0.1,0.2,0.2,0.3,0.3,0.5c0.6,1.1,1.1,2.2,1.6,3.3c0.1,0.2,0.2,0.4,0.2,0.6c0.1,0.2,0.2,0.5,0.3,0.7c0.2,0.4,0.3,0.9,0.4,1.3
		c0.1,0.2,0.1,0.3,0.2,0.5c0.1,0.3,0.2,0.5,0.2,0.8c0.1,0.2,0.1,0.4,0.2,0.7c0.1,0.2,0.1,0.4,0.2,0.7c0.3,1.1,0.5,2.3,0.6,3.4
		c0,0.2,0.1,0.5,0.1,0.7c0,0.3,0.1,0.6,0.1,0.9c0,0.1,0,0.3,0,0.4c0,0.2,0,0.4,0,0.6c0,0.3,0,0.5,0,0.8
		C77.6,56.1,77.6,56.4,77.6,56.6z"/>
	<path class="st2" d="M64.5,29.5c-5,1.2-10.9,4.5-13.8,11.2c-3.9,8.9-12.7,12.5-26.9,7.8c-4.5-1.5-10.4-1.6-15.1,4.5
		c0.4-3.5,1.3-6.9,2.6-10c5.3-12.3,17.5-21,31.8-21c7.2,0,14,2.2,19.5,6C63.2,28.6,63.9,29,64.5,29.5z"/>
	<g>
		<path class="st3" d="M57,71.2c0,0.3-0.2,0.5-0.4,0.5c0,0,0,0,0,0c-0.2,0-0.4-0.2-0.4-0.5c0-0.2,0.2-0.4,0.4-0.5c0,0,0,0,0,0
			C56.8,70.8,57,71,57,71.2z"/>
		<path class="st4" d="M56.9,71.2c0,0.2-0.2,0.4-0.4,0.5c-0.2,0-0.4-0.2-0.4-0.5c0-0.2,0.2-0.4,0.4-0.5C56.8,70.8,56.9,71,56.9,71.2
			z"/>
	</g>
	<g>
		<path class="st3" d="M53.9,79.7c0,0.3-0.2,0.5-0.4,0.5c0,0,0,0,0,0c-0.2,0-0.4-0.2-0.4-0.5c0-0.2,0.2-0.4,0.4-0.5c0,0,0,0,0,0
			C53.7,79.3,53.9,79.5,53.9,79.7z"/>
		<path class="st4" d="M53.8,79.7c0,0.2-0.2,0.4-0.4,0.5c-0.2,0-0.4-0.2-0.4-0.5c0-0.2,0.2-0.4,0.4-0.5
			C53.7,79.3,53.8,79.5,53.8,79.7z"/>
	</g>
	<g>
		<path class="st3" d="M49.1,77.8c0,0.3-0.2,0.5-0.4,0.5c0,0,0,0,0,0c-0.2,0-0.4-0.2-0.4-0.5c0-0.2,0.2-0.4,0.4-0.5c0,0,0,0,0,0
			C49,77.3,49.1,77.5,49.1,77.8z"/>
		<path class="st4" d="M49.1,77.8c0,0.2-0.2,0.4-0.4,0.5c-0.2,0-0.4-0.2-0.4-0.5c0-0.2,0.2-0.4,0.4-0.5
			C48.9,77.4,49.1,77.6,49.1,77.8z"/>
	</g>
	<g>
		<path class="st3" d="M42,79c0,0.3-0.2,0.5-0.4,0.5c0,0,0,0,0,0c-0.2,0-0.4-0.2-0.4-0.5c0-0.2,0.2-0.4,0.4-0.5c0,0,0,0,0,0
			C41.8,78.6,42,78.8,42,79z"/>
		<path class="st4" d="M41.9,79c0,0.2-0.2,0.4-0.4,0.5c-0.2,0-0.4-0.2-0.4-0.5c0-0.2,0.2-0.4,0.4-0.5C41.8,78.6,41.9,78.8,41.9,79z"
			/>
	</g>
	<g>
		<path class="st3" d="M37.4,83.1c0,0.5-0.4,0.9-0.8,0.9c0,0,0,0-0.1,0c-0.4,0-0.8-0.4-0.8-0.9s0.3-0.9,0.8-0.9c0,0,0,0,0.1,0
			C37,82.2,37.4,82.6,37.4,83.1z"/>
		<path class="st4" d="M37.2,83.1c0,0.5-0.3,0.9-0.8,0.9c-0.4,0-0.8-0.4-0.8-0.9s0.3-0.9,0.8-0.9C36.9,82.2,37.2,82.7,37.2,83.1z"/>
	</g>
	<g>
		<path class="st3" d="M28.6,83.4c0,0.5,0.4,0.9,0.8,0.9c0,0,0,0,0.1,0c0.4,0,0.8-0.4,0.8-0.9s-0.3-0.9-0.8-0.9c0,0,0,0-0.1,0
			C29,82.4,28.6,82.8,28.6,83.4z"/>
		<path class="st4" d="M28.8,83.4c0,0.5,0.3,0.9,0.8,0.9c0.4,0,0.8-0.4,0.8-0.9s-0.3-0.9-0.8-0.9C29.1,82.5,28.8,82.9,28.8,83.4z"/>
	</g>
	<g>
		<path class="st5" d="M19.7,60.3c0.1,0.5,0.4,0.9,0.8,0.8c0,0,0,0,0.1,0c0.3-0.1,0.5-0.5,0.5-1c-0.1-0.5-0.4-0.8-0.7-0.8
			c0,0,0,0-0.1,0C19.9,59.3,19.6,59.8,19.7,60.3z"/>
		<path class="st4" d="M19.8,60.3c0.1,0.5,0.4,0.8,0.7,0.8c0.3-0.1,0.5-0.5,0.5-1c-0.1-0.5-0.4-0.8-0.7-0.8
			C20,59.4,19.7,59.8,19.8,60.3z"/>
	</g>
	<g>
		<path class="st5" d="M14.7,54.1c0.1,0.5,0.4,0.9,0.8,0.8c0,0,0,0,0.1,0c0.3-0.1,0.5-0.5,0.5-1c-0.1-0.5-0.4-0.8-0.7-0.8
			c0,0,0,0-0.1,0C14.9,53.2,14.6,53.6,14.7,54.1z"/>
		<path class="st6" d="M14.8,54.1c0.1,0.5,0.4,0.8,0.7,0.8c0.3-0.1,0.5-0.5,0.5-1c-0.1-0.5-0.4-0.8-0.7-0.8
			C15,53.2,14.7,53.6,14.8,54.1z"/>
	</g>
	<g>
		<path class="st5" d="M16.6,54.1c0.1,0.5,0.5,0.9,0.9,0.8c0,0,0,0,0.1,0c0.4-0.1,0.7-0.5,0.6-1c-0.1-0.5-0.4-0.8-0.9-0.8
			c0,0,0,0-0.1,0C16.8,53.2,16.5,53.6,16.6,54.1z"/>
		<path class="st6" d="M16.7,54.1c0.1,0.5,0.4,0.8,0.9,0.8c0.4-0.1,0.7-0.5,0.6-1c-0.1-0.5-0.4-0.8-0.9-0.8
			C17,53.2,16.7,53.6,16.7,54.1z"/>
	</g>
	<path class="st7" d="M66.4,31.2c-2.2,1.2-5.7,3.7-8.1,8.7c-3.9,7.8-0.1,25.2-6.3,22.5c-6.2-2.7-4.6-9.5-13.5-8.3
		c-8.8,1.2-4.7,8.8-9.8,9.7c-5.1,0.9-8.9,0.5-10.4,4.6c-1.5,4.2,3.8,10.4,3.6,15c0,0.2,0,0.3,0,0.5c-0.8-0.6-1.6-1.3-2.4-2.1
		C14,76.7,10.2,69.9,8.9,62.3c1.7-1.9,8.5-8.4,22-8.7c15.9-0.3,20.6-3.5,23.8-11.1C57.1,36.7,62.6,32,65.1,30
		c0.1,0.1,0.2,0.2,0.3,0.2C65.7,30.6,66.1,30.9,66.4,31.2z"/>
	<path class="st8" d="M77.6,56.6c0,19.1-15.5,34.6-34.6,34.6c-5.5,0-10.8-1.3-15.4-3.6c0.6-2.8,2.2-6,6.1-6.7c7.2-1.2,14.9,6,14.6,0
		c-0.3-6-11.4-11-6.8-14.9c6.8-5.8,3.3,10.3,9.9,13c6.6,2.7,15-4.2,14.5-7.8c-0.5-3.6-5.3-4-2.9-7.3c2.4-3.3,7.6-3.2,7.8-7
		c0.2-3.7-4.6-8.6-1.5-11.3c2.6-2.2,5.1-1.6,6-1.4C76.8,48.1,77.6,52.3,77.6,56.6z"/>
	<path class="st8" d="M67.6,52.6c-1.4-1.9,1.5-8.6-1.4-9.6c-2.9-0.9-1.3,3.7-1.5,6c-0.2,2.3-3.3,5.7-2.6,7.2c0.7,1.6,2.8-1.5,4.3,0
		C67.8,57.9,70.4,56.5,67.6,52.6z"/>
	<path class="st9" d="M62.6,28.1c-0.9,0.6-3.5,2.3-6,1.9c-3.1-0.4-4-3.8-7.9-3.5c-3.9,0.3-2,8.1-8.6,8.6c-6.6,0.6-15.7-6.5-16-1.5
		c-0.4,4.9,8,12.8,0.8,9.3c-4.9-2.4-10.5-1-13.6,0.1c5.3-12.3,17.5-21,31.8-21C50.3,22.1,57,24.3,62.6,28.1z"/>
	<path class="st10" d="M28.9,36c-1.1,1.2,1.9,2.7,2.4,6.2c0.5,3.5-0.3,6.1,2.9,6.6s2.3-3.1,4.1-5.4c1.8-2.3,6.2-2.6,6.7-5.2
		c0.6-2.6-5.3-0.3-8.4-0.7S30.3,34.5,28.9,36z"/>
	<path class="st8" d="M30.3,79.3c-1.2,1.9,2.5-1.2,7.6,0.2c5.1,1.4,6.1,2.4,7.7,1.5c1.6-0.9-0.4-4.1-3.6-7.2
		c-3.2-3.1-1.7-6.5-2.8-7.2c-1.1-0.7-1.1,1.7-1.9,5.6C36.4,76.2,31.3,77.5,30.3,79.3z"/>
	<path class="st6" d="M59.8,70.7c-0.4,0.3-0.7,1-0.3,1.8c0.4,0.9-1.5,1.9-1.2,2.8c0.3,0.8,1.7-0.4,2.9-0.9c1.1-0.5,2.4-0.4,1.6-1.7
		C61.8,71.4,60.7,70,59.8,70.7z"/>
	<path class="st6" d="M50.1,27.9c-2.6-0.1-2,3.4,0.2,4.1C52.5,32.7,51.4,27.9,50.1,27.9z"/>
	<path class="st6" d="M49.7,69.2c-2.6-0.1-2,3.4,0.2,4.1C52.1,74,51,69.2,49.7,69.2z"/>
	<path class="st6" d="M24.2,44c-0.1,0.8,2,1.3,2.8,0.5C27.7,43.7,24.4,42.9,24.2,44z"/>
	<path class="st6" d="M40.2,32.9c-1,0.6-2.3-2.6-0.7-3.1C41.1,29.2,41.5,32.2,40.2,32.9z"/>
	<path class="st6" d="M39.5,76.3c-1,0.6-2.3-2.6-0.7-3.1C40.4,72.6,40.9,75.6,39.5,76.3z"/>
	<path class="st6" d="M64.8,66.8c-1,0.6-2.3-2.6-0.7-3.1C65.7,63.1,66.2,66.1,64.8,66.8z"/>
	<path class="st6" d="M66.1,55.2c-1,0.6-2.3-2.6-0.7-3.1C67,51.5,67.4,54.5,66.1,55.2z"/>
	<path class="st6" d="M66.7,66.8c-0.2,0.1-0.5-0.5-0.1-0.6C66.9,66.1,67,66.7,66.7,66.8z"/>
	<path class="st6" d="M43.8,69.5c-0.2,0.1-0.5-0.5-0.1-0.6C44,68.7,44.1,69.3,43.8,69.5z"/>
	<path class="st6" d="M38.7,33.6c0-0.4,1.7-0.3,1.8,0.3C40.6,34.5,38.7,34.5,38.7,33.6z"/>
	<path class="st6" d="M42.8,70.3c0-0.4,1.7-0.3,1.8,0.3C44.7,71.2,42.8,71.2,42.8,70.3z"/>
	<path class="st6" d="M52.4,85.1c-3-0.1-3-4.5-0.9-4.5c2,0.1,2.4,2.1,5.1,1.6c2.7-0.5,2.9-3.6,4-2.7C61.7,80.4,58.7,85.2,52.4,85.1z
		"/>
	<path class="st11" d="M67.7,37.1c-1.5-0.3-2.7,3.8-0.3,4.1C69.8,41.6,69.3,37.5,67.7,37.1z"/>
	<path class="st6" d="M34.6,32.8c-0.4,0.7,2.2,0.8,2.6-0.3C37.7,31.4,35.1,31.9,34.6,32.8z"/>
	<defs>
		<filter id="Adobe_OpacityMaskFilter" filterUnits="userSpaceOnUse" x="33" y="54" width="34.1" height="34.1">
			<feColorMatrix  type="matrix" values="1 0 0 0 0  0 1 0 0 0  0 0 1 0 0  0 0 0 1 0"/>
		</filter>
	</defs>
	<mask maskUnits="userSpaceOnUse" x="33" y="54" width="34.1" height="34.1" id="SVGID_2_">
		<g class="st12">
			<defs>
				<filter id="Adobe_OpacityMaskFilter_1_" filterUnits="userSpaceOnUse" x="33" y="54" width="34.1" height="34.1">
					<feFlood  style="flood-color:white;flood-opacity:1" result="back"/>
					<feBlend  in="SourceGraphic" in2="back" mode="normal"/>
				</filter>
			</defs>
			<mask maskUnits="userSpaceOnUse" x="33" y="54" width="34.1" height="34.1" id="SVGID_2_">
				<g class="st13">
				</g>
			</mask>
			<radialGradient id="SVGID_3_" cx="49.6817" cy="72.0866" r="18.0391" gradientUnits="userSpaceOnUse">
				<stop  offset="0" style="stop-color:#FFFFFF"/>
				<stop  offset="0.7822" style="stop-color:#000000"/>
			</radialGradient>
			<circle class="st14" cx="50" cy="71" r="17"/>
		</g>
	</mask>
	<g>
		<defs>
			<filter id="Adobe_OpacityMaskFilter_2_" filterUnits="userSpaceOnUse" x="33" y="54" width="34.1" height="34.1">
				<feFlood  style="flood-color:white;flood-opacity:1" result="back"/>
				<feBlend  in="SourceGraphic" in2="back" mode="normal"/>
			</filter>
		</defs>
		<mask maskUnits="userSpaceOnUse" x="33" y="54" width="34.1" height="34.1" id="SVGID_4_">
			<g class="st15">
				<defs>
					<filter id="Adobe_OpacityMaskFilter_3_" filterUnits="userSpaceOnUse" x="33" y="54" width="34.1" height="34.1">
						<feFlood  style="flood-color:white;flood-opacity:1" result="back"/>
						<feBlend  in="SourceGraphic" in2="back" mode="normal"/>
					</filter>
				</defs>
				<mask maskUnits="userSpaceOnUse" x="33" y="54" width="34.1" height="34.1" id="SVGID_4_">
					<g class="st16">
					</g>
				</mask>
				<radialGradient id="SVGID_5_" cx="49.8552" cy="71.4791" r="17.8643" gradientUnits="userSpaceOnUse">
					<stop  offset="0" style="stop-color:#FFFFFF"/>
					<stop  offset="1" style="stop-color:#000000"/>
				</radialGradient>
				<path class="st17" d="M67,69.9c0.6,10.3-7.8,18.8-18.1,18.1c-8.5-0.5-15.4-7.4-15.9-15.9C32.4,61.9,40.8,53.4,51.1,54
					C59.6,54.6,66.5,61.4,67,69.9z"/>
			</g>
		</mask>
		<radialGradient id="SVGID_6_" cx="49.8552" cy="71.4791" r="17.8643" gradientUnits="userSpaceOnUse">
			<stop  offset="0" style="stop-color:#FFFF00"/>
			<stop  offset="1" style="stop-color:#000000"/>
		</radialGradient>
		<path class="st18" d="M67,69.9c0.6,10.3-7.8,18.8-18.1,18.1c-8.5-0.5-15.4-7.4-15.9-15.9C32.4,61.9,40.8,53.4,51.1,54
			C59.6,54.6,66.5,61.4,67,69.9z"/>
	</g>
	<defs>
		<filter id="Adobe_OpacityMaskFilter_4_" filterUnits="userSpaceOnUse" x="16.7" y="35.2" width="18.1" height="18.1">
			<feColorMatrix  type="matrix" values="1 0 0 0 0  0 1 0 0 0  0 0 1 0 0  0 0 0 1 0"/>
		</filter>
	</defs>
	<mask maskUnits="userSpaceOnUse" x="16.7" y="35.2" width="18.1" height="18.1" id="SVGID_7_">
		<g class="st19">
			<defs>
				<filter id="Adobe_OpacityMaskFilter_5_" filterUnits="userSpaceOnUse" x="16.7" y="35.2" width="18.1" height="18.1">
					<feFlood  style="flood-color:white;flood-opacity:1" result="back"/>
					<feBlend  in="SourceGraphic" in2="back" mode="normal"/>
				</filter>
			</defs>
			<mask maskUnits="userSpaceOnUse" x="16.7" y="35.2" width="18.1" height="18.1" id="SVGID_7_">
				<g class="st20">
				</g>
			</mask>
			<radialGradient id="SVGID_8_" cx="25.6001" cy="44.7717" r="9.5858" gradientUnits="userSpaceOnUse">
				<stop  offset="0" style="stop-color:#FFFFFF"/>
				<stop  offset="0.7822" style="stop-color:#000000"/>
			</radialGradient>
			<circle class="st21" cx="25.8" cy="44.2" r="9.1"/>
		</g>
	</mask>
	<g>
		<defs>
			<filter id="Adobe_OpacityMaskFilter_6_" filterUnits="userSpaceOnUse" x="16.7" y="35.2" width="18.1" height="18.1">
				<feFlood  style="flood-color:white;flood-opacity:1" result="back"/>
				<feBlend  in="SourceGraphic" in2="back" mode="normal"/>
			</filter>
		</defs>
		<mask maskUnits="userSpaceOnUse" x="16.7" y="35.2" width="18.1" height="18.1" id="SVGID_9_">
			<g class="st22">
				<defs>
					<filter id="Adobe_OpacityMaskFilter_7_" filterUnits="userSpaceOnUse" x="16.7" y="35.2" width="18.1" height="18.1">
						<feFlood  style="flood-color:white;flood-opacity:1" result="back"/>
						<feBlend  in="SourceGraphic" in2="back" mode="normal"/>
					</filter>
				</defs>
				<mask maskUnits="userSpaceOnUse" x="16.7" y="35.2" width="18.1" height="18.1" id="SVGID_9_">
					<g class="st23">
					</g>
				</mask>
				<radialGradient id="SVGID_10_" cx="25.6924" cy="44.4489" r="9.4929" gradientUnits="userSpaceOnUse">
					<stop  offset="0" style="stop-color:#FFFFFF"/>
					<stop  offset="1" style="stop-color:#000000"/>
				</radialGradient>
				<path class="st24" d="M34.8,43.6c0.3,5.5-4.2,10-9.6,9.6c-4.5-0.3-8.2-3.9-8.4-8.4c-0.3-5.5,4.2-10,9.6-9.6
					C30.9,35.5,34.5,39.1,34.8,43.6z"/>
			</g>
		</mask>
		<radialGradient id="SVGID_11_" cx="25.6924" cy="44.4489" r="9.4929" gradientUnits="userSpaceOnUse">
			<stop  offset="0" style="stop-color:#FFFF00"/>
			<stop  offset="1" style="stop-color:#000000"/>
		</radialGradient>
		<path class="st25" d="M34.8,43.6c0.3,5.5-4.2,10-9.6,9.6c-4.5-0.3-8.2-3.9-8.4-8.4c-0.3-5.5,4.2-10,9.6-9.6
			C30.9,35.5,34.5,39.1,34.8,43.6z"/>
	</g>
	<defs>
		<filter id="Adobe_OpacityMaskFilter_8_" filterUnits="userSpaceOnUse" x="53.1" y="41.1" width="25.2" height="25.2">
			<feColorMatrix  type="matrix" values="1 0 0 0 0  0 1 0 0 0  0 0 1 0 0  0 0 0 1 0"/>
		</filter>
	</defs>
	<mask maskUnits="userSpaceOnUse" x="53.1" y="41.1" width="25.2" height="25.2" id="SVGID_12_">
		<g class="st26">
			<defs>
				<filter id="Adobe_OpacityMaskFilter_9_" filterUnits="userSpaceOnUse" x="53.1" y="41.1" width="25.2" height="25.2">
					<feFlood  style="flood-color:white;flood-opacity:1" result="back"/>
					<feBlend  in="SourceGraphic" in2="back" mode="normal"/>
				</filter>
			</defs>
			<mask maskUnits="userSpaceOnUse" x="53.1" y="41.1" width="25.2" height="25.2" id="SVGID_12_">
				<g class="st27">
				</g>
			</mask>
			<radialGradient id="SVGID_13_" cx="65.4744" cy="54.4448" r="13.32" gradientUnits="userSpaceOnUse">
				<stop  offset="0" style="stop-color:#FFFFFF"/>
				<stop  offset="0.7822" style="stop-color:#000000"/>
			</radialGradient>
			<circle class="st28" cx="65.7" cy="53.7" r="12.6"/>
		</g>
	</mask>
	<g>
		<defs>
			<filter id="Adobe_OpacityMaskFilter_10_" filterUnits="userSpaceOnUse" x="53.1" y="41.1" width="25.2" height="25.2">
				<feFlood  style="flood-color:white;flood-opacity:1" result="back"/>
				<feBlend  in="SourceGraphic" in2="back" mode="normal"/>
			</filter>
		</defs>
		<mask maskUnits="userSpaceOnUse" x="53.1" y="41.1" width="25.2" height="25.2" id="SVGID_14_">
			<g class="st29">
				<defs>
					<filter id="Adobe_OpacityMaskFilter_11_" filterUnits="userSpaceOnUse" x="53.1" y="41.1" width="25.2" height="25.2">
						<feFlood  style="flood-color:white;flood-opacity:1" result="back"/>
						<feBlend  in="SourceGraphic" in2="back" mode="normal"/>
					</filter>
				</defs>
				<mask maskUnits="userSpaceOnUse" x="53.1" y="41.1" width="25.2" height="25.2" id="SVGID_14_">
					<g class="st30">
					</g>
				</mask>
				<radialGradient id="SVGID_15_" cx="65.6025" cy="53.9963" r="13.1909" gradientUnits="userSpaceOnUse">
					<stop  offset="0" style="stop-color:#FFFFFF"/>
					<stop  offset="1" style="stop-color:#000000"/>
				</radialGradient>
				<path class="st31" d="M78.3,52.8c0.5,7.6-5.8,13.9-13.4,13.4c-6.3-0.4-11.3-5.5-11.7-11.7c-0.5-7.6,5.8-13.9,13.4-13.4
					C72.8,41.5,77.9,46.6,78.3,52.8z"/>
			</g>
		</mask>
		<radialGradient id="SVGID_16_" cx="65.6025" cy="53.9963" r="13.1909" gradientUnits="userSpaceOnUse">
			<stop  offset="0" style="stop-color:#FFFF00"/>
			<stop  offset="1" style="stop-color:#000000"/>
		</radialGradient>
		<path class="st32" d="M78.3,52.8c0.5,7.6-5.8,13.9-13.4,13.4c-6.3-0.4-11.3-5.5-11.7-11.7c-0.5-7.6,5.8-13.9,13.4-13.4
			C72.8,41.5,77.9,46.6,78.3,52.8z"/>
	</g>
	<defs>
		<filter id="Adobe_OpacityMaskFilter_12_" filterUnits="userSpaceOnUse" x="36.3" y="17.8" width="25.2" height="25.2">
			<feColorMatrix  type="matrix" values="1 0 0 0 0  0 1 0 0 0  0 0 1 0 0  0 0 0 1 0"/>
		</filter>
	</defs>
	<mask maskUnits="userSpaceOnUse" x="36.3" y="17.8" width="25.2" height="25.2" id="SVGID_17_">
		<g class="st33">
			<defs>
				<filter id="Adobe_OpacityMaskFilter_13_" filterUnits="userSpaceOnUse" x="36.3" y="17.8" width="25.2" height="25.2">
					<feFlood  style="flood-color:white;flood-opacity:1" result="back"/>
					<feBlend  in="SourceGraphic" in2="back" mode="normal"/>
				</filter>
			</defs>
			<mask maskUnits="userSpaceOnUse" x="36.3" y="17.8" width="25.2" height="25.2" id="SVGID_17_">
				<g class="st34">
				</g>
			</mask>
			<radialGradient id="SVGID_18_" cx="48.6326" cy="31.1397" r="13.32" gradientUnits="userSpaceOnUse">
				<stop  offset="0" style="stop-color:#FFFFFF"/>
				<stop  offset="0.7822" style="stop-color:#000000"/>
			</radialGradient>
			<circle class="st35" cx="48.9" cy="30.4" r="12.6"/>
		</g>
	</mask>
	<g>
		<defs>
			<filter id="Adobe_OpacityMaskFilter_14_" filterUnits="userSpaceOnUse" x="36.3" y="17.8" width="25.2" height="25.2">
				<feFlood  style="flood-color:white;flood-opacity:1" result="back"/>
				<feBlend  in="SourceGraphic" in2="back" mode="normal"/>
			</filter>
		</defs>
		<mask maskUnits="userSpaceOnUse" x="36.3" y="17.8" width="25.2" height="25.2" id="SVGID_19_">
			<g class="st36">
				<defs>
					<filter id="Adobe_OpacityMaskFilter_15_" filterUnits="userSpaceOnUse" x="36.3" y="17.8" width="25.2" height="25.2">
						<feFlood  style="flood-color:white;flood-opacity:1" result="back"/>
						<feBlend  in="SourceGraphic" in2="back" mode="normal"/>
					</filter>
				</defs>
				<mask maskUnits="userSpaceOnUse" x="36.3" y="17.8" width="25.2" height="25.2" id="SVGID_19_">
					<g class="st37">
					</g>
				</mask>
				<radialGradient id="SVGID_20_" cx="48.7607" cy="30.6912" r="13.1909" gradientUnits="userSpaceOnUse">
					<stop  offset="0" style="stop-color:#FFFFFF"/>
					<stop  offset="1" style="stop-color:#000000"/>
				</radialGradient>
				<path class="st38" d="M61.4,29.5c0.5,7.6-5.8,13.9-13.4,13.4c-6.3-0.4-11.3-5.5-11.7-11.7c-0.5-7.6,5.8-13.9,13.4-13.4
					C56,18.2,61,23.3,61.4,29.5z"/>
			</g>
		</mask>
		<radialGradient id="SVGID_21_" cx="48.7607" cy="30.6912" r="13.1909" gradientUnits="userSpaceOnUse">
			<stop  offset="0" style="stop-color:#FFFF00"/>
			<stop  offset="1" style="stop-color:#000000"/>
		</radialGradient>
		<path class="st39" d="M61.4,29.5c0.5,7.6-5.8,13.9-13.4,13.4c-6.3-0.4-11.3-5.5-11.7-11.7c-0.5-7.6,5.8-13.9,13.4-13.4
			C56,18.2,61,23.3,61.4,29.5z"/>
	</g>
	<defs>
		<filter id="Adobe_OpacityMaskFilter_16_" filterUnits="userSpaceOnUse" x="38.2" y="66.2" width="31.5" height="31.5">
			<feColorMatrix  type="matrix" values="1 0 0 0 0  0 1 0 0 0  0 0 1 0 0  0 0 0 1 0"/>
		</filter>
	</defs>
	<mask maskUnits="userSpaceOnUse" x="38.2" y="66.2" width="31.5" height="31.5" id="SVGID_22_">
		<g class="st40">
			<defs>
				<filter id="Adobe_OpacityMaskFilter_17_" filterUnits="userSpaceOnUse" x="38.2" y="66.2" width="31.5" height="31.5">
					<feFlood  style="flood-color:white;flood-opacity:1" result="back"/>
					<feBlend  in="SourceGraphic" in2="back" mode="normal"/>
				</filter>
			</defs>
			<mask maskUnits="userSpaceOnUse" x="38.2" y="66.2" width="31.5" height="31.5" id="SVGID_22_">
				<g class="st41">
				</g>
			</mask>
			<radialGradient id="SVGID_23_" cx="53.5832" cy="82.9688" r="16.6715" gradientUnits="userSpaceOnUse">
				<stop  offset="0" style="stop-color:#FFFFFF"/>
				<stop  offset="0.7822" style="stop-color:#000000"/>
			</radialGradient>
			<circle class="st42" cx="53.9" cy="82" r="15.7"/>
		</g>
	</mask>
	<g>
		<defs>
			<filter id="Adobe_OpacityMaskFilter_18_" filterUnits="userSpaceOnUse" x="38.2" y="66.2" width="31.5" height="31.5">
				<feFlood  style="flood-color:white;flood-opacity:1" result="back"/>
				<feBlend  in="SourceGraphic" in2="back" mode="normal"/>
			</filter>
		</defs>
		<mask maskUnits="userSpaceOnUse" x="38.2" y="66.2" width="31.5" height="31.5" id="SVGID_24_">
			<g class="st43">
				<defs>
					<filter id="Adobe_OpacityMaskFilter_19_" filterUnits="userSpaceOnUse" x="38.2" y="66.2" width="31.5" height="31.5">
						<feFlood  style="flood-color:white;flood-opacity:1" result="back"/>
						<feBlend  in="SourceGraphic" in2="back" mode="normal"/>
					</filter>
				</defs>
				<mask maskUnits="userSpaceOnUse" x="38.2" y="66.2" width="31.5" height="31.5" id="SVGID_24_">
					<g class="st44">
					</g>
				</mask>
				<radialGradient id="SVGID_25_" cx="53.7436" cy="82.4074" r="16.5098" gradientUnits="userSpaceOnUse">
					<stop  offset="0" style="stop-color:#FFFFFF"/>
					<stop  offset="1" style="stop-color:#000000"/>
				</radialGradient>
				<path class="st45" d="M69.6,81c0.6,9.5-7.2,17.3-16.7,16.7C45,97.2,38.7,90.8,38.2,83c-0.6-9.5,7.2-17.3,16.7-16.7
					C62.8,66.8,69.1,73.1,69.6,81z"/>
			</g>
		</mask>
		<radialGradient id="SVGID_26_" cx="53.7436" cy="82.4074" r="16.5098" gradientUnits="userSpaceOnUse">
			<stop  offset="0" style="stop-color:#FFFF00"/>
			<stop  offset="1" style="stop-color:#000000"/>
		</radialGradient>
		<path class="st46" d="M69.6,81c0.6,9.5-7.2,17.3-16.7,16.7C45,97.2,38.7,90.8,38.2,83c-0.6-9.5,7.2-17.3,16.7-16.7
			C62.8,66.8,69.1,73.1,69.6,81z"/>
	</g>
	<defs>
		<filter id="Adobe_OpacityMaskFilter_20_" filterUnits="userSpaceOnUse" x="23.5" y="59" width="31.5" height="31.5">
			<feColorMatrix  type="matrix" values="1 0 0 0 0  0 1 0 0 0  0 0 1 0 0  0 0 0 1 0"/>
		</filter>
	</defs>
	<mask maskUnits="userSpaceOnUse" x="23.5" y="59" width="31.5" height="31.5" id="SVGID_27_">
		<g class="st47">
			<defs>
				<filter id="Adobe_OpacityMaskFilter_21_" filterUnits="userSpaceOnUse" x="23.5" y="59" width="31.5" height="31.5">
					<feFlood  style="flood-color:white;flood-opacity:1" result="back"/>
					<feBlend  in="SourceGraphic" in2="back" mode="normal"/>
				</filter>
			</defs>
			<mask maskUnits="userSpaceOnUse" x="23.5" y="59" width="31.5" height="31.5" id="SVGID_27_">
				<g class="st48">
				</g>
			</mask>
			<radialGradient id="SVGID_28_" cx="38.8819" cy="75.7052" r="16.6714" gradientUnits="userSpaceOnUse">
				<stop  offset="0" style="stop-color:#FFFFFF"/>
				<stop  offset="0.7822" style="stop-color:#000000"/>
			</radialGradient>
			<circle class="st49" cx="39.2" cy="74.7" r="15.7"/>
		</g>
	</mask>
	<g>
		<defs>
			<filter id="Adobe_OpacityMaskFilter_22_" filterUnits="userSpaceOnUse" x="23.5" y="59" width="31.5" height="31.5">
				<feFlood  style="flood-color:white;flood-opacity:1" result="back"/>
				<feBlend  in="SourceGraphic" in2="back" mode="normal"/>
			</filter>
		</defs>
		<mask maskUnits="userSpaceOnUse" x="23.5" y="59" width="31.5" height="31.5" id="SVGID_29_">
			<g class="st50">
				<defs>
					<filter id="Adobe_OpacityMaskFilter_23_" filterUnits="userSpaceOnUse" x="23.5" y="59" width="31.5" height="31.5">
						<feFlood  style="flood-color:white;flood-opacity:1" result="back"/>
						<feBlend  in="SourceGraphic" in2="back" mode="normal"/>
					</filter>
				</defs>
				<mask maskUnits="userSpaceOnUse" x="23.5" y="59" width="31.5" height="31.5" id="SVGID_29_">
					<g class="st51">
					</g>
				</mask>
				<radialGradient id="SVGID_30_" cx="39.0423" cy="75.1437" r="16.5098" gradientUnits="userSpaceOnUse">
					<stop  offset="0" style="stop-color:#FFFFFF"/>
					<stop  offset="1" style="stop-color:#000000"/>
				</radialGradient>
				<path class="st52" d="M54.9,73.7c0.6,9.5-7.2,17.3-16.7,16.7c-7.8-0.5-14.2-6.9-14.7-14.7c-0.6-9.5,7.2-17.3,16.7-16.7
					C48.1,59.5,54.4,65.9,54.9,73.7z"/>
			</g>
		</mask>
		<radialGradient id="SVGID_31_" cx="39.0423" cy="75.1437" r="16.5098" gradientUnits="userSpaceOnUse">
			<stop  offset="0" style="stop-color:#FFFF00"/>
			<stop  offset="1" style="stop-color:#000000"/>
		</radialGradient>
		<path class="st53" d="M54.9,73.7c0.6,9.5-7.2,17.3-16.7,16.7c-7.8-0.5-14.2-6.9-14.7-14.7c-0.6-9.5,7.2-17.3,16.7-16.7
			C48.1,59.5,54.4,65.9,54.9,73.7z"/>
	</g>
	<path class="st54" d="M77.6,56.6c0,19.1-15.5,34.6-34.6,34.6c-5.5,0-10.8-1.3-15.4-3.6c-1.4-0.7-2.7-1.4-3.9-2.3
		c-0.7-0.5-1.3-0.9-1.9-1.4c-0.8-0.6-1.6-1.3-2.4-2.1c-4.5-4.3-7.9-9.8-9.6-16c7.5,1.4,22.4,3.4,39.3-2.9
		c15.1-5.7,21.2-16.5,23.9-23.6c0.9,1.6,1.7,3.3,2.4,5C76.8,48.1,77.6,52.3,77.6,56.6z"/>
	<defs>
		<filter id="Adobe_OpacityMaskFilter_24_" filterUnits="userSpaceOnUse" x="19" y="29.8" width="58.6" height="61.4">
			<feColorMatrix  type="matrix" values="1 0 0 0 0  0 1 0 0 0  0 0 1 0 0  0 0 0 1 0"/>
		</filter>
	</defs>
	<mask maskUnits="userSpaceOnUse" x="19" y="29.8" width="58.6" height="61.4" id="SVGID_32_">
		<g class="st55">
			<defs>
				<filter id="Adobe_OpacityMaskFilter_25_" filterUnits="userSpaceOnUse" x="19" y="29.8" width="58.6" height="61.4">
					<feFlood  style="flood-color:white;flood-opacity:1" result="back"/>
					<feBlend  in="SourceGraphic" in2="back" mode="normal"/>
				</filter>
			</defs>
			<mask maskUnits="userSpaceOnUse" x="19" y="29.8" width="58.6" height="61.4" id="SVGID_32_">
				<g class="st56">
				</g>
			</mask>
			<linearGradient id="SVGID_33_" gradientUnits="userSpaceOnUse" x1="64.4549" y1="83.7668" x2="38.4142" y2="50.4363">
				<stop  offset="0" style="stop-color:#FFFFFF"/>
				<stop  offset="1" style="stop-color:#000000"/>
			</linearGradient>
			<path class="st57" d="M64.8,29.8c6.5,6.3,10.5,15.1,10.5,24.8c0,19.1-15.5,34.6-34.6,34.6c-8.3,0-15.8-2.9-21.8-7.7
				c6.2,6,14.7,9.7,24,9.7c19.1,0,34.6-15.5,34.6-34.6C77.6,45.8,72.6,36.1,64.8,29.8z"/>
		</g>
	</mask>
	<linearGradient id="SVGID_34_" gradientUnits="userSpaceOnUse" x1="64.4549" y1="83.7668" x2="38.4142" y2="50.4363">
		<stop  offset="0" style="stop-color:#FFFFFF"/>
		<stop  offset="1" style="stop-color:#FFFFFF"/>
	</linearGradient>
	<path class="st58" d="M64.8,29.8c6.5,6.3,10.5,15.1,10.5,24.8c0,19.1-15.5,34.6-34.6,34.6c-8.3,0-15.8-2.9-21.8-7.7
		c6.2,6,14.7,9.7,24,9.7c19.1,0,34.6-15.5,34.6-34.6C77.6,45.8,72.6,36.1,64.8,29.8z"/>
	<defs>
		<filter id="Adobe_OpacityMaskFilter_26_" filterUnits="userSpaceOnUse" x="12.9" y="23.5" width="43.4" height="31.6">
			<feColorMatrix  type="matrix" values="1 0 0 0 0  0 1 0 0 0  0 0 1 0 0  0 0 0 1 0"/>
		</filter>
	</defs>
	<mask maskUnits="userSpaceOnUse" x="12.9" y="23.5" width="43.4" height="31.6" id="SVGID_35_">
		<g class="st59">
			<defs>
				<filter id="Adobe_OpacityMaskFilter_27_" filterUnits="userSpaceOnUse" x="12.9" y="23.5" width="43.4" height="31.6">
					<feFlood  style="flood-color:white;flood-opacity:1" result="back"/>
					<feBlend  in="SourceGraphic" in2="back" mode="normal"/>
				</filter>
			</defs>
			<mask maskUnits="userSpaceOnUse" x="12.9" y="23.5" width="43.4" height="31.6" id="SVGID_35_">
				<g class="st60">
				</g>
			</mask>
			
				<linearGradient id="SVGID_36_" gradientUnits="userSpaceOnUse" x1="68.8815" y1="-119.9985" x2="71.5456" y2="-100.4312" gradientTransform="matrix(1.0265 -0.5286 0.6244 1.2124 31.339 210.0202)">
				<stop  offset="0" style="stop-color:#FFFFFF"/>
				<stop  offset="1" style="stop-color:#000000"/>
			</linearGradient>
			<path class="st61" d="M55.4,28.5C58.7,35,52.1,45,40.6,50.9C29.1,56.8,17,56.4,13.7,50c-3.3-6.4,3.4-16.4,14.9-22.3
				C40.1,21.7,52.1,22.1,55.4,28.5z"/>
		</g>
	</mask>
	
		<linearGradient id="SVGID_37_" gradientUnits="userSpaceOnUse" x1="68.8815" y1="-119.9985" x2="71.5456" y2="-100.4312" gradientTransform="matrix(1.0265 -0.5286 0.6244 1.2124 31.339 210.0202)">
		<stop  offset="0" style="stop-color:#FFFFFF"/>
		<stop  offset="1" style="stop-color:#FFFFFF"/>
	</linearGradient>
	<path class="st62" d="M55.4,28.5C58.7,35,52.1,45,40.6,50.9C29.1,56.8,17,56.4,13.7,50c-3.3-6.4,3.4-16.4,14.9-22.3
		C40.1,21.7,52.1,22.1,55.4,28.5z"/>
	<path class="st63" d="M42.8,26.7c0.7,1.4-3,4.7-8.2,7.4c-5.2,2.7-10,3.8-10.7,2.4c-0.7-1.4,3-4.7,8.2-7.4
		C37.2,26.4,42,25.3,42.8,26.7z"/>
	<path class="st63" d="M22.3,38.2c0.5,1,0.1,2.1-0.8,2.6c-1,0.5-2.1,0.1-2.6-0.8c-0.5-1-0.1-2.1,0.8-2.6
		C20.7,36.9,21.9,37.2,22.3,38.2z"/>
	<defs>
		<filter id="Adobe_OpacityMaskFilter_28_" filterUnits="userSpaceOnUse" x="29.4" y="51.8" width="63.8" height="63.8">
			<feColorMatrix  type="matrix" values="1 0 0 0 0  0 1 0 0 0  0 0 1 0 0  0 0 0 1 0"/>
		</filter>
	</defs>
	<mask maskUnits="userSpaceOnUse" x="29.4" y="51.8" width="63.8" height="63.8" id="SVGID_38_">
		<g class="st64">
			<defs>
				<filter id="Adobe_OpacityMaskFilter_29_" filterUnits="userSpaceOnUse" x="29.4" y="51.8" width="63.8" height="63.8">
					<feFlood  style="flood-color:white;flood-opacity:1" result="back"/>
					<feBlend  in="SourceGraphic" in2="back" mode="normal"/>
				</filter>
			</defs>
			<mask maskUnits="userSpaceOnUse" x="29.4" y="51.8" width="63.8" height="63.8" id="SVGID_38_">
				<g class="st65">
				</g>
			</mask>
			<radialGradient id="SVGID_39_" cx="60.7096" cy="85.694" r="33.7767" gradientUnits="userSpaceOnUse">
				<stop  offset="0" style="stop-color:#FFFFFF"/>
				<stop  offset="0.7822" style="stop-color:#000000"/>
			</radialGradient>
			<circle class="st66" cx="61.3" cy="83.7" r="31.9"/>
		</g>
	</mask>
	<g>
		<defs>
			<filter id="Adobe_OpacityMaskFilter_30_" filterUnits="userSpaceOnUse" x="29.4" y="51.8" width="63.8" height="63.8">
				<feFlood  style="flood-color:white;flood-opacity:1" result="back"/>
				<feBlend  in="SourceGraphic" in2="back" mode="normal"/>
			</filter>
		</defs>
		<mask maskUnits="userSpaceOnUse" x="29.4" y="51.8" width="63.8" height="63.8" id="SVGID_40_">
			<g class="st67">
				<defs>
					<filter id="Adobe_OpacityMaskFilter_31_" filterUnits="userSpaceOnUse" x="29.4" y="51.8" width="63.8" height="63.8">
						<feFlood  style="flood-color:white;flood-opacity:1" result="back"/>
						<feBlend  in="SourceGraphic" in2="back" mode="normal"/>
					</filter>
				</defs>
				<mask maskUnits="userSpaceOnUse" x="29.4" y="51.8" width="63.8" height="63.8" id="SVGID_40_">
					<g class="st68">
					</g>
				</mask>
				<radialGradient id="SVGID_41_" cx="61.0346" cy="84.5566" r="33.4492" gradientUnits="userSpaceOnUse">
					<stop  offset="0" style="stop-color:#FFFFFF"/>
					<stop  offset="1" style="stop-color:#000000"/>
				</radialGradient>
				<path class="st69" d="M93.2,81.6c1.2,19.3-14.7,35.1-33.9,33.9c-15.9-1-28.8-13.9-29.8-29.8c-1.2-19.3,14.7-35.1,33.9-33.9
					C79.3,52.9,92.2,65.8,93.2,81.6z"/>
			</g>
		</mask>
		<radialGradient id="SVGID_42_" cx="61.0346" cy="84.5566" r="33.4492" gradientUnits="userSpaceOnUse">
			<stop  offset="0" style="stop-color:#FFFFFF"/>
			<stop  offset="1" style="stop-color:#000000"/>
		</radialGradient>
		<path class="st70" d="M93.2,81.6c1.2,19.3-14.7,35.1-33.9,33.9c-15.9-1-28.8-13.9-29.8-29.8c-1.2-19.3,14.7-35.1,33.9-33.9
			C79.3,52.9,92.2,65.8,93.2,81.6z"/>
	</g>
	<defs>
		<filter id="Adobe_OpacityMaskFilter_32_" filterUnits="userSpaceOnUse" x="0" y="0" width="63.8" height="63.8">
			<feColorMatrix  type="matrix" values="1 0 0 0 0  0 1 0 0 0  0 0 1 0 0  0 0 0 1 0"/>
		</filter>
	</defs>
	<mask maskUnits="userSpaceOnUse" x="0" y="0" width="63.8" height="63.8" id="SVGID_43_">
		<g class="st71">
			<defs>
				<filter id="Adobe_OpacityMaskFilter_33_" filterUnits="userSpaceOnUse" x="0" y="0" width="63.8" height="63.8">
					<feFlood  style="flood-color:white;flood-opacity:1" result="back"/>
					<feBlend  in="SourceGraphic" in2="back" mode="normal"/>
				</filter>
			</defs>
			<mask maskUnits="userSpaceOnUse" x="0" y="0" width="63.8" height="63.8" id="SVGID_43_">
				<g class="st72">
				</g>
			</mask>
			<radialGradient id="SVGID_44_" cx="31.2649" cy="33.8857" r="33.7767" gradientUnits="userSpaceOnUse">
				<stop  offset="0" style="stop-color:#FFFFFF"/>
				<stop  offset="0.7822" style="stop-color:#000000"/>
			</radialGradient>
			<circle class="st73" cx="31.9" cy="31.9" r="31.9"/>
		</g>
	</mask>
	<g>
		<defs>
			<filter id="Adobe_OpacityMaskFilter_34_" filterUnits="userSpaceOnUse" x="0" y="0" width="63.8" height="63.8">
				<feFlood  style="flood-color:white;flood-opacity:1" result="back"/>
				<feBlend  in="SourceGraphic" in2="back" mode="normal"/>
			</filter>
		</defs>
		<mask maskUnits="userSpaceOnUse" x="0" y="0" width="63.8" height="63.8" id="SVGID_45_">
			<g class="st74">
				<defs>
					<filter id="Adobe_OpacityMaskFilter_35_" filterUnits="userSpaceOnUse" x="0" y="0" width="63.8" height="63.8">
						<feFlood  style="flood-color:white;flood-opacity:1" result="back"/>
						<feBlend  in="SourceGraphic" in2="back" mode="normal"/>
					</filter>
				</defs>
				<mask maskUnits="userSpaceOnUse" x="0" y="0" width="63.8" height="63.8" id="SVGID_45_">
					<g class="st75">
					</g>
				</mask>
				<radialGradient id="SVGID_46_" cx="31.5898" cy="32.7483" r="33.4492" gradientUnits="userSpaceOnUse">
					<stop  offset="0" style="stop-color:#FFFFFF"/>
					<stop  offset="1" style="stop-color:#000000"/>
				</radialGradient>
				<path class="st76" d="M63.7,29.8C65,49.1,49.1,65,29.8,63.7C14,62.7,1.1,49.9,0.1,34C-1.2,14.7,14.7-1.2,34,0.1
					C49.9,1.1,62.7,14,63.7,29.8z"/>
			</g>
		</mask>
		<radialGradient id="SVGID_47_" cx="31.5898" cy="32.7483" r="33.4492" gradientUnits="userSpaceOnUse">
			<stop  offset="0" style="stop-color:#FFFFFF"/>
			<stop  offset="1" style="stop-color:#000000"/>
		</radialGradient>
		<path class="st77" d="M63.7,29.8C65,49.1,49.1,65,29.8,63.7C14,62.7,1.1,49.9,0.1,34C-1.2,14.7,14.7-1.2,34,0.1
			C49.9,1.1,62.7,14,63.7,29.8z"/>
	</g>
</g>
</svg>
