<?xml version="1.0" encoding="utf-8"?>
<!-- Generator: Adobe Illustrator 22.1.0, SVG Export Plug-In . SVG Version: 6.00 Build 0)  -->
<svg version="1.1" id="Layer_1" xmlns="http://www.w3.org/2000/svg" xmlns:xlink="http://www.w3.org/1999/xlink" x="0px" y="0px"
	 viewBox="0 0 94.4 110.9" style="enable-background:new 0 0 94.4 110.9;" xml:space="preserve">
<style type="text/css">
	.st0{fill:url(#SVGID_1_);}
	.st1{fill:#601F22;}
	.st2{fill:#009A29;}
	.st3{fill:#441F00;}
	.st4{fill:#53CF29;}
	.st5{opacity:0.2;fill:#FFFFFB;}
	.st6{opacity:0.17;fill:#FFFFFB;}
	.st7{opacity:0.26;fill:#FFFFFB;}
	.st8{opacity:0.38;fill:#FFFFFB;}
	.st9{filter:url(#Adobe_OpacityMaskFilter);}
	.st10{filter:url(#Adobe_OpacityMaskFilter_1_);}
	.st11{mask:url(#SVGID_2_);fill:url(#SVGID_3_);}
	.st12{fill:url(#SVGID_4_);}
	.st13{fill:#FFFFFF;}
	.st14{opacity:0.32;fill:#250080;}
	.st15{filter:url(#Adobe_OpacityMaskFilter_2_);}
	.st16{filter:url(#Adobe_OpacityMaskFilter_3_);}
	.st17{mask:url(#SVGID_5_);fill:url(#SVGID_6_);}
	.st18{opacity:0.6;fill:url(#SVGID_7_);}
	.st19{filter:url(#Adobe_OpacityMaskFilter_4_);}
	.st20{filter:url(#Adobe_OpacityMaskFilter_5_);}
	.st21{mask:url(#SVGID_8_);fill:url(#SVGID_9_);}
	.st22{filter:url(#Adobe_OpacityMaskFilter_6_);}
	.st23{filter:url(#Adobe_OpacityMaskFilter_7_);}
	.st24{mask:url(#SVGID_10_);fill:url(#SVGID_11_);}
	.st25{opacity:0.78;fill:url(#SVGID_12_);}
	.st26{filter:url(#Adobe_OpacityMaskFilter_8_);}
	.st27{filter:url(#Adobe_OpacityMaskFilter_9_);}
	.st28{mask:url(#SVGID_13_);fill:url(#SVGID_14_);}
	.st29{filter:url(#Adobe_OpacityMaskFilter_10_);}
	.st30{filter:url(#Adobe_OpacityMaskFilter_11_);}
	.st31{mask:url(#SVGID_15_);fill:url(#SVGID_16_);}
	.st32{opacity:0.78;fill:url(#SVGID_17_);}
</style>
<g>
	<linearGradient id="SVGID_1_" gradientUnits="userSpaceOnUse" x1="27.243" y1="47.6972" x2="88.4179" y2="84.4548">
		<stop  offset="0" style="stop-color:#00FFD0"/>
		<stop  offset="1" style="stop-color:#002177"/>
	</linearGradient>
	<path class="st0" d="M93.5,66.1c0,0.6,0,1.2-0.1,1.9c0,0.1,0,0.3,0,0.4c0,0.3,0,0.6-0.1,0.9c0,0.3-0.1,0.7-0.1,1
		c0,0.4-0.1,0.7-0.1,1.1c0,0,0,0,0,0.1c-0.1,0.4-0.1,0.7-0.2,1.1c-0.7,3.9-2.1,7.6-4,11c-0.4,0.8-0.9,1.6-1.4,2.3
		c-3.7,5.5-8.8,9.9-14.8,12.7l0,0c-0.8,0.4-1.5,0.7-2.3,1c-1.8,0.7-3.7,1.2-5.7,1.6c-2.2,0.4-4.5,0.7-6.9,0.7
		c-1.1,0-2.2-0.1-3.2-0.1c-4.5-0.4-8.8-1.7-12.7-3.6c-1.2-0.6-2.3-1.2-3.5-2c-0.2-0.1-0.4-0.2-0.6-0.4c-0.7-0.5-1.4-1-2-1.5
		c-0.9-0.7-1.7-1.4-2.5-2.1c-4.7-4.4-8.2-10.1-9.9-16.5c-0.3-1.2-0.6-2.4-0.8-3.7c-0.3-1.9-0.5-3.8-0.5-5.8c0-0.2,0-0.5,0-0.7
		c0-1,0.1-2,0.2-3c1.1-10.3,6.5-19.4,14.5-25.2c5.9-4.3,13.1-6.8,21-6.8c8.4,0,16.1,2.9,22.1,7.7c0.2,0.2,0.4,0.3,0.6,0.5
		c0.1,0.1,0.2,0.2,0.3,0.3c0.4,0.3,0.7,0.6,1,0.9c0.4,0.4,0.8,0.8,1.2,1.2c0.1,0.1,0.2,0.2,0.3,0.3c0.5,0.5,0.9,1,1.4,1.5l0.1,0.1
		c0.6,0.6,1.1,1.3,1.6,2c0.8,1.1,1.5,2.2,2.2,3.3c0.2,0.3,0.4,0.6,0.6,1c0.2,0.3,0.3,0.6,0.5,0.9c0,0.1,0.1,0.1,0.1,0.2
		c0.1,0.3,0.3,0.5,0.4,0.8c0,0.1,0.1,0.2,0.1,0.3c0.1,0.3,0.3,0.6,0.4,0.9c0.1,0.4,0.3,0.7,0.4,1.1C92.7,57.3,93.5,61.6,93.5,66.1z"
		/>
	<path class="st1" d="M83.2,41c-1.8,2.1-5,4.9-8.3,3.8c-5.3-1.6-8.8-7.7-15.4-3C52.9,46.6,47.9,60,42.4,53.9
		C37.7,48.9,37,40,36.8,37.2c0.8-0.6,1.6-1.1,2.4-1.6c5.4-3.3,11.8-5.2,18.6-5.2c8.4,0,16.1,2.9,22.1,7.7c0.2,0.2,0.4,0.3,0.6,0.5
		c0.1,0.1,0.2,0.2,0.3,0.3c0.3,0.3,0.6,0.6,1,0.8c0,0,0.1,0,0.1,0.1C82.4,40.2,82.8,40.6,83.2,41z"/>
	<path class="st1" d="M32.5,51.6c-2.4-2.3-2.6,5.3-0.8,11.6s6.8,8.6,8.5,14.7c1.7,6,1.2,15.9,4.3,17.2c3.2,1.3,3.4-9.1,8-14.5
		c4.6-5.5,10.8-8.3,11.4-13.2c0.6-4.9-4.7-11-13.1-10.2S36.7,55.6,32.5,51.6z"/>
	<path class="st1" d="M93.5,66.1c0,0.6,0,1.2-0.1,1.9c0,0.1,0,0.3,0,0.4c0,0.3,0,0.6-0.1,0.9c0,0.3-0.1,0.7-0.1,1
		c0,0.4-0.1,0.7-0.1,1.1c0,0,0,0,0,0.1c-0.1,0.4-0.1,0.7-0.2,1.1c-1.5-0.4-3.2-1.1-4.2-2c-2.2-1.9,0.5-6.9-2.9-8.9
		c-3.5-2-8.1-0.8-6.8-4.5c1.3-3.8,9.7-9,9.7-9c0.2,0.3,0.4,0.6,0.6,1c0.2,0.3,0.3,0.6,0.5,0.9c0,0.1,0.1,0.1,0.1,0.2
		c0.1,0.3,0.3,0.5,0.4,0.8c0,0.1,0.1,0.2,0.1,0.3c0.1,0.3,0.3,0.6,0.4,0.9c0.1,0.4,0.3,0.7,0.4,1.1C92.7,57.3,93.5,61.6,93.5,66.1z"
		/>
	<path class="st1" d="M89,83.5c-4.1,7.3-10.7,13-18.6,16c0,0-4.8-4.5-3.5-10c1.3-5.5,6.6-0.9,10.6-2.9c4-2,4.3-5.8,7.3-5.9
		C86.5,80.6,87.9,82.1,89,83.5z"/>
	<path class="st2" d="M87.5,85.8c-3.7,5.5-8.8,9.9-14.8,12.7l0,0c0,0-5.6-9.2-2.2-10.2c3.3-1,8.8-0.9,12.1-2.7
		C84.8,84.3,86.6,85.2,87.5,85.8z"/>
	<path class="st2" d="M93.5,66.1c0,0.6,0,1.2-0.1,1.9c0,0.1,0,0.3,0,0.4c0,0.3,0,0.6-0.1,0.9c0,0.3-0.1,0.7-0.1,1
		c-1.7-0.1-3.7-0.4-4.3-1.7c-1-2.2,0.5-6.4-0.7-8.2c-1.2-1.8-6.6-1.9-7.4-3.9c-0.6-1.5,5.8-5.5,8.4-7.3c0.2,0.3,0.3,0.6,0.5,0.9
		c0,0.1,0.1,0.1,0.1,0.2c0.1,0.3,0.3,0.5,0.4,0.8c0,0.1,0.1,0.2,0.1,0.3c0.1,0.3,0.3,0.6,0.4,0.9c0.1,0.4,0.3,0.7,0.4,1.1
		C92.7,57.3,93.5,61.6,93.5,66.1z"/>
	<path class="st2" d="M33.7,55.5c-3.4-0.5-2.9,6.2,4.8,13.2c7.7,7,1.9,22.8,4.8,23.6c2.9,0.8,4.3-10.6,10.9-15.9
		c8.7-6.9,9-14.5,4.2-17.3c-4.8-2.8-8.1,0.5-16.1-0.2C37.5,58.5,37.7,56.1,33.7,55.5z"/>
	<path class="st2" d="M81.9,39.7c-1.3,1.5-3,5.2-5.6,5c-4.3-0.2-7.8-7.8-14.7-6.8C54.7,39,46.7,55.4,42.7,53.3
		c-3-1.6-3.2-13.5-3.4-17.7c5.4-3.3,11.8-5.2,18.6-5.2c8.4,0,16.1,2.9,22.1,7.7c0.2,0.2,0.4,0.3,0.6,0.5c0.1,0.1,0.2,0.2,0.3,0.3
		C81.2,39.1,81.5,39.4,81.9,39.7z"/>
	<path class="st1" d="M55.6,55.8c-0.1,0.7,1.2,0.4,2.9,1.5c1.3,0.9,1.5,2,3.1,1.7c1.3-0.3,1.8-2.1,1.6-2.5c-0.7-1.4-2.9-0.5-3.6-1.2
		c-0.6-0.7-1-1.8-2.3-1.4C56,54.2,55.7,55.3,55.6,55.8z"/>
	<path class="st1" d="M63.8,59.7c-1.2-0.1-0.3,1.7,0,1.9c0.3,0.2,1.3-0.4,1.4-0.5C65.4,61.1,64.3,59.8,63.8,59.7z"/>
	<path class="st1" d="M80,64.3c-0.6-0.1-0.1,0.9,0,1c0.1,0.1,0.6-0.2,0.7-0.3C80.8,65,80.3,64.3,80,64.3z"/>
	<path class="st1" d="M81.6,63.7c-0.6-0.1-0.1,0.9,0,1c0.1,0.1,0.6-0.2,0.7-0.3C82.4,64.4,81.9,63.7,81.6,63.7z"/>
	<path class="st1" d="M86.4,69.8c-0.6-0.1-0.1,0.9,0,1c0.1,0.1,0.6-0.2,0.7-0.3C87.2,70.5,86.7,69.8,86.4,69.8z"/>
	<path class="st1" d="M84.5,63.5c-1.4,0.5-1,3.2-0.4,4c0.6,0.8,2.4,0,2.7-0.7S85.1,63.3,84.5,63.5z"/>
	<path class="st1" d="M91.8,72.8c-0.5-1.3-3.7,0.1-3.5,0.8c0.2,0.6,1.2,2.3,2.1,2.4C91.2,76.1,92,73.4,91.8,72.8z"/>
	<path class="st1" d="M28.5,59.1c-1.2,0,0.3,3.8,0.7,5.8c0.4,2,1.5,3.5,2.1,3.5c0.6,0,0.1-1.5-0.6-3.7
		C29.9,62.4,29.3,59.1,28.5,59.1z"/>
	<path class="st1" d="M32.7,69.1c-1.2,0.2,0.6,2.8,1.6,2.8c1,0,1-1.2,0.5-1.9S33.2,69,32.7,69.1z"/>
	<path class="st1" d="M59.6,52.4c-1.2,0.2,0.6,2.8,1.6,2.8c1,0,1-1.2,0.5-1.9C61.2,52.7,60,52.3,59.6,52.4z"/>
	<path class="st3" d="M36.2,49.8c-0.9,0.2,0.8,3.2,2,3.8c1.2,0.6,2-2.4,1.6-2.8C39.5,50.4,36.9,49.6,36.2,49.8z"/>
	<path class="st1" d="M51.5,84.4c-1.5,0.6,0.9,2.4,2,1.8C54.6,85.6,53.2,83.7,51.5,84.4z"/>
	<path class="st1" d="M48,93.5c-1.7,0.9,0.7,3.4,2.1,3.1c1.4-0.3,1-3.9,0-3.9C49.2,92.7,48.9,93.1,48,93.5z"/>
	<path class="st1" d="M69.2,85.3c0.1,1,2.2,1.5,3.2,0.6c1.1-1,0.1-3.2-0.9-3.3C70.4,82.6,69,84.3,69.2,85.3z"/>
	<path class="st1" d="M73.8,84.9c-0.8,0.4,0.4,1.6,1.2,1.5c0.8-0.1,1.2-1.2,1.2-1.6C76,84.5,74,84.8,73.8,84.9z"/>
	<path class="st1" d="M53.1,83c-0.8,0.4,0.4,1.6,1.2,1.5c0.8-0.1,1.2-1.2,1.2-1.6C55.3,82.6,53.3,82.9,53.1,83z"/>
	<path class="st1" d="M86.8,48.2c-0.7-1-7.6,3.8-7.6,4.9c0,1.1,1.6-1.2,3.3-1.9C84.3,50.5,87.5,49.2,86.8,48.2z"/>
	<path class="st1" d="M78.8,54.1c-0.8-0.4-2.1,2.8-1,2.9C78.7,57,79.6,54.5,78.8,54.1z"/>
	<path class="st1" d="M53.9,49.8c-0.8-0.4-2.1,2.8-1,2.9C53.8,52.7,54.7,50.2,53.9,49.8z"/>
	<path class="st1" d="M87.3,71.2c-0.8-0.4-2.1,2.8-1,2.9C87.2,74.1,88.1,71.6,87.3,71.2z"/>
	<path class="st1" d="M64.6,57.6c-0.8,0.4-0.8,1.7-0.3,1.8c0.6,0.1,1.5-1.3,1.3-1.4C65.5,57.7,65,57.4,64.6,57.6z"/>
	<path class="st3" d="M52.1,54.9c-0.4,0-0.9,1.4-0.4,1.7c0.5,0.2,2.2,0.3,2.4,0C54.3,56.3,52.9,54.9,52.1,54.9z"/>
	<path class="st4" d="M34.8,57.2c-2,0.6,3.6,4,5.1,6.5c1.5,2.5,3.5,5.7,9,5.3c5.4-0.4,8.8-4,8.9-6.2c0.2-2.2-3.4-4.5-7.1-3.8
		c-3.7,0.7-7.6,2.1-10.8,0.6C36.7,58.2,36.2,56.7,34.8,57.2z"/>
	<path class="st4" d="M43.6,45.2c-2.4,0.5-4.2-7.5-2.7-9.6c1.4-2.1,12.8-5.8,21.8-3.4c8.9,2.4,15.6,8,14.7,9
		c-0.9,1-6.5-4.8-14.1-6.9C55.5,32.3,52.1,43.3,43.6,45.2z"/>
	<path class="st4" d="M88.6,51.3c-2.7-0.2-1.2,3.6,1.1,6.1c2.3,2.4-1.7,11.1,1.2,12c2.9,0.9,0.7-10.3,0-12.9
		C90.2,53.8,89.7,51.4,88.6,51.3z"/>
	<path class="st4" d="M73.7,95.3c-2.2,0.9-3.1-4.1-0.6-5.5c2.1-1.2,8.6-3.8,11-3.4c2.3,0.4,0.7,1.1-4.2,3.1
		C74.9,91.3,77.2,93.9,73.7,95.3z"/>
	<path class="st5" d="M82.7,42.9c0,0-2.1,2.5-5.3,3.2c-3.2,0.7-7.4-4.3-12.6-5c-5.3-0.6-11.9,9.3-11.5,9.5c0.4,0.3,4.5-5.6,5.3-5.6
		c0.8,0-3.6,4.1-2.9,4.6c0.7,0.5,5-5.8,8.4-6.3c3.4-0.4,8.2,4.2,12.3,3.8C80.6,47,83.5,43.1,82.7,42.9z"/>
	<path class="st6" d="M68.2,99.8c0,0-5.7-5.8-5.4-11c0.3-5.2,5.2-6.5,5.4-7c0.2-0.5-6,1.3-6.9,7C60.3,94.5,66.5,100.6,68.2,99.8z"/>
	<path class="st5" d="M79.4,50.7c0,0-3.6,4.6-3.9,7.9c-0.3,3.3,5.4,3.3,7.6,3.5c2.2,0.2,2.6,1,2.6,1s-2-1-5.9-0.4
		c-3.9,0.6-6.9-1.9-5.1-5.6C76.4,53.4,79.4,50.7,79.4,50.7z"/>
	<path class="st5" d="M64.2,62.6c0,0,2.3,4.6-1,8.6c-3.3,3.9-7.2,5.9-10.4,10.1c-2.2,2.8-3.1,6.6-3.1,6.6S52,82,57.3,78
		c5.3-3.9,7.8-5.9,8.7-8.9C66.9,66,64.2,62.6,64.2,62.6z"/>
	<path class="st4" d="M57.6,68.3c-1.1-0.6-1,2.8-5.8,6.9c-4.7,4.2-5,4.5-6.8,7.8c-1.8,3.3-1.2,6.1-0.3,6c0.9-0.1,0.5-4.4,2.9-7.9
		s6.3-6.5,8.5-8.8C58.4,70.1,58.1,68.6,57.6,68.3z"/>
	<path class="st4" d="M58,65c-1,0-1,3,0.5,2.8C59.9,67.5,58.6,65,58,65z"/>
	<path class="st4" d="M79.2,90.4c-1.8,0.8-0.3,2.6,1.6,1.6C82.7,90.9,80.9,89.6,79.2,90.4z"/>
	<path class="st4" d="M85.6,52.2c-0.9,0.2-1.4,1.7-0.5,2c0.9,0.3,1.8-0.8,1.7-1.5C86.7,52.4,86.5,51.9,85.6,52.2z"/>
	<path class="st4" d="M44.9,45.3c-0.9,0.2-1.4,1.7-0.5,2c0.9,0.3,1.8-0.8,1.7-1.5C46,45.5,45.8,45.1,44.9,45.3z"/>
	<path class="st7" d="M78.8,49.9c-0.4-0.1-4.1,3.8-3.4,3.7C76,53.6,79.4,50.1,78.8,49.9z"/>
	<path class="st7" d="M83.6,48.2c-0.3-0.3-4,2.4-3.7,2.6C80.2,51,83.9,48.5,83.6,48.2z"/>
	<path class="st7" d="M85.2,47.2c-0.5-0.5-1.3,0.8-1,0.9C84.5,48.1,85.4,47.4,85.2,47.2z"/>
	<path class="st5" d="M35.7,72.3c0,0,2,1.9,3.2,7c1.2,5.1,1.3,10.7,1.3,10.7s-1.8-7.7-2.8-11C36.5,75.8,35.7,72.3,35.7,72.3z"/>
	<path class="st5" d="M31.3,70.5c-0.7,0.1,3.1,6.1,4.1,6.1C36.3,76.5,32.7,70.3,31.3,70.5z"/>
	<path class="st6" d="M51.5,89.1c0,0.3-0.3,0.6-0.6,0.6c-0.3,0-0.6-0.3-0.6-0.6c0-0.3,0.3-0.6,0.6-0.6
		C51.2,88.4,51.5,88.7,51.5,89.1z"/>
	<path class="st6" d="M70.3,81.8c0,0.3-0.3,0.6-0.6,0.6c-0.3,0-0.6-0.3-0.6-0.6c0-0.3,0.3-0.6,0.6-0.6C70,81.2,70.3,81.4,70.3,81.8z
		"/>
	<path class="st6" d="M65.2,87.6c0,0.5-0.3,0.8-0.6,0.8c-0.4,0-0.6-0.4-0.6-0.8c0-0.5,0.3-0.8,0.6-0.8C65,86.7,65.2,87.1,65.2,87.6z
		"/>
	<path class="st6" d="M80.8,80c0,0.1-0.1,0.3-0.3,0.3c-0.1,0-0.3-0.1-0.3-0.3s0.1-0.3,0.3-0.3C80.7,79.7,80.8,79.8,80.8,80z"/>
	<path class="st7" d="M76.6,50.4c0,0.2-0.2,0.4-0.4,0.4c-0.2,0-0.4-0.2-0.4-0.4c0-0.2,0.2-0.4,0.4-0.4
		C76.4,49.9,76.6,50.1,76.6,50.4z"/>
	<path class="st6" d="M58.4,50.5c0,0.4-0.3,0.7-0.7,0.7c-0.4,0-0.7-0.3-0.7-0.7c0-0.4,0.3-0.7,0.7-0.7C58,49.7,58.4,50.1,58.4,50.5z
		"/>
	<circle class="st6" cx="54.4" cy="51.6" r="0.3"/>
	<path class="st7" d="M84.6,45.5c0,0.3-0.2,0.5-0.5,0.5c-0.3,0-0.5-0.2-0.5-0.5c0-0.3,0.2-0.5,0.5-0.5C84.3,45,84.6,45.2,84.6,45.5z
		"/>
	<path class="st5" d="M31,69.9c0,0.5-0.4,0.9-0.9,0.9c-0.5,0-0.9-0.4-0.9-0.9c0-0.5,0.4-0.9,0.9-0.9C30.6,69.1,31,69.5,31,69.9z"/>
	<path class="st1" d="M35.5,72.8c0,0.2-0.2,0.4-0.4,0.4c-0.2,0-0.4-0.2-0.4-0.4c0-0.2,0.2-0.4,0.4-0.4
		C35.4,72.5,35.5,72.6,35.5,72.8z"/>
	<path class="st1" d="M56.4,47.2c0,0.2-0.2,0.4-0.4,0.4c-0.2,0-0.4-0.2-0.4-0.4c0-0.2,0.2-0.4,0.4-0.4C56.2,46.8,56.4,47,56.4,47.2z
		"/>
	<path class="st1" d="M78.6,58.8c0,0.2-0.2,0.4-0.4,0.4c-0.2,0-0.4-0.2-0.4-0.4c0-0.2,0.2-0.4,0.4-0.4
		C78.4,58.4,78.6,58.6,78.6,58.8z"/>
	<path class="st1" d="M37.3,72.6c0,0.5-0.4,0.9-0.9,0.9c-0.5,0-0.9-0.4-0.9-0.9c0-0.5,0.4-0.9,0.9-0.9
		C36.9,71.7,37.3,72.1,37.3,72.6z"/>
	<circle class="st1" cx="54.7" cy="48.5" r="0.9"/>
	<path class="st1" d="M54.6,79.7c0,0.5-0.4,0.9-0.9,0.9c-0.5,0-0.9-0.4-0.9-0.9c0-0.5,0.4-0.9,0.9-0.9
		C54.2,78.8,54.6,79.2,54.6,79.7z"/>
	<path class="st1" d="M77,64.3c0,0.5-0.4,0.9-0.9,0.9c-0.5,0-0.9-0.4-0.9-0.9c0-0.5,0.4-0.9,0.9-0.9C76.6,63.4,77,63.8,77,64.3z"/>
	<path class="st6" d="M71,77c-7.2,1.1-11.8,8.3-11,15.3c0.4,3.9,2.7,6.9,4.7,8.8c-2.2,0.4-4.5,0.7-6.9,0.7c-1.1,0-2.2-0.1-3.2-0.1
		c-0.5-2.4-2.5-13.2,3-19.9c6.2-7.6,10.6-8.7,13.9-12.3c3.3-3.6-11.1-14.8-8.9-19.1c2.2-4.2,10.4-5.8,10.2,1.7
		c-0.3,7.5-0.7,13.4,1.3,15.7c2,2.2,10.8,2.3,11.5,8.2C86.4,81.9,78.2,75.9,71,77z"/>
	<path class="st8" d="M38.4,96c-0.2-0.1-0.4-0.2-0.6-0.4c-0.7-0.5-1.4-1-2-1.5c-0.9-0.7-1.7-1.4-2.5-2.1c-4.7-4.4-8.2-10.1-9.9-16.5
		c-0.3-1.2-0.6-2.4-0.8-3.7c-0.3-1.9-0.5-3.8-0.5-5.8c0-0.2,0-0.5,0-0.7c0.9-0.1,1.7,0.1,2.5,0.7c3.9,2.9,2.8,6.7,5.9,11.6
		c3.1,5,7.7,8.8,7.9,14.5C38.5,93.9,38.5,95.1,38.4,96z"/>
	<defs>
		<filter id="Adobe_OpacityMaskFilter" filterUnits="userSpaceOnUse" x="25.9" y="32.4" width="44.8" height="32.6">
			<feColorMatrix  type="matrix" values="1 0 0 0 0  0 1 0 0 0  0 0 1 0 0  0 0 0 1 0"/>
		</filter>
	</defs>
	<mask maskUnits="userSpaceOnUse" x="25.9" y="32.4" width="44.8" height="32.6" id="SVGID_2_">
		<g class="st9">
			<defs>
				<filter id="Adobe_OpacityMaskFilter_1_" filterUnits="userSpaceOnUse" x="25.9" y="32.4" width="44.8" height="32.6">
					<feFlood  style="flood-color:white;flood-opacity:1" result="back"/>
					<feBlend  in="SourceGraphic" in2="back" mode="normal"/>
				</filter>
			</defs>
			<mask maskUnits="userSpaceOnUse" x="25.9" y="32.4" width="44.8" height="32.6" id="SVGID_2_">
				<g class="st10">
				</g>
			</mask>
			
				<linearGradient id="SVGID_3_" gradientUnits="userSpaceOnUse" x1="74.6906" y1="-110.6867" x2="77.4408" y2="-90.4875" gradientTransform="matrix(1.0265 -0.5286 0.6244 1.2124 33.0196 210.8438)">
				<stop  offset="0" style="stop-color:#FFFFFF"/>
				<stop  offset="1" style="stop-color:#333333"/>
			</linearGradient>
			<path class="st11" d="M69.8,37.6c3.4,6.6-3.5,16.9-15.4,23.1c-11.9,6.1-24.3,5.7-27.7-0.9c-3.4-6.6,3.5-16.9,15.4-23.1
				C54,30.6,66.4,31,69.8,37.6z"/>
		</g>
	</mask>
	
		<linearGradient id="SVGID_4_" gradientUnits="userSpaceOnUse" x1="74.6906" y1="-110.6867" x2="77.4408" y2="-90.4875" gradientTransform="matrix(1.0265 -0.5286 0.6244 1.2124 33.0196 210.8438)">
		<stop  offset="0" style="stop-color:#FFFFFF"/>
		<stop  offset="1" style="stop-color:#FFFFFF"/>
	</linearGradient>
	<path class="st12" d="M69.8,37.6c3.4,6.6-3.5,16.9-15.4,23.1c-11.9,6.1-24.3,5.7-27.7-0.9c-3.4-6.6,3.5-16.9,15.4-23.1
		C54,30.6,66.4,31,69.8,37.6z"/>
	<ellipse transform="matrix(0.889 -0.4578 0.4578 0.889 -13.4144 26.0356)" class="st13" cx="47" cy="40.7" rx="11" ry="2.9"/>
	<path class="st13" d="M35.7,47.6c0.5,1,0.1,2.2-0.9,2.7c-1,0.5-2.2,0.1-2.7-0.9c-0.5-1-0.1-2.2,0.9-2.7
		C34,46.2,35.2,46.6,35.7,47.6z"/>
	<path class="st14" d="M93.5,66.1c0,19.7-16,35.7-35.7,35.7c-5.7,0-11.1-1.3-15.9-3.8c-1.4-0.7-2.7-1.5-4-2.3c-0.7-0.5-1.4-1-2-1.5
		c-0.9-0.7-1.7-1.4-2.5-2.1c-4.7-4.4-8.2-10.1-9.9-16.5c7.8,1.5,23.2,3.5,40.6-3c15.6-5.9,21.9-17.1,24.6-24.4
		c1,1.6,1.8,3.4,2.5,5.2C92.7,57.3,93.5,61.6,93.5,66.1z"/>
	<defs>
		<filter id="Adobe_OpacityMaskFilter_2_" filterUnits="userSpaceOnUse" x="33" y="38.4" width="60.5" height="63.4">
			<feColorMatrix  type="matrix" values="1 0 0 0 0  0 1 0 0 0  0 0 1 0 0  0 0 0 1 0"/>
		</filter>
	</defs>
	<mask maskUnits="userSpaceOnUse" x="33" y="38.4" width="60.5" height="63.4" id="SVGID_5_">
		<g class="st15">
			<defs>
				<filter id="Adobe_OpacityMaskFilter_3_" filterUnits="userSpaceOnUse" x="33" y="38.4" width="60.5" height="63.4">
					<feFlood  style="flood-color:white;flood-opacity:1" result="back"/>
					<feBlend  in="SourceGraphic" in2="back" mode="normal"/>
				</filter>
			</defs>
			<mask maskUnits="userSpaceOnUse" x="33" y="38.4" width="60.5" height="63.4" id="SVGID_5_">
				<g class="st16">
				</g>
			</mask>
			<linearGradient id="SVGID_6_" gradientUnits="userSpaceOnUse" x1="79.9365" y1="94.0865" x2="53.0548" y2="59.6795">
				<stop  offset="0" style="stop-color:#FFFFFF"/>
				<stop  offset="1" style="stop-color:#000000"/>
			</linearGradient>
			<path class="st17" d="M80.3,38.4C87,44.9,91.2,54,91.2,64c0,19.7-16,35.7-35.7,35.7c-8.5,0-16.3-3-22.5-8
				c6.4,6.2,15.2,10,24.8,10c19.7,0,35.7-16,35.7-35.7C93.5,54.9,88.4,44.9,80.3,38.4z"/>
		</g>
	</mask>
	<linearGradient id="SVGID_7_" gradientUnits="userSpaceOnUse" x1="79.9365" y1="94.0865" x2="53.0548" y2="59.6795">
		<stop  offset="0" style="stop-color:#FFFFFF"/>
		<stop  offset="1" style="stop-color:#FFFFFF"/>
	</linearGradient>
	<path class="st18" d="M80.3,38.4C87,44.9,91.2,54,91.2,64c0,19.7-16,35.7-35.7,35.7c-8.5,0-16.3-3-22.5-8c6.4,6.2,15.2,10,24.8,10
		c19.7,0,35.7-16,35.7-35.7C93.5,54.9,88.4,44.9,80.3,38.4z"/>
	<defs>
		<filter id="Adobe_OpacityMaskFilter_4_" filterUnits="userSpaceOnUse" x="0" y="0" width="85.8" height="85.3">
			<feColorMatrix  type="matrix" values="1 0 0 0 0  0 1 0 0 0  0 0 1 0 0  0 0 0 1 0"/>
		</filter>
	</defs>
	<mask maskUnits="userSpaceOnUse" x="0" y="0" width="85.8" height="85.3" id="SVGID_8_">
		<g class="st19">
			<defs>
				<filter id="Adobe_OpacityMaskFilter_5_" filterUnits="userSpaceOnUse" x="0" y="0" width="85.8" height="85.3">
					<feFlood  style="flood-color:white;flood-opacity:1" result="back"/>
					<feBlend  in="SourceGraphic" in2="back" mode="normal"/>
				</filter>
			</defs>
			<mask maskUnits="userSpaceOnUse" x="0" y="0" width="85.8" height="85.3" id="SVGID_8_">
				<g class="st20">
				</g>
			</mask>
			
				<radialGradient id="SVGID_9_" cx="42.0411" cy="45.9449" r="45.4181" gradientTransform="matrix(1 0 0 0.9942 0 -0.379)" gradientUnits="userSpaceOnUse">
				<stop  offset="0" style="stop-color:#FFFFFF"/>
				<stop  offset="0.7822" style="stop-color:#000000"/>
			</radialGradient>
			<ellipse class="st21" cx="42.9" cy="42.6" rx="42.9" ry="42.6"/>
		</g>
	</mask>
	<g>
		<defs>
			<filter id="Adobe_OpacityMaskFilter_6_" filterUnits="userSpaceOnUse" x="0" y="0" width="85.8" height="85.3">
				<feFlood  style="flood-color:white;flood-opacity:1" result="back"/>
				<feBlend  in="SourceGraphic" in2="back" mode="normal"/>
			</filter>
		</defs>
		<mask maskUnits="userSpaceOnUse" x="0" y="0" width="85.8" height="85.3" id="SVGID_10_">
			<g class="st22">
				<defs>
					<filter id="Adobe_OpacityMaskFilter_7_" filterUnits="userSpaceOnUse" x="0" y="0" width="85.8" height="85.3">
						<feFlood  style="flood-color:white;flood-opacity:1" result="back"/>
						<feBlend  in="SourceGraphic" in2="back" mode="normal"/>
					</filter>
				</defs>
				<mask maskUnits="userSpaceOnUse" x="0" y="0" width="85.8" height="85.3" id="SVGID_10_">
					<g class="st23">
					</g>
				</mask>
				
					<radialGradient id="SVGID_11_" cx="42.4781" cy="44.4155" r="44.9776" gradientTransform="matrix(1 0 0 0.9942 0 -0.379)" gradientUnits="userSpaceOnUse">
					<stop  offset="0" style="stop-color:#FFFFFF"/>
					<stop  offset="1" style="stop-color:#000000"/>
				</radialGradient>
				<path class="st24" d="M85.7,39.9c1.6,25.7-19.7,47-45.6,45.3c-21.4-1.3-38.7-18.6-40-39.8c-1.6-25.7,19.7-47,45.6-45.3
					C67,1.4,84.4,18.7,85.7,39.9z"/>
			</g>
		</mask>
		
			<radialGradient id="SVGID_12_" cx="42.4781" cy="44.4155" r="44.9776" gradientTransform="matrix(1 0 0 0.9942 0 -0.379)" gradientUnits="userSpaceOnUse">
			<stop  offset="0" style="stop-color:#FFFFFF"/>
			<stop  offset="1" style="stop-color:#000000"/>
		</radialGradient>
		<path class="st25" d="M85.7,39.9c1.6,25.7-19.7,47-45.6,45.3c-21.4-1.3-38.7-18.6-40-39.8c-1.6-25.7,19.7-47,45.6-45.3
			C67,1.4,84.4,18.7,85.7,39.9z"/>
	</g>
	<defs>
		<filter id="Adobe_OpacityMaskFilter_8_" filterUnits="userSpaceOnUse" x="58.9" y="75.6" width="35.5" height="35.3">
			<feColorMatrix  type="matrix" values="1 0 0 0 0  0 1 0 0 0  0 0 1 0 0  0 0 0 1 0"/>
		</filter>
	</defs>
	<mask maskUnits="userSpaceOnUse" x="58.9" y="75.6" width="35.5" height="35.3" id="SVGID_13_">
		<g class="st26">
			<defs>
				<filter id="Adobe_OpacityMaskFilter_9_" filterUnits="userSpaceOnUse" x="58.9" y="75.6" width="35.5" height="35.3">
					<feFlood  style="flood-color:white;flood-opacity:1" result="back"/>
					<feBlend  in="SourceGraphic" in2="back" mode="normal"/>
				</filter>
			</defs>
			<mask maskUnits="userSpaceOnUse" x="58.9" y="75.6" width="35.5" height="35.3" id="SVGID_13_">
				<g class="st27">
				</g>
			</mask>
			
				<radialGradient id="SVGID_14_" cx="76.3252" cy="95.2936" r="18.7725" gradientTransform="matrix(1 0 0 0.9942 0 -0.379)" gradientUnits="userSpaceOnUse">
				<stop  offset="0" style="stop-color:#FFFFFF"/>
				<stop  offset="0.7822" style="stop-color:#000000"/>
			</radialGradient>
			<ellipse class="st28" cx="76.7" cy="93.3" rx="17.7" ry="17.6"/>
		</g>
	</mask>
	<g>
		<defs>
			<filter id="Adobe_OpacityMaskFilter_10_" filterUnits="userSpaceOnUse" x="58.9" y="75.6" width="35.5" height="35.3">
				<feFlood  style="flood-color:white;flood-opacity:1" result="back"/>
				<feBlend  in="SourceGraphic" in2="back" mode="normal"/>
			</filter>
		</defs>
		<mask maskUnits="userSpaceOnUse" x="58.9" y="75.6" width="35.5" height="35.3" id="SVGID_15_">
			<g class="st29">
				<defs>
					<filter id="Adobe_OpacityMaskFilter_11_" filterUnits="userSpaceOnUse" x="58.9" y="75.6" width="35.5" height="35.3">
						<feFlood  style="flood-color:white;flood-opacity:1" result="back"/>
						<feBlend  in="SourceGraphic" in2="back" mode="normal"/>
					</filter>
				</defs>
				<mask maskUnits="userSpaceOnUse" x="58.9" y="75.6" width="35.5" height="35.3" id="SVGID_15_">
					<g class="st30">
					</g>
				</mask>
				
					<radialGradient id="SVGID_16_" cx="76.5059" cy="94.6614" r="18.5905" gradientTransform="matrix(1 0 0 0.9942 0 -0.379)" gradientUnits="userSpaceOnUse">
					<stop  offset="0" style="stop-color:#FFFFFF"/>
					<stop  offset="1" style="stop-color:#000000"/>
				</radialGradient>
				<path class="st31" d="M94.4,92.1c0.7,10.6-8.1,19.4-18.8,18.7c-8.8-0.6-16-7.7-16.5-16.4C58.3,83.8,67.1,75,77.8,75.7
					C86.7,76.2,93.8,83.3,94.4,92.1z"/>
			</g>
		</mask>
		
			<radialGradient id="SVGID_17_" cx="76.5059" cy="94.6614" r="18.5905" gradientTransform="matrix(1 0 0 0.9942 0 -0.379)" gradientUnits="userSpaceOnUse">
			<stop  offset="0" style="stop-color:#FFFFFF"/>
			<stop  offset="1" style="stop-color:#000000"/>
		</radialGradient>
		<path class="st32" d="M94.4,92.1c0.7,10.6-8.1,19.4-18.8,18.7c-8.8-0.6-16-7.7-16.5-16.4C58.3,83.8,67.1,75,77.8,75.7
			C86.7,76.2,93.8,83.3,94.4,92.1z"/>
	</g>
</g>
</svg>
