<?xml version="1.0" encoding="utf-8"?>
<!-- Generator: Adobe Illustrator 22.1.0, SVG Export Plug-In . SVG Version: 6.00 Build 0)  -->
<svg version="1.1" id="Layer_1" xmlns="http://www.w3.org/2000/svg" xmlns:xlink="http://www.w3.org/1999/xlink" x="0px" y="0px"
	 viewBox="0 0 95.5 112.6" style="enable-background:new 0 0 95.5 112.6;" xml:space="preserve">
<style type="text/css">
	.st0{fill:url(#SVGID_1_);}
	.st1{opacity:0.4;fill:#AD0000;}
	.st2{opacity:0.58;fill:#AD0000;}
	.st3{opacity:0.45;fill:#AD0000;}
	.st4{opacity:0.4;fill:#700000;}
	.st5{fill:#700000;}
	.st6{opacity:0.45;fill:#FFD800;}
	.st7{opacity:0.44;fill:#700000;}
	.st8{opacity:0.58;fill:#700000;}
	.st9{fill:#AD0000;}
	.st10{filter:url(#Adobe_OpacityMaskFilter);}
	.st11{filter:url(#Adobe_OpacityMaskFilter_1_);}
	.st12{mask:url(#SVGID_2_);fill:url(#SVGID_3_);}
	.st13{fill:url(#SVGID_4_);}
	.st14{fill:#FFFFFF;}
	.st15{opacity:0.26;fill:#900000;}
	.st16{filter:url(#Adobe_OpacityMaskFilter_2_);}
	.st17{filter:url(#Adobe_OpacityMaskFilter_3_);}
	.st18{mask:url(#SVGID_5_);fill:url(#SVGID_6_);}
	.st19{opacity:0.6;fill:url(#SVGID_7_);}
	.st20{filter:url(#Adobe_OpacityMaskFilter_4_);}
	.st21{filter:url(#Adobe_OpacityMaskFilter_5_);}
	.st22{mask:url(#SVGID_8_);fill:url(#SVGID_9_);}
	.st23{filter:url(#Adobe_OpacityMaskFilter_6_);}
	.st24{filter:url(#Adobe_OpacityMaskFilter_7_);}
	.st25{mask:url(#SVGID_10_);fill:url(#SVGID_11_);}
	.st26{opacity:0.78;fill:url(#SVGID_12_);}
	.st27{filter:url(#Adobe_OpacityMaskFilter_8_);}
	.st28{filter:url(#Adobe_OpacityMaskFilter_9_);}
	.st29{mask:url(#SVGID_13_);fill:url(#SVGID_14_);}
	.st30{filter:url(#Adobe_OpacityMaskFilter_10_);}
	.st31{filter:url(#Adobe_OpacityMaskFilter_11_);}
	.st32{mask:url(#SVGID_15_);fill:url(#SVGID_16_);}
	.st33{opacity:0.78;fill:url(#SVGID_17_);}
</style>
<g>
	<linearGradient id="SVGID_1_" gradientUnits="userSpaceOnUse" x1="25.2253" y1="44.9062" x2="82.408" y2="79.2651">
		<stop  offset="1.980200e-02" style="stop-color:#FFAD00"/>
		<stop  offset="1" style="stop-color:#F65B00"/>
	</linearGradient>
	<path class="st0" d="M87.2,62.1c0,0.5,0,1,0,1.4c0,0.6-0.1,1.1-0.1,1.7c-0.3,3.3-1.1,6.5-2.3,9.5c-0.5,1.2-1.1,2.5-1.7,3.6
		c-0.5,1-1.2,2-1.8,2.9c-0.9,1.3-1.9,2.5-3,3.7c-2.4,2.6-5.3,4.8-8.4,6.5c-4.7,2.6-10.2,4.1-16,4.1c-5.3,0-10.4-1.3-14.9-3.5
		c-1.3-0.6-2.6-1.4-3.8-2.2c-0.6-0.4-1.3-0.9-1.9-1.4c-0.8-0.6-1.6-1.3-2.3-2c-0.9-0.9-1.8-1.8-2.6-2.7c-2.4-2.8-4.3-6-5.7-9.5
		c-0.4-1.1-0.8-2.1-1.1-3.2c-0.3-1.1-0.6-2.3-0.8-3.4c0-0.1,0-0.3-0.1-0.4c-0.3-1.6-0.4-3.3-0.4-5c0-1.2,0.1-2.3,0.2-3.4
		c0.1-1.1,0.3-2.1,0.5-3.2c1.1-5.4,3.4-10.3,6.8-14.4c0.5-0.6,1-1.1,1.5-1.7l0.1-0.1c2.2-2.3,4.7-4.4,7.5-6c2.4-1.4,5-2.6,7.8-3.4
		c2.9-0.8,6-1.3,9.1-1.3c7.8,0,15,2.7,20.7,7.2c0.2,0.2,0.4,0.3,0.6,0.5c0.1,0.1,0.2,0.2,0.3,0.2c0.3,0.3,0.6,0.6,1,0.8
		c0.5,0.5,1,0.9,1.5,1.4c0.4,0.5,0.9,0.9,1.3,1.4l0.1,0.1c0.5,0.6,1,1.2,1.5,1.9c0.7,1,1.4,2,2,3.1c0.3,0.5,0.6,1,0.9,1.6
		c0.5,1.1,1,2.1,1.5,3.3c0.4,1,0.7,2,1,3C86.8,56,87.2,59,87.2,62.1z"/>
	<path class="st1" d="M86,53.2c-3.3,2-7.7,3.8-10.8,1.7c-5.6-3.8-4.7-18.3-7.9-15.6C64,42,66.8,55.5,59.1,55.5
		c-7.6,0-4-13.2-9.7-20.6c-1.5-2-3.1-3.6-4.7-4.9c1.9-0.5,3.8-0.9,5.8-1.1c1.1-0.1,2.2-0.2,3.3-0.2c7.8,0,15,2.7,20.7,7.2
		c0.2,0.2,0.4,0.3,0.6,0.5c0.1,0.1,0.2,0.2,0.3,0.2c0.3,0.3,0.6,0.6,1,0.8c0.5,0.5,1,0.9,1.5,1.4c0.4,0.5,0.9,0.9,1.3,1.4l0.1,0.1
		c0.5,0.6,1,1.2,1.5,1.9c0.4,0.5,0.7,1,1,1.5c0.3,0.5,0.7,1,1,1.6c0.9,1.5,1.7,3.2,2.3,4.8C85.4,51.2,85.7,52.2,86,53.2z"/>
	<path class="st2" d="M40.9,41.3c-1.2,1.9-9.1,0.6-13.1-0.2c2.5-3.1,5.5-5.7,9-7.8C39.4,35.4,42.6,38.5,40.9,41.3z"/>
	<path class="st3" d="M78.2,84.8c-3.3,3.5-7.3,6.3-11.8,8.1c-3.9,1.6-8.1,2.5-12.6,2.5c-2.5,0-5-0.3-7.3-0.8
		c-2.7-0.6-5.2-1.5-7.5-2.7c-1.3-0.6-2.6-1.4-3.8-2.2c-0.6-0.4-1.3-0.9-1.9-1.4c-0.8-0.6-1.6-1.3-2.3-2c-0.9-0.9-1.8-1.8-2.6-2.7
		c1.2-5.1,3.3-11.5,6.2-11.2c4.9,0.5,3.8,9,5.5,13.1c1.7,4.1,4.7-5,7.9-5.7c3.1-0.7,11.1,6.6,19.5,6.9
		C72.6,86.9,76.2,85.8,78.2,84.8z"/>
	<path class="st4" d="M81.7,43.8c-2.3,0.9-5.8,1.9-7.2-0.2c-2.2-3.3-5.9-10.1-9.1-9.3c-3.2,0.9-7.1,4.2-9.7,0
		c-2.1-3.4-4.3-4.9-5.1-5.4c1.1-0.1,2.2-0.2,3.3-0.2c7.8,0,15,2.7,20.7,7.2c0.2,0.2,0.4,0.3,0.6,0.5c0.1,0.1,0.2,0.2,0.3,0.2
		c0.3,0.3,0.6,0.6,1,0.8c0.5,0.5,1,0.9,1.5,1.4c0.4,0.5,0.9,0.9,1.3,1.4l0.1,0.1c0.5,0.6,1,1.2,1.5,1.9C81,42.8,81.4,43.3,81.7,43.8
		z"/>
	<path class="st5" d="M66.4,93c-3.9,1.6-8.1,2.5-12.6,2.5c-2.5,0-5-0.3-7.3-0.8c0.9-2.2,2.5-5.3,4.7-6.5C54,86.7,62.7,91,66.4,93z"
		/>
	<path class="st6" d="M84.7,74.6c-0.5,1.2-1.1,2.5-1.7,3.6c-1.4-0.6-3.1-1.4-4.8-2.6c-3.7-2.6-8.6-12.4-9.7-12.7
		c-1-0.4-7.5,7-12.6,7c-5.1,0-9.3-14.3-11.7-13.1C41.9,58,42,68.9,37.6,69.2c-4.4,0.3-5.6-8.8-8.5-9.1c-2.1-0.2-6.1,4.3-8.2,7
		c-0.3-1.6-0.4-3.3-0.4-5c0,0,7.7-5.6,11.5-4.6c3.9,1,2.5,5.6,5.1,6.8c2.6,1.2,4.3-9.1,7.6-10.1c3.2-1.1,5.8,9.2,10.7,11.3
		c4.8,2.1,10.4-4,13.2-3.8c2.8,0.3,6.6,8.2,12.6,11.4C82.6,73.8,83.8,74.3,84.7,74.6z"/>
	<path class="st7" d="M81.2,81.1c-0.9,1.3-1.9,2.5-3,3.7c-2.4,2.6-5.3,4.8-8.4,6.5c-0.6-2-2.2-6.9-5-7.9c-3.6-1.2-12.1-2.7-11-4.2
		c1.1-1.5,6.3,0.2,10.8,2.4c5.1,2.6,7.7-0.1,5.2-2.2c-2.5-2.1-12.5-4.8-9.6-5.4c2.9-0.6,7.5,3.4,14.4,5.8
		C76.9,80.8,79.3,81.1,81.2,81.1z"/>
	<path class="st8" d="M33.6,49c-5.7-0.9-6.2,4.2-2.2,4.7c4,0.5,8.5,1,9.2,3c0.7,2.1-5.4-1.1-9.5-1.8c-3.3-0.5-8.2,0.2-10,0.5
		c1.1-5.4,3.4-10.3,6.8-14.4c0.5-0.6,1-1.1,1.5-1.7l0.1-0.1c0,0-0.7,2.1,2.3,6.3c3,4.2,11.9,3.5,12.3,4.7
		C44.4,51.6,39.3,49.9,33.6,49z"/>
	<path class="st7" d="M87.1,63.5c0,0.6-0.1,1.1-0.1,1.7c-3-0.7-17.8-4.2-16.7-5.9C71.4,57.6,83.5,62.1,87.1,63.5z"/>
	<g>
		<path class="st5" d="M70.4,54.7c0,1.5-0.7,2.7-1.5,2.7c-0.1,0-0.1,0-0.2,0c-0.7-0.2-1.3-1.3-1.3-2.7c0-1.4,0.6-2.5,1.3-2.7
			c0.1,0,0.1,0,0.2,0C69.7,51.9,70.4,53.2,70.4,54.7z"/>
		<path class="st9" d="M70,54.7c0,1.4-0.6,2.5-1.3,2.7c-0.7-0.2-1.3-1.3-1.3-2.7c0-1.4,0.6-2.5,1.3-2.7C69.4,52.1,70,53.3,70,54.7z"
			/>
	</g>
	<g>
		<path class="st5" d="M48,52c0,0.5-0.2,0.9-0.5,0.9c0,0,0,0-0.1,0c-0.3-0.1-0.5-0.5-0.5-0.9c0-0.5,0.2-0.9,0.5-0.9c0,0,0,0,0.1,0
			C47.7,51,48,51.5,48,52z"/>
		<path class="st9" d="M47.8,52c0,0.5-0.2,0.9-0.5,0.9c-0.3-0.1-0.5-0.5-0.5-0.9c0-0.5,0.2-0.9,0.5-0.9C47.6,51.1,47.8,51.5,47.8,52
			z"/>
	</g>
	<g>
		<path class="st5" d="M64.3,46.8c0,1.5-0.7,2.7-1.5,2.7c-0.1,0-0.1,0-0.2,0c-0.7-0.2-1.3-1.3-1.3-2.7c0-1.4,0.6-2.5,1.3-2.7
			c0.1,0,0.1,0,0.2,0C63.6,44.1,64.3,45.3,64.3,46.8z"/>
		<path class="st9" d="M63.9,46.8c0,1.4-0.6,2.5-1.3,2.7c-0.7-0.2-1.3-1.3-1.3-2.7c0-1.4,0.6-2.5,1.3-2.7
			C63.3,44.3,63.9,45.4,63.9,46.8z"/>
	</g>
	<g>
		<path class="st5" d="M83.8,50.1c0.1,1.1-0.3,2.1-1,2.1c-0.1,0-0.1,0-0.2,0c-0.6-0.1-1.1-0.9-1.2-2c-0.1-1,0.3-1.9,0.8-2.1
			c0,0,0.1,0,0.1,0C83.1,48.1,83.7,49,83.8,50.1z"/>
		<path class="st9" d="M83.5,50.1c0.1,1-0.3,1.9-0.8,2.1c-0.6-0.1-1.1-0.9-1.2-2c-0.1-1,0.3-1.9,0.8-2.1
			C82.9,48.2,83.4,49.1,83.5,50.1z"/>
	</g>
	<g>
		<path class="st5" d="M79,41.5c0.5,0.8,0.6,1.7,0.1,2c0,0-0.1,0-0.1,0.1c-0.5,0.2-1.1-0.3-1.6-1c-0.5-0.7-0.5-1.5-0.2-1.9
			c0,0,0.1-0.1,0.1-0.1C77.7,40.2,78.5,40.7,79,41.5z"/>
		<path class="st9" d="M78.8,41.6c0.5,0.7,0.5,1.5,0.2,1.9c-0.5,0.2-1.1-0.3-1.6-1c-0.5-0.7-0.5-1.5-0.2-1.9
			C77.7,40.4,78.3,40.9,78.8,41.6z"/>
	</g>
	<g>
		<path class="st5" d="M84.3,69.1c-0.3,1.5-1.3,2.5-2.1,2.3c-0.1,0-0.1,0-0.2-0.1c-0.7-0.3-1-1.6-0.7-2.9c0.3-1.4,1.1-2.4,1.9-2.4
			c0.1,0,0.1,0,0.2,0C84.2,66.3,84.6,67.7,84.3,69.1z"/>
		<path class="st9" d="M83.9,69c-0.3,1.4-1.1,2.3-1.9,2.4c-0.7-0.3-1-1.6-0.7-2.9c0.3-1.4,1.1-2.4,1.9-2.4
			C83.9,66.5,84.2,67.7,83.9,69z"/>
	</g>
	<g>
		<path class="st5" d="M24.4,68.4c0.3,2,1.5,3.5,2.6,3.3c0.1,0,0.2,0,0.3-0.1c1-0.4,1.5-2,1.2-3.9c-0.3-1.8-1.3-3.2-2.3-3.3
			c-0.1,0-0.2,0-0.3,0C24.7,64.6,24.1,66.4,24.4,68.4z"/>
		<path class="st9" d="M24.9,68.3c0.3,1.8,1.3,3.2,2.3,3.3c1-0.4,1.5-2,1.2-3.9c-0.3-1.8-1.3-3.2-2.3-3.3
			C25.2,64.8,24.7,66.5,24.9,68.3z"/>
	</g>
	<g>
		<path class="st5" d="M40.5,81.2c-0.1,0.9,0.3,1.7,0.8,1.8c0,0,0.1,0,0.1,0c0.5-0.1,0.9-0.8,0.9-1.6c0.1-0.9-0.2-1.6-0.7-1.7
			c0,0-0.1,0-0.1,0C41.1,79.5,40.6,80.3,40.5,81.2z"/>
		<path class="st9" d="M40.8,81.2c-0.1,0.9,0.2,1.6,0.7,1.7c0.5-0.1,0.9-0.8,0.9-1.6c0.1-0.9-0.2-1.6-0.7-1.7
			C41.2,79.7,40.8,80.4,40.8,81.2z"/>
	</g>
	<g>
		<path class="st5" d="M38,73.4c0.3,1.7,1.3,2.9,2.2,2.7c0.1,0,0.1,0,0.2-0.1c0.8-0.3,1.2-1.7,0.9-3.2c-0.3-1.5-1.1-2.7-2-2.7
			c-0.1,0-0.1,0-0.2,0C38.2,70.3,37.7,71.7,38,73.4z"/>
		<path class="st9" d="M38.4,73.3c0.3,1.5,1.1,2.7,2,2.7c0.8-0.3,1.2-1.7,0.9-3.2c-0.3-1.5-1.1-2.7-2-2.7
			C38.6,70.4,38.2,71.8,38.4,73.3z"/>
	</g>
	<g>
		<path class="st5" d="M32.8,83.8c0.8,1.9,2.3,3,3.3,2.6c0.1,0,0.2-0.1,0.2-0.1c0.8-0.6,1-2.3,0.2-4c-0.7-1.7-2-2.8-3-2.7
			c-0.1,0-0.2,0-0.3,0.1C32.2,80.1,32,82,32.8,83.8z"/>
		<path class="st9" d="M33.2,83.6c0.7,1.7,2,2.8,3,2.7c0.8-0.6,1-2.3,0.2-4c-0.7-1.7-2-2.8-3-2.7C32.7,80.2,32.5,81.9,33.2,83.6z"/>
	</g>
	<g>
		<path class="st5" d="M29.5,70.8c0.2,1,0.7,1.7,1.3,1.6c0,0,0.1,0,0.1,0c0.5-0.2,0.7-1,0.6-1.9c-0.1-0.9-0.6-1.6-1.1-1.6
			c0,0-0.1,0-0.1,0C29.6,68.9,29.3,69.8,29.5,70.8z"/>
		<path class="st9" d="M29.7,70.8c0.1,0.9,0.6,1.6,1.1,1.6c0.5-0.2,0.7-1,0.6-1.9c-0.1-0.9-0.6-1.6-1.1-1.6
			C29.9,69,29.6,69.9,29.7,70.8z"/>
	</g>
	<g>
		<path class="st5" d="M67.2,57.9c0,0.6-0.3,1-0.6,1c0,0-0.1,0-0.1,0c-0.3-0.1-0.5-0.5-0.5-1c0-0.5,0.2-0.9,0.5-1c0,0,0,0,0.1,0
			C67,56.9,67.2,57.3,67.2,57.9z"/>
		<path class="st9" d="M67.1,57.9c0,0.5-0.2,0.9-0.5,1c-0.3-0.1-0.5-0.5-0.5-1c0-0.5,0.2-0.9,0.5-1C66.9,56.9,67.1,57.4,67.1,57.9z"
			/>
	</g>
	<g>
		<path class="st5" d="M85,58.9c0,0.6-0.3,1-0.6,1c0,0-0.1,0-0.1,0c-0.3-0.1-0.5-0.5-0.5-1c0-0.5,0.2-0.9,0.5-1c0,0,0,0,0.1,0
			C84.7,57.9,85,58.3,85,58.9z"/>
		<path class="st9" d="M84.8,58.9c0,0.5-0.2,0.9-0.5,1c-0.3-0.1-0.5-0.5-0.5-1c0-0.5,0.2-0.9,0.5-1C84.6,58,84.8,58.4,84.8,58.9z"/>
	</g>
	<path class="st6" d="M46.1,60.6c-1.3,0.5,4.3,7.5,4.5,9.1s-5-6.4-6.1-5.7c-1.1,0.6,3.4,8.4,8.2,9.6c4.7,1.3,14.5-4.1,14.7-5.1
		c0.2-1-7.5,3.8-8.3,2.9c-0.8-0.8,8.1-3.5,7.7-4.3c-0.4-0.8-8.9,4.3-12.4,3.5C50.8,69.8,47.2,60.2,46.1,60.6z"/>
	<path class="st6" d="M72.2,62.5c-0.4,0.3,6,8.4,6.5,8C79.3,70.1,73.4,61.7,72.2,62.5z"/>
	<defs>
		<filter id="Adobe_OpacityMaskFilter" filterUnits="userSpaceOnUse" x="24.9" y="29.7" width="41.4" height="30.2">
			<feColorMatrix  type="matrix" values="1 0 0 0 0  0 1 0 0 0  0 0 1 0 0  0 0 0 1 0"/>
		</filter>
	</defs>
	<mask maskUnits="userSpaceOnUse" x="24.9" y="29.7" width="41.4" height="30.2" id="SVGID_2_">
		<g class="st10">
			<defs>
				<filter id="Adobe_OpacityMaskFilter_1_" filterUnits="userSpaceOnUse" x="24.9" y="29.7" width="41.4" height="30.2">
					<feFlood  style="flood-color:white;flood-opacity:1" result="back"/>
					<feBlend  in="SourceGraphic" in2="back" mode="normal"/>
				</filter>
			</defs>
			<mask maskUnits="userSpaceOnUse" x="24.9" y="29.7" width="41.4" height="30.2" id="SVGID_2_">
				<g class="st11">
				</g>
			</mask>
			
				<linearGradient id="SVGID_3_" gradientUnits="userSpaceOnUse" x1="74.5152" y1="-113.2586" x2="77.0573" y2="-94.5878" gradientTransform="matrix(1.0265 -0.5286 0.6244 1.2124 32.657 210.8878)">
				<stop  offset="0" style="stop-color:#FFFFFF"/>
				<stop  offset="1" style="stop-color:#333333"/>
			</linearGradient>
			<path class="st12" d="M65.5,34.6c3.1,6.1-3.2,15.7-14.2,21.3c-11,5.7-22.4,5.3-25.6-0.8s3.2-15.7,14.2-21.3S62.3,28.5,65.5,34.6z
				"/>
		</g>
	</mask>
	
		<linearGradient id="SVGID_4_" gradientUnits="userSpaceOnUse" x1="74.5152" y1="-113.2586" x2="77.0573" y2="-94.5878" gradientTransform="matrix(1.0265 -0.5286 0.6244 1.2124 32.657 210.8878)">
		<stop  offset="0" style="stop-color:#FFFFFF"/>
		<stop  offset="1" style="stop-color:#FFFFFF"/>
	</linearGradient>
	<path class="st13" d="M65.5,34.6c3.1,6.1-3.2,15.7-14.2,21.3c-11,5.7-22.4,5.3-25.6-0.8s3.2-15.7,14.2-21.3S62.3,28.5,65.5,34.6z"
		/>
	<path class="st14" d="M51.9,34c0.6,1.2-2.6,4-7.1,6.4c-4.5,2.3-8.7,3.3-9.3,2.1c-0.6-1.2,2.6-4,7.1-6.4
		C47.1,33.8,51.2,32.8,51.9,34z"/>
	<path class="st14" d="M34.2,44c0.4,0.8,0.1,1.9-0.7,2.3c-0.8,0.4-1.9,0.1-2.3-0.7c-0.4-0.8-0.1-1.9,0.7-2.3
		C32.7,42.8,33.8,43.2,34.2,44z"/>
	<path class="st15" d="M87.2,62.1c0,0.5,0,1,0,1.4c0,0.6-0.1,1.1-0.1,1.7c-0.3,3.3-1.1,6.5-2.3,9.5c-0.5,1.2-1.1,2.5-1.7,3.6
		c-0.5,1-1.2,2-1.8,2.9c-0.9,1.3-1.9,2.5-3,3.7c-2.4,2.6-5.3,4.8-8.4,6.5c-4.7,2.6-10.2,4.1-16,4.1c-5.3,0-10.4-1.3-14.9-3.5
		c-1.3-0.6-2.6-1.4-3.8-2.2c-0.6-0.4-1.3-0.9-1.9-1.4c-0.8-0.6-1.6-1.3-2.3-2c-0.9-0.9-1.8-1.8-2.6-2.7c-2.4-2.8-4.3-6-5.7-9.5
		c5,0.8,18.1,2,34.6-3.8c15.8-5.5,23.4-17.6,26.2-23.5c0.5,1.1,1,2.1,1.5,3.3c0.4,1,0.7,2,1,3C86.8,56,87.2,59,87.2,62.1z"/>
	<defs>
		<filter id="Adobe_OpacityMaskFilter_2_" filterUnits="userSpaceOnUse" x="30.6" y="36.2" width="56.5" height="59.2">
			<feColorMatrix  type="matrix" values="1 0 0 0 0  0 1 0 0 0  0 0 1 0 0  0 0 0 1 0"/>
		</filter>
	</defs>
	<mask maskUnits="userSpaceOnUse" x="30.6" y="36.2" width="56.5" height="59.2" id="SVGID_5_">
		<g class="st16">
			<defs>
				<filter id="Adobe_OpacityMaskFilter_3_" filterUnits="userSpaceOnUse" x="30.6" y="36.2" width="56.5" height="59.2">
					<feFlood  style="flood-color:white;flood-opacity:1" result="back"/>
					<feBlend  in="SourceGraphic" in2="back" mode="normal"/>
				</filter>
			</defs>
			<mask maskUnits="userSpaceOnUse" x="30.6" y="36.2" width="56.5" height="59.2" id="SVGID_5_">
				<g class="st17">
				</g>
			</mask>
			<linearGradient id="SVGID_6_" gradientUnits="userSpaceOnUse" x1="74.4518" y1="88.2702" x2="49.3229" y2="56.1067">
				<stop  offset="0" style="stop-color:#FFFFFF"/>
				<stop  offset="1" style="stop-color:#000000"/>
			</linearGradient>
			<path class="st18" d="M74.8,36.2c6.3,6.1,10.2,14.6,10.2,24C85,78.6,70,93.5,51.6,93.5c-8,0-15.3-2.8-21-7.5
				c6,5.8,14.2,9.4,23.2,9.4c18.4,0,33.4-14.9,33.4-33.4C87.1,51.6,82.3,42.3,74.8,36.2z"/>
		</g>
	</mask>
	<linearGradient id="SVGID_7_" gradientUnits="userSpaceOnUse" x1="74.4518" y1="88.2702" x2="49.3229" y2="56.1067">
		<stop  offset="0" style="stop-color:#FFFFFF"/>
		<stop  offset="1" style="stop-color:#FFFFFF"/>
	</linearGradient>
	<path class="st19" d="M74.8,36.2c6.3,6.1,10.2,14.6,10.2,24C85,78.6,70,93.5,51.6,93.5c-8,0-15.3-2.8-21-7.5
		c6,5.8,14.2,9.4,23.2,9.4c18.4,0,33.4-14.9,33.4-33.4C87.1,51.6,82.3,42.3,74.8,36.2z"/>
	<defs>
		<filter id="Adobe_OpacityMaskFilter_4_" filterUnits="userSpaceOnUse" x="0" y="0" width="79.7" height="79.7">
			<feColorMatrix  type="matrix" values="1 0 0 0 0  0 1 0 0 0  0 0 1 0 0  0 0 0 1 0"/>
		</filter>
	</defs>
	<mask maskUnits="userSpaceOnUse" x="0" y="0" width="79.7" height="79.7" id="SVGID_8_">
		<g class="st20">
			<defs>
				<filter id="Adobe_OpacityMaskFilter_5_" filterUnits="userSpaceOnUse" x="0" y="0" width="79.7" height="79.7">
					<feFlood  style="flood-color:white;flood-opacity:1" result="back"/>
					<feBlend  in="SourceGraphic" in2="back" mode="normal"/>
				</filter>
			</defs>
			<mask maskUnits="userSpaceOnUse" x="0" y="0" width="79.7" height="79.7" id="SVGID_8_">
				<g class="st21">
				</g>
			</mask>
			<radialGradient id="SVGID_9_" cx="39.068" cy="42.3428" r="42.2067" gradientUnits="userSpaceOnUse">
				<stop  offset="0" style="stop-color:#FFFFFF"/>
				<stop  offset="0.7822" style="stop-color:#000000"/>
			</radialGradient>
			<circle class="st22" cx="39.9" cy="39.9" r="39.9"/>
		</g>
	</mask>
	<g>
		<defs>
			<filter id="Adobe_OpacityMaskFilter_6_" filterUnits="userSpaceOnUse" x="0" y="0" width="79.7" height="79.7">
				<feFlood  style="flood-color:white;flood-opacity:1" result="back"/>
				<feBlend  in="SourceGraphic" in2="back" mode="normal"/>
			</filter>
		</defs>
		<mask maskUnits="userSpaceOnUse" x="0" y="0" width="79.7" height="79.7" id="SVGID_10_">
			<g class="st23">
				<defs>
					<filter id="Adobe_OpacityMaskFilter_7_" filterUnits="userSpaceOnUse" x="0" y="0" width="79.7" height="79.7">
						<feFlood  style="flood-color:white;flood-opacity:1" result="back"/>
						<feBlend  in="SourceGraphic" in2="back" mode="normal"/>
					</filter>
				</defs>
				<mask maskUnits="userSpaceOnUse" x="0" y="0" width="79.7" height="79.7" id="SVGID_10_">
					<g class="st24">
					</g>
				</mask>
				<radialGradient id="SVGID_11_" cx="39.474" cy="40.9215" r="41.7975" gradientUnits="userSpaceOnUse">
					<stop  offset="0" style="stop-color:#FFFFFF"/>
					<stop  offset="1" style="stop-color:#000000"/>
				</radialGradient>
				<path class="st25" d="M79.6,37.3c1.5,24.1-18.3,43.9-42.4,42.4C17.4,78.4,1.3,62.3,0.1,42.5C-1.4,18.4,18.4-1.4,42.5,0.1
					C62.3,1.3,78.4,17.4,79.6,37.3z"/>
			</g>
		</mask>
		<radialGradient id="SVGID_12_" cx="39.474" cy="40.9215" r="41.7975" gradientUnits="userSpaceOnUse">
			<stop  offset="0" style="stop-color:#FFFFFF"/>
			<stop  offset="1" style="stop-color:#000000"/>
		</radialGradient>
		<path class="st26" d="M79.6,37.3c1.5,24.1-18.3,43.9-42.4,42.4C17.4,78.4,1.3,62.3,0.1,42.5C-1.4,18.4,18.4-1.4,42.5,0.1
			C62.3,1.3,78.4,17.4,79.6,37.3z"/>
	</g>
	<defs>
		<filter id="Adobe_OpacityMaskFilter_8_" filterUnits="userSpaceOnUse" x="43.3" y="60.4" width="52.2" height="52.2">
			<feColorMatrix  type="matrix" values="1 0 0 0 0  0 1 0 0 0  0 0 1 0 0  0 0 0 1 0"/>
		</filter>
	</defs>
	<mask maskUnits="userSpaceOnUse" x="43.3" y="60.4" width="52.2" height="52.2" id="SVGID_13_">
		<g class="st27">
			<defs>
				<filter id="Adobe_OpacityMaskFilter_9_" filterUnits="userSpaceOnUse" x="43.3" y="60.4" width="52.2" height="52.2">
					<feFlood  style="flood-color:white;flood-opacity:1" result="back"/>
					<feBlend  in="SourceGraphic" in2="back" mode="normal"/>
				</filter>
			</defs>
			<mask maskUnits="userSpaceOnUse" x="43.3" y="60.4" width="52.2" height="52.2" id="SVGID_13_">
				<g class="st28">
				</g>
			</mask>
			<radialGradient id="SVGID_14_" cx="68.844" cy="88.1393" r="27.6254" gradientUnits="userSpaceOnUse">
				<stop  offset="0" style="stop-color:#FFFFFF"/>
				<stop  offset="0.7822" style="stop-color:#000000"/>
			</radialGradient>
			<circle class="st29" cx="69.4" cy="86.5" r="26.1"/>
		</g>
	</mask>
	<g>
		<defs>
			<filter id="Adobe_OpacityMaskFilter_10_" filterUnits="userSpaceOnUse" x="43.3" y="60.4" width="52.2" height="52.2">
				<feFlood  style="flood-color:white;flood-opacity:1" result="back"/>
				<feBlend  in="SourceGraphic" in2="back" mode="normal"/>
			</filter>
		</defs>
		<mask maskUnits="userSpaceOnUse" x="43.3" y="60.4" width="52.2" height="52.2" id="SVGID_15_">
			<g class="st30">
				<defs>
					<filter id="Adobe_OpacityMaskFilter_11_" filterUnits="userSpaceOnUse" x="43.3" y="60.4" width="52.2" height="52.2">
						<feFlood  style="flood-color:white;flood-opacity:1" result="back"/>
						<feBlend  in="SourceGraphic" in2="back" mode="normal"/>
					</filter>
				</defs>
				<mask maskUnits="userSpaceOnUse" x="43.3" y="60.4" width="52.2" height="52.2" id="SVGID_15_">
					<g class="st31">
					</g>
				</mask>
				<radialGradient id="SVGID_16_" cx="69.1098" cy="87.2091" r="27.3576" gradientUnits="userSpaceOnUse">
					<stop  offset="0" style="stop-color:#FFFFFF"/>
					<stop  offset="1" style="stop-color:#000000"/>
				</radialGradient>
				<path class="st32" d="M95.4,84.8c1,15.7-12,28.7-27.7,27.7c-13-0.8-23.5-11.4-24.3-24.3c-1-15.7,12-28.7,27.7-27.7
					C84,61.3,94.6,71.8,95.4,84.8z"/>
			</g>
		</mask>
		<radialGradient id="SVGID_17_" cx="69.1098" cy="87.2091" r="27.3576" gradientUnits="userSpaceOnUse">
			<stop  offset="0" style="stop-color:#FFFFFF"/>
			<stop  offset="1" style="stop-color:#000000"/>
		</radialGradient>
		<path class="st33" d="M95.4,84.8c1,15.7-12,28.7-27.7,27.7c-13-0.8-23.5-11.4-24.3-24.3c-1-15.7,12-28.7,27.7-27.7
			C84,61.3,94.6,71.8,95.4,84.8z"/>
	</g>
</g>
</svg>
