<?xml version="1.0" encoding="utf-8"?>
<!-- Generator: Adobe Illustrator 22.1.0, SVG Export Plug-In . SVG Version: 6.00 Build 0)  -->
<svg version="1.1" id="Layer_1" xmlns="http://www.w3.org/2000/svg" xmlns:xlink="http://www.w3.org/1999/xlink" x="0px" y="0px"
	 viewBox="0 0 155.3 161.6" style="enable-background:new 0 0 155.3 161.6;" xml:space="preserve">
<style type="text/css">
	.st0{fill:url(#SVGID_1_);}
	.st1{opacity:0.66;fill:#FFFC86;}
	.st2{filter:url(#Adobe_OpacityMaskFilter);}
	.st3{filter:url(#Adobe_OpacityMaskFilter_1_);}
	.st4{mask:url(#SVGID_2_);fill:url(#SVGID_3_);}
	.st5{filter:url(#Adobe_OpacityMaskFilter_2_);}
	.st6{filter:url(#Adobe_OpacityMaskFilter_3_);}
	.st7{mask:url(#SVGID_4_);fill:url(#SVGID_5_);}
	.st8{opacity:0.78;fill:url(#SVGID_6_);}
	.st9{opacity:0.66;fill:#9F3600;}
	.st10{opacity:0.66;fill:#7A1B00;}
	.st11{opacity:0.31;fill:#6B0000;}
	.st12{filter:url(#Adobe_OpacityMaskFilter_4_);}
	.st13{filter:url(#Adobe_OpacityMaskFilter_5_);}
	.st14{mask:url(#SVGID_7_);fill:url(#SVGID_8_);}
	.st15{opacity:0.67;fill:url(#SVGID_9_);}
	.st16{filter:url(#Adobe_OpacityMaskFilter_6_);}
	.st17{filter:url(#Adobe_OpacityMaskFilter_7_);}
	.st18{mask:url(#SVGID_10_);fill:url(#SVGID_11_);}
	.st19{fill:url(#SVGID_12_);}
	.st20{fill:#FFFFFF;}
	.st21{filter:url(#Adobe_OpacityMaskFilter_8_);}
	.st22{filter:url(#Adobe_OpacityMaskFilter_9_);}
	.st23{mask:url(#SVGID_13_);fill:url(#SVGID_14_);}
	.st24{filter:url(#Adobe_OpacityMaskFilter_10_);}
	.st25{filter:url(#Adobe_OpacityMaskFilter_11_);}
	.st26{mask:url(#SVGID_15_);fill:url(#SVGID_16_);}
	.st27{opacity:0.78;fill:url(#SVGID_17_);}
</style>
<g>
	
		<radialGradient id="SVGID_1_" cx="62.6505" cy="45.7934" r="95.1029" gradientTransform="matrix(0.9834 -0.1813 0.1813 0.9834 -8.7836 41.9029)" gradientUnits="userSpaceOnUse">
		<stop  offset="0.3302" style="stop-color:#FFED46"/>
		<stop  offset="1" style="stop-color:#CA0A00"/>
	</radialGradient>
	<path class="st0" d="M139.1,77.5c0.2,0.9,0.3,1.8,0.4,2.7c0.1,0.7,0.2,1.5,0.3,2.2c0.2,2.1,0.3,4.2,0.3,6.3c0,3.5-0.3,6.9-0.9,10.3
		c-0.1,0.9-0.3,1.8-0.5,2.6c-0.2,0.8-0.4,1.7-0.6,2.5c-0.3,1.3-0.7,2.5-1.1,3.7c-0.8,2.5-1.8,4.9-2.9,7.3c-0.4,0.8-0.8,1.6-1.2,2.4
		c0,0,0,0,0,0c-0.9,1.7-1.9,3.4-2.9,5c-1.6,2.5-3.4,4.9-5.4,7.1c-2,2.2-4.1,4.4-6.4,6.3c-8,6.9-17.9,11.8-29.1,13.8
		c-12.6,2.3-25.1,0.6-36-4.1c-0.3-0.1-0.6-0.3-1-0.4c-1.9-0.9-3.8-1.9-5.6-2.9c-0.8-0.4-1.5-0.9-2.3-1.4c-0.5-0.3-1.1-0.7-1.6-1.1
		c-0.8-0.6-1.6-1.1-2.4-1.7c-1.7-1.3-3.3-2.6-4.8-4.1c-1.6-1.5-3.1-3.1-4.6-4.8c-0.4-0.4-0.8-0.9-1.1-1.4c-0.7-0.8-1.3-1.7-1.9-2.5
		c-0.6-0.8-1.2-1.7-1.7-2.5c-1.5-2.3-2.8-4.6-4-7.1c-0.7-1.4-1.3-2.8-1.9-4.3c-0.7-1.8-1.4-3.7-1.9-5.6c-0.1-0.3-0.2-0.6-0.3-0.9
		c-0.2-0.9-0.5-1.7-0.6-2.6c-0.2-0.8-0.3-1.5-0.5-2.3c-0.2-1.1-0.4-2.2-0.5-3.3c-0.2-1.9-0.4-3.8-0.5-5.7c-0.1-1.7-0.1-3.5,0-5.2
		c0-1,0.1-2,0.2-3.1c0.2-1.6,0.4-3.1,0.6-4.7c0.4-2.3,0.9-4.5,1.6-6.7c1.2-4.1,2.8-8,4.8-11.8c2.6-4.9,5.9-9.4,9.7-13.5
		c1.9-2,4-4,6.2-5.7c3.8-3.1,8-5.7,12.5-7.8c2.7-1.3,5.5-2.4,8.5-3.2c2.1-0.6,4.4-1.2,6.6-1.6C76,26,85,26.4,93.5,28.6
		c1.9,0.5,3.8,1.1,5.7,1.7c3.4,1.2,6.7,2.8,9.9,4.6c0.6,0.4,1.2,0.7,1.8,1.1c1.1,0.7,2.3,1.5,3.4,2.3c0.3,0.2,0.7,0.5,1,0.7
		c0.6,0.5,1.2,0.9,1.8,1.4l0.1,0.1c1.1,0.9,2.3,1.9,3.3,2.9c1.2,1.1,2.3,2.2,3.4,3.4c1,1.1,2.1,2.3,3,3.5c0.9,1.2,1.8,2.4,2.6,3.6
		c1.3,2,2.6,4,3.7,6.2c1,1.9,1.9,3.9,2.7,6c0.6,1.6,1.2,3.2,1.6,4.8c0.3,1.1,0.7,2.3,0.9,3.5C138.7,75.3,138.9,76.4,139.1,77.5z"/>
	<path class="st1" d="M137.2,107.8c-0.8,2.5-1.8,4.9-2.9,7.3c-1.4,0.5-3.7,1.3-6.6,2.2c-0.5,0.1-0.9,0.3-1.4,0.4
		c-4.9,1.4-11.1,3-17.1,3.8c-6.6,0.9-13.4,0.5-18.5-0.2c-0.8-0.1-1.5-0.2-2.1-0.4c-1.1-0.2-2.2-0.5-3-0.7c-0.7-0.2-1.4-0.4-1.9-0.7
		c-0.9-0.4-1.4-0.8-1.5-1.2c-0.2-1.3,7-6.5,16.4-10.1c0.5-0.2,0.9-0.3,1.4-0.5c3-1.1,6.3-1.9,9.5-2.5c0.6-0.1,1.2-0.2,1.8-0.2
		c0.5-0.1,1.1-0.1,1.6-0.2c3.5-0.2,6.7-0.2,9.6,0c0.5,0,0.9,0.1,1.4,0.1c1.3,0.1,2.6,0.3,3.7,0.5c0.7,0.1,1.4,0.2,2.1,0.4
		C133.1,106.4,135.7,107.2,137.2,107.8z"/>
	<defs>
		<filter id="Adobe_OpacityMaskFilter" filterUnits="userSpaceOnUse" x="79.6" y="85.9" width="75.6" height="75.6">
			<feColorMatrix  type="matrix" values="1 0 0 0 0  0 1 0 0 0  0 0 1 0 0  0 0 0 1 0"/>
		</filter>
	</defs>
	<mask maskUnits="userSpaceOnUse" x="79.6" y="85.9" width="75.6" height="75.6" id="SVGID_2_">
		<g class="st2">
			<defs>
				<filter id="Adobe_OpacityMaskFilter_1_" filterUnits="userSpaceOnUse" x="79.6" y="85.9" width="75.6" height="75.6">
					<feFlood  style="flood-color:white;flood-opacity:1" result="back"/>
					<feBlend  in="SourceGraphic" in2="back" mode="normal"/>
				</filter>
			</defs>
			<mask maskUnits="userSpaceOnUse" x="79.6" y="85.9" width="75.6" height="75.6" id="SVGID_2_">
				<g class="st3">
				</g>
			</mask>
			
				<radialGradient id="SVGID_3_" cx="108.5663" cy="105.7423" r="40.041" gradientTransform="matrix(0.9834 -0.1813 0.1813 0.9834 -8.7836 41.9029)" gradientUnits="userSpaceOnUse">
				<stop  offset="0" style="stop-color:#FFFFFF"/>
				<stop  offset="0.7822" style="stop-color:#000000"/>
			</radialGradient>
			<circle class="st4" cx="117.5" cy="123.8" r="37.8"/>
		</g>
	</mask>
	<g>
		<defs>
			<filter id="Adobe_OpacityMaskFilter_2_" filterUnits="userSpaceOnUse" x="79.6" y="85.9" width="75.6" height="75.6">
				<feFlood  style="flood-color:white;flood-opacity:1" result="back"/>
				<feBlend  in="SourceGraphic" in2="back" mode="normal"/>
			</filter>
		</defs>
		<mask maskUnits="userSpaceOnUse" x="79.6" y="85.9" width="75.6" height="75.6" id="SVGID_4_">
			<g class="st5">
				<defs>
					<filter id="Adobe_OpacityMaskFilter_3_" filterUnits="userSpaceOnUse" x="79.6" y="85.9" width="75.6" height="75.6">
						<feFlood  style="flood-color:white;flood-opacity:1" result="back"/>
						<feBlend  in="SourceGraphic" in2="back" mode="normal"/>
					</filter>
				</defs>
				<mask maskUnits="userSpaceOnUse" x="79.6" y="85.9" width="75.6" height="75.6" id="SVGID_4_">
					<g class="st6">
					</g>
				</mask>
				
					<radialGradient id="SVGID_5_" cx="108.9515" cy="104.3941" r="39.6527" gradientTransform="matrix(0.9834 -0.1813 0.1813 0.9834 -8.7836 41.9029)" gradientUnits="userSpaceOnUse">
					<stop  offset="0" style="stop-color:#FFFFFF"/>
					<stop  offset="1" style="stop-color:#000000"/>
				</radialGradient>
				<path class="st7" d="M154.1,114.5c5.6,22.2-9.5,44.1-32.2,46.8c-18.7,2.2-36.5-10-41.1-28.3c-5.6-22.2,9.5-44.1,32.2-46.8
					C131.8,84,149.6,96.2,154.1,114.5z"/>
			</g>
		</mask>
		
			<radialGradient id="SVGID_6_" cx="108.9515" cy="104.3941" r="39.6527" gradientTransform="matrix(0.9834 -0.1813 0.1813 0.9834 -8.7836 41.9029)" gradientUnits="userSpaceOnUse">
			<stop  offset="0" style="stop-color:#FFFFFF"/>
			<stop  offset="1" style="stop-color:#000000"/>
		</radialGradient>
		<path class="st8" d="M154.1,114.5c5.6,22.2-9.5,44.1-32.2,46.8c-18.7,2.2-36.5-10-41.1-28.3c-5.6-22.2,9.5-44.1,32.2-46.8
			C131.8,84,149.6,96.2,154.1,114.5z"/>
	</g>
	<path class="st9" d="M139.1,77.5c0.2,0.9,0.3,1.8,0.4,2.7c0.1,0.7,0.2,1.5,0.3,2.2c-11.1,3.1-34.3,9.1-60.1,13.3
		c-26.4,4.3-50.5,7.7-61.5,9.3c-0.2-0.9-0.5-1.7-0.6-2.6c-0.2-0.8-0.3-1.5-0.5-2.3c-0.2-1.1-0.4-2.2-0.5-3.3
		c-0.2-1.9-0.4-3.8-0.5-5.7c1.4,0,3.2,0,5.3,0c0.2,0,0.5,0,0.8,0c1.5,0,3.1-0.1,4.9-0.1c0.2,0,0.5,0,0.8,0
		c4.9-0.2,10.9-0.4,17.6-0.9l0,0c0.2,0,0.3,0,0.5,0c0,0,0,0,0,0c9.8-0.7,21.1-1.8,33.3-3.7c28.9-4.3,50-12,58.2-15.3
		c0.3,1.1,0.7,2.3,0.9,3.5C138.7,75.3,138.9,76.4,139.1,77.5z"/>
	<path class="st9" d="M140.2,88.7c0,3.5-0.3,6.9-0.9,10.3c-9.5-1.7-26.8-3.3-51.1,0.9c-0.6,0.1-1.2,0.2-1.7,0.3l-1.1,0.2
		c-2.1,0.4-4.2,0.8-6.2,1.3c-0.4,0.1-0.7,0.2-1.1,0.2c-32.1,7.4-51.4,20.6-51.9,21c-1.5-2.3-2.8-4.6-4-7.1c13-4.7,40.6-14.2,63.7-19
		C107.8,92.3,129.1,89.8,140.2,88.7z"/>
	<path class="st10" d="M94.6,114.2c-0.7-3.1,24.6-9.1,28.7-3.8C127.4,115.8,96.3,121.1,94.6,114.2z"/>
	<path class="st9" d="M138.8,101.5c-0.2,0.8-0.4,1.7-0.6,2.5c-3.8-1.3-11.8-3.1-24-1.5c-17.7,2.3-49.9,19.6-64.3,26.2
		c-6.6,3-11.2,4.5-14.2,5.3c-1.6-1.5-3.1-3.1-4.6-4.8c2.5-0.5,5.4-1.1,8.7-1.9c0.2-0.1,0.5-0.1,0.7-0.2c1.5-0.4,3.1-0.8,4.8-1.2
		c0.2-0.1,0.5-0.1,0.7-0.2c5.7-1.6,12-3.6,18.4-6.2c21.4-8.7,34-15.6,48.5-18.8C123.7,98.3,134.2,100.3,138.8,101.5z"/>
	<path class="st9" d="M133.1,117.5c-0.9,1.7-1.9,3.4-2.9,5c-3.2,1.3-7.4,2.7-12.8,3.6c-13.1,2.3-29.9-0.9-41.9,0.6
		c-11.3,1.4-30.3,11.8-32.5,13c-0.8-0.6-1.6-1.1-2.4-1.7c7.3-3.3,23.3-10.2,34.8-12.4c15.5-3,30-1.3,41.3-2.8
		C123.3,122,129.3,119.4,133.1,117.5z"/>
	<path class="st9" d="M129.5,53.9c-9.5,3.9-28.4,11.2-51.9,16.6C53.8,76,29.4,77.6,17,78c0.4-2.3,0.9-4.5,1.6-6.7
		c11.6,0.6,36,1,58.5-3.7c21.4-4.5,40.2-12.7,49.8-17.2C127.8,51.5,128.7,52.7,129.5,53.9z"/>
	<path class="st1" d="M135.9,66.1c-8.7,2.6-29,8.5-54.5,13.7c-26.8,5.5-54.6,6-65.2,6c0-1,0.1-2,0.2-3.1c8.7,0,33.4-0.4,65.3-5.8
		c28.6-4.9,44.7-12.7,51.5-16.7C134.2,62,135.1,64,135.9,66.1z"/>
	<path class="st1" d="M123.9,46.8c-8.6,5.9-26.7,16.4-48.6,18C65.1,65.6,55,65,46,63.8c-2.2-0.3-4.3-0.6-6.4-0.9
		c-6.4-1-12-2.3-16.3-3.4c2.6-4.9,5.9-9.4,9.7-13.5c9.8,4.2,27.8,10.6,43.9,9.6c15.4-1,30-10.4,38.3-16.7c0.6,0.5,1.2,0.9,1.8,1.4
		l0.1,0.1c1.1,0.9,2.3,1.9,3.3,2.9C121.7,44.5,122.8,45.6,123.9,46.8z"/>
	<path class="st1" d="M110.8,36c-4.4,3.9-12.8,9-27.5,10.6c-17.9,1.9-35.5-3.2-44.1-6.2c3.8-3.1,8-5.7,12.5-7.8
		c6.1,3.1,17.7,7.9,28.4,6c8.1-1.5,14.6-5.1,18.9-8.2c3.4,1.2,6.7,2.8,9.9,4.6C109.6,35.3,110.2,35.6,110.8,36z"/>
	<path class="st1" d="M124.8,129.6c-2,2.2-4.1,4.4-6.4,6.3c-9.4-1.1-26.8-2.6-38.7-1.1c-11.2,1.4-21.6,6.8-27.4,10.3
		c-1.9-0.9-3.8-1.9-5.6-2.9c8.4-3.2,23.3-8.1,38.5-9.4C102.1,131.4,117.8,130.2,124.8,129.6z"/>
	<path class="st1" d="M69.3,98.2c0.7,0.6-20.5,5.6-31.9,8.9c-6.8,1.9-13,3.5-17,4.4c-0.7-1.8-1.4-3.7-1.9-5.6
		c7.1-0.8,20.7-2.3,29.7-3.7C60.8,100.2,68.6,97.7,69.3,98.2z"/>
	<path class="st1" d="M81.9,120.2c0.2,0.9-0.4,1.7-1.3,1.9c-0.9,0.2-1.7-0.4-1.9-1.3c-0.2-0.9,0.4-1.7,1.3-1.9
		C80.9,118.7,81.8,119.3,81.9,120.2z"/>
	<path class="st1" d="M51.2,116.2c0.2,0.9-0.4,1.7-1.3,1.9c-0.9,0.2-1.7-0.4-1.9-1.3c-0.2-0.9,0.4-1.7,1.3-1.9
		C50.2,114.7,51,115.3,51.2,116.2z"/>
	<path class="st1" d="M129.5,87.4c0.2,0.9-0.4,1.7-1.3,1.9c-0.9,0.2-1.7-0.4-1.9-1.3c-0.2-0.9,0.4-1.7,1.3-1.9
		C128.5,85.9,129.3,86.5,129.5,87.4z"/>
	<path class="st1" d="M119.8,74.8c0.2,0.9-0.4,1.7-1.3,1.9c-0.9,0.2-1.7-0.4-1.9-1.3c-0.2-0.9,0.4-1.7,1.3-1.9
		C118.8,73.3,119.6,73.9,119.8,74.8z"/>
	<path class="st1" d="M83,33.2c0.2,0.9-0.4,1.7-1.3,1.9c-0.9,0.2-1.7-0.4-1.9-1.3c-0.2-0.9,0.4-1.7,1.3-1.9
		C82,31.7,82.8,32.3,83,33.2z"/>
	<path class="st1" d="M62.9,49.9c0.2,0.9-0.4,1.7-1.3,1.9c-0.9,0.2-1.7-0.4-1.9-1.3c-0.2-0.9,0.4-1.7,1.3-1.9
		C61.9,48.4,62.7,49,62.9,49.9z"/>
	<path class="st1" d="M124.4,59.8c0.2,0.9-0.4,1.7-1.3,1.9c-0.9,0.2-1.7-0.4-1.9-1.3c-0.2-0.9,0.4-1.7,1.3-1.9
		S124.3,58.9,124.4,59.8z"/>
	<path class="st1" d="M115.8,50.2c0.2,0.9-0.4,1.7-1.3,1.9s-1.7-0.4-1.9-1.3c-0.2-0.9,0.4-1.7,1.3-1.9S115.7,49.3,115.8,50.2z"/>
	<path class="st1" d="M114.2,65.6c0.2,0.9-0.4,1.7-1.3,1.9c-0.9,0.2-1.7-0.4-1.9-1.3c-0.2-0.9,0.4-1.7,1.3-1.9
		C113.2,64.2,114.1,64.7,114.2,65.6z"/>
	<path class="st1" d="M106.8,43c0.2,0.9-0.4,1.7-1.3,1.9c-0.9,0.2-1.7-0.4-1.9-1.3c-0.2-0.9,0.4-1.7,1.3-1.9
		C105.8,41.5,106.6,42.1,106.8,43z"/>
	<path class="st1" d="M85.9,72.5c0.2,0.9-0.4,1.7-1.3,1.9c-0.9,0.2-1.7-0.4-1.9-1.3c-0.2-0.9,0.4-1.7,1.3-1.9
		C84.8,71,85.7,71.6,85.9,72.5z"/>
	<path class="st1" d="M58.1,77.6c0.2,0.9-0.4,1.7-1.3,1.9c-0.9,0.2-1.7-0.4-1.9-1.3c-0.2-0.9,0.4-1.7,1.3-1.9
		C57.1,76.2,57.9,76.7,58.1,77.6z"/>
	<path class="st1" d="M47.2,88c0.2,0.9-0.4,1.7-1.3,1.9C45,90,44.1,89.4,44,88.6c-0.2-0.9,0.4-1.7,1.3-1.9
		C46.2,86.5,47,87.1,47.2,88z"/>
	<path class="st1" d="M41.5,119.6c0.2,0.9-0.4,1.7-1.3,1.9c-0.9,0.2-1.7-0.4-1.9-1.3c-0.2-0.9,0.4-1.7,1.3-1.9
		C40.5,118.2,41.3,118.8,41.5,119.6z"/>
	<path class="st1" d="M70.2,33.9c0.2,0.9-0.4,1.7-1.3,1.9c-0.9,0.2-1.7-0.4-1.9-1.3c-0.2-0.9,0.4-1.7,1.3-1.9
		C69.2,32.4,70,33,70.2,33.9z"/>
	<path class="st1" d="M75.8,51.6c0.2,0.9-0.4,1.7-1.3,1.9c-0.9,0.2-1.7-0.4-1.9-1.3c-0.2-0.9,0.4-1.7,1.3-1.9
		C74.8,50.1,75.6,50.7,75.8,51.6z"/>
	<path class="st9" d="M87,101.4c0.4,2.4-1.2,4.7-3.6,5.2c-2.4,0.4-4.7-1.2-5.2-3.6c-0.4-2.4,1.2-4.7,3.6-5.2
		C84.2,97.4,86.5,99,87,101.4z"/>
	<path class="st1" d="M86,101.6c0.3,1.8-0.9,3.6-2.7,4c-1.8,0.3-3.6-0.9-4-2.7c-0.3-1.8,0.9-3.6,2.7-4C83.8,98.5,85.6,99.7,86,101.6
		z"/>
	<path class="st9" d="M46.2,126.2c0.3,1.8-0.8,3.5-2.6,3.8c-1.8,0.3-3.5-0.8-3.8-2.6c-0.3-1.8,0.8-3.5,2.6-3.8
		C44.2,123.2,45.9,124.4,46.2,126.2z"/>
	<path class="st1" d="M45.4,126.3c0.2,1.3-0.6,2.6-2,2.9c-1.3,0.2-2.6-0.6-2.9-2c-0.2-1.3,0.6-2.6,2-2.9
		C43.9,124.1,45.2,124.9,45.4,126.3z"/>
	<path class="st9" d="M27.9,90.7c0.3,1.8-0.8,3.5-2.6,3.8c-1.8,0.3-3.5-0.8-3.8-2.6c-0.3-1.8,0.8-3.5,2.6-3.8
		C25.8,87.8,27.5,88.9,27.9,90.7z"/>
	<path class="st1" d="M27.1,90.8c0.2,1.3-0.6,2.6-2,2.9c-1.3,0.2-2.6-0.6-2.9-2c-0.2-1.3,0.6-2.6,2-2.9
		C25.6,88.6,26.9,89.5,27.1,90.8z"/>
	<path class="st1" d="M36.3,66.1c0.3,1.8-0.9,3.5-2.7,3.8c-1.8,0.3-3.5-0.9-3.8-2.7c-0.3-1.8,0.9-3.5,2.7-3.8
		C34.2,63.1,35.9,64.3,36.3,66.1z"/>
	<path class="st1" d="M46.2,62c0.3,1.8-0.9,3.5-2.7,3.8c-1.8,0.3-3.5-0.9-3.8-2.7c-0.3-1.8,0.9-3.5,2.7-3.8
		C44.1,59.1,45.9,60.2,46.2,62z"/>
	<path class="st1" d="M54.2,119.5c0.1,0.4-0.2,0.9-0.7,0.9c-0.4,0.1-0.9-0.2-0.9-0.7c-0.1-0.4,0.2-0.9,0.7-0.9
		C53.7,118.7,54.2,119,54.2,119.5z"/>
	<path class="st1" d="M75.5,131.5c0.1,0.4-0.2,0.9-0.7,0.9c-0.4,0.1-0.9-0.2-0.9-0.7c-0.1-0.4,0.2-0.9,0.7-0.9
		C75,130.8,75.4,131.1,75.5,131.5z"/>
	<path class="st1" d="M61.1,142.6c0.1,0.4-0.2,0.9-0.7,0.9c-0.4,0.1-0.9-0.2-0.9-0.7c-0.1-0.4,0.2-0.9,0.7-0.9
		C60.6,141.9,61,142.2,61.1,142.6z"/>
	<path class="st1" d="M134.2,86.4c0.1,0.4-0.2,0.9-0.7,0.9c-0.4,0.1-0.9-0.2-0.9-0.7c-0.1-0.4,0.2-0.9,0.7-0.9
		C133.7,85.7,134.1,86,134.2,86.4z"/>
	<path class="st1" d="M108.9,77.3c0.1,0.4-0.2,0.9-0.7,0.9c-0.4,0.1-0.9-0.2-0.9-0.7c-0.1-0.4,0.2-0.9,0.7-0.9
		C108.4,76.6,108.8,76.9,108.9,77.3z"/>
	<path class="st1" d="M86,122.2c0.1,0.6-0.3,1.2-0.9,1.3c-0.6,0.1-1.2-0.3-1.3-0.9c-0.1-0.6,0.3-1.2,0.9-1.3
		C85.3,121.2,85.8,121.6,86,122.2z"/>
	<path class="st1" d="M90.7,121c0.1,0.6-0.3,1.2-0.9,1.3c-0.6,0.1-1.2-0.3-1.3-0.9c-0.1-0.6,0.3-1.2,0.9-1.3
		C90,120,90.6,120.4,90.7,121z"/>
	<path class="st1" d="M92.1,141.5c0.1,0.6-0.3,1.2-0.9,1.3c-0.6,0.1-1.2-0.3-1.3-0.9c-0.1-0.6,0.3-1.2,0.9-1.3
		C91.4,140.5,92,140.9,92.1,141.5z"/>
	<path class="st1" d="M78.4,146.1c0.1,0.6-0.3,1.2-0.9,1.3c-0.6,0.1-1.2-0.3-1.3-0.9c-0.1-0.6,0.3-1.2,0.9-1.3
		C77.8,145.1,78.3,145.5,78.4,146.1z"/>
	<path class="st1" d="M85.6,120c0.1,0.6-0.3,1.2-0.9,1.3c-0.6,0.1-1.2-0.3-1.3-0.9c-0.1-0.6,0.3-1.2,0.9-1.3
		C84.9,119,85.4,119.4,85.6,120z"/>
	<path class="st1" d="M111.4,104.3c0.1,0.6-0.3,1.2-0.9,1.3c-0.6,0.1-1.2-0.3-1.3-0.9c-0.1-0.6,0.3-1.2,0.9-1.3
		C110.7,103.3,111.3,103.7,111.4,104.3z"/>
	<path class="st1" d="M124.3,103.8c0.1,0.6-0.3,1.2-0.9,1.3c-0.6,0.1-1.2-0.3-1.3-0.9c-0.1-0.6,0.3-1.2,0.9-1.3
		C123.7,102.8,124.2,103.2,124.3,103.8z"/>
	<path class="st1" d="M129.8,105.2c0.1,0.6-0.3,1.2-0.9,1.3c-0.6,0.1-1.2-0.3-1.3-0.9c-0.1-0.6,0.3-1.2,0.9-1.3
		C129.1,104.2,129.7,104.6,129.8,105.2z"/>
	<path class="st1" d="M128.4,118c0.1,0.6-0.3,1.2-0.9,1.3c-0.6,0.1-1.2-0.3-1.3-0.9c-0.1-0.6,0.3-1.2,0.9-1.3
		C127.7,117,128.2,117.4,128.4,118z"/>
	<path class="st1" d="M102.5,140.7c0.3,1.6-0.8,3.2-2.4,3.5c-1.6,0.3-3.2-0.8-3.5-2.4c-0.3-1.6,0.8-3.2,2.4-3.5
		C100.7,138,102.2,139.1,102.5,140.7z"/>
	<path class="st1" d="M81.3,116.9c0.1,0.4-0.2,0.9-0.7,0.9c-0.4,0.1-0.9-0.2-0.9-0.7c-0.1-0.4,0.2-0.9,0.7-0.9
		C80.8,116.2,81.3,116.4,81.3,116.9z"/>
	<path class="st1" d="M100,107.5c0.1,0.4-0.2,0.9-0.7,0.9s-0.9-0.2-0.9-0.7c-0.1-0.4,0.2-0.9,0.7-0.9C99.5,106.7,99.9,107,100,107.5
		z"/>
	<path class="st1" d="M55.9,110.1c0.1,0.4-0.2,0.9-0.7,0.9c-0.4,0.1-0.9-0.2-0.9-0.7c-0.1-0.4,0.2-0.9,0.7-0.9
		C55.4,109.4,55.9,109.7,55.9,110.1z"/>
	<path class="st1" d="M96.9,129.2c0.1,0.4-0.2,0.9-0.7,0.9c-0.4,0.1-0.9-0.2-0.9-0.7c-0.1-0.4,0.2-0.9,0.7-0.9
		C96.4,128.5,96.9,128.8,96.9,129.2z"/>
	<path class="st1" d="M84.6,114.7c0,0.2-0.1,0.5-0.4,0.5c-0.2,0-0.5-0.1-0.5-0.4c0-0.2,0.1-0.5,0.4-0.5
		C84.3,114.3,84.5,114.4,84.6,114.7z"/>
	<path class="st1" d="M92.2,145.6c0,0.2-0.1,0.5-0.4,0.5c-0.2,0-0.5-0.1-0.5-0.4c0-0.2,0.1-0.5,0.4-0.5
		C91.9,145.2,92.2,145.4,92.2,145.6z"/>
	<path class="st1" d="M96.6,103.4c0,0.2-0.1,0.5-0.4,0.5c-0.2,0-0.5-0.1-0.5-0.4c0-0.2,0.1-0.5,0.4-0.5
		C96.4,103,96.6,103.2,96.6,103.4z"/>
	<path class="st1" d="M51.7,119.1c0,0.2-0.1,0.5-0.4,0.5c-0.2,0-0.5-0.1-0.5-0.4c0-0.2,0.1-0.5,0.4-0.5
		C51.4,118.7,51.7,118.9,51.7,119.1z"/>
	<path class="st1" d="M132.2,87.3c0,0.2-0.1,0.5-0.4,0.5c-0.2,0-0.5-0.1-0.5-0.4c0-0.2,0.1-0.5,0.4-0.5
		C131.9,86.9,132.2,87.1,132.2,87.3z"/>
	<path class="st1" d="M74.3,120.7c0.1,0.4-0.2,0.9-0.7,0.9c-0.4,0.1-0.9-0.2-0.9-0.7c-0.1-0.4,0.2-0.9,0.7-0.9
		C73.8,120,74.2,120.3,74.3,120.7z"/>
	<path class="st1" d="M79,117.8c0.1,0.4-0.2,0.9-0.7,0.9c-0.4,0.1-0.9-0.2-0.9-0.7c-0.1-0.4,0.2-0.9,0.7-0.9
		C78.5,117.1,78.9,117.3,79,117.8z"/>
	<path class="st1" d="M85.5,143.8c0.1,0.4-0.2,0.9-0.7,0.9c-0.4,0.1-0.9-0.2-0.9-0.7c-0.1-0.4,0.2-0.9,0.7-0.9
		C85,143.1,85.4,143.4,85.5,143.8z"/>
	<path class="st1" d="M39,123.9c0.1,0.4-0.2,0.9-0.7,0.9c-0.4,0.1-0.9-0.2-0.9-0.7c-0.1-0.4,0.2-0.9,0.7-0.9
		C38.5,123.1,38.9,123.4,39,123.9z"/>
	<path class="st1" d="M69.2,83.9c0.1,0.4-0.2,0.9-0.7,0.9c-0.4,0.1-0.9-0.2-0.9-0.7c-0.1-0.4,0.2-0.9,0.7-0.9
		C68.7,83.2,69.1,83.5,69.2,83.9z"/>
	<path class="st1" d="M123.9,73.5c0.1,0.4-0.2,0.9-0.7,0.9c-0.4,0.1-0.9-0.2-0.9-0.7c-0.1-0.4,0.2-0.9,0.7-0.9
		C123.4,72.8,123.8,73,123.9,73.5z"/>
	<path class="st1" d="M135.4,105.3c0.1,0.4-0.2,0.9-0.7,0.9c-0.4,0.1-0.9-0.2-0.9-0.7c-0.1-0.4,0.2-0.9,0.7-0.9
		C134.9,104.5,135.3,104.8,135.4,105.3z"/>
	<path class="st1" d="M48.8,120.2c0.1,0.4-0.2,0.9-0.7,0.9c-0.4,0.1-0.9-0.2-0.9-0.7c-0.1-0.4,0.2-0.9,0.7-0.9
		C48.3,119.4,48.7,119.7,48.8,120.2z"/>
	<path class="st1" d="M64.4,141c0.1,0.4-0.2,0.9-0.7,0.9c-0.4,0.1-0.9-0.2-0.9-0.7c-0.1-0.4,0.2-0.9,0.7-0.9
		C63.9,140.3,64.3,140.6,64.4,141z"/>
	<path class="st1" d="M101.4,80.1c0.1,0.4-0.2,0.9-0.7,0.9c-0.4,0.1-0.9-0.2-0.9-0.7c-0.1-0.4,0.2-0.9,0.7-0.9
		C100.9,79.4,101.3,79.7,101.4,80.1z"/>
	<path class="st1" d="M80.5,81.8c0.1,0.4-0.2,0.9-0.7,0.9c-0.4,0.1-0.9-0.2-0.9-0.7c-0.1-0.4,0.2-0.9,0.7-0.9
		C80,81.1,80.4,81.4,80.5,81.8z"/>
	<path class="st1" d="M137.3,86.4c0.1,0.4-0.2,0.9-0.7,0.9c-0.4,0.1-0.9-0.2-0.9-0.7c-0.1-0.4,0.2-0.9,0.7-0.9
		C136.8,85.7,137.2,86,137.3,86.4z"/>
	<path class="st1" d="M86.7,50.4c0.1,0.4-0.2,0.9-0.7,0.9c-0.4,0.1-0.9-0.2-0.9-0.7c-0.1-0.4,0.2-0.9,0.7-0.9
		C86.2,49.6,86.6,49.9,86.7,50.4z"/>
	<path class="st1" d="M99.5,47.2c0.1,0.4-0.2,0.9-0.7,0.9c-0.4,0.1-0.9-0.2-0.9-0.7c-0.1-0.4,0.2-0.9,0.7-0.9
		C99,46.5,99.4,46.8,99.5,47.2z"/>
	<path class="st10" d="M139.1,77.5c0.2,0.9,0.3,1.8,0.4,2.7c-10.6,3.3-31.6,9.3-55.1,13.2c-24.4,4.1-52.9,7.4-66.9,8.9
		c-0.2-0.8-0.3-1.5-0.5-2.3c-0.2-1.1-0.4-2.2-0.5-3.3c15.7-1,47.2-3.3,70.6-7.9c23.5-4.6,42.6-11.2,51.3-14.5
		C138.7,75.3,138.9,76.4,139.1,77.5z"/>
	<path class="st9" d="M93.5,28.6c-2.3,1.7-6.1,4.2-10.6,5.4c-0.9,0.2-1.8,0.4-2.7,0.5c-1.5,0.2-3,0.2-4.6,0
		c-1.9-0.3-3.8-0.7-5.5-1.2c-0.7-0.2-1.4-0.4-2.1-0.7c-3-1-5.7-2.3-7.7-3.4c2.1-0.6,4.4-1.2,6.6-1.6C76,26,85,26.4,93.5,28.6z"/>
	<path class="st11" d="M139.1,77.6c0.2,0.9,0.3,1.7,0.4,2.6c0.6,4.2,0.8,8.3,0.5,12.4c-0.2,4.1-0.9,8.1-1.9,12c-1,3.8-2.3,7.5-4,11
		c-0.2,0.4-0.4,0.8-0.6,1.2c-0.2,0.3-0.3,0.7-0.5,1l-0.4,0.7c-0.6,1.2-1.3,2.4-2.1,3.5c-1.5,2.4-3.2,4.7-5,6.9
		c-0.7,0.8-1.3,1.5-2,2.3c-1.9,2-3.9,4-6.1,5.8c-0.3,0.2-0.6,0.5-0.9,0.7c-0.4,0.3-0.9,0.7-1.3,1c-7.4,5.6-16.2,9.6-26,11.4
		c-10.7,2-21.4,1.1-31-2.2c-0.6-0.2-1.2-0.4-1.8-0.7c-0.6-0.2-1.2-0.4-1.8-0.7c-0.5-0.2-0.9-0.4-1.4-0.6c-1.2-0.5-2.3-1.1-3.4-1.7
		c-1.8-0.9-3.6-2-5.4-3.1c-2-1.3-4-2.8-5.9-4.3c-0.8-0.7-1.6-1.3-2.4-2.1c-1.1-1-2.3-2.1-3.3-3.3c-1-1-1.9-2.1-2.8-3.2
		c-1.8-2.2-3.5-4.6-5-7.1c11.7-0.7,35.5-3.4,62.8-14.1c29.2-11.4,39.3-38.5,42.6-51.4c1.2,1.8,2.2,3.7,3.2,5.6c1.6,3.2,3,6.7,4,10.3
		c0,0,0,0,0,0.1c0.4,1.2,0.7,2.5,1,3.8C138.8,76,139,76.8,139.1,77.6z"/>
	<defs>
		<filter id="Adobe_OpacityMaskFilter_4_" filterUnits="userSpaceOnUse" x="38.1" y="38.4" width="102.1" height="112.5">
			<feColorMatrix  type="matrix" values="1 0 0 0 0  0 1 0 0 0  0 0 1 0 0  0 0 0 1 0"/>
		</filter>
	</defs>
	<mask maskUnits="userSpaceOnUse" x="38.1" y="38.4" width="102.1" height="112.5" id="SVGID_7_">
		<g class="st12">
			<defs>
				<filter id="Adobe_OpacityMaskFilter_5_" filterUnits="userSpaceOnUse" x="38.1" y="38.4" width="102.1" height="112.5">
					<feFlood  style="flood-color:white;flood-opacity:1" result="back"/>
					<feBlend  in="SourceGraphic" in2="back" mode="normal"/>
				</filter>
			</defs>
			<mask maskUnits="userSpaceOnUse" x="38.1" y="38.4" width="102.1" height="112.5" id="SVGID_7_">
				<g class="st13">
				</g>
			</mask>
			
				<linearGradient id="SVGID_8_" gradientUnits="userSpaceOnUse" x1="123.0394" y1="103.4786" x2="69.9564" y2="55.6825" gradientTransform="matrix(0.9834 -0.1813 0.1813 0.9834 -8.7836 41.9029)">
				<stop  offset="0" style="stop-color:#FFFFFF"/>
				<stop  offset="1" style="stop-color:#000000"/>
			</linearGradient>
			<path class="st14" d="M138.7,75.2c-0.3-1.3-0.6-2.6-1-3.8c0,0,0,0,0-0.1c-1-3.6-2.4-7-4-10.3c-1-1.9-2-3.8-3.2-5.6
				c-0.8-1.2-1.6-2.4-2.4-3.5c-0.5-0.7-1-1.3-1.5-1.9l0,0c-0.8-0.9-1.5-1.9-2.3-2.8l-0.8-0.9l0,0c-0.9-1-1.9-2-2.9-2.9
				c-0.3-0.3-0.6-0.5-0.8-0.8c-0.8-0.7-1.6-1.4-2.5-2.1l-0.1-0.1c-0.9-0.7-1.8-1.4-2.7-2.1c0.5,0.4,1,0.9,1.5,1.3
				c0.3,0.3,0.6,0.5,0.8,0.8c1,0.9,2,1.9,2.9,2.9l0,0l0.8,0.9c0.8,0.9,1.6,1.8,2.3,2.8l0,0c0.5,0.6,1,1.3,1.5,1.9
				c0.8,1.1,1.7,2.3,2.4,3.5c1.2,1.8,2.2,3.7,3.2,5.6c1.6,3.2,3,6.7,4,10.3c0,0,0,0,0,0.1c0.4,1.2,0.7,2.5,1,3.8
				c0.2,0.8,0.3,1.6,0.5,2.4c0.2,0.9,0.3,1.7,0.4,2.6c0.6,4.2,0.8,8.3,0.5,12.4c-0.2,4.1-0.9,8.1-1.9,12c-1,3.8-2.3,7.5-4,11
				c-0.2,0.4-0.4,0.8-0.6,1.2c-0.2,0.3-0.3,0.7-0.5,1l-0.4,0.7c-0.6,1.2-1.3,2.4-2.1,3.5c-1.5,2.4-3.2,4.7-5,6.9
				c-0.7,0.8-1.3,1.5-2,2.3c-1.9,2-3.9,4-6.1,5.8c-0.3,0.2-0.6,0.5-0.9,0.7c-0.4,0.3-0.9,0.7-1.3,1c-7.4,5.6-16.2,9.6-26,11.4
				c-10.7,2-21.4,1.1-31-2.2c-0.6-0.2-1.2-0.4-1.8-0.7c-0.6-0.2-1.2-0.4-1.8-0.7c-0.5-0.2-0.9-0.4-1.4-0.6c-1.2-0.5-2.3-1.1-3.4-1.7
				c-1.8-0.9-3.6-2-5.4-3.1c-0.9-0.6-1.8-1.2-2.6-1.8c0.2,0.2,0.4,0.3,0.6,0.5c1.9,1.5,3.8,3,5.9,4.3c1.7,1.1,3.5,2.2,5.4,3.1
				c1.1,0.6,2.3,1.1,3.4,1.7c0.5,0.2,0.9,0.4,1.4,0.6c0.6,0.3,1.2,0.5,1.8,0.7c0.6,0.2,1.2,0.5,1.8,0.7c9.7,3.3,20.3,4.2,31,2.2
				c9.8-1.8,18.6-5.8,26-11.4c0.4-0.3,0.9-0.6,1.3-1c0.3-0.2,0.6-0.5,0.9-0.7c2.2-1.8,4.2-3.7,6.1-5.8c0.7-0.7,1.4-1.5,2-2.3
				c1.8-2.2,3.5-4.5,5-6.9c0.7-1.2,1.4-2.3,2.1-3.5l0.4-0.7c0.2-0.3,0.3-0.7,0.5-1c0.2-0.4,0.4-0.8,0.6-1.2c1.7-3.5,3-7.2,4-11
				c1-3.9,1.7-7.9,1.9-12c0.2-4.1,0.1-8.2-0.5-12.4c-0.1-0.9-0.3-1.7-0.4-2.6C139,76.8,138.8,76,138.7,75.2z"/>
		</g>
	</mask>
	
		<linearGradient id="SVGID_9_" gradientUnits="userSpaceOnUse" x1="123.0394" y1="103.4786" x2="69.9564" y2="55.6825" gradientTransform="matrix(0.9834 -0.1813 0.1813 0.9834 -8.7836 41.9029)">
		<stop  offset="0" style="stop-color:#FFFFFF"/>
		<stop  offset="1" style="stop-color:#FFFFFF"/>
	</linearGradient>
	<path class="st15" d="M138.7,75.2c-0.3-1.3-0.6-2.6-1-3.8c0,0,0,0,0-0.1c-1-3.6-2.4-7-4-10.3c-1-1.9-2-3.8-3.2-5.6
		c-0.8-1.2-1.6-2.4-2.4-3.5c-0.5-0.7-1-1.3-1.5-1.9l0,0c-0.8-0.9-1.5-1.9-2.3-2.8l-0.8-0.9l0,0c-0.9-1-1.9-2-2.9-2.9
		c-0.3-0.3-0.6-0.5-0.8-0.8c-0.8-0.7-1.6-1.4-2.5-2.1l-0.1-0.1c-0.9-0.7-1.8-1.4-2.7-2.1c0.5,0.4,1,0.9,1.5,1.3
		c0.3,0.3,0.6,0.5,0.8,0.8c1,0.9,2,1.9,2.9,2.9l0,0l0.8,0.9c0.8,0.9,1.6,1.8,2.3,2.8l0,0c0.5,0.6,1,1.3,1.5,1.9
		c0.8,1.1,1.7,2.3,2.4,3.5c1.2,1.8,2.2,3.7,3.2,5.6c1.6,3.2,3,6.7,4,10.3c0,0,0,0,0,0.1c0.4,1.2,0.7,2.5,1,3.8
		c0.2,0.8,0.3,1.6,0.5,2.4c0.2,0.9,0.3,1.7,0.4,2.6c0.6,4.2,0.8,8.3,0.5,12.4c-0.2,4.1-0.9,8.1-1.9,12c-1,3.8-2.3,7.5-4,11
		c-0.2,0.4-0.4,0.8-0.6,1.2c-0.2,0.3-0.3,0.7-0.5,1l-0.4,0.7c-0.6,1.2-1.3,2.4-2.1,3.5c-1.5,2.4-3.2,4.7-5,6.9
		c-0.7,0.8-1.3,1.5-2,2.3c-1.9,2-3.9,4-6.1,5.8c-0.3,0.2-0.6,0.5-0.9,0.7c-0.4,0.3-0.9,0.7-1.3,1c-7.4,5.6-16.2,9.6-26,11.4
		c-10.7,2-21.4,1.1-31-2.2c-0.6-0.2-1.2-0.4-1.8-0.7c-0.6-0.2-1.2-0.4-1.8-0.7c-0.5-0.2-0.9-0.4-1.4-0.6c-1.2-0.5-2.3-1.1-3.4-1.7
		c-1.8-0.9-3.6-2-5.4-3.1c-0.9-0.6-1.8-1.2-2.6-1.8c0.2,0.2,0.4,0.3,0.6,0.5c1.9,1.5,3.8,3,5.9,4.3c1.7,1.1,3.5,2.2,5.4,3.1
		c1.1,0.6,2.3,1.1,3.4,1.7c0.5,0.2,0.9,0.4,1.4,0.6c0.6,0.3,1.2,0.5,1.8,0.7c0.6,0.2,1.2,0.5,1.8,0.7c9.7,3.3,20.3,4.2,31,2.2
		c9.8-1.8,18.6-5.8,26-11.4c0.4-0.3,0.9-0.6,1.3-1c0.3-0.2,0.6-0.5,0.9-0.7c2.2-1.8,4.2-3.7,6.1-5.8c0.7-0.7,1.4-1.5,2-2.3
		c1.8-2.2,3.5-4.5,5-6.9c0.7-1.2,1.4-2.3,2.1-3.5l0.4-0.7c0.2-0.3,0.3-0.7,0.5-1c0.2-0.4,0.4-0.8,0.6-1.2c1.7-3.5,3-7.2,4-11
		c1-3.9,1.7-7.9,1.9-12c0.2-4.1,0.1-8.2-0.5-12.4c-0.1-0.9-0.3-1.7-0.4-2.6C139,76.8,138.8,76,138.7,75.2z"/>
	<defs>
		<filter id="Adobe_OpacityMaskFilter_6_" filterUnits="userSpaceOnUse" x="20.3" y="28.7" width="71.7" height="62.7">
			<feColorMatrix  type="matrix" values="1 0 0 0 0  0 1 0 0 0  0 0 1 0 0  0 0 0 1 0"/>
		</filter>
	</defs>
	<mask maskUnits="userSpaceOnUse" x="20.3" y="28.7" width="71.7" height="62.7" id="SVGID_10_">
		<g class="st16">
			<defs>
				<filter id="Adobe_OpacityMaskFilter_7_" filterUnits="userSpaceOnUse" x="20.3" y="28.7" width="71.7" height="62.7">
					<feFlood  style="flood-color:white;flood-opacity:1" result="back"/>
					<feBlend  in="SourceGraphic" in2="back" mode="normal"/>
				</filter>
			</defs>
			<mask maskUnits="userSpaceOnUse" x="20.3" y="28.7" width="71.7" height="62.7" id="SVGID_10_">
				<g class="st17">
				</g>
			</mask>
			
				<linearGradient id="SVGID_11_" gradientUnits="userSpaceOnUse" x1="107.6578" y1="-127.837" x2="112.3865" y2="-93.1064" gradientTransform="matrix(0.9137 -0.7059 0.8339 1.0791 47.77 256.9765)">
				<stop  offset="0" style="stop-color:#FFFFFF"/>
				<stop  offset="1" style="stop-color:#000000"/>
			</linearGradient>
			<path class="st18" d="M89.1,34.6c7.8,10.1-0.6,29.7-18.8,43.8c-18.2,14.1-39.3,17.2-47.1,7.1C15.4,75.4,23.8,55.8,42,41.8
				C60.2,27.7,81.3,24.5,89.1,34.6z"/>
		</g>
	</mask>
	
		<linearGradient id="SVGID_12_" gradientUnits="userSpaceOnUse" x1="107.6578" y1="-127.837" x2="112.3865" y2="-93.1064" gradientTransform="matrix(0.9137 -0.7059 0.8339 1.0791 47.77 256.9765)">
		<stop  offset="0" style="stop-color:#FFFFFF"/>
		<stop  offset="1" style="stop-color:#FFFFFF"/>
	</linearGradient>
	<path class="st19" d="M89.1,34.6c7.8,10.1-0.6,29.7-18.8,43.8c-18.2,14.1-39.3,17.2-47.1,7.1C15.4,75.4,23.8,55.8,42,41.8
		C60.2,27.7,81.3,24.5,89.1,34.6z"/>
	<path class="st20" d="M64,38.2c1.5,2-3.3,8.3-10.8,14c-7.5,5.8-14.8,8.9-16.3,6.9c-1.5-2,3.3-8.3,10.8-14S62.5,36.2,64,38.2z"/>
	<path class="st20" d="M35.1,62.4c1.1,1.4,0.8,3.4-0.6,4.4c-1.4,1.1-3.4,0.8-4.4-0.6c-1.1-1.4-0.8-3.4,0.6-4.4
		C32.1,60.8,34,61,35.1,62.4z"/>
	<defs>
		<filter id="Adobe_OpacityMaskFilter_8_" filterUnits="userSpaceOnUse" x="0" y="0" width="87.4" height="87.4">
			<feColorMatrix  type="matrix" values="1 0 0 0 0  0 1 0 0 0  0 0 1 0 0  0 0 0 1 0"/>
		</filter>
	</defs>
	<mask maskUnits="userSpaceOnUse" x="0" y="0" width="87.4" height="87.4" id="SVGID_13_">
		<g class="st21">
			<defs>
				<filter id="Adobe_OpacityMaskFilter_9_" filterUnits="userSpaceOnUse" x="0" y="0" width="87.4" height="87.4">
					<feFlood  style="flood-color:white;flood-opacity:1" result="back"/>
					<feBlend  in="SourceGraphic" in2="back" mode="normal"/>
				</filter>
			</defs>
			<mask maskUnits="userSpaceOnUse" x="0" y="0" width="87.4" height="87.4" id="SVGID_13_">
				<g class="st22">
				</g>
			</mask>
			
				<radialGradient id="SVGID_14_" cx="50.4067" cy="13.9844" r="46.2478" gradientTransform="matrix(0.9834 -0.1813 0.1813 0.9834 -8.7836 41.9029)" gradientUnits="userSpaceOnUse">
				<stop  offset="0" style="stop-color:#FFFFFF"/>
				<stop  offset="0.7822" style="stop-color:#000000"/>
			</radialGradient>
			<circle class="st23" cx="43.7" cy="43.7" r="43.7"/>
		</g>
	</mask>
	<g>
		<defs>
			<filter id="Adobe_OpacityMaskFilter_10_" filterUnits="userSpaceOnUse" x="0" y="0" width="87.4" height="87.4">
				<feFlood  style="flood-color:white;flood-opacity:1" result="back"/>
				<feBlend  in="SourceGraphic" in2="back" mode="normal"/>
			</filter>
		</defs>
		<mask maskUnits="userSpaceOnUse" x="0" y="0" width="87.4" height="87.4" id="SVGID_15_">
			<g class="st24">
				<defs>
					<filter id="Adobe_OpacityMaskFilter_11_" filterUnits="userSpaceOnUse" x="0" y="0" width="87.4" height="87.4">
						<feFlood  style="flood-color:white;flood-opacity:1" result="back"/>
						<feBlend  in="SourceGraphic" in2="back" mode="normal"/>
					</filter>
				</defs>
				<mask maskUnits="userSpaceOnUse" x="0" y="0" width="87.4" height="87.4" id="SVGID_15_">
					<g class="st25">
					</g>
				</mask>
				
					<radialGradient id="SVGID_16_" cx="50.8517" cy="12.4271" r="45.7994" gradientTransform="matrix(0.9834 -0.1813 0.1813 0.9834 -8.7836 41.9029)" gradientUnits="userSpaceOnUse">
					<stop  offset="0" style="stop-color:#FFFFFF"/>
					<stop  offset="1" style="stop-color:#000000"/>
				</radialGradient>
				<path class="st26" d="M86,33c6.4,25.6-11,50.9-37.2,54.1C27.2,89.7,6.6,75.5,1.3,54.4c-6.4-25.6,11-50.9,37.2-54.1
					C60.2-2.3,80.7,11.9,86,33z"/>
			</g>
		</mask>
		
			<radialGradient id="SVGID_17_" cx="50.8517" cy="12.4271" r="45.7994" gradientTransform="matrix(0.9834 -0.1813 0.1813 0.9834 -8.7836 41.9029)" gradientUnits="userSpaceOnUse">
			<stop  offset="0" style="stop-color:#FFFFFF"/>
			<stop  offset="1" style="stop-color:#000000"/>
		</radialGradient>
		<path class="st27" d="M86,33c6.4,25.6-11,50.9-37.2,54.1C27.2,89.7,6.6,75.5,1.3,54.4c-6.4-25.6,11-50.9,37.2-54.1
			C60.2-2.3,80.7,11.9,86,33z"/>
	</g>
</g>
</svg>
