<?xml version="1.0" encoding="utf-8"?>
<!-- Generator: Adobe Illustrator 22.1.0, SVG Export Plug-In . SVG Version: 6.00 Build 0)  -->
<svg version="1.1" id="Layer_1" xmlns="http://www.w3.org/2000/svg" xmlns:xlink="http://www.w3.org/1999/xlink" x="0px" y="0px"
	 viewBox="0 0 220.5 207.7" style="enable-background:new 0 0 220.5 207.7;" xml:space="preserve">
<style type="text/css">
	.st0{fill:url(#SVGID_1_);}
	.st1{opacity:0.2;fill:#8C0000;}
	.st2{opacity:0.53;fill:#FFFC86;}
	.st3{opacity:0.25;fill:#B00000;}
	.st4{filter:url(#Adobe_OpacityMaskFilter);}
	.st5{filter:url(#Adobe_OpacityMaskFilter_1_);}
	.st6{mask:url(#SVGID_2_);fill:url(#SVGID_3_);}
	.st7{fill:url(#SVGID_4_);}
	.st8{fill:#FFFFFF;}
	.st9{filter:url(#Adobe_OpacityMaskFilter_2_);}
	.st10{filter:url(#Adobe_OpacityMaskFilter_3_);}
	.st11{mask:url(#SVGID_5_);fill:url(#SVGID_6_);}
	.st12{opacity:0.67;fill:url(#SVGID_7_);}
	.st13{fill:url(#SVGID_8_);}
	.st14{fill:url(#SVGID_9_);}
	.st15{filter:url(#Adobe_OpacityMaskFilter_4_);}
	.st16{filter:url(#Adobe_OpacityMaskFilter_5_);}
	.st17{mask:url(#SVGID_10_);fill:url(#SVGID_11_);}
	.st18{filter:url(#Adobe_OpacityMaskFilter_6_);}
	.st19{filter:url(#Adobe_OpacityMaskFilter_7_);}
	.st20{mask:url(#SVGID_12_);fill:url(#SVGID_13_);}
	.st21{opacity:0.78;fill:url(#SVGID_14_);}
	.st22{filter:url(#Adobe_OpacityMaskFilter_8_);}
	.st23{filter:url(#Adobe_OpacityMaskFilter_9_);}
	.st24{mask:url(#SVGID_15_);fill:url(#SVGID_16_);}
	.st25{filter:url(#Adobe_OpacityMaskFilter_10_);}
	.st26{filter:url(#Adobe_OpacityMaskFilter_11_);}
	.st27{mask:url(#SVGID_17_);fill:url(#SVGID_18_);}
	.st28{opacity:0.78;fill:url(#SVGID_19_);}
	.st29{filter:url(#Adobe_OpacityMaskFilter_12_);}
	.st30{filter:url(#Adobe_OpacityMaskFilter_13_);}
	.st31{mask:url(#SVGID_20_);fill:url(#SVGID_21_);}
	.st32{filter:url(#Adobe_OpacityMaskFilter_14_);}
	.st33{filter:url(#Adobe_OpacityMaskFilter_15_);}
	.st34{mask:url(#SVGID_22_);fill:url(#SVGID_23_);}
	.st35{opacity:0.78;fill:url(#SVGID_24_);}
</style>
<g>
	
		<radialGradient id="SVGID_1_" cx="-2.5492" cy="-42.7861" r="77.2206" gradientTransform="matrix(0.7355 -0.6776 0.6776 0.7355 99.6913 149.1484)" gradientUnits="userSpaceOnUse">
		<stop  offset="0.3302" style="stop-color:#FFD10B"/>
		<stop  offset="1" style="stop-color:#C23700"/>
	</radialGradient>
	<path class="st0" d="M123.2,86.9c0.2,0.2,0.4,0.4,0.6,0.7c0.3,0.3,0.6,0.7,0.9,1c0.4,0.5,0.8,0.9,1.1,1.4c0.7,0.9,1.4,1.8,2,2.8
		c0.3,0.5,0.6,1,0.9,1.4c0.7,1.1,1.4,2.3,2,3.5c0.7,1.3,1.3,2.5,1.8,3.8c0,0,0,0.1,0.1,0.1c0.3,0.7,0.5,1.3,0.8,2
		c0.2,0.6,0.5,1.3,0.7,1.9c0.3,1,0.6,2,0.9,3c0.3,1.3,0.6,2.5,0.8,3.8c0.1,0.8,0.3,1.6,0.4,2.4c0.1,0.7,0.2,1.4,0.2,2.2c0,0,0,0,0,0
		c0.1,1.6,0.2,3.1,0.2,4.7c0,0.8,0,1.7-0.1,2.5l0,0c-0.1,1.1-0.2,2.2-0.3,3.3c-0.1,0.5-0.1,0.9-0.2,1.4c-0.4,2.4-0.9,4.8-1.7,7.1
		c-2.5,8.2-7.2,15.8-14,22.1c-7.7,7.1-17,11.3-26.6,12.8c-0.3,0-0.6,0.1-0.9,0.1c-0.8,0.1-1.6,0.2-2.4,0.3c-0.9,0.1-1.8,0.1-2.7,0.1
		c0,0,0,0,0,0c-0.7,0-1.4,0-2.1,0c-0.5,0-1,0-1.5,0c-0.8,0-1.6-0.1-2.4-0.1c-1.7-0.1-3.4-0.4-5.1-0.7c-1.8-0.3-3.5-0.8-5.2-1.3
		c-0.1,0-0.2-0.1-0.4-0.1c-0.3-0.1-0.7-0.2-1-0.3c-0.8-0.3-1.6-0.6-2.4-0.9c-0.8-0.3-1.5-0.6-2.3-1c-1.2-0.5-2.4-1.1-3.5-1.8
		c-0.8-0.4-1.6-0.9-2.3-1.4c-0.5-0.3-1-0.7-1.6-1c-0.5-0.4-1-0.7-1.6-1.1c-0.6-0.4-1.2-0.9-1.8-1.4c-0.7-0.5-1.3-1.1-2-1.7
		c-0.2-0.2-0.4-0.3-0.6-0.5c-0.5-0.5-1.1-1-1.6-1.5c0,0-0.1-0.1-0.1-0.1c-0.4-0.4-0.8-0.8-1.2-1.3c-0.6-0.7-1.2-1.3-1.8-2
		c-0.6-0.7-1.1-1.4-1.7-2.2c-0.4-0.5-0.7-1-1.1-1.5c-0.8-1.2-1.6-2.4-2.2-3.6c-0.4-0.7-0.8-1.5-1.2-2.2c-0.2-0.3-0.3-0.6-0.5-0.9
		c-0.4-0.9-0.8-1.7-1.1-2.6c-0.3-0.7-0.6-1.4-0.8-2.2c-0.4-1-0.7-2.1-1-3.1c-0.5-1.9-1-3.8-1.3-5.7c-0.1-0.5-0.2-1.1-0.2-1.6
		c-0.1-0.9-0.2-1.9-0.3-2.9c-0.3-4.5,0-9,0.8-13.4c0-0.1,0-0.2,0.1-0.3c0.4-2.1,1-4.2,1.7-6.3c0.6-1.8,1.3-3.5,2.1-5.2
		c0.9-1.9,1.9-3.8,3.1-5.6c1.3-2,2.8-4,4.4-5.9c1.2-1.4,2.5-2.7,3.9-4c5.5-5.1,11.9-8.7,18.6-10.9c0,0,0.1,0,0.1,0
		c1.5-0.5,3-0.9,4.6-1.2c2.2-0.5,4.5-0.8,6.8-1c0.7-0.1,1.3-0.1,2-0.1c0.6,0,1.1,0,1.7,0c1.1,0,2.2,0,3.3,0.1c0.3,0,0.7,0,1,0.1
		c0.6,0,1.2,0.1,1.9,0.2l0.1,0c0.8,0.1,1.5,0.2,2.3,0.3c0.4,0.1,0.9,0.1,1.3,0.2c0.7,0.1,1.4,0.3,2.1,0.4c0.6,0.1,1.1,0.3,1.7,0.4
		c1.2,0.3,2.4,0.7,3.6,1.1c0.2,0.1,0.5,0.2,0.7,0.3c0.9,0.3,1.8,0.7,2.6,1.1c1.6,0.7,3.1,1.5,4.6,2.3c0.2,0.1,0.4,0.2,0.6,0.4
		c1.5,0.9,3,1.9,4.4,2.9c1,0.7,2,1.5,3,2.4c0.1,0.1,0.1,0.1,0.2,0.2c0.7,0.6,1.4,1.3,2.1,2C122,85.7,122.6,86.3,123.2,86.9z"/>
	<path class="st1" d="M123.2,86.9c0.2,0.2,0.4,0.4,0.6,0.7c-4.7,5.4-17.7,19.9-34.3,35.1c-15.1,13.9-31.3,27.3-39.2,33.8
		c-0.4-0.4-0.8-0.8-1.2-1.3c-0.6-0.7-1.2-1.3-1.8-2c-0.6-0.7-1.1-1.4-1.7-2.2c9.5-6.2,29-19.3,41.4-30.8
		c15.6-14.4,27.6-30.9,32-37.4c0.1,0.1,0.1,0.1,0.2,0.2c0.7,0.6,1.4,1.3,2.1,2C122,85.7,122.6,86.3,123.2,86.9z"/>
	<path class="st1" d="M132.6,101.5c0,0,0,0.1,0.1,0.1c0.3,0.7,0.5,1.3,0.8,2c0.2,0.6,0.5,1.3,0.7,1.9c0.3,1,0.6,2,0.9,3
		c0.3,1.3,0.6,2.5,0.8,3.8c-7.1,4.4-20.7,13.4-34.5,24.8c-13.6,11.3-24.6,24.6-30.2,31.9c-0.3-0.1-0.7-0.2-1-0.3
		c-0.8-0.3-1.6-0.6-2.4-0.9c-0.8-0.3-1.5-0.6-2.3-1c-1.2-0.5-2.4-1.1-3.5-1.8c5.5-4.9,17.1-15.5,36-33.3
		C115.7,115.1,126.9,105.9,132.6,101.5z"/>
	<path class="st2" d="M111,77.2c-3.8,5.5-14,18.9-32.3,35.8c-14.2,13.1-28.6,23.4-38.1,29.7c-0.4-0.9-0.8-1.7-1.1-2.6
		c-0.3-0.7-0.6-1.4-0.8-2.2c9.3-5.6,23.5-15.2,37-28.3c15.1-14.7,23.9-28.4,28-35.9c0.9,0.3,1.8,0.7,2.6,1.1
		C108,75.6,109.5,76.4,111,77.2z"/>
	<path class="st2" d="M97.8,72.1c-3.2,4.9-11.7,16.8-27.9,31.1c-13.5,11.8-26,21-33.4,26.1c-0.1-0.5-0.2-1.1-0.2-1.6
		c6.3-4.2,18.3-12.7,32.3-25.6c14.9-13.7,22.6-25.1,25.8-30.6c0.4,0.1,0.9,0.1,1.3,0.2C96.4,71.7,97.1,71.9,97.8,72.1z"/>
	<path class="st2" d="M136.5,124.3c-0.1,1.1-0.2,2.2-0.3,3.3c-4.8,3.1-13.7,9.4-23.9,18.7c-10.7,9.7-18.2,19.7-21.8,25
		c-0.9,0.1-1.8,0.1-2.7,0.1c0,0,0,0,0,0c4.7-6.2,13.1-16.7,23.8-26.6C122.8,134.3,131.8,127.6,136.5,124.3z"/>
	<path class="st2" d="M127.9,92.8c0.3,0.5,0.6,1,0.9,1.4c0.7,1.1,1.4,2.3,2,3.5c-6.2,5.2-20.2,16.9-38.3,32.8
		c-18.1,15.9-29.7,27.4-34.6,32.4c-0.5-0.4-1-0.7-1.6-1.1c-0.6-0.4-1.2-0.9-1.8-1.4c5.3-5,15.7-14.7,35.2-32.9
		C112.3,106.5,123.2,96.8,127.9,92.8z"/>
	<path class="st1" d="M92.6,71.1c-4,3.4-11.9,9.6-23.4,16.4C57.8,94.3,46.4,98.7,40,100.9c0.9-2,1.9-3.9,3-5.8c1-1.6,2-3.1,3.1-4.6
		c4.6-1.4,11-3.8,18.8-7.8c7.5-3.9,12.7-8.2,16.1-11.7c1.6-0.2,3.2-0.2,4.7-0.3C88.1,70.7,90.4,70.8,92.6,71.1z"/>
	<path class="st3" d="M129.6,95.5c0.4,0.6,0.7,1.2,1,1.9c1.6,3,2.9,6.1,3.9,9.3c1,3.2,1.6,6.4,1.9,9.7c0.3,3.2,0.3,6.4,0,9.5
		c0,0.3-0.1,0.7-0.1,1c0,0.3-0.1,0.6-0.1,0.9l-0.1,0.7c-0.2,1.1-0.4,2.2-0.6,3.3c-0.5,2.3-1.1,4.5-1.9,6.7c-0.3,0.8-0.6,1.5-0.9,2.3
		c-0.9,2.1-1.9,4.1-3,6.1c-0.1,0.3-0.3,0.5-0.5,0.8c-0.2,0.4-0.5,0.8-0.7,1.1c-4.1,6.3-9.7,11.9-16.6,16c-7.6,4.5-16,6.8-24.3,7
		c-0.5,0-1.1,0-1.6,0c-0.5,0-1,0-1.6,0c-0.4,0-0.8,0-1.2,0c-1-0.1-2.1-0.2-3.1-0.3c-1.7-0.2-3.3-0.5-5-0.8c-1.9-0.4-3.8-1-5.7-1.6
		c-0.8-0.3-1.6-0.6-2.4-0.9c-1.2-0.5-2.3-1-3.5-1.6c-1-0.5-2.1-1.1-3-1.7c-2-1.2-4-2.5-5.8-4c8.7-3.8,26.1-12.5,43.9-28.3
		c19-16.9,19.1-40.4,18-51.1c1.4,1,2.7,2.2,4,3.4c2.2,2,4.1,4.3,6,6.7c0,0,0,0,0,0c0.6,0.8,1.2,1.7,1.8,2.6
		C128.9,94.3,129.2,94.9,129.6,95.5z"/>
	<defs>
		<filter id="Adobe_OpacityMaskFilter" filterUnits="userSpaceOnUse" x="39.2" y="76.1" width="43.6" height="55">
			<feColorMatrix  type="matrix" values="1 0 0 0 0  0 1 0 0 0  0 0 1 0 0  0 0 0 1 0"/>
		</filter>
	</defs>
	<mask maskUnits="userSpaceOnUse" x="39.2" y="76.1" width="43.6" height="55" id="SVGID_2_">
		<g class="st4">
			<defs>
				<filter id="Adobe_OpacityMaskFilter_1_" filterUnits="userSpaceOnUse" x="39.2" y="76.1" width="43.6" height="55">
					<feFlood  style="flood-color:white;flood-opacity:1" result="back"/>
					<feBlend  in="SourceGraphic" in2="back" mode="normal"/>
				</filter>
			</defs>
			<mask maskUnits="userSpaceOnUse" x="39.2" y="76.1" width="43.6" height="55" id="SVGID_2_">
				<g class="st5">
				</g>
			</mask>
			
				<linearGradient id="SVGID_3_" gradientUnits="userSpaceOnUse" x1="94.506" y1="-140.3499" x2="97.9888" y2="-114.7697" gradientTransform="matrix(0.6135 -0.9781 1.1553 0.7246 149.3096 290.2244)">
				<stop  offset="0" style="stop-color:#FFFFFF"/>
				<stop  offset="1" style="stop-color:#000000"/>
			</linearGradient>
			<path class="st6" d="M77.3,77.7c8,5,7.2,20.7-1.8,35c-9,14.3-22.8,21.9-30.7,16.9c-8-5-7.2-20.7,1.8-35
				C55.5,80.2,69.3,72.7,77.3,77.7z"/>
		</g>
	</mask>
	
		<linearGradient id="SVGID_4_" gradientUnits="userSpaceOnUse" x1="94.506" y1="-140.3499" x2="97.9888" y2="-114.7697" gradientTransform="matrix(0.6135 -0.9781 1.1553 0.7246 149.3096 290.2244)">
		<stop  offset="0" style="stop-color:#FFFFFF"/>
		<stop  offset="1" style="stop-color:#FFFFFF"/>
	</linearGradient>
	<path class="st7" d="M77.3,77.7c8,5,7.2,20.7-1.8,35c-9,14.3-22.8,21.9-30.7,16.9c-8-5-7.2-20.7,1.8-35
		C55.5,80.2,69.3,72.7,77.3,77.7z"/>
	<path class="st8" d="M61.8,84c1.7,1.1-0.2,7.2-4.3,13.7c-4.1,6.5-8.8,10.9-10.5,9.9s0.2-7.2,4.3-13.7C55.3,87.4,60,83,61.8,84z"/>
	<path class="st8" d="M46.5,110.6c1.2,0.8,1.6,2.3,0.8,3.5c-0.8,1.2-2.3,1.6-3.5,0.8c-1.2-0.8-1.6-2.3-0.8-3.5
		C43.7,110.2,45.3,109.9,46.5,110.6z"/>
	<defs>
		<filter id="Adobe_OpacityMaskFilter_2_" filterUnits="userSpaceOnUse" x="79.1" y="71" width="57.4" height="100.6">
			<feColorMatrix  type="matrix" values="1 0 0 0 0  0 1 0 0 0  0 0 1 0 0  0 0 0 1 0"/>
		</filter>
	</defs>
	<mask maskUnits="userSpaceOnUse" x="79.1" y="71" width="57.4" height="100.6" id="SVGID_5_">
		<g class="st9">
			<defs>
				<filter id="Adobe_OpacityMaskFilter_3_" filterUnits="userSpaceOnUse" x="79.1" y="71" width="57.4" height="100.6">
					<feFlood  style="flood-color:white;flood-opacity:1" result="back"/>
					<feBlend  in="SourceGraphic" in2="back" mode="normal"/>
				</filter>
			</defs>
			<mask maskUnits="userSpaceOnUse" x="79.1" y="71" width="57.4" height="100.6" id="SVGID_5_">
				<g class="st10">
				</g>
			</mask>
			
				<linearGradient id="SVGID_6_" gradientUnits="userSpaceOnUse" x1="46.3371" y1="4.0578" x2="3.2351" y2="-34.7514" gradientTransform="matrix(0.7355 -0.6776 0.6776 0.7355 99.6913 149.1484)">
				<stop  offset="0" style="stop-color:#FFFFFF"/>
				<stop  offset="1" style="stop-color:#000000"/>
			</linearGradient>
			<path class="st11" d="M121.8,85.7c-0.8-0.8-1.5-1.5-2.3-2.2c0,0,0,0,0,0c-2.3-2-4.7-3.8-7.2-5.3c-1.5-0.9-3-1.7-4.6-2.5
				c-1-0.5-2.1-0.9-3.2-1.4c-0.6-0.2-1.2-0.5-1.8-0.7l0,0c-0.9-0.3-1.9-0.6-2.8-0.9l-0.9-0.2l0,0c-1.1-0.3-2.2-0.5-3.3-0.7
				c-0.3-0.1-0.6-0.1-0.9-0.2c-0.9-0.1-1.8-0.3-2.6-0.4l-0.1,0C91,71.1,90.1,71,89.2,71c0.5,0.1,1.1,0.1,1.6,0.2
				c0.3,0.1,0.6,0.1,0.9,0.2c1.1,0.2,2.2,0.5,3.3,0.7l0,0l0.9,0.2c0.9,0.3,1.9,0.6,2.8,0.9l0,0c0.6,0.2,1.2,0.4,1.8,0.7
				c1.1,0.4,2.1,0.9,3.2,1.4c1.6,0.7,3.1,1.6,4.6,2.5c2.5,1.5,4.9,3.3,7.2,5.3c0,0,0,0,0,0c0.8,0.7,1.6,1.4,2.3,2.2
				c0.5,0.5,0.9,0.9,1.4,1.4c0.5,0.5,1,1.1,1.4,1.6c2.2,2.6,4.1,5.4,5.7,8.3c1.6,2.9,2.9,5.9,3.9,9c1,3.1,1.6,6.2,2,9.3
				c0,0.3,0.1,0.7,0.1,1c0,0.3,0.1,0.6,0.1,0.9l0,0.7c0.1,1.1,0.1,2.2,0.1,3.3c0,2.3-0.1,4.6-0.5,6.9c-0.1,0.8-0.2,1.6-0.4,2.4
				c-0.4,2.2-1,4.4-1.7,6.6c-0.1,0.3-0.2,0.6-0.3,0.8c-0.1,0.4-0.3,0.8-0.5,1.2c-2.7,7.1-7,13.6-12.9,19.1c-6.5,6-14.2,10-22.3,11.9
				c-0.5,0.1-1,0.2-1.5,0.3c-0.5,0.1-1,0.2-1.5,0.3c-0.4,0.1-0.8,0.1-1.2,0.2c-1,0.1-2,0.3-3.1,0.3c-1.7,0.2-3.4,0.2-5,0.2
				c-0.9,0-1.7-0.1-2.6-0.1c0.2,0,0.4,0.1,0.6,0.1c2,0.3,3.9,0.4,5.9,0.4c1.7,0,3.4-0.1,5-0.2c1-0.1,2.1-0.2,3.1-0.3
				c0.4-0.1,0.8-0.1,1.2-0.2c0.5-0.1,1-0.2,1.5-0.3c0.5-0.1,1-0.2,1.5-0.3c8.1-1.9,15.8-5.9,22.3-11.9c5.9-5.5,10.2-12,12.9-19.1
				c0.2-0.4,0.3-0.8,0.5-1.2c0.1-0.3,0.2-0.6,0.3-0.8c0.7-2.2,1.3-4.4,1.7-6.6c0.2-0.8,0.3-1.6,0.4-2.4c0.3-2.3,0.5-4.6,0.5-6.9
				c0-1.1,0-2.2-0.1-3.3l0-0.7c0-0.3,0-0.6-0.1-0.9c0-0.3-0.1-0.7-0.1-1c-0.4-3.1-1-6.3-2-9.3c-1-3.1-2.3-6.1-3.9-9
				c-1.6-2.9-3.5-5.7-5.7-8.3c-0.5-0.5-0.9-1.1-1.4-1.6C122.8,86.6,122.3,86.1,121.8,85.7z"/>
		</g>
	</mask>
	
		<linearGradient id="SVGID_7_" gradientUnits="userSpaceOnUse" x1="46.3371" y1="4.0578" x2="3.2351" y2="-34.7514" gradientTransform="matrix(0.7355 -0.6776 0.6776 0.7355 99.6913 149.1484)">
		<stop  offset="0" style="stop-color:#FFFFFF"/>
		<stop  offset="1" style="stop-color:#FFFFFF"/>
	</linearGradient>
	<path class="st12" d="M121.8,85.7c-0.8-0.8-1.5-1.5-2.3-2.2c0,0,0,0,0,0c-2.3-2-4.7-3.8-7.2-5.3c-1.5-0.9-3-1.7-4.6-2.5
		c-1-0.5-2.1-0.9-3.2-1.4c-0.6-0.2-1.2-0.5-1.8-0.7l0,0c-0.9-0.3-1.9-0.6-2.8-0.9l-0.9-0.2l0,0c-1.1-0.3-2.2-0.5-3.3-0.7
		c-0.3-0.1-0.6-0.1-0.9-0.2c-0.9-0.1-1.8-0.3-2.6-0.4l-0.1,0C91,71.1,90.1,71,89.2,71c0.5,0.1,1.1,0.1,1.6,0.2
		c0.3,0.1,0.6,0.1,0.9,0.2c1.1,0.2,2.2,0.5,3.3,0.7l0,0l0.9,0.2c0.9,0.3,1.9,0.6,2.8,0.9l0,0c0.6,0.2,1.2,0.4,1.8,0.7
		c1.1,0.4,2.1,0.9,3.2,1.4c1.6,0.7,3.1,1.6,4.6,2.5c2.5,1.5,4.9,3.3,7.2,5.3c0,0,0,0,0,0c0.8,0.7,1.6,1.4,2.3,2.2
		c0.5,0.5,0.9,0.9,1.4,1.4c0.5,0.5,1,1.1,1.4,1.6c2.2,2.6,4.1,5.4,5.7,8.3c1.6,2.9,2.9,5.9,3.9,9c1,3.1,1.6,6.2,2,9.3
		c0,0.3,0.1,0.7,0.1,1c0,0.3,0.1,0.6,0.1,0.9l0,0.7c0.1,1.1,0.1,2.2,0.1,3.3c0,2.3-0.1,4.6-0.5,6.9c-0.1,0.8-0.2,1.6-0.4,2.4
		c-0.4,2.2-1,4.4-1.7,6.6c-0.1,0.3-0.2,0.6-0.3,0.8c-0.1,0.4-0.3,0.8-0.5,1.2c-2.7,7.1-7,13.6-12.9,19.1c-6.5,6-14.2,10-22.3,11.9
		c-0.5,0.1-1,0.2-1.5,0.3c-0.5,0.1-1,0.2-1.5,0.3c-0.4,0.1-0.8,0.1-1.2,0.2c-1,0.1-2,0.3-3.1,0.3c-1.7,0.2-3.4,0.2-5,0.2
		c-0.9,0-1.7-0.1-2.6-0.1c0.2,0,0.4,0.1,0.6,0.1c2,0.3,3.9,0.4,5.9,0.4c1.7,0,3.4-0.1,5-0.2c1-0.1,2.1-0.2,3.1-0.3
		c0.4-0.1,0.8-0.1,1.2-0.2c0.5-0.1,1-0.2,1.5-0.3c0.5-0.1,1-0.2,1.5-0.3c8.1-1.9,15.8-5.9,22.3-11.9c5.9-5.5,10.2-12,12.9-19.1
		c0.2-0.4,0.3-0.8,0.5-1.2c0.1-0.3,0.2-0.6,0.3-0.8c0.7-2.2,1.3-4.4,1.7-6.6c0.2-0.8,0.3-1.6,0.4-2.4c0.3-2.3,0.5-4.6,0.5-6.9
		c0-1.1,0-2.2-0.1-3.3l0-0.7c0-0.3,0-0.6-0.1-0.9c0-0.3-0.1-0.7-0.1-1c-0.4-3.1-1-6.3-2-9.3c-1-3.1-2.3-6.1-3.9-9
		c-1.6-2.9-3.5-5.7-5.7-8.3c-0.5-0.5-0.9-1.1-1.4-1.6C122.8,86.6,122.3,86.1,121.8,85.7z"/>
	
		<radialGradient id="SVGID_8_" cx="25.1875" cy="45.1193" r="80.6714" gradientTransform="matrix(0.8602 -0.5099 0.5099 0.8602 29.0215 88.3982)" gradientUnits="userSpaceOnUse">
		<stop  offset="0.3302" style="stop-color:#FF1C00"/>
		<stop  offset="0.9951" style="stop-color:#780000"/>
	</radialGradient>
	<path class="st13" d="M173.7,49.7c-4-4.1-25.7,10-53.9,33.9l1.7,1.6c21.7-18.1,37.8-28.6,40.8-25.5c4.5,4.6-23.5,38.8-62.4,76.5
		c-38.9,37.6-74.1,64.3-78.6,59.7c-3-3.1,8.4-19.2,27.7-40.7l-1.5-1.7C22.1,181.2,7,202.8,11,206.9c5.6,5.8,46.6-24.7,91.5-68.1
		C147.4,95.4,179.3,55.5,173.7,49.7z"/>
	
		<radialGradient id="SVGID_9_" cx="33.9296" cy="65.8472" r="66.968" gradientTransform="matrix(0.8602 -0.5099 0.5099 0.8602 29.0215 88.3982)" gradientUnits="userSpaceOnUse">
		<stop  offset="0.3302" style="stop-color:#FF1C00"/>
		<stop  offset="0.9951" style="stop-color:#780000"/>
	</radialGradient>
	<path class="st14" d="M159.5,62.3c-2.6-2.6-17.2,7-37.2,23.7l1.2,1.2C138,75.4,148.2,68.8,150,70.7c3.2,3.3-20.5,31.3-52.8,62.6
		c-32.4,31.3-61.2,54-64.4,50.7c-1.9-1.9,5.4-12.3,18.3-26.8l-1.2-1.2c-17.9,19.8-28.3,34.5-25.7,37.2c4,4.1,37.6-21.8,74.9-57.9
		C136.4,99.1,163.5,66.5,159.5,62.3z"/>
	<defs>
		<filter id="Adobe_OpacityMaskFilter_4_" filterUnits="userSpaceOnUse" x="49.4" y="84.4" width="111.9" height="111.9">
			<feColorMatrix  type="matrix" values="1 0 0 0 0  0 1 0 0 0  0 0 1 0 0  0 0 0 1 0"/>
		</filter>
	</defs>
	<mask maskUnits="userSpaceOnUse" x="49.4" y="84.4" width="111.9" height="111.9" id="SVGID_10_">
		<g class="st15">
			<defs>
				<filter id="Adobe_OpacityMaskFilter_5_" filterUnits="userSpaceOnUse" x="49.4" y="84.4" width="111.9" height="111.9">
					<feFlood  style="flood-color:white;flood-opacity:1" result="back"/>
					<feBlend  in="SourceGraphic" in2="back" mode="normal"/>
				</filter>
			</defs>
			<mask maskUnits="userSpaceOnUse" x="49.4" y="84.4" width="111.9" height="111.9" id="SVGID_10_">
				<g class="st16">
				</g>
			</mask>
			
				<radialGradient id="SVGID_11_" cx="38.1155" cy="87.1174" r="59.2545" gradientTransform="matrix(0.8602 -0.5099 0.5099 0.8602 29.0215 88.3982)" gradientUnits="userSpaceOnUse">
				<stop  offset="0" style="stop-color:#FFFFFF"/>
				<stop  offset="0.7822" style="stop-color:#000000"/>
			</radialGradient>
			<circle class="st17" cx="105.4" cy="140.3" r="56"/>
		</g>
	</mask>
	<g>
		<defs>
			<filter id="Adobe_OpacityMaskFilter_6_" filterUnits="userSpaceOnUse" x="49.4" y="84.4" width="111.9" height="111.9">
				<feFlood  style="flood-color:white;flood-opacity:1" result="back"/>
				<feBlend  in="SourceGraphic" in2="back" mode="normal"/>
			</filter>
		</defs>
		<mask maskUnits="userSpaceOnUse" x="49.4" y="84.4" width="111.9" height="111.9" id="SVGID_12_">
			<g class="st18">
				<defs>
					<filter id="Adobe_OpacityMaskFilter_7_" filterUnits="userSpaceOnUse" x="49.4" y="84.4" width="111.9" height="111.9">
						<feFlood  style="flood-color:white;flood-opacity:1" result="back"/>
						<feBlend  in="SourceGraphic" in2="back" mode="normal"/>
					</filter>
				</defs>
				<mask maskUnits="userSpaceOnUse" x="49.4" y="84.4" width="111.9" height="111.9" id="SVGID_12_">
					<g class="st19">
					</g>
				</mask>
				
					<radialGradient id="SVGID_13_" cx="38.6856" cy="85.1221" r="58.68" gradientTransform="matrix(0.8602 -0.5099 0.5099 0.8602 29.0215 88.3982)" gradientUnits="userSpaceOnUse">
					<stop  offset="0" style="stop-color:#FFFFFF"/>
					<stop  offset="1" style="stop-color:#000000"/>
				</radialGradient>
				<path class="st20" d="M151.6,108.7c19.1,28,9.3,66.1-20.8,81.5c-24.9,12.7-55.8,4.8-71.5-18.3c-19.1-28-9.3-66.1,20.8-81.5
					C104.9,77.8,135.9,85.7,151.6,108.7z"/>
			</g>
		</mask>
		
			<radialGradient id="SVGID_14_" cx="38.6856" cy="85.1221" r="58.68" gradientTransform="matrix(0.8602 -0.5099 0.5099 0.8602 29.0215 88.3982)" gradientUnits="userSpaceOnUse">
			<stop  offset="0" style="stop-color:#FFFFFF"/>
			<stop  offset="1" style="stop-color:#000000"/>
		</radialGradient>
		<path class="st21" d="M151.6,108.7c19.1,28,9.3,66.1-20.8,81.5c-24.9,12.7-55.8,4.8-71.5-18.3c-19.1-28-9.3-66.1,20.8-81.5
			C104.9,77.8,135.9,85.7,151.6,108.7z"/>
	</g>
	<defs>
		<filter id="Adobe_OpacityMaskFilter_8_" filterUnits="userSpaceOnUse" x="108.5" y="0" width="111.9" height="111.9">
			<feColorMatrix  type="matrix" values="1 0 0 0 0  0 1 0 0 0  0 0 1 0 0  0 0 0 1 0"/>
		</filter>
	</defs>
	<mask maskUnits="userSpaceOnUse" x="108.5" y="0" width="111.9" height="111.9" id="SVGID_15_">
		<g class="st22">
			<defs>
				<filter id="Adobe_OpacityMaskFilter_9_" filterUnits="userSpaceOnUse" x="108.5" y="0" width="111.9" height="111.9">
					<feFlood  style="flood-color:white;flood-opacity:1" result="back"/>
					<feBlend  in="SourceGraphic" in2="back" mode="normal"/>
				</filter>
			</defs>
			<mask maskUnits="userSpaceOnUse" x="108.5" y="0" width="111.9" height="111.9" id="SVGID_15_">
				<g class="st23">
				</g>
			</mask>
			
				<radialGradient id="SVGID_16_" cx="131.9714" cy="44.6225" r="59.2545" gradientTransform="matrix(0.8602 -0.5099 0.5099 0.8602 29.0215 88.3982)" gradientUnits="userSpaceOnUse">
				<stop  offset="0" style="stop-color:#FFFFFF"/>
				<stop  offset="0.7822" style="stop-color:#000000"/>
			</radialGradient>
			<circle class="st24" cx="164.5" cy="55.9" r="56"/>
		</g>
	</mask>
	<g>
		<defs>
			<filter id="Adobe_OpacityMaskFilter_10_" filterUnits="userSpaceOnUse" x="108.5" y="0" width="111.9" height="111.9">
				<feFlood  style="flood-color:white;flood-opacity:1" result="back"/>
				<feBlend  in="SourceGraphic" in2="back" mode="normal"/>
			</filter>
		</defs>
		<mask maskUnits="userSpaceOnUse" x="108.5" y="0" width="111.9" height="111.9" id="SVGID_17_">
			<g class="st25">
				<defs>
					<filter id="Adobe_OpacityMaskFilter_11_" filterUnits="userSpaceOnUse" x="108.5" y="0" width="111.9" height="111.9">
						<feFlood  style="flood-color:white;flood-opacity:1" result="back"/>
						<feBlend  in="SourceGraphic" in2="back" mode="normal"/>
					</filter>
				</defs>
				<mask maskUnits="userSpaceOnUse" x="108.5" y="0" width="111.9" height="111.9" id="SVGID_17_">
					<g class="st26">
					</g>
				</mask>
				
					<radialGradient id="SVGID_18_" cx="132.5415" cy="42.6272" r="58.68" gradientTransform="matrix(0.8602 -0.5099 0.5099 0.8602 29.0215 88.3982)" gradientUnits="userSpaceOnUse">
					<stop  offset="0" style="stop-color:#FFFFFF"/>
					<stop  offset="1" style="stop-color:#000000"/>
				</radialGradient>
				<path class="st27" d="M210.7,24.3c19.1,28,9.3,66.1-20.8,81.5c-24.9,12.7-55.8,4.8-71.5-18.3C99.2,59.6,109,21.4,139.1,6
					C164-6.7,195,1.3,210.7,24.3z"/>
			</g>
		</mask>
		
			<radialGradient id="SVGID_19_" cx="132.5415" cy="42.6272" r="58.68" gradientTransform="matrix(0.8602 -0.5099 0.5099 0.8602 29.0215 88.3982)" gradientUnits="userSpaceOnUse">
			<stop  offset="0" style="stop-color:#FFFFFF"/>
			<stop  offset="1" style="stop-color:#000000"/>
		</radialGradient>
		<path class="st28" d="M210.7,24.3c19.1,28,9.3,66.1-20.8,81.5c-24.9,12.7-55.8,4.8-71.5-18.3C99.2,59.6,109,21.4,139.1,6
			C164-6.7,195,1.3,210.7,24.3z"/>
	</g>
	<defs>
		<filter id="Adobe_OpacityMaskFilter_12_" filterUnits="userSpaceOnUse" x="0" y="31.4" width="111.9" height="111.9">
			<feColorMatrix  type="matrix" values="1 0 0 0 0  0 1 0 0 0  0 0 1 0 0  0 0 0 1 0"/>
		</filter>
	</defs>
	<mask maskUnits="userSpaceOnUse" x="0" y="31.4" width="111.9" height="111.9" id="SVGID_20_">
		<g class="st29">
			<defs>
				<filter id="Adobe_OpacityMaskFilter_13_" filterUnits="userSpaceOnUse" x="0" y="31.3" width="111.9" height="111.9">
					<feFlood  style="flood-color:white;flood-opacity:1" result="back"/>
					<feBlend  in="SourceGraphic" in2="back" mode="normal"/>
				</filter>
			</defs>
			<mask maskUnits="userSpaceOnUse" x="0" y="31.3" width="111.9" height="111.9" id="SVGID_20_">
				<g class="st30">
				</g>
			</mask>
			
				<radialGradient id="SVGID_21_" cx="22.6277" cy="16.277" r="59.2545" gradientTransform="matrix(0.8602 -0.5099 0.5099 0.8602 29.0215 88.3982)" gradientUnits="userSpaceOnUse">
				<stop  offset="0" style="stop-color:#FFFFFF"/>
				<stop  offset="0.7822" style="stop-color:#000000"/>
			</radialGradient>
			<circle class="st31" cx="56" cy="87.3" r="56"/>
		</g>
	</mask>
	<g>
		<defs>
			<filter id="Adobe_OpacityMaskFilter_14_" filterUnits="userSpaceOnUse" x="0" y="31.4" width="111.9" height="111.9">
				<feFlood  style="flood-color:white;flood-opacity:1" result="back"/>
				<feBlend  in="SourceGraphic" in2="back" mode="normal"/>
			</filter>
		</defs>
		<mask maskUnits="userSpaceOnUse" x="0" y="31.4" width="111.9" height="111.9" id="SVGID_22_">
			<g class="st32">
				<defs>
					<filter id="Adobe_OpacityMaskFilter_15_" filterUnits="userSpaceOnUse" x="0" y="31.4" width="111.9" height="111.9">
						<feFlood  style="flood-color:white;flood-opacity:1" result="back"/>
						<feBlend  in="SourceGraphic" in2="back" mode="normal"/>
					</filter>
				</defs>
				<mask maskUnits="userSpaceOnUse" x="0" y="31.4" width="111.9" height="111.9" id="SVGID_22_">
					<g class="st33">
					</g>
				</mask>
				
					<radialGradient id="SVGID_23_" cx="23.1978" cy="14.2817" r="58.68" gradientTransform="matrix(0.8602 -0.5099 0.5099 0.8602 29.0215 88.3982)" gradientUnits="userSpaceOnUse">
					<stop  offset="0" style="stop-color:#FFFFFF"/>
					<stop  offset="1" style="stop-color:#000000"/>
				</radialGradient>
				<path class="st34" d="M102.2,55.7c19.1,28,9.3,66.1-20.8,81.5c-24.9,12.7-55.8,4.8-71.5-18.3c-19.1-28-9.3-66.1,20.8-81.5
					C55.5,24.7,86.4,32.6,102.2,55.7z"/>
			</g>
		</mask>
		
			<radialGradient id="SVGID_24_" cx="23.1978" cy="14.2817" r="58.68" gradientTransform="matrix(0.8602 -0.5099 0.5099 0.8602 29.0215 88.3982)" gradientUnits="userSpaceOnUse">
			<stop  offset="0" style="stop-color:#FFFFFF"/>
			<stop  offset="1" style="stop-color:#000000"/>
		</radialGradient>
		<path class="st35" d="M102.2,55.7c19.1,28,9.3,66.1-20.8,81.5c-24.9,12.7-55.8,4.8-71.5-18.3c-19.1-28-9.3-66.1,20.8-81.5
			C55.5,24.7,86.4,32.6,102.2,55.7z"/>
	</g>
</g>
</svg>
