<?xml version="1.0" encoding="utf-8"?>
<!-- Generator: Adobe Illustrator 22.1.0, SVG Export Plug-In . SVG Version: 6.00 Build 0)  -->
<svg version="1.1" id="Layer_1" xmlns="http://www.w3.org/2000/svg" xmlns:xlink="http://www.w3.org/1999/xlink" x="0px" y="0px"
	 viewBox="0 0 88.5 106.3" style="enable-background:new 0 0 88.5 106.3;" xml:space="preserve">
<style type="text/css">
	.st0{fill:url(#SVGID_1_);}
	.st1{opacity:0.13;fill:url(#SVGID_2_);}
	.st2{opacity:0.25;}
	.st3{fill:url(#SVGID_3_);}
	.st4{opacity:0.13;fill:url(#SVGID_4_);}
	.st5{filter:url(#Adobe_OpacityMaskFilter);}
	.st6{filter:url(#Adobe_OpacityMaskFilter_1_);}
	.st7{mask:url(#SVGID_5_);fill:url(#SVGID_6_);}
	.st8{opacity:0.94;fill:url(#SVGID_7_);}
	.st9{opacity:0.8;fill:#FFFFFF;}
	.st10{filter:url(#Adobe_OpacityMaskFilter_2_);}
	.st11{filter:url(#Adobe_OpacityMaskFilter_3_);}
	.st12{mask:url(#SVGID_8_);fill:url(#SVGID_9_);}
	.st13{filter:url(#Adobe_OpacityMaskFilter_4_);}
	.st14{filter:url(#Adobe_OpacityMaskFilter_5_);}
	.st15{mask:url(#SVGID_10_);fill:url(#SVGID_11_);}
	.st16{opacity:0.78;fill:url(#SVGID_12_);}
	.st17{filter:url(#Adobe_OpacityMaskFilter_6_);}
	.st18{filter:url(#Adobe_OpacityMaskFilter_7_);}
	.st19{mask:url(#SVGID_13_);fill:url(#SVGID_14_);}
	.st20{filter:url(#Adobe_OpacityMaskFilter_8_);}
	.st21{filter:url(#Adobe_OpacityMaskFilter_9_);}
	.st22{mask:url(#SVGID_15_);fill:url(#SVGID_16_);}
	.st23{opacity:0.78;fill:url(#SVGID_17_);}
	.st24{opacity:0.2;fill:#000080;}
	.st25{filter:url(#Adobe_OpacityMaskFilter_10_);}
	.st26{filter:url(#Adobe_OpacityMaskFilter_11_);}
	.st27{mask:url(#SVGID_18_);fill:url(#SVGID_19_);}
	.st28{opacity:0.6;fill:url(#SVGID_20_);}
</style>
<g>
	<radialGradient id="SVGID_1_" cx="31.6812" cy="37.6955" r="36.6523" gradientUnits="userSpaceOnUse">
		<stop  offset="0.1651" style="stop-color:#01FFE2"/>
		<stop  offset="1" style="stop-color:#0095A6"/>
	</radialGradient>
	<path class="st0" d="M82.1,55.5c0,0.3,0,0.6,0,1c0,0.3,0,0.5,0,0.8c0,0.3,0,0.6-0.1,1c0,0.1,0,0.3,0,0.4c0,0.2,0,0.4-0.1,0.6
		c0,0.2,0,0.5-0.1,0.7c0,0.1,0,0.2-0.1,0.4c0,0.1,0,0.3,0,0.4c-0.2,1.1-0.4,2.2-0.6,3.2c-0.5,2.1-1.2,4.1-2,6.1h0c0,0,0,0.1,0,0.1
		c-0.3,0.8-0.7,1.5-1.1,2.2c-0.2,0.4-0.5,0.9-0.7,1.3c-0.2,0.3-0.4,0.6-0.6,0.9c-0.8,1.3-1.6,2.5-2.6,3.7c-0.4,0.5-0.8,1-1.2,1.5
		c-0.1,0.1-0.1,0.2-0.2,0.2c-1.1,1.2-2.2,2.3-3.4,3.3c-0.2,0.2-0.5,0.4-0.7,0.6c-1.3,1.1-2.8,2.1-4.3,3h0c-1.9,1.1-3.9,2.1-5.9,2.9
		c-0.4,0.1-0.8,0.3-1.2,0.4c-0.3,0.1-0.7,0.2-1,0.3c-0.3,0.1-0.5,0.2-0.8,0.2c-3.2,0.9-6.5,1.4-9.9,1.4c-2.5,0-4.8-0.2-7.2-0.7
		c-1.5-0.3-2.9-0.7-4.4-1.2c-0.8-0.3-1.5-0.5-2.3-0.9c-0.5-0.2-1.1-0.5-1.6-0.7c-0.6-0.3-1.3-0.6-1.9-1c-0.3-0.2-0.7-0.4-1-0.6
		c-0.1,0-0.2-0.1-0.3-0.2c0,0-0.1-0.1-0.1-0.1h0c-0.1-0.1-0.2-0.1-0.4-0.2c-0.5-0.3-0.9-0.6-1.4-0.9c0,0,0,0-0.1,0
		c-0.2-0.1-0.4-0.3-0.6-0.5c0,0,0,0,0,0c-1.4-1-2.7-2.1-3.9-3.2C19.2,81.2,18,80,17,78.7c-0.1-0.1-0.2-0.3-0.3-0.4
		c-0.6-0.7-1.1-1.4-1.6-2.2c0,0-0.1-0.1-0.1-0.1c-0.5-0.8-1.1-1.6-1.5-2.5c-0.1-0.3-0.3-0.5-0.4-0.8c-0.1-0.1-0.1-0.2-0.2-0.3
		c0,0,0-0.1,0-0.1c-0.1-0.1-0.1-0.2-0.2-0.3c0-0.1-0.1-0.1-0.1-0.2c-0.2-0.5-0.4-0.9-0.6-1.4c-0.3-0.6-0.5-1.2-0.7-1.8
		c-1-2.6-1.7-5.2-2-8C9.1,60.1,9,59.7,9,59.3c-0.1-0.5-0.1-1-0.1-1.5c0-0.2,0-0.3,0-0.5c0-0.2,0-0.4,0-0.6c0-0.4,0-0.7,0-1.1
		c0-0.2,0-0.4,0-0.6c0-0.1,0-0.2,0-0.3c0-0.6,0-1.2,0.1-1.9c0-0.3,0-0.5,0.1-0.8c0-0.4,0.1-0.7,0.1-1.1v0c0-0.3,0.1-0.7,0.1-1
		c0-0.1,0-0.3,0.1-0.4c0.1-0.4,0.1-0.8,0.2-1.1v0c0-0.2,0.1-0.4,0.1-0.6c0.1-0.6,0.3-1.1,0.4-1.7v0c0-0.1,0.1-0.2,0.1-0.3
		c0-0.2,0.1-0.3,0.1-0.5c0.1-0.4,0.3-0.9,0.4-1.3c0.3-0.8,0.6-1.6,0.9-2.3c0,0,0-0.1,0.1-0.1v0c0.3-0.7,0.6-1.4,1-2.1c0,0,0,0,0-0.1
		c0.1-0.2,0.2-0.5,0.4-0.7c0,0,0,0,0,0c0.1-0.1,0.1-0.3,0.2-0.4c1.2-2.2,2.6-4.2,4.2-6.1c1.1-1.4,2.4-2.6,3.7-3.8
		c0.4-0.3,0.8-0.7,1.2-1c0.9-0.7,1.8-1.4,2.8-2.1c1.8-1.2,3.7-2.3,5.7-3.1c0,0,0,0,0.1,0c0,0,0.1,0,0.1,0c4.4-1.9,9.3-3,14.5-3
		c0.1,0,0.3,0,0.4,0c5.5,0.1,10.7,1.3,15.4,3.6c0.4,0.2,0.7,0.3,1.1,0.5c0,0,0,0,0,0c0.6,0.3,1.2,0.6,1.7,1c0,0,0,0,0.1,0
		c1,0.6,2,1.3,3,1.9c0,0,0,0,0,0c0.1,0.1,0.3,0.2,0.4,0.3h0c0.1,0.1,0.2,0.1,0.2,0.2c0.3,0.2,0.6,0.5,0.9,0.7
		c0.2,0.1,0.3,0.3,0.5,0.4c0.1,0.1,0.2,0.2,0.3,0.3c0.7,0.6,1.4,1.3,2.1,1.9l0,0c0.1,0.1,0.2,0.2,0.3,0.3l0,0
		c0.1,0.1,0.2,0.2,0.2,0.3c0.3,0.3,0.5,0.5,0.8,0.8l0.6,0.7c0.3,0.4,0.7,0.8,1,1.2c0.1,0.1,0.2,0.3,0.3,0.4c0,0.1,0.1,0.1,0.1,0.2
		c0.1,0.1,0.1,0.2,0.2,0.3c0.2,0.2,0.4,0.5,0.5,0.7c0.1,0.1,0.1,0.2,0.2,0.3c0.1,0.1,0.2,0.3,0.3,0.4c0,0,0,0,0,0
		c0.1,0.1,0.2,0.2,0.2,0.4c0,0,0.1,0.1,0.1,0.1c0.3,0.5,0.6,1,0.9,1.5c0,0.1,0.1,0.2,0.1,0.3c0.1,0.2,0.2,0.4,0.3,0.6
		c0.1,0.2,0.2,0.3,0.3,0.5c0.1,0.2,0.2,0.3,0.2,0.5c0,0.1,0.1,0.1,0.1,0.2c0.2,0.3,0.3,0.6,0.4,0.9c0,0,0,0.1,0.1,0.1
		c0.1,0.2,0.1,0.3,0.2,0.5c0.1,0.3,0.2,0.5,0.3,0.8c0.4,1,0.8,2.1,1.1,3.2c0.1,0.3,0.2,0.7,0.3,1c0.1,0.4,0.2,0.7,0.3,1.1
		c0,0.1,0,0.2,0.1,0.3c0.1,0.3,0.1,0.5,0.2,0.8c0,0.1,0,0.2,0.1,0.4c0,0.1,0,0.2,0.1,0.3c0,0.1,0,0.2,0.1,0.3
		c0.2,0.8,0.3,1.7,0.4,2.5c0,0.3,0.1,0.7,0.1,1c0,0.3,0,0.5,0.1,0.8c0,0.3,0,0.5,0,0.8v0.1c0,0.3,0,0.5,0,0.8
		C82.1,55.3,82.1,55.4,82.1,55.5z"/>
	<linearGradient id="SVGID_2_" gradientUnits="userSpaceOnUse" x1="28.8207" y1="30.078" x2="60.7529" y2="77.7378">
		<stop  offset="0" style="stop-color:#FFFFFF"/>
		<stop  offset="1" style="stop-color:#FFFFFF"/>
	</linearGradient>
	<path class="st1" d="M82.1,55.1c0-0.3,0-0.5,0-0.8v-0.1c0-0.3,0-0.5,0-0.8c0-0.3,0-0.6-0.1-0.8c0-0.3-0.1-0.7-0.1-1
		c-0.1-0.8-0.2-1.7-0.4-2.5c-4.9-0.2-11.7-0.2-18.3,0.9c-12,2-18.2,8.9-32,9.9c-13.8,1-17.6-6.9-14-9.9c3.6-3,21-5.3,38.7-5.5
		C68,44.4,76.4,44.8,80.6,45c-0.3-1.1-0.7-2.2-1.1-3.2c-0.1-0.3-0.2-0.5-0.3-0.8c-0.1-0.2-0.1-0.3-0.2-0.5c0,0,0-0.1-0.1-0.1
		c-0.2-0.4-0.3-0.7-0.5-1.1c-0.1-0.2-0.2-0.3-0.2-0.5c-0.1-0.2-0.2-0.3-0.3-0.5c-6.7,1.5-20.1,3.9-36.7,3.9
		c-14.1,0-23.8-0.3-29.5-0.7c-0.3,0.8-0.6,1.5-0.9,2.3c-0.1,0.4-0.3,0.9-0.4,1.3c0,0.2-0.1,0.3-0.1,0.5c0,0.1-0.1,0.2-0.1,0.3v0
		c-0.1,0.6-0.3,1.1-0.4,1.7c-0.1,0.2-0.1,0.4-0.1,0.6v0c-0.1,0.4-0.1,0.7-0.2,1.1c0,0.1,0,0.3-0.1,0.4c-0.1,0.3-0.1,0.7-0.1,1v0
		C9.1,51.3,9,51.7,9,52c0,0.3-0.1,0.5-0.1,0.8c0,0.6-0.1,1.2-0.1,1.9c0,0.1,0,0.2,0,0.3c0,0.2,0,0.4,0,0.6c0,0.4,0,0.7,0,1.1
		c0,0.2,0,0.4,0,0.6c0,0.2,0,0.3,0,0.5c0,0.5,0.1,1,0.1,1.5c0,0.4,0.1,0.9,0.1,1.3c0.4,2.8,1.1,5.5,2,8c9.3-1.2,33.6-4.4,45-5.3
		c8.5-0.7,18.5,0.1,25,0.8c0.3-1.1,0.5-2.2,0.6-3.2c0-0.1,0-0.3,0-0.4c0-0.1,0-0.2,0.1-0.4c0-0.2,0.1-0.5,0.1-0.7
		c0-0.2,0-0.4,0.1-0.6c0-0.1,0-0.3,0-0.4c0-0.3,0-0.6,0.1-1c0-0.3,0-0.5,0-0.8c0-0.3,0-0.6,0-1C82.1,55.4,82.1,55.3,82.1,55.1z
		 M16.2,43.4c1,0,1.8,0.8,1.8,1.8S17.1,47,16.2,47c-1,0-1.8-0.8-1.8-1.8S15.2,43.4,16.2,43.4z M15.6,64.1c-1.3,0-2.3-1-2.3-2.3
		s1-2.3,2.3-2.3c1.3,0,2.3,1,2.3,2.3S16.9,64.1,15.6,64.1z M58.2,57.4c-1,0-1.8-0.8-1.8-1.8c0-1,0.8-1.8,1.8-1.8
		c1,0,1.8,0.8,1.8,1.8C59.9,56.6,59.1,57.4,58.2,57.4z M61.8,61.7c-0.5,0-0.9-0.4-0.9-0.9c0-0.5,0.4-0.9,0.9-0.9
		c0.5,0,0.9,0.4,0.9,0.9C62.7,61.3,62.3,61.7,61.8,61.7z"/>
	<g class="st2">
		<linearGradient id="SVGID_3_" gradientUnits="userSpaceOnUse" x1="35.7419" y1="56.2101" x2="58.8816" y2="90.7469">
			<stop  offset="0" style="stop-color:#FFFFFF"/>
			<stop  offset="1" style="stop-color:#FFFFFF"/>
		</linearGradient>
		<path class="st3" d="M46.2,74.3c-15.3-0.1-27.9-1.7-33.7-2.5c0,0.1,0.1,0.1,0.1,0.2c0,0.1,0.1,0.2,0.2,0.3c0,0,0,0.1,0,0.1
			c0.1,0.1,0.1,0.2,0.2,0.3c0.1,0.3,0.3,0.5,0.4,0.8c0.5,0.9,1,1.7,1.5,2.5c0,0,0.1,0.1,0.1,0.1c0.5,0.8,1,1.5,1.6,2.2
			c0.1,0.1,0.2,0.3,0.3,0.4c1,1.3,2.2,2.5,3.3,3.6c1.2,1.2,2.5,2.2,3.9,3.2c0,0,0,0,0,0c0.2,0.2,0.4,0.3,0.6,0.5c0,0,0,0,0.1,0
			c0.4,0.3,0.9,0.6,1.4,0.9c0.1,0.1,0.2,0.2,0.4,0.2h0c0,0,0.1,0.1,0.1,0.1c0.1,0.1,0.2,0.1,0.3,0.2c0.3,0.2,0.7,0.4,1,0.6
			c0.6,0.3,1.3,0.7,1.9,1c7.9-0.5,14.8-0.8,16.8-0.3c2.3,0.5-2.5,1.8-8.5,3c2.3,0.5,4.7,0.7,7.2,0.7c3.4,0,6.8-0.5,9.9-1.4
			c0.3-0.1,0.5-0.2,0.8-0.2c0.3-0.1,0.7-0.2,1-0.3c0.4-0.1,0.8-0.3,1.2-0.4c2.1-0.8,4.1-1.8,5.9-2.9h0c1.5-0.9,2.9-1.9,4.3-3
			c0.2-0.2,0.5-0.4,0.7-0.6c-1.9,0.2-4.7,0.5-8.6,0.8c-11.9,1.1-31.6-0.3-31.1-1.7c0.5-1.5,12.2-3.8,26.9-3.3
			c6.9,0.2,12.5,0.4,16.5,0.7c0.4-0.5,0.8-1,1.2-1.5c0.9-1.2,1.8-2.4,2.6-3.7c0.2-0.3,0.4-0.6,0.6-0.9c0.2-0.4,0.5-0.8,0.7-1.3
			c0.4-0.7,0.7-1.5,1.1-2.2c0,0,0-0.1,0-0.1C73.2,71.7,61,74.3,46.2,74.3z M25.9,79.1c-3.4,0-6.2-0.8-6.2-1.8c0-1,2.8-1.8,6.2-1.8
			c3.4,0,6.2,0.8,6.2,1.8C32.1,78.3,29.3,79.1,25.9,79.1z"/>
	</g>
	<linearGradient id="SVGID_4_" gradientUnits="userSpaceOnUse" x1="35.8222" y1="17.9625" x2="52.64" y2="43.0637">
		<stop  offset="0" style="stop-color:#FFFFFF"/>
		<stop  offset="1" style="stop-color:#FFFFFF"/>
	</linearGradient>
	<path class="st4" d="M71.9,30.2c-5.4,1.6-14.7,3.8-26.4,3.6c-11.3-0.2-21.6-1.1-28.1-1.8c1.1-1.4,2.4-2.6,3.7-3.8
		c6.2,1.4,13.4,2.8,19.3,3c12.8,0.5,25.9-3,23.6-4.4c-2.3-1.5-11.9,0.6-24,0c-5.5-0.3-10.7-1-14.9-1.6c1.8-1.2,3.7-2.3,5.7-3.1
		c0,0,0,0,0.1,0c0,0,0.1,0,0.1,0c4.7,0.7,10.9,1.2,19,1c4.7-0.1,8.4-0.2,11.2-0.4c0.4,0.2,0.7,0.3,1.1,0.5c0,0,0,0,0,0
		c0.6,0.3,1.2,0.6,1.7,1c0,0,0,0,0.1,0c1,0.6,2,1.3,3,1.9c0,0,0,0,0,0c0.1,0.1,0.3,0.2,0.4,0.3h0c0.1,0.1,0.2,0.1,0.2,0.2
		c0.3,0.2,0.6,0.5,0.9,0.7c0.2,0.1,0.3,0.3,0.5,0.4c0.1,0.1,0.2,0.2,0.3,0.3c0.7,0.6,1.4,1.3,2.1,1.9l0,0
		C71.7,30,71.7,30.1,71.9,30.2L71.9,30.2z"/>
	<defs>
		<filter id="Adobe_OpacityMaskFilter" filterUnits="userSpaceOnUse" x="14.4" y="19.8" width="41.3" height="30.1">
			<feColorMatrix  type="matrix" values="1 0 0 0 0  0 1 0 0 0  0 0 1 0 0  0 0 0 1 0"/>
		</filter>
	</defs>
	<mask maskUnits="userSpaceOnUse" x="14.4" y="19.8" width="41.3" height="30.1" id="SVGID_5_">
		<g class="st5">
			<defs>
				<filter id="Adobe_OpacityMaskFilter_1_" filterUnits="userSpaceOnUse" x="14.4" y="19.8" width="41.3" height="30.1">
					<feFlood  style="flood-color:white;flood-opacity:1" result="back"/>
					<feBlend  in="SourceGraphic" in2="back" mode="normal"/>
				</filter>
			</defs>
			<mask maskUnits="userSpaceOnUse" x="14.4" y="19.8" width="41.3" height="30.1" id="SVGID_5_">
				<g class="st6">
				</g>
			</mask>
			
				<linearGradient id="SVGID_6_" gradientUnits="userSpaceOnUse" x1="67.8336" y1="-122.7716" x2="70.3675" y2="-104.1613" gradientTransform="matrix(1.0265 -0.5286 0.6244 1.2124 34.9289 208.9742)">
				<stop  offset="0" style="stop-color:#FFFFFF"/>
				<stop  offset="1" style="stop-color:#000000"/>
			</linearGradient>
			<path class="st7" d="M54.8,24.7c3.1,6.1-3.2,15.6-14.1,21.2s-22.4,5.3-25.5-0.8C12,39,18.4,29.5,29.3,23.8
				C40.3,18.2,51.7,18.6,54.8,24.7z"/>
		</g>
	</mask>
	
		<linearGradient id="SVGID_7_" gradientUnits="userSpaceOnUse" x1="67.8336" y1="-122.7716" x2="70.3675" y2="-104.1613" gradientTransform="matrix(1.0265 -0.5286 0.6244 1.2124 34.9289 208.9742)">
		<stop  offset="0" style="stop-color:#FFFFFF"/>
		<stop  offset="1" style="stop-color:#FFFFFF"/>
	</linearGradient>
	<path class="st8" d="M54.8,24.7c3.1,6.1-3.2,15.6-14.1,21.2s-22.4,5.3-25.5-0.8C12,39,18.4,29.5,29.3,23.8
		C40.3,18.2,51.7,18.6,54.8,24.7z"/>
	<path class="st9" d="M42.8,22.9c0.7,1.3-2.8,4.4-7.8,7c-5,2.6-9.5,3.6-10.2,2.3c-0.7-1.3,2.8-4.4,7.8-7S42.1,21.6,42.8,22.9z"/>
	<path class="st9" d="M23.4,33.9c0.5,0.9,0.1,2-0.8,2.5c-0.9,0.5-2,0.1-2.5-0.8c-0.5-0.9-0.1-2,0.8-2.5
		C21.8,32.6,22.9,32.9,23.4,33.9z"/>
	<defs>
		<filter id="Adobe_OpacityMaskFilter_2_" filterUnits="userSpaceOnUse" x="0" y="0" width="59.9" height="59.9">
			<feColorMatrix  type="matrix" values="1 0 0 0 0  0 1 0 0 0  0 0 1 0 0  0 0 0 1 0"/>
		</filter>
	</defs>
	<mask maskUnits="userSpaceOnUse" x="0" y="0" width="59.9" height="59.9" id="SVGID_8_">
		<g class="st10">
			<defs>
				<filter id="Adobe_OpacityMaskFilter_3_" filterUnits="userSpaceOnUse" x="0" y="0" width="59.9" height="59.9">
					<feFlood  style="flood-color:white;flood-opacity:1" result="back"/>
					<feBlend  in="SourceGraphic" in2="back" mode="normal"/>
				</filter>
			</defs>
			<mask maskUnits="userSpaceOnUse" x="0" y="0" width="59.9" height="59.9" id="SVGID_8_">
				<g class="st11">
				</g>
			</mask>
			<radialGradient id="SVGID_9_" cx="29.3596" cy="31.8207" r="31.7184" gradientUnits="userSpaceOnUse">
				<stop  offset="0" style="stop-color:#FFFFFF"/>
				<stop  offset="0.7822" style="stop-color:#000000"/>
			</radialGradient>
			<circle class="st12" cx="30" cy="30" r="30"/>
		</g>
	</mask>
	<g>
		<defs>
			<filter id="Adobe_OpacityMaskFilter_4_" filterUnits="userSpaceOnUse" x="0" y="0" width="59.9" height="59.9">
				<feFlood  style="flood-color:white;flood-opacity:1" result="back"/>
				<feBlend  in="SourceGraphic" in2="back" mode="normal"/>
			</filter>
		</defs>
		<mask maskUnits="userSpaceOnUse" x="0" y="0" width="59.9" height="59.9" id="SVGID_10_">
			<g class="st13">
				<defs>
					<filter id="Adobe_OpacityMaskFilter_5_" filterUnits="userSpaceOnUse" x="0" y="0" width="59.9" height="59.9">
						<feFlood  style="flood-color:white;flood-opacity:1" result="back"/>
						<feBlend  in="SourceGraphic" in2="back" mode="normal"/>
					</filter>
				</defs>
				<mask maskUnits="userSpaceOnUse" x="0" y="0" width="59.9" height="59.9" id="SVGID_10_">
					<g class="st14">
					</g>
				</mask>
				<radialGradient id="SVGID_11_" cx="29.6648" cy="30.7526" r="31.4109" gradientUnits="userSpaceOnUse">
					<stop  offset="0" style="stop-color:#FFFFFF"/>
					<stop  offset="1" style="stop-color:#000000"/>
				</radialGradient>
				<path class="st15" d="M55.7,13.8c15.3,28.5-13.4,57.1-41.8,41.8c-4.1-2.2-7.4-5.5-9.6-9.6C-11,17.6,17.6-11,46.1,4.3
					C50.1,6.4,53.5,9.8,55.7,13.8z"/>
			</g>
		</mask>
		<radialGradient id="SVGID_12_" cx="29.6648" cy="30.7526" r="31.4109" gradientUnits="userSpaceOnUse">
			<stop  offset="0" style="stop-color:#FFFFFF"/>
			<stop  offset="1" style="stop-color:#000000"/>
		</radialGradient>
		<path class="st16" d="M55.7,13.8c15.3,28.5-13.4,57.1-41.8,41.8c-4.1-2.2-7.4-5.5-9.6-9.6C-11,17.6,17.6-11,46.1,4.3
			C50.1,6.4,53.5,9.8,55.7,13.8z"/>
	</g>
	<defs>
		<filter id="Adobe_OpacityMaskFilter_6_" filterUnits="userSpaceOnUse" x="40" y="57.8" width="48.5" height="48.5">
			<feColorMatrix  type="matrix" values="1 0 0 0 0  0 1 0 0 0  0 0 1 0 0  0 0 0 1 0"/>
		</filter>
	</defs>
	<mask maskUnits="userSpaceOnUse" x="40" y="57.8" width="48.5" height="48.5" id="SVGID_13_">
		<g class="st17">
			<defs>
				<filter id="Adobe_OpacityMaskFilter_7_" filterUnits="userSpaceOnUse" x="40" y="57.8" width="48.5" height="48.5">
					<feFlood  style="flood-color:white;flood-opacity:1" result="back"/>
					<feBlend  in="SourceGraphic" in2="back" mode="normal"/>
				</filter>
			</defs>
			<mask maskUnits="userSpaceOnUse" x="40" y="57.8" width="48.5" height="48.5" id="SVGID_13_">
				<g class="st18">
				</g>
			</mask>
			<radialGradient id="SVGID_14_" cx="63.727" cy="83.595" r="25.6785" gradientUnits="userSpaceOnUse">
				<stop  offset="0" style="stop-color:#FFFFFF"/>
				<stop  offset="0.7822" style="stop-color:#000000"/>
			</radialGradient>
			<circle class="st19" cx="64.2" cy="82.1" r="24.3"/>
		</g>
	</mask>
	<g>
		<defs>
			<filter id="Adobe_OpacityMaskFilter_8_" filterUnits="userSpaceOnUse" x="40" y="57.8" width="48.5" height="48.5">
				<feFlood  style="flood-color:white;flood-opacity:1" result="back"/>
				<feBlend  in="SourceGraphic" in2="back" mode="normal"/>
			</filter>
		</defs>
		<mask maskUnits="userSpaceOnUse" x="40" y="57.8" width="48.5" height="48.5" id="SVGID_15_">
			<g class="st20">
				<defs>
					<filter id="Adobe_OpacityMaskFilter_9_" filterUnits="userSpaceOnUse" x="40" y="57.8" width="48.5" height="48.5">
						<feFlood  style="flood-color:white;flood-opacity:1" result="back"/>
						<feBlend  in="SourceGraphic" in2="back" mode="normal"/>
					</filter>
				</defs>
				<mask maskUnits="userSpaceOnUse" x="40" y="57.8" width="48.5" height="48.5" id="SVGID_15_">
					<g class="st21">
					</g>
				</mask>
				<radialGradient id="SVGID_16_" cx="63.9741" cy="82.7304" r="25.4295" gradientUnits="userSpaceOnUse">
					<stop  offset="0" style="stop-color:#FFFFFF"/>
					<stop  offset="1" style="stop-color:#000000"/>
				</radialGradient>
				<path class="st22" d="M85,69c12.4,23-10.8,46.2-33.9,33.9c-3.3-1.8-6-4.5-7.7-7.7C31,72.1,54.2,48.9,77.3,61.3
					C80.6,63,83.3,65.7,85,69z"/>
			</g>
		</mask>
		<radialGradient id="SVGID_17_" cx="63.9741" cy="82.7304" r="25.4295" gradientUnits="userSpaceOnUse">
			<stop  offset="0" style="stop-color:#FFFFFF"/>
			<stop  offset="1" style="stop-color:#000000"/>
		</radialGradient>
		<path class="st23" d="M85,69c12.4,23-10.8,46.2-33.9,33.9c-3.3-1.8-6-4.5-7.7-7.7C31,72.1,54.2,48.9,77.3,61.3
			C80.6,63,83.3,65.7,85,69z"/>
	</g>
	<path class="st24" d="M82.1,55.5c0,0.3,0,0.6,0,1c0,0.3,0,0.5,0,0.8c0,0.3,0,0.6-0.1,1c0,0.1,0,0.3,0,0.4c0,0.2,0,0.4-0.1,0.6
		c0,0.2,0,0.5-0.1,0.7c0,0.1,0,0.2-0.1,0.4c0,0.1,0,0.3,0,0.4c-0.2,1.1-0.4,2.2-0.6,3.2c-0.5,2.1-1.2,4.1-2,6.1h0c0,0,0,0.1,0,0.1
		c-0.3,0.8-0.7,1.5-1.1,2.2c-0.2,0.4-0.5,0.9-0.7,1.3c-0.2,0.3-0.4,0.6-0.6,0.9c-0.8,1.3-1.6,2.5-2.6,3.7c-0.4,0.5-0.8,1-1.2,1.5
		c-0.1,0.1-0.1,0.2-0.2,0.2c-1.1,1.2-2.2,2.3-3.4,3.3c-0.2,0.2-0.5,0.4-0.7,0.6c-1.3,1.1-2.8,2.1-4.3,3h0c-1.9,1.1-3.9,2.1-5.9,2.9
		c-0.4,0.1-0.8,0.3-1.2,0.4c-0.3,0.1-0.7,0.2-1,0.3c-0.3,0.1-0.5,0.2-0.8,0.2c-3.2,0.9-6.5,1.4-9.9,1.4c-2.5,0-4.8-0.2-7.2-0.7
		c-1.5-0.3-2.9-0.7-4.4-1.2c-0.8-0.3-1.5-0.5-2.3-0.9c-0.5-0.2-1.1-0.5-1.6-0.7c-0.6-0.3-1.3-0.6-1.9-1c-0.3-0.2-0.7-0.4-1-0.6
		c-0.1,0-0.2-0.1-0.3-0.2c0,0-0.1-0.1-0.1-0.1h0c-0.1-0.1-0.2-0.1-0.4-0.2c-0.5-0.3-0.9-0.6-1.4-0.9c0,0,0,0-0.1,0
		c-0.2-0.1-0.4-0.3-0.6-0.5c0,0,0,0,0,0c-1.4-1-2.7-2.1-3.9-3.2C19.2,81.2,18,80,17,78.7c-0.1-0.1-0.2-0.3-0.3-0.4
		c-0.6-0.7-1.1-1.4-1.6-2.2c0,0-0.1-0.1-0.1-0.1c-0.5-0.8-1.1-1.6-1.5-2.5c-0.1-0.3-0.3-0.5-0.4-0.8c-0.1-0.1-0.1-0.2-0.2-0.3
		c0,0,0-0.1,0-0.1c-0.1-0.1-0.1-0.2-0.2-0.3c0-0.1-0.1-0.1-0.1-0.2c-0.2-0.5-0.4-0.9-0.6-1.4c9,0.2,24.8-0.9,40.5-8.7
		c14.5-7.1,22.1-15.9,25.9-22.2c0.2,0.3,0.3,0.6,0.4,0.9c0,0,0,0.1,0.1,0.1c0.1,0.2,0.1,0.3,0.2,0.5c0.1,0.3,0.2,0.5,0.3,0.8
		c0.4,1,0.8,2.1,1.1,3.2c0.1,0.3,0.2,0.7,0.3,1c0.1,0.4,0.2,0.7,0.3,1.1c0,0.1,0,0.2,0.1,0.3c0.1,0.3,0.1,0.5,0.2,0.8
		c0,0.1,0,0.2,0.1,0.4c0,0.1,0,0.2,0.1,0.3c0,0.1,0,0.2,0.1,0.3c0.2,0.8,0.3,1.7,0.4,2.5c0,0.3,0.1,0.7,0.1,1c0,0.3,0,0.5,0.1,0.8
		c0,0.3,0,0.5,0,0.8v0.1c0,0.3,0,0.5,0,0.8C82.1,55.3,82.1,55.4,82.1,55.5z"/>
	<defs>
		<filter id="Adobe_OpacityMaskFilter_10_" filterUnits="userSpaceOnUse" x="25.1" y="23.5" width="57" height="68.6">
			<feFlood  style="flood-color:white;flood-opacity:1" result="back"/>
			<feBlend  in="SourceGraphic" in2="back" mode="normal"/>
		</filter>
	</defs>
	<mask maskUnits="userSpaceOnUse" x="25.1" y="23.5" width="57" height="68.6" id="SVGID_18_">
		<g class="st25">
			<defs>
				<filter id="Adobe_OpacityMaskFilter_11_" filterUnits="userSpaceOnUse" x="25.1" y="23.5" width="57" height="68.6">
					<feFlood  style="flood-color:white;flood-opacity:1" result="back"/>
					<feBlend  in="SourceGraphic" in2="back" mode="normal"/>
				</filter>
			</defs>
			<mask maskUnits="userSpaceOnUse" x="25.1" y="23.5" width="57" height="68.6" id="SVGID_18_">
				<g class="st26">
				</g>
			</mask>
			<linearGradient id="SVGID_19_" gradientUnits="userSpaceOnUse" x1="75.1278" y1="77.0248" x2="42.0214" y2="52.9716">
				<stop  offset="0" style="stop-color:#FFFFFF"/>
				<stop  offset="1" style="stop-color:#000000"/>
			</linearGradient>
			<path class="st27" d="M82.1,55.5c0,0.3,0,0.6,0,1c0,0.3,0,0.5,0,0.8c0,0.3,0,0.6-0.1,1c0,0.1,0,0.3,0,0.4c0,0.2,0,0.4-0.1,0.6
				c0,0.2,0,0.4-0.1,0.6c0,0.1,0,0.3-0.1,0.4c0,0.1,0,0.3-0.1,0.4c-0.5,3.3-1.4,6.5-2.7,9.5h0c-0.3,0.7-0.7,1.4-1,2.1
				c-0.2,0.4-0.5,0.9-0.7,1.3c-0.2,0.3-0.4,0.7-0.6,1c-0.8,1.3-1.6,2.5-2.6,3.7c-0.5,0.6-1,1.2-1.5,1.7c-1.3,1.4-2.7,2.7-4.1,3.9
				c-1.4,1.1-2.8,2.1-4.3,3c-1.8,1.1-3.8,2-5.8,2.8c-0.4,0.1-0.8,0.3-1.2,0.4c-0.4,0.1-0.8,0.3-1.2,0.4c-0.2,0.1-0.4,0.1-0.6,0.2
				c-3.2,0.9-6.5,1.4-9.9,1.4c-4,0-7.9-0.6-11.5-1.8c-0.8-0.3-1.5-0.5-2.3-0.9c-1.2-0.5-2.4-1.1-3.5-1.7c-0.3-0.2-0.7-0.4-1-0.6
				c-0.1,0-0.1-0.1-0.2-0.1c0,0-0.1,0-0.1-0.1c-0.2-0.1-0.3-0.2-0.5-0.3c-0.4-0.2-0.8-0.5-1.2-0.8c0.2,0.1,0.5,0.3,0.8,0.4
				c0.6,0.3,1.2,0.6,1.7,0.9c0.6,0.3,1.2,0.5,1.8,0.8c0.8,0.3,1.5,0.6,2.3,0.9c3.6,1.2,7.5,1.8,11.5,1.8c2,0,4-0.2,5.9-0.5
				c1.4-0.2,2.7-0.5,4-0.9c0.6-0.2,1.2-0.4,1.8-0.6c0.4-0.1,0.8-0.3,1.2-0.4c0.7-0.3,1.5-0.6,2.2-0.9h0c2.3-1.1,4.5-2.4,6.6-3.9h0
				c1.3-1,2.6-2.1,3.8-3.2h0c0.6-0.6,1.1-1.1,1.7-1.7c0.9-1,1.7-2,2.5-3.1c0.8-1.1,1.5-2.2,2.1-3.3c0.2-0.4,0.5-0.8,0.7-1.3
				c0,0,0,0,0-0.1c1.5-2.9,2.6-6.1,3.3-9.4c0-0.2,0.1-0.4,0.1-0.6c0.1-0.7,0.2-1.4,0.3-2.1c0-0.1,0-0.2,0-0.2
				c0.1-0.4,0.1-0.8,0.1-1.3c0.1-0.7,0.1-1.5,0.1-2.2c0-0.2,0-0.4,0-0.6c0-0.1,0-0.2,0-0.3c0-0.1,0-0.3,0-0.4c0-0.3,0-0.6,0-1v0
				c0-0.3,0-0.5,0-0.8c0-0.6-0.1-1.3-0.2-1.9c0-0.3-0.1-0.7-0.1-1c-0.1-0.6-0.2-1.2-0.3-1.8c0-0.1,0-0.2-0.1-0.3
				c0-0.1,0-0.2-0.1-0.4c-0.4-2-1-3.8-1.7-5.7c-0.1-0.2-0.2-0.4-0.2-0.6c-0.2-0.4-0.3-0.8-0.5-1.2c-0.2-0.5-0.4-1-0.7-1.4
				c-0.3-0.5-0.5-1.1-0.8-1.6c-0.2-0.4-0.4-0.8-0.7-1.2c-0.2-0.3-0.4-0.6-0.5-0.9c0,0,0,0,0,0c-0.1-0.1-0.2-0.3-0.3-0.4
				c-0.1-0.1-0.2-0.3-0.3-0.4c-0.1-0.2-0.3-0.4-0.4-0.6c-0.1-0.1-0.1-0.2-0.2-0.3c0-0.1-0.1-0.1-0.1-0.2c-0.4-0.6-0.9-1.1-1.3-1.7
				c0-0.1-0.1-0.1-0.2-0.2L71,30.2c-0.5-0.5-0.9-1-1.4-1.5c-0.1-0.1-0.2-0.2-0.3-0.3l0,0c-0.7-0.7-1.4-1.3-2.1-1.9
				c-0.1-0.1-0.2-0.2-0.3-0.3c-0.2-0.1-0.3-0.3-0.5-0.4c-0.3-0.2-0.6-0.5-0.9-0.7c-0.1-0.1-0.2-0.1-0.2-0.2h0
				c-0.1-0.1-0.3-0.2-0.4-0.3c0,0,0,0,0,0c-0.2-0.2-0.5-0.4-0.7-0.5c0,0,0,0-0.1,0c-0.2-0.2-0.5-0.3-0.7-0.5
				c1.3,0.7,2.5,1.5,3.7,2.4c0,0,0,0,0,0c0.1,0.1,0.3,0.2,0.4,0.3h0c0.1,0.1,0.2,0.1,0.2,0.2c0.3,0.2,0.6,0.5,0.9,0.7
				c0.2,0.1,0.3,0.3,0.5,0.4c0.1,0.1,0.2,0.2,0.3,0.3c0.7,0.6,1.4,1.3,2.1,1.9l0,0c0.1,0.1,0.2,0.2,0.3,0.3c0.1,0.1,0.2,0.2,0.3,0.4
				c0.4,0.4,0.7,0.8,1.1,1.2l0.1,0.1c0.4,0.5,0.8,1,1.2,1.5c0.1,0.1,0.2,0.2,0.3,0.4c0,0.1,0.1,0.1,0.1,0.2c0.1,0.1,0.1,0.2,0.2,0.3
				c0.2,0.3,0.4,0.5,0.6,0.8c0.1,0.1,0.1,0.1,0.1,0.2c0.1,0.1,0.2,0.3,0.3,0.4c0,0,0,0,0,0c0.1,0.2,0.2,0.4,0.4,0.6
				c0.3,0.5,0.6,1,0.9,1.5c0.2,0.4,0.5,0.9,0.7,1.3c0.3,0.6,0.6,1.1,0.8,1.7c0.2,0.4,0.3,0.8,0.5,1.2c0.7,1.7,1.3,3.5,1.7,5.3
				c0.1,0.3,0.1,0.6,0.2,1c0,0.1,0,0.2,0.1,0.4c0,0.1,0.1,0.3,0.1,0.4c0.2,0.9,0.3,1.8,0.4,2.7c0,0.4,0.1,0.7,0.1,1.1
				c0,0.2,0,0.5,0.1,0.8c0,0.3,0,0.5,0,0.8v0.1c0,0,0,0.1,0,0.1c0,0.3,0,0.5,0,0.8C82.1,55.2,82.1,55.4,82.1,55.5z"/>
		</g>
	</mask>
	<linearGradient id="SVGID_20_" gradientUnits="userSpaceOnUse" x1="75.1278" y1="77.0248" x2="42.0214" y2="52.9716">
		<stop  offset="0" style="stop-color:#FFFFFF"/>
		<stop  offset="1" style="stop-color:#FFFFFF"/>
	</linearGradient>
	<path class="st28" d="M82.1,55.5c0,0.3,0,0.6,0,1c0,0.3,0,0.5,0,0.8c0,0.3,0,0.6-0.1,1c0,0.1,0,0.3,0,0.4c0,0.2,0,0.4-0.1,0.6
		c0,0.2,0,0.4-0.1,0.6c0,0.1,0,0.3-0.1,0.4c0,0.1,0,0.3-0.1,0.4c-0.5,3.3-1.4,6.5-2.7,9.5h0c-0.3,0.7-0.7,1.4-1,2.1
		c-0.2,0.4-0.5,0.9-0.7,1.3c-0.2,0.3-0.4,0.7-0.6,1c-0.8,1.3-1.6,2.5-2.6,3.7c-0.5,0.6-1,1.2-1.5,1.7c-1.3,1.4-2.7,2.7-4.1,3.9
		c-1.4,1.1-2.8,2.1-4.3,3c-1.8,1.1-3.8,2-5.8,2.8c-0.4,0.1-0.8,0.3-1.2,0.4c-0.4,0.1-0.8,0.3-1.2,0.4c-0.2,0.1-0.4,0.1-0.6,0.2
		c-3.2,0.9-6.5,1.4-9.9,1.4c-4,0-7.9-0.6-11.5-1.8c-0.8-0.3-1.5-0.5-2.3-0.9c-1.2-0.5-2.4-1.1-3.5-1.7c-0.3-0.2-0.7-0.4-1-0.6
		c-0.1,0-0.1-0.1-0.2-0.1c0,0-0.1,0-0.1-0.1c-0.2-0.1-0.3-0.2-0.5-0.3c-0.4-0.2-0.8-0.5-1.2-0.8c0.2,0.1,0.5,0.3,0.8,0.4
		c0.6,0.3,1.2,0.6,1.7,0.9c0.6,0.3,1.2,0.5,1.8,0.8c0.8,0.3,1.5,0.6,2.3,0.9c3.6,1.2,7.5,1.8,11.5,1.8c2,0,4-0.2,5.9-0.5
		c1.4-0.2,2.7-0.5,4-0.9c0.6-0.2,1.2-0.4,1.8-0.6c0.4-0.1,0.8-0.3,1.2-0.4c0.7-0.3,1.5-0.6,2.2-0.9h0c2.3-1.1,4.5-2.4,6.6-3.9h0
		c1.3-1,2.6-2.1,3.8-3.2h0c0.6-0.6,1.1-1.1,1.7-1.7c0.9-1,1.7-2,2.5-3.1c0.8-1.1,1.5-2.2,2.1-3.3c0.2-0.4,0.5-0.8,0.7-1.3
		c0,0,0,0,0-0.1c1.5-2.9,2.6-6.1,3.3-9.4c0-0.2,0.1-0.4,0.1-0.6c0.1-0.7,0.2-1.4,0.3-2.1c0-0.1,0-0.2,0-0.2c0.1-0.4,0.1-0.8,0.1-1.3
		c0.1-0.7,0.1-1.5,0.1-2.2c0-0.2,0-0.4,0-0.6c0-0.1,0-0.2,0-0.3c0-0.1,0-0.3,0-0.4c0-0.3,0-0.6,0-1v0c0-0.3,0-0.5,0-0.8
		c0-0.6-0.1-1.3-0.2-1.9c0-0.3-0.1-0.7-0.1-1c-0.1-0.6-0.2-1.2-0.3-1.8c0-0.1,0-0.2-0.1-0.3c0-0.1,0-0.2-0.1-0.4
		c-0.4-2-1-3.8-1.7-5.7c-0.1-0.2-0.2-0.4-0.2-0.6c-0.2-0.4-0.3-0.8-0.5-1.2c-0.2-0.5-0.4-1-0.7-1.4c-0.3-0.5-0.5-1.1-0.8-1.6
		c-0.2-0.4-0.4-0.8-0.7-1.2c-0.2-0.3-0.4-0.6-0.5-0.9c0,0,0,0,0,0c-0.1-0.1-0.2-0.3-0.3-0.4c-0.1-0.1-0.2-0.3-0.3-0.4
		c-0.1-0.2-0.3-0.4-0.4-0.6c-0.1-0.1-0.1-0.2-0.2-0.3c0-0.1-0.1-0.1-0.1-0.2c-0.4-0.6-0.9-1.1-1.3-1.7c0-0.1-0.1-0.1-0.2-0.2
		L71,30.2c-0.5-0.5-0.9-1-1.4-1.5c-0.1-0.1-0.2-0.2-0.3-0.3l0,0c-0.7-0.7-1.4-1.3-2.1-1.9c-0.1-0.1-0.2-0.2-0.3-0.3
		c-0.2-0.1-0.3-0.3-0.5-0.4c-0.3-0.2-0.6-0.5-0.9-0.7c-0.1-0.1-0.2-0.1-0.2-0.2h0c-0.1-0.1-0.3-0.2-0.4-0.3c0,0,0,0,0,0
		c-0.2-0.2-0.5-0.4-0.7-0.5c0,0,0,0-0.1,0c-0.2-0.2-0.5-0.3-0.7-0.5c1.3,0.7,2.5,1.5,3.7,2.4c0,0,0,0,0,0c0.1,0.1,0.3,0.2,0.4,0.3h0
		c0.1,0.1,0.2,0.1,0.2,0.2c0.3,0.2,0.6,0.5,0.9,0.7c0.2,0.1,0.3,0.3,0.5,0.4c0.1,0.1,0.2,0.2,0.3,0.3c0.7,0.6,1.4,1.3,2.1,1.9l0,0
		c0.1,0.1,0.2,0.2,0.3,0.3c0.1,0.1,0.2,0.2,0.3,0.4c0.4,0.4,0.7,0.8,1.1,1.2l0.1,0.1c0.4,0.5,0.8,1,1.2,1.5c0.1,0.1,0.2,0.2,0.3,0.4
		c0,0.1,0.1,0.1,0.1,0.2c0.1,0.1,0.1,0.2,0.2,0.3c0.2,0.3,0.4,0.5,0.6,0.8c0.1,0.1,0.1,0.1,0.1,0.2c0.1,0.1,0.2,0.3,0.3,0.4
		c0,0,0,0,0,0c0.1,0.2,0.2,0.4,0.4,0.6c0.3,0.5,0.6,1,0.9,1.5c0.2,0.4,0.5,0.9,0.7,1.3c0.3,0.6,0.6,1.1,0.8,1.7
		c0.2,0.4,0.3,0.8,0.5,1.2c0.7,1.7,1.3,3.5,1.7,5.3c0.1,0.3,0.1,0.6,0.2,1c0,0.1,0,0.2,0.1,0.4c0,0.1,0.1,0.3,0.1,0.4
		c0.2,0.9,0.3,1.8,0.4,2.7c0,0.4,0.1,0.7,0.1,1.1c0,0.2,0,0.5,0.1,0.8c0,0.3,0,0.5,0,0.8v0.1c0,0,0,0.1,0,0.1c0,0.3,0,0.5,0,0.8
		C82.1,55.2,82.1,55.4,82.1,55.5z"/>
</g>
</svg>
