<?xml version="1.0" encoding="utf-8"?>
<!-- Generator: Adobe Illustrator 22.1.0, SVG Export Plug-In . SVG Version: 6.00 Build 0)  -->
<svg version="1.1" id="Layer_1" xmlns="http://www.w3.org/2000/svg" xmlns:xlink="http://www.w3.org/1999/xlink" x="0px" y="0px"
	 viewBox="0 0 85.3 107.1" style="enable-background:new 0 0 85.3 107.1;" xml:space="preserve">
<style type="text/css">
	.st0{fill:url(#SVGID_1_);}
	.st1{opacity:0.2;fill:#00008A;}
	.st2{opacity:0.2;fill:url(#SVGID_2_);}
	.st3{opacity:0.2;fill:url(#SVGID_3_);}
	.st4{fill:#00008A;}
	.st5{opacity:0.2;fill:url(#SVGID_4_);}
	.st6{opacity:0.2;fill:url(#SVGID_5_);}
	.st7{opacity:0.2;fill:url(#SVGID_6_);}
	.st8{opacity:0.2;fill:url(#SVGID_7_);}
	.st9{opacity:0.2;fill:url(#SVGID_8_);}
	.st10{opacity:0.2;fill:url(#SVGID_9_);}
	.st11{opacity:0.2;fill:url(#SVGID_10_);}
	.st12{filter:url(#Adobe_OpacityMaskFilter);}
	.st13{filter:url(#Adobe_OpacityMaskFilter_1_);}
	.st14{mask:url(#SVGID_11_);fill:url(#SVGID_12_);}
	.st15{opacity:0.94;fill:url(#SVGID_13_);}
	.st16{opacity:0.8;fill:#FFFFFF;}
	.st17{opacity:0.2;fill:url(#SVGID_14_);}
	.st18{opacity:0.2;fill:url(#SVGID_15_);}
	.st19{opacity:0.2;fill:url(#SVGID_16_);}
	.st20{opacity:0.2;fill:url(#SVGID_17_);}
	.st21{opacity:0.2;fill:url(#SVGID_18_);}
	.st22{opacity:0.2;fill:url(#SVGID_19_);}
	.st23{opacity:0.2;fill:url(#SVGID_20_);}
	.st24{opacity:0.2;fill:url(#SVGID_21_);}
	.st25{opacity:0.2;fill:url(#SVGID_22_);}
	.st26{opacity:0.2;fill:url(#SVGID_23_);}
	.st27{opacity:0.2;fill:url(#SVGID_24_);}
	.st28{opacity:0.2;fill:url(#SVGID_25_);}
	.st29{opacity:0.2;fill:url(#SVGID_26_);}
	.st30{opacity:0.2;fill:url(#SVGID_27_);}
	.st31{opacity:0.2;fill:url(#SVGID_28_);}
	.st32{opacity:0.2;fill:url(#SVGID_29_);}
	.st33{opacity:0.2;fill:url(#SVGID_30_);}
	.st34{fill:url(#SVGID_31_);}
	.st35{opacity:0.2;fill:url(#SVGID_32_);}
	.st36{opacity:0.2;fill:url(#SVGID_33_);}
	.st37{opacity:0.2;fill:url(#SVGID_34_);}
	.st38{opacity:0.2;fill:url(#SVGID_35_);}
	.st39{opacity:0.2;fill:url(#SVGID_36_);}
	.st40{opacity:0.59;fill:#000080;}
	.st41{filter:url(#Adobe_OpacityMaskFilter_2_);}
	.st42{filter:url(#Adobe_OpacityMaskFilter_3_);}
	.st43{mask:url(#SVGID_37_);fill:url(#SVGID_38_);}
	.st44{opacity:0.6;fill:url(#SVGID_39_);}
	.st45{filter:url(#Adobe_OpacityMaskFilter_4_);}
	.st46{filter:url(#Adobe_OpacityMaskFilter_5_);}
	.st47{mask:url(#SVGID_40_);fill:url(#SVGID_41_);}
	.st48{filter:url(#Adobe_OpacityMaskFilter_6_);}
	.st49{filter:url(#Adobe_OpacityMaskFilter_7_);}
	.st50{mask:url(#SVGID_42_);fill:url(#SVGID_43_);}
	.st51{opacity:0.78;fill:url(#SVGID_44_);}
	.st52{filter:url(#Adobe_OpacityMaskFilter_8_);}
	.st53{filter:url(#Adobe_OpacityMaskFilter_9_);}
	.st54{mask:url(#SVGID_45_);fill:url(#SVGID_46_);}
	.st55{filter:url(#Adobe_OpacityMaskFilter_10_);}
	.st56{filter:url(#Adobe_OpacityMaskFilter_11_);}
	.st57{mask:url(#SVGID_47_);fill:url(#SVGID_48_);}
	.st58{opacity:0.78;fill:url(#SVGID_49_);}
</style>
<g>
	<radialGradient id="SVGID_1_" cx="31.9681" cy="40.5989" r="38.7615" gradientUnits="userSpaceOnUse">
		<stop  offset="0.1651" style="stop-color:#15D49F"/>
		<stop  offset="1" style="stop-color:#003AA6"/>
	</radialGradient>
	<path class="st0" d="M85.3,59.5c0,0.3,0,0.7,0,1c0,0.3,0,0.6,0,0.8c0,0.3,0,0.7-0.1,1c0,0.2,0,0.3,0,0.5c0,0.2,0,0.5-0.1,0.7
		c0,0.3,0,0.5-0.1,0.8c0,0.1,0,0.3-0.1,0.4c0,0.1,0,0.3-0.1,0.4c-0.5,3.5-1.5,6.9-2.8,10c-0.3,0.8-0.7,1.6-1.1,2.3
		c-0.2,0.5-0.5,0.9-0.7,1.3c-0.2,0.3-0.4,0.7-0.6,1c-0.8,1.4-1.7,2.7-2.7,3.9c-0.5,0.6-1,1.2-1.5,1.8c-1.3,1.5-2.8,2.9-4.4,4.1
		c-1.4,1.2-2.9,2.2-4.5,3.2h0c-2,1.2-4.1,2.2-6.3,3.1c-0.4,0.2-0.8,0.3-1.2,0.4c-0.4,0.1-0.7,0.2-1.1,0.3c-0.3,0.1-0.6,0.2-0.9,0.3
		c-3.3,0.9-6.9,1.4-10.5,1.4c-4.3,0-8.3-0.7-12.2-2c-0.8-0.3-1.6-0.6-2.4-0.9c-1.3-0.5-2.5-1.1-3.7-1.8c-0.4-0.2-0.7-0.4-1-0.6
		c-0.1,0-0.2-0.1-0.3-0.2c0,0-0.1-0.1-0.1-0.1h0c-0.1-0.1-0.3-0.1-0.4-0.2c-0.5-0.3-1-0.6-1.4-0.9c0,0,0,0-0.1,0
		c-0.2-0.2-0.4-0.3-0.7-0.5c0,0,0,0,0,0c-1.5-1-2.8-2.2-4.1-3.4c-1.3-1.2-2.4-2.5-3.5-3.8c-0.1-0.1-0.2-0.3-0.3-0.4
		c-0.6-0.7-1.2-1.5-1.7-2.3c0,0-0.1-0.1-0.1-0.1c-0.6-0.9-1.1-1.7-1.6-2.6c-0.1-0.3-0.3-0.5-0.4-0.8c-0.1-0.1-0.1-0.2-0.2-0.4
		c0,0,0-0.1-0.1-0.1c-0.1-0.1-0.1-0.2-0.2-0.3c-1.9-3.7-3.1-7.8-3.7-12.1C8.1,64.3,8,63.9,8,63.4c-0.1-0.5-0.1-1-0.1-1.6
		c0-0.2,0-0.3,0-0.5c0-0.2,0-0.4,0-0.6c0-0.4,0-0.8,0-1.2c0-0.2,0-0.4,0-0.7c0-0.1,0-0.2,0-0.3c0-0.7,0-1.3,0.1-2
		c0-0.3,0-0.5,0.1-0.8C8,55.4,8,55,8.1,54.6v0c0-0.4,0.1-0.7,0.2-1.1c0-0.2,0-0.3,0.1-0.4c0.1-0.4,0.1-0.8,0.2-1.2v0
		c0-0.2,0.1-0.5,0.1-0.7C8.8,50.6,9,50,9.1,49.4v0c0-0.1,0.1-0.2,0.1-0.3c0-0.2,0.1-0.3,0.1-0.5c0.1-0.5,0.3-0.9,0.4-1.4
		c0.3-0.9,0.6-1.8,1-2.6v0c0.3-0.8,0.7-1.5,1-2.3c0,0,0,0,0-0.1c0.1-0.3,0.3-0.5,0.4-0.8c0,0,0,0,0,0c0.1-0.1,0.1-0.3,0.2-0.4
		c2.4-4.4,5.7-8.4,9.6-11.5c2.7-2.2,5.7-4.1,9-5.5c0,0,0,0,0.1,0c4.7-2.1,9.9-3.2,15.4-3.2c0.1,0,0.3,0,0.5,0
		c6.3,0.1,12.2,1.6,17.4,4.3c0,0,0,0,0,0c0.6,0.3,1.2,0.7,1.8,1c0,0,0,0,0.1,0c1.1,0.6,2.1,1.3,3.1,2.1c0,0,0,0,0,0
		c0.2,0.1,0.3,0.2,0.5,0.3h0c0.1,0.1,0.2,0.1,0.3,0.2c0.3,0.2,0.6,0.5,0.9,0.7c0.2,0.1,0.3,0.3,0.5,0.4c0.1,0.1,0.2,0.2,0.3,0.3
		c0.8,0.7,1.5,1.3,2.2,2.1l0,0c0.1,0.1,0.2,0.2,0.3,0.3c0.1,0.1,0.2,0.2,0.3,0.3c0.3,0.3,0.5,0.6,0.8,0.9l0.6,0.7
		c0.4,0.4,0.7,0.9,1.1,1.3c0.1,0.1,0.2,0.3,0.4,0.5c0.1,0.1,0.1,0.1,0.2,0.2c0.1,0.1,0.1,0.2,0.2,0.3c0.2,0.3,0.4,0.5,0.6,0.8
		c0.1,0.1,0.1,0.2,0.2,0.3c0.1,0.1,0.2,0.3,0.3,0.4c0,0,0,0,0,0c0.1,0.1,0.2,0.3,0.3,0.4c0,0,0.1,0.1,0.1,0.1c0.3,0.5,0.6,1,0.9,1.6
		c0.1,0.1,0.1,0.2,0.2,0.3c0.2,0.4,0.4,0.7,0.6,1.1c0.1,0.2,0.2,0.3,0.2,0.5c0.2,0.4,0.4,0.8,0.6,1.2c0,0,0,0.1,0.1,0.1
		c0.1,0.2,0.2,0.3,0.2,0.5c0.1,0.3,0.2,0.5,0.3,0.8c0.6,1.4,1.1,2.9,1.5,4.4c0.1,0.4,0.2,0.7,0.3,1.1c0,0.1,0,0.2,0.1,0.3
		c0.1,0.3,0.1,0.5,0.2,0.8c0,0.1,0.1,0.2,0.1,0.4c0,0.1,0,0.2,0.1,0.3c0.2,1,0.3,2,0.4,3c0,0.4,0.1,0.7,0.1,1.1c0,0.3,0,0.6,0.1,0.9
		c0,0.3,0,0.6,0,0.8v0.1c0,0.3,0,0.5,0,0.8C85.3,59.2,85.3,59.3,85.3,59.5z"/>
	<path class="st1" d="M84.9,65.1c-0.5,3.5-1.5,6.9-2.8,10c0,0,0,0,0,0h0c-1,0.2-2.1,0.5-3.4,0.8c-6.8,1.4-17.8,3.2-32.1,3.6
		c-13.9,0.4-26.4-0.8-34.3-1.8c-0.1-0.2-0.2-0.3-0.2-0.5c-0.1-0.1-0.1-0.2-0.2-0.3c-1.9-3.7-3.1-7.8-3.7-12.1
		c7.9,3.2,22.7,7.9,39.6,7c14.8-0.8,26.9-3.6,34.5-5.8C83.2,65.6,84.1,65.3,84.9,65.1C84.9,65.1,84.9,65.1,84.9,65.1z"/>
	<path class="st1" d="M85.3,59.5c0,0.3,0,0.7,0,1c0,0.3,0,0.6,0,0.8c-0.7,0-1.5,0.1-2.4,0.1C76,61.7,62.7,62.1,46.6,62
		c-17-0.1-31.8-0.4-38.7-0.6c0-0.2,0-0.4,0-0.6c0-0.4,0-0.8,0-1.2c0-0.2,0-0.4,0-0.7c8.2,0.3,23.7,0.9,38.8,0.8
		c15.2-0.1,29.3-0.9,36.4-1.3c0.9-0.1,1.7-0.1,2.3-0.2c0,0,0,0,0,0c0,0.3,0,0.5,0,0.8C85.3,59.2,85.3,59.3,85.3,59.5z"/>
	<linearGradient id="SVGID_2_" gradientUnits="userSpaceOnUse" x1="33.9805" y1="44.3197" x2="59.1867" y2="81.9407">
		<stop  offset="0" style="stop-color:#FFFFFF"/>
		<stop  offset="1" style="stop-color:#FFFFFF"/>
	</linearGradient>
	<path class="st2" d="M85.2,62.8c0,0.2,0,0.5-0.1,0.7c0,0.3,0,0.5-0.1,0.8c0,0.1,0,0.3-0.1,0.4l0,0c-0.6,0.1-1.5,0.3-2.7,0.6
		c-6.4,1.3-20.7,3.7-38.4,3.3C23.3,68.1,11.2,64.5,8,63.4c-0.1-0.5-0.1-1-0.1-1.6c4.2,0.5,16.6,1.9,38.4,2c19.2,0.2,31-0.5,36.3-0.8
		C83.8,62.9,84.6,62.9,85.2,62.8C85.2,62.8,85.2,62.8,85.2,62.8z"/>
	<linearGradient id="SVGID_3_" gradientUnits="userSpaceOnUse" x1="38.2267" y1="71.6244" x2="56.704" y2="99.2022">
		<stop  offset="0" style="stop-color:#FFFFFF"/>
		<stop  offset="1" style="stop-color:#FFFFFF"/>
	</linearGradient>
	<path class="st3" d="M75.4,85.5c-1.3,1.5-2.8,2.9-4.4,4.1c0,0-0.1,0-0.1,0c-1.1-0.1-2.4-0.2-3.8-0.3c-5.4-0.4-12-0.4-17.4,1
		c-11,2.9-32.8-0.2-29.6-6.3c2.6-4.8,23.6,0.5,34.6,1.8c5,0.6,11.2,0.4,16.4,0C72.7,85.7,74.1,85.6,75.4,85.5
		C75.3,85.5,75.4,85.5,75.4,85.5z"/>
	<path class="st4" d="M22.5,85.4c-2.4,3.2,21.6,4.8,23.6,2.8C48.2,86.2,26.7,79.9,22.5,85.4z"/>
	<linearGradient id="SVGID_4_" gradientUnits="userSpaceOnUse" x1="37.1847" y1="65.7946" x2="57.7469" y2="96.4842">
		<stop  offset="0" style="stop-color:#FFFFFF"/>
		<stop  offset="1" style="stop-color:#FFFFFF"/>
	</linearGradient>
	<path class="st5" d="M79.6,79.7c-0.8,1.4-1.7,2.7-2.7,3.9c0,0,0,0-0.1,0c-1.3,0.2-2.6,0.3-3.9,0.4c-10.4,0.6-19.9-1.2-34.9-2.3
		c-10.5-0.8-17.7,0.5-21.9,1.9c-0.6-0.7-1.2-1.5-1.7-2.3c0,0-0.1-0.1-0.1-0.1c14.1-2.2,30.7,0.4,46.4,1.1c5.1,0.2,10.2-0.5,14.8-1.5
		C77,80.4,78.3,80.1,79.6,79.7C79.6,79.8,79.6,79.7,79.6,79.7z"/>
	<linearGradient id="SVGID_5_" gradientUnits="userSpaceOnUse" x1="38.3942" y1="81.6216" x2="52.2619" y2="102.3196">
		<stop  offset="0" style="stop-color:#FFFFFF"/>
		<stop  offset="1" style="stop-color:#FFFFFF"/>
	</linearGradient>
	<path class="st6" d="M66.5,92.8c-2,1.2-4.1,2.2-6.3,3.1c-0.4,0.2-0.8,0.3-1.2,0.4c-0.4,0.1-0.7,0.2-1.1,0.3c-0.1,0-0.1,0-0.2,0
		c-2.2-0.1-4.6-0.1-7.2-0.3c-3.1-0.2-6.6-0.5-10.2-0.9c-5.2-0.6-9.4-1.4-12.6-2.3c-0.2-0.1-0.5-0.1-0.7-0.2c-0.1,0-0.2,0-0.2-0.1h0
		c-0.1-0.1-0.3-0.1-0.4-0.2c-0.5-0.3-1-0.6-1.4-0.9c0,0,0,0-0.1,0c-0.2-0.2-0.4-0.3-0.7-0.5c4.3,1.1,10.9,2.4,20.1,2.5
		c6.5,0.1,11.8-0.1,15.9-0.4h0c2.5-0.2,4.5-0.4,6.1-0.6C66.4,92.8,66.5,92.8,66.5,92.8z"/>
	<linearGradient id="SVGID_6_" gradientUnits="userSpaceOnUse" x1="33.7104" y1="21.704" x2="55.7851" y2="54.6511">
		<stop  offset="0" style="stop-color:#FFFFFF"/>
		<stop  offset="1" style="stop-color:#FFFFFF"/>
	</linearGradient>
	<path class="st7" d="M79.4,38.9L79.4,38.9c-0.4,0-0.9,0.1-1.4,0.1C71,39.5,53.2,40.8,36,41.5c-12.8,0.5-19.9,0.1-23.5-0.4
		c2.4-4.4,5.7-8.4,9.6-11.5c5.4-0.2,12.5,0.2,21.4,1.7c14.4,2.5,24.7,2.3,30.4,1.8c0.3,0,0.6-0.1,0.9-0.1c0,0,0.1,0,0.1,0l0.7,0.9
		l0.6,0.7l1.1,1.3h-0.1c-0.4,0-0.8,0-1.2,0.1C72,36,66,36,57.6,35.4c-17.4-1.3-22.8-3-30-1.5C20.5,35.4,17,39.8,17,39.8
		s3,1.1,23,0.6c15.5-0.4,31-2,37.1-2.7c0.5-0.1,0.9-0.1,1.3-0.1h0c0.1,0.1,0.1,0.1,0.1,0.2c0.1,0.1,0.2,0.3,0.3,0.4c0,0,0,0,0,0
		C79.1,38.4,79.2,38.6,79.4,38.9z"/>
	<linearGradient id="SVGID_7_" gradientUnits="userSpaceOnUse" x1="35.6212" y1="54.0229" x2="50.7405" y2="76.5889">
		<stop  offset="0" style="stop-color:#FFFFFF"/>
		<stop  offset="1" style="stop-color:#FFFFFF"/>
	</linearGradient>
	<path class="st8" d="M19.9,64.6c0,0,13.9,0.4,25.5,0.6c11.6,0.2,21.1,1,21.1,1s-9.8,2.8-24.1,1.8C28.2,66.9,19.9,64.6,19.9,64.6z"
		/>
	<linearGradient id="SVGID_8_" gradientUnits="userSpaceOnUse" x1="33.1579" y1="79.8236" x2="43.4127" y2="95.1293">
		<stop  offset="0" style="stop-color:#FFFFFF"/>
		<stop  offset="1" style="stop-color:#FFFFFF"/>
	</linearGradient>
	<path class="st9" d="M22.4,87.1c0,0,3,1.8,10.7,2.6c7.7,0.8,21.2-1.8,21.2-1.8s-10.6,3.6-21,2.8C25.5,90.1,22.4,87.1,22.4,87.1z"/>
	<linearGradient id="SVGID_9_" gradientUnits="userSpaceOnUse" x1="46.4715" y1="41.7156" x2="65.2505" y2="69.7439">
		<stop  offset="0" style="stop-color:#FFFFFF"/>
		<stop  offset="1" style="stop-color:#FFFFFF"/>
	</linearGradient>
	<path class="st10" d="M85.2,56.4L85.2,56.4c-0.6,0.1-1.4,0.1-2.2,0.2c-4.2,0.3-10.9,0.7-20.6,0.9c-18.4,0.4-37.8-0.9-37.3-1.4
		c0.5-0.5,17.5,0.1,34.8-0.9c10.7-0.6,18.4-1.7,22.7-2.5c0.8-0.1,1.5-0.3,2-0.4c0,0,0,0,0,0c0.2,1,0.3,1.9,0.4,2.9
		C85.1,55.6,85.2,56,85.2,56.4z"/>
	<linearGradient id="SVGID_10_" gradientUnits="userSpaceOnUse" x1="32.8408" y1="33.2504" x2="56.1393" y2="68.0242">
		<stop  offset="0" style="stop-color:#FFFFFF"/>
		<stop  offset="1" style="stop-color:#FFFFFF"/>
	</linearGradient>
	<path class="st11" d="M84,49.4c-2.4,0.3-7.8,0.5-19.7,0.5c-22.7-0.1-41.9,0-46.9,2.4c-5.1,2.4,1.5,5.3,9.5,5.9
		c8,0.6,32.9,1.3,32.9,1.3s-40.3,0.1-51.9-1c0-0.7,0-1.3,0.1-2c0-0.3,0-0.5,0.1-0.8C8,55.4,8,55,8.1,54.6v0c0-0.4,0.1-0.7,0.2-1.1
		c0-0.2,0-0.3,0.1-0.4c0.1-0.4,0.1-0.8,0.2-1.2v0c0-0.2,0.1-0.5,0.1-0.7C8.8,50.6,9,50,9.1,49.4v0c0-0.1,0.1-0.2,0.1-0.3
		c6.8-0.6,21.8-1.8,35.2-1.6c14.3,0.2,31.1-2.3,37.7-3.3c0.1,0.3,0.2,0.5,0.3,0.8C83,46.4,83.5,47.9,84,49.4z"/>
	<path class="st1" d="M81.8,43.5c-6.2,1-24.1,3.5-40.2,3.4C28.5,46.7,16.5,47,9.8,47.2c0.3-0.9,0.6-1.8,1-2.6v0
		c0.3-0.8,0.7-1.5,1-2.3c5.7,0.2,19.7,0.5,33.8-0.1c13.7-0.6,27.5-2.5,33.6-3.5c0,0,0.1,0.1,0.1,0.1c0.3,0.5,0.6,1,0.9,1.6
		c0.1,0.1,0.1,0.2,0.2,0.3c-6.3,0.7-22.5,2.5-33.2,3c-13.6,0.6-22,0.6-22.6,1c-0.5,0.4,10.5,1.5,28.1,0.5
		c12.8-0.7,23.6-2.2,28.5-2.9C81.5,42.7,81.6,43.1,81.8,43.5z"/>
	<defs>
		<filter id="Adobe_OpacityMaskFilter" filterUnits="userSpaceOnUse" x="14.3" y="22.5" width="43.6" height="31.8">
			<feColorMatrix  type="matrix" values="1 0 0 0 0  0 1 0 0 0  0 0 1 0 0  0 0 0 1 0"/>
		</filter>
	</defs>
	<mask maskUnits="userSpaceOnUse" x="14.3" y="22.5" width="43.6" height="31.8" id="SVGID_11_">
		<g class="st12">
			<defs>
				<filter id="Adobe_OpacityMaskFilter_1_" filterUnits="userSpaceOnUse" x="14.3" y="22.5" width="43.6" height="31.8">
					<feFlood  style="flood-color:white;flood-opacity:1" result="back"/>
					<feBlend  in="SourceGraphic" in2="back" mode="normal"/>
				</filter>
			</defs>
			<mask maskUnits="userSpaceOnUse" x="14.3" y="22.5" width="43.6" height="31.8" id="SVGID_11_">
				<g class="st13">
				</g>
			</mask>
			
				<linearGradient id="SVGID_12_" gradientUnits="userSpaceOnUse" x1="66.3009" y1="-120.1682" x2="68.9806" y2="-100.487" gradientTransform="matrix(1.0265 -0.5286 0.6244 1.2124 35.6102 207.8771)">
				<stop  offset="0" style="stop-color:#FFFFFF"/>
				<stop  offset="1" style="stop-color:#000000"/>
			</linearGradient>
			<path class="st14" d="M57.1,27.6c3.3,6.4-3.4,16.5-15,22.5c-11.6,6-23.7,5.6-27-0.9s3.4-16.5,15-22.5
				C41.7,20.7,53.8,21.1,57.1,27.6z"/>
		</g>
	</mask>
	
		<linearGradient id="SVGID_13_" gradientUnits="userSpaceOnUse" x1="66.3009" y1="-120.1682" x2="68.9806" y2="-100.487" gradientTransform="matrix(1.0265 -0.5286 0.6244 1.2124 35.6102 207.8771)">
		<stop  offset="0" style="stop-color:#FFFFFF"/>
		<stop  offset="1" style="stop-color:#FFFFFF"/>
	</linearGradient>
	<path class="st15" d="M57.1,27.6c3.3,6.4-3.4,16.5-15,22.5c-11.6,6-23.7,5.6-27-0.9s3.4-16.5,15-22.5
		C41.7,20.7,53.8,21.1,57.1,27.6z"/>
	<path class="st16" d="M44.4,25.7c0.7,1.4-3,4.7-8.2,7.4c-5.3,2.7-10.1,3.8-10.8,2.4c-0.7-1.4,3-4.7,8.2-7.4
		C38.8,25.4,43.6,24.3,44.4,25.7z"/>
	<path class="st16" d="M23.8,37.3c0.5,1,0.1,2.2-0.8,2.7c-1,0.5-2.2,0.1-2.7-0.8c-0.5-1-0.1-2.2,0.8-2.7
		C22.2,35.9,23.3,36.3,23.8,37.3z"/>
	<linearGradient id="SVGID_14_" gradientUnits="userSpaceOnUse" x1="44.9472" y1="83.3842" x2="46.2023" y2="85.2576">
		<stop  offset="0" style="stop-color:#FFFFFF"/>
		<stop  offset="1" style="stop-color:#FFFFFF"/>
	</linearGradient>
	<path class="st17" d="M46.7,84.3c0,0.6-0.5,1.1-1.1,1.1c-0.6,0-1.1-0.5-1.1-1.1c0-0.6,0.5-1.1,1.1-1.1
		C46.2,83.2,46.7,83.7,46.7,84.3z"/>
	<linearGradient id="SVGID_15_" gradientUnits="userSpaceOnUse" x1="53.3554" y1="52.8576" x2="54.6106" y2="54.7309">
		<stop  offset="0" style="stop-color:#FFFFFF"/>
		<stop  offset="1" style="stop-color:#FFFFFF"/>
	</linearGradient>
	<path class="st18" d="M55.1,53.8c0,0.6-0.5,1.1-1.1,1.1c-0.6,0-1.1-0.5-1.1-1.1c0-0.6,0.5-1.1,1.1-1.1
		C54.6,52.7,55.1,53.2,55.1,53.8z"/>
	<linearGradient id="SVGID_16_" gradientUnits="userSpaceOnUse" x1="70.7713" y1="51.3665" x2="72.0264" y2="53.2398">
		<stop  offset="0" style="stop-color:#FFFFFF"/>
		<stop  offset="1" style="stop-color:#FFFFFF"/>
	</linearGradient>
	<path class="st19" d="M72.5,52.3c0,0.6-0.5,1.1-1.1,1.1c-0.6,0-1.1-0.5-1.1-1.1c0-0.6,0.5-1.1,1.1-1.1C72,51.2,72.5,51.7,72.5,52.3
		z"/>
	
		<linearGradient id="SVGID_17_" gradientUnits="userSpaceOnUse" x1="81.9595" y1="-179.9118" x2="82.5871" y2="-178.9751" gradientTransform="matrix(0.7071 -0.7071 0.7071 0.7071 125.8112 256.4075)">
		<stop  offset="0" style="stop-color:#FFFFFF"/>
		<stop  offset="1" style="stop-color:#FFFFFF"/>
	</linearGradient>
	<path class="st20" d="M57.5,70.9c0.2,0.2,0.2,0.6,0,0.8c-0.2,0.2-0.6,0.2-0.8,0c-0.2-0.2-0.2-0.6,0-0.8
		C56.9,70.7,57.3,70.7,57.5,70.9z"/>
	<linearGradient id="SVGID_18_" gradientUnits="userSpaceOnUse" x1="77.019" y1="71.5383" x2="78.2742" y2="73.4117">
		<stop  offset="0" style="stop-color:#FFFFFF"/>
		<stop  offset="1" style="stop-color:#FFFFFF"/>
	</linearGradient>
	<path class="st21" d="M78.8,72.5c0,0.6-0.5,1.1-1.1,1.1c-0.6,0-1.1-0.5-1.1-1.1c0-0.6,0.5-1.1,1.1-1.1
		C78.3,71.3,78.8,71.9,78.8,72.5z"/>
	<linearGradient id="SVGID_19_" gradientUnits="userSpaceOnUse" x1="45.6211" y1="90.9925" x2="46.8763" y2="92.8659">
		<stop  offset="0" style="stop-color:#FFFFFF"/>
		<stop  offset="1" style="stop-color:#FFFFFF"/>
	</linearGradient>
	<path class="st22" d="M47.4,91.9c0,0.6-0.5,1.1-1.1,1.1s-1.1-0.5-1.1-1.1c0-0.6,0.5-1.1,1.1-1.1S47.4,91.3,47.4,91.9z"/>
	<linearGradient id="SVGID_20_" gradientUnits="userSpaceOnUse" x1="13.705" y1="56.1682" x2="14.9602" y2="58.0417">
		<stop  offset="0" style="stop-color:#FFFFFF"/>
		<stop  offset="1" style="stop-color:#FFFFFF"/>
	</linearGradient>
	<path class="st23" d="M15.5,57.1c0,0.6-0.5,1.1-1.1,1.1c-0.6,0-1.1-0.5-1.1-1.1c0-0.6,0.5-1.1,1.1-1.1C15,56,15.5,56.5,15.5,57.1z"
		/>
	<linearGradient id="SVGID_21_" gradientUnits="userSpaceOnUse" x1="29.9275" y1="73.793" x2="31.1826" y2="75.6664">
		<stop  offset="0" style="stop-color:#FFFFFF"/>
		<stop  offset="1" style="stop-color:#FFFFFF"/>
	</linearGradient>
	<path class="st24" d="M31.7,74.7c0,0.6-0.5,1.1-1.1,1.1c-0.6,0-1.1-0.5-1.1-1.1c0-0.6,0.5-1.1,1.1-1.1
		C31.2,73.6,31.7,74.1,31.7,74.7z"/>
	<linearGradient id="SVGID_22_" gradientUnits="userSpaceOnUse" x1="62.3821" y1="77.0102" x2="63.6373" y2="78.8836">
		<stop  offset="0" style="stop-color:#FFFFFF"/>
		<stop  offset="1" style="stop-color:#FFFFFF"/>
	</linearGradient>
	<circle class="st25" cx="63" cy="77.9" r="1.1"/>
	<linearGradient id="SVGID_23_" gradientUnits="userSpaceOnUse" x1="60.5399" y1="34.5932" x2="62.8311" y2="38.0129">
		<stop  offset="0" style="stop-color:#FFFFFF"/>
		<stop  offset="1" style="stop-color:#FFFFFF"/>
	</linearGradient>
	<path class="st26" d="M63.7,36.3c0,1.1-0.9,2.1-2.1,2.1c-1.1,0-2.1-0.9-2.1-2.1s0.9-2.1,2.1-2.1C62.8,34.2,63.7,35.2,63.7,36.3z"/>
	<linearGradient id="SVGID_24_" gradientUnits="userSpaceOnUse" x1="54.0321" y1="23.9651" x2="56.3233" y2="27.3848">
		<stop  offset="0" style="stop-color:#FFFFFF"/>
		<stop  offset="1" style="stop-color:#FFFFFF"/>
	</linearGradient>
	<circle class="st27" cx="55.2" cy="25.7" r="2.1"/>
	<linearGradient id="SVGID_25_" gradientUnits="userSpaceOnUse" x1="16.4166" y1="72.335" x2="17.6717" y2="74.2084">
		<stop  offset="0" style="stop-color:#FFFFFF"/>
		<stop  offset="1" style="stop-color:#FFFFFF"/>
	</linearGradient>
	<path class="st28" d="M18.2,73.3c0,0.6-0.5,1.1-1.1,1.1c-0.6,0-1.1-0.5-1.1-1.1c0-0.6,0.5-1.1,1.1-1.1
		C17.7,72.1,18.2,72.6,18.2,73.3z"/>
	<linearGradient id="SVGID_26_" gradientUnits="userSpaceOnUse" x1="63.5095" y1="51.3665" x2="64.7647" y2="53.2399">
		<stop  offset="0" style="stop-color:#FFFFFF"/>
		<stop  offset="1" style="stop-color:#FFFFFF"/>
	</linearGradient>
	<circle class="st29" cx="64.1" cy="52.3" r="1.1"/>
	<linearGradient id="SVGID_27_" gradientUnits="userSpaceOnUse" x1="57.602" y1="88.7378" x2="58.8572" y2="90.6112">
		<stop  offset="0" style="stop-color:#FFFFFF"/>
		<stop  offset="1" style="stop-color:#FFFFFF"/>
	</linearGradient>
	<path class="st30" d="M59.4,89.7c0,0.6-0.5,1.1-1.1,1.1c-0.6,0-1.1-0.5-1.1-1.1c0-0.6,0.5-1.1,1.1-1.1
		C58.9,88.5,59.4,89.1,59.4,89.7z"/>
	<linearGradient id="SVGID_28_" gradientUnits="userSpaceOnUse" x1="24.3107" y1="69.4653" x2="24.8377" y2="70.252">
		<stop  offset="0" style="stop-color:#FFFFFF"/>
		<stop  offset="1" style="stop-color:#FFFFFF"/>
	</linearGradient>
	<path class="st31" d="M25,69.9c0,0.3-0.2,0.5-0.5,0.5c-0.3,0-0.5-0.2-0.5-0.5c0-0.3,0.2-0.5,0.5-0.5C24.8,69.4,25,69.6,25,69.9z"/>
	<linearGradient id="SVGID_29_" gradientUnits="userSpaceOnUse" x1="38.0217" y1="59.71" x2="38.5487" y2="60.4966">
		<stop  offset="0" style="stop-color:#FFFFFF"/>
		<stop  offset="1" style="stop-color:#FFFFFF"/>
	</linearGradient>
	<path class="st32" d="M38.8,60.1c0,0.3-0.2,0.5-0.5,0.5c-0.3,0-0.5-0.2-0.5-0.5c0-0.3,0.2-0.5,0.5-0.5
		C38.5,59.6,38.8,59.8,38.8,60.1z"/>
	<linearGradient id="SVGID_30_" gradientUnits="userSpaceOnUse" x1="70.3618" y1="33.4742" x2="71.3902" y2="35.0091">
		<stop  offset="0" style="stop-color:#FFFFFF"/>
		<stop  offset="1" style="stop-color:#FFFFFF"/>
	</linearGradient>
	<circle class="st33" cx="70.9" cy="34.2" r="0.9"/>
	<linearGradient id="SVGID_31_" gradientUnits="userSpaceOnUse" x1="65.4091" y1="62.8135" x2="65.6164" y2="63.1229">
		<stop  offset="0" style="stop-color:#FFFFFF"/>
		<stop  offset="1" style="stop-color:#FFFFFF"/>
	</linearGradient>
	<circle class="st34" cx="65.5" cy="63" r="0.2"/>
	<linearGradient id="SVGID_32_" gradientUnits="userSpaceOnUse" x1="47.5772" y1="79.151" x2="48.0822" y2="79.9047">
		<stop  offset="0" style="stop-color:#FFFFFF"/>
		<stop  offset="1" style="stop-color:#FFFFFF"/>
	</linearGradient>
	<path class="st35" d="M48.3,79.5c0,0.3-0.2,0.5-0.5,0.5c-0.3,0-0.5-0.2-0.5-0.5c0-0.3,0.2-0.5,0.5-0.5
		C48.1,79.1,48.3,79.3,48.3,79.5z"/>
	<linearGradient id="SVGID_33_" gradientUnits="userSpaceOnUse" x1="38.2295" y1="90.425" x2="38.7345" y2="91.1787">
		<stop  offset="0" style="stop-color:#FFFFFF"/>
		<stop  offset="1" style="stop-color:#FFFFFF"/>
	</linearGradient>
	<circle class="st36" cx="38.5" cy="90.8" r="0.5"/>
	<linearGradient id="SVGID_34_" gradientUnits="userSpaceOnUse" x1="42.5789" y1="91.5523" x2="43.0839" y2="92.3061">
		<stop  offset="0" style="stop-color:#FFFFFF"/>
		<stop  offset="1" style="stop-color:#FFFFFF"/>
	</linearGradient>
	<path class="st37" d="M43.3,91.9c0,0.3-0.2,0.5-0.5,0.5c-0.3,0-0.5-0.2-0.5-0.5c0-0.3,0.2-0.5,0.5-0.5
		C43.1,91.5,43.3,91.7,43.3,91.9z"/>
	<linearGradient id="SVGID_35_" gradientUnits="userSpaceOnUse" x1="37.7759" y1="81.5589" x2="38.2809" y2="82.3127">
		<stop  offset="0" style="stop-color:#FFFFFF"/>
		<stop  offset="1" style="stop-color:#FFFFFF"/>
	</linearGradient>
	<circle class="st38" cx="38" cy="81.9" r="0.5"/>
	<linearGradient id="SVGID_36_" gradientUnits="userSpaceOnUse" x1="20.3154" y1="82.8167" x2="20.8204" y2="83.5704">
		<stop  offset="0" style="stop-color:#FFFFFF"/>
		<stop  offset="1" style="stop-color:#FFFFFF"/>
	</linearGradient>
	<circle class="st39" cx="20.6" cy="83.2" r="0.5"/>
	<path class="st40" d="M85.3,59.5c0,0.3,0,0.7,0,1c0,0.3,0,0.6,0,0.8c0,0.3,0,0.7-0.1,1c0,0.2,0,0.3,0,0.5c0,0.2,0,0.5-0.1,0.7
		c0,0.3,0,0.5-0.1,0.8c0,0.1,0,0.3-0.1,0.4c0,0.1,0,0.3-0.1,0.4c-0.5,3.5-1.5,6.9-2.8,10c-0.3,0.8-0.7,1.6-1.1,2.3
		c-0.2,0.5-0.5,0.9-0.7,1.3c-0.2,0.3-0.4,0.7-0.6,1c-0.8,1.4-1.7,2.7-2.7,3.9c-0.5,0.6-1,1.2-1.5,1.8c-1.3,1.5-2.8,2.9-4.4,4.1
		c-1.4,1.2-2.9,2.2-4.5,3.2h0c-2,1.2-4.1,2.2-6.3,3.1c-0.4,0.2-0.8,0.3-1.2,0.4c-0.4,0.1-0.7,0.2-1.1,0.3c-0.3,0.1-0.6,0.2-0.9,0.3
		c-3.3,0.9-6.9,1.4-10.5,1.4c-4.3,0-8.3-0.7-12.2-2c-0.8-0.3-1.6-0.6-2.4-0.9c-1.3-0.5-2.5-1.1-3.7-1.8c-0.4-0.2-0.7-0.4-1-0.6
		c-0.1,0-0.2-0.1-0.3-0.2c0,0-0.1-0.1-0.1-0.1h0c-0.1-0.1-0.3-0.1-0.4-0.2c-0.5-0.3-1-0.6-1.4-0.9c0,0,0,0-0.1,0
		c-0.2-0.2-0.4-0.3-0.7-0.5c0,0,0,0,0,0c-1.5-1-2.8-2.2-4.1-3.4c-1.3-1.2-2.4-2.5-3.5-3.8c-0.1-0.1-0.2-0.3-0.3-0.4
		c-0.6-0.7-1.2-1.5-1.7-2.3c0,0-0.1-0.1-0.1-0.1c-0.6-0.9-1.1-1.7-1.6-2.6c-0.1-0.3-0.3-0.5-0.4-0.8c-0.1-0.1-0.1-0.2-0.2-0.4
		c10.7,0.8,26.9,0.2,44.5-7.1c14.2-5.9,22.7-13.2,27.7-19.4c0.1,0.3,0.1,0.5,0.2,0.8c0,0.1,0.1,0.2,0.1,0.4c0,0.1,0,0.2,0.1,0.3
		c0.2,1,0.3,2,0.4,3c0,0.4,0.1,0.7,0.1,1.1c0,0.3,0,0.6,0.1,0.9c0,0.3,0,0.6,0,0.8v0.1c0,0.3,0,0.5,0,0.8
		C85.3,59.2,85.3,59.3,85.3,59.5z"/>
	<defs>
		<filter id="Adobe_OpacityMaskFilter_2_" filterUnits="userSpaceOnUse" x="25" y="25.7" width="60.3" height="72.6">
			<feFlood  style="flood-color:white;flood-opacity:1" result="back"/>
			<feBlend  in="SourceGraphic" in2="back" mode="normal"/>
		</filter>
	</defs>
	<mask maskUnits="userSpaceOnUse" x="25" y="25.7" width="60.3" height="72.6" id="SVGID_37_">
		<g class="st41">
			<defs>
				<filter id="Adobe_OpacityMaskFilter_3_" filterUnits="userSpaceOnUse" x="25" y="25.7" width="60.3" height="72.6">
					<feFlood  style="flood-color:white;flood-opacity:1" result="back"/>
					<feBlend  in="SourceGraphic" in2="back" mode="normal"/>
				</filter>
			</defs>
			<mask maskUnits="userSpaceOnUse" x="25" y="25.7" width="60.3" height="72.6" id="SVGID_37_">
				<g class="st42">
				</g>
			</mask>
			<linearGradient id="SVGID_38_" gradientUnits="userSpaceOnUse" x1="77.915" y1="82.2515" x2="42.9033" y2="56.8141">
				<stop  offset="0" style="stop-color:#FFFFFF"/>
				<stop  offset="1" style="stop-color:#000000"/>
			</linearGradient>
			<path class="st43" d="M85.3,59.5c0,0.3,0,0.7,0,1c0,0.3,0,0.6,0,0.8c0,0.3,0,0.7-0.1,1c0,0.2,0,0.3,0,0.5c0,0.2,0,0.5-0.1,0.7
				c0,0.2,0,0.5-0.1,0.7c0,0.2,0,0.3-0.1,0.5c0,0.1,0,0.3-0.1,0.4c-0.5,3.5-1.5,6.9-2.9,10h0c-0.3,0.8-0.7,1.5-1.1,2.2
				c-0.2,0.5-0.5,0.9-0.7,1.3c-0.2,0.4-0.4,0.7-0.6,1.1c-0.8,1.4-1.7,2.6-2.7,3.9c-0.5,0.6-1,1.2-1.5,1.8c-1.3,1.5-2.8,2.9-4.4,4.1
				c-1.4,1.2-3,2.2-4.6,3.2c-1.9,1.2-4,2.2-6.1,3c-0.4,0.2-0.8,0.3-1.2,0.4c-0.4,0.2-0.9,0.3-1.3,0.4c-0.2,0.1-0.4,0.1-0.6,0.2
				c-3.3,0.9-6.9,1.4-10.5,1.4c-4.3,0-8.3-0.7-12.2-2c-0.8-0.3-1.6-0.6-2.4-0.9c-1.3-0.5-2.5-1.1-3.7-1.8c-0.4-0.2-0.7-0.4-1-0.6
				C27.1,93,27,93,27,92.9c0,0-0.1,0-0.1-0.1c-0.2-0.1-0.4-0.2-0.5-0.3c-0.4-0.2-0.8-0.5-1.3-0.8c0.3,0.2,0.5,0.3,0.8,0.4
				c0.6,0.3,1.2,0.6,1.8,0.9c0.6,0.3,1.3,0.6,1.9,0.8c0.8,0.3,1.6,0.6,2.4,0.9c3.8,1.3,7.9,2,12.2,2c2.1,0,4.2-0.2,6.3-0.5
				c1.4-0.2,2.9-0.5,4.2-0.9c0.6-0.2,1.3-0.4,1.9-0.6c0.4-0.1,0.8-0.3,1.2-0.4c0.8-0.3,1.6-0.6,2.3-1h0c2.5-1.1,4.8-2.5,7-4.1h0
				c1.4-1.1,2.8-2.2,4-3.4h0c0.6-0.6,1.2-1.2,1.8-1.8c0.9-1,1.8-2.1,2.6-3.3c0.8-1.1,1.6-2.3,2.3-3.5c0.2-0.4,0.5-0.9,0.7-1.3
				c0,0,0,0,0-0.1c1.6-3.1,2.8-6.4,3.5-9.9c0-0.2,0.1-0.4,0.1-0.6c0.1-0.7,0.2-1.5,0.3-2.2c0-0.1,0-0.2,0-0.3
				c0.1-0.4,0.1-0.9,0.1-1.3c0.1-0.8,0.1-1.6,0.1-2.4c0-0.2,0-0.4,0-0.7c0-0.1,0-0.2,0-0.3c0-0.1,0-0.3,0-0.4c0-0.3,0-0.7,0-1v0
				c0-0.3,0-0.5,0-0.8c0-0.7-0.1-1.3-0.2-2c0-0.4-0.1-0.7-0.1-1.1c-0.1-0.6-0.2-1.3-0.3-1.9c0-0.1,0-0.2-0.1-0.3
				c0-0.1-0.1-0.2-0.1-0.4c-0.4-2.1-1-4.1-1.8-6c-0.1-0.2-0.2-0.4-0.3-0.7c-0.2-0.4-0.4-0.9-0.6-1.3c-0.2-0.5-0.5-1-0.7-1.5
				c-0.3-0.6-0.6-1.1-0.9-1.7c-0.2-0.4-0.5-0.8-0.7-1.2c-0.2-0.3-0.4-0.6-0.6-0.9c0,0,0,0,0,0c-0.1-0.1-0.2-0.3-0.3-0.4
				c-0.1-0.2-0.2-0.3-0.3-0.5c-0.1-0.2-0.3-0.4-0.4-0.6c-0.1-0.1-0.1-0.2-0.2-0.3c0-0.1-0.1-0.1-0.2-0.2c-0.4-0.6-0.9-1.2-1.4-1.8
				c-0.1-0.1-0.1-0.1-0.2-0.2l-0.1-0.1c-0.5-0.6-1-1.1-1.5-1.6c-0.1-0.1-0.2-0.2-0.3-0.3l0,0c-0.7-0.7-1.4-1.4-2.2-2.1
				c-0.1-0.1-0.2-0.2-0.3-0.3c-0.2-0.1-0.3-0.3-0.5-0.4c-0.3-0.3-0.6-0.5-0.9-0.7c-0.1-0.1-0.2-0.1-0.3-0.2h0
				c-0.2-0.1-0.3-0.2-0.5-0.3c0,0,0,0,0,0c-0.3-0.2-0.5-0.4-0.8-0.6c0,0,0,0-0.1,0c-0.2-0.2-0.5-0.3-0.7-0.5
				c1.4,0.8,2.7,1.6,3.9,2.5c0,0,0,0,0,0c0.2,0.1,0.3,0.2,0.5,0.3h0c0.1,0.1,0.2,0.1,0.3,0.2c0.3,0.2,0.6,0.5,0.9,0.7
				c0.2,0.1,0.3,0.3,0.5,0.4c0.1,0.1,0.2,0.2,0.3,0.3c0.8,0.7,1.5,1.3,2.2,2.1l0,0c0.1,0.1,0.2,0.2,0.3,0.3c0.1,0.1,0.2,0.2,0.4,0.4
				c0.4,0.4,0.8,0.8,1.1,1.3l0.1,0.1c0.4,0.5,0.9,1,1.3,1.6c0.1,0.1,0.2,0.3,0.3,0.4c0.1,0.1,0.1,0.1,0.2,0.2
				c0.1,0.1,0.1,0.2,0.2,0.3c0.2,0.3,0.4,0.6,0.6,0.9c0.1,0.1,0.1,0.1,0.1,0.2c0.1,0.1,0.2,0.3,0.3,0.4c0,0,0,0,0,0
				c0.1,0.2,0.3,0.4,0.4,0.6c0.3,0.5,0.6,1,0.9,1.6c0.3,0.5,0.5,0.9,0.7,1.4c0.3,0.6,0.6,1.2,0.9,1.8c0.2,0.4,0.4,0.8,0.5,1.3
				c0.7,1.8,1.3,3.7,1.8,5.6c0.1,0.3,0.2,0.7,0.2,1c0,0.1,0.1,0.2,0.1,0.4c0,0.1,0.1,0.3,0.1,0.4c0.2,1,0.3,1.9,0.4,2.9
				c0,0.4,0.1,0.8,0.1,1.2c0,0.3,0,0.5,0.1,0.8c0,0.3,0,0.6,0,0.8v0.1c0,0,0,0.1,0,0.1c0,0.3,0,0.5,0,0.8
				C85.3,59.2,85.3,59.3,85.3,59.5z"/>
		</g>
	</mask>
	<linearGradient id="SVGID_39_" gradientUnits="userSpaceOnUse" x1="77.915" y1="82.2515" x2="42.9033" y2="56.8141">
		<stop  offset="0" style="stop-color:#FFFFFF"/>
		<stop  offset="1" style="stop-color:#FFFFFF"/>
	</linearGradient>
	<path class="st44" d="M85.3,59.5c0,0.3,0,0.7,0,1c0,0.3,0,0.6,0,0.8c0,0.3,0,0.7-0.1,1c0,0.2,0,0.3,0,0.5c0,0.2,0,0.5-0.1,0.7
		c0,0.2,0,0.5-0.1,0.7c0,0.2,0,0.3-0.1,0.5c0,0.1,0,0.3-0.1,0.4c-0.5,3.5-1.5,6.9-2.9,10h0c-0.3,0.8-0.7,1.5-1.1,2.2
		c-0.2,0.5-0.5,0.9-0.7,1.3c-0.2,0.4-0.4,0.7-0.6,1.1c-0.8,1.4-1.7,2.6-2.7,3.9c-0.5,0.6-1,1.2-1.5,1.8c-1.3,1.5-2.8,2.9-4.4,4.1
		c-1.4,1.2-3,2.2-4.6,3.2c-1.9,1.2-4,2.2-6.1,3c-0.4,0.2-0.8,0.3-1.2,0.4c-0.4,0.2-0.9,0.3-1.3,0.4c-0.2,0.1-0.4,0.1-0.6,0.2
		c-3.3,0.9-6.9,1.4-10.5,1.4c-4.3,0-8.3-0.7-12.2-2c-0.8-0.3-1.6-0.6-2.4-0.9c-1.3-0.5-2.5-1.1-3.7-1.8c-0.4-0.2-0.7-0.4-1-0.6
		C27.1,93,27,93,27,92.9c0,0-0.1,0-0.1-0.1c-0.2-0.1-0.4-0.2-0.5-0.3c-0.4-0.2-0.8-0.5-1.3-0.8c0.3,0.2,0.5,0.3,0.8,0.4
		c0.6,0.3,1.2,0.6,1.8,0.9c0.6,0.3,1.3,0.6,1.9,0.8c0.8,0.3,1.6,0.6,2.4,0.9c3.8,1.3,7.9,2,12.2,2c2.1,0,4.2-0.2,6.3-0.5
		c1.4-0.2,2.9-0.5,4.2-0.9c0.6-0.2,1.3-0.4,1.9-0.6c0.4-0.1,0.8-0.3,1.2-0.4c0.8-0.3,1.6-0.6,2.3-1h0c2.5-1.1,4.8-2.5,7-4.1h0
		c1.4-1.1,2.8-2.2,4-3.4h0c0.6-0.6,1.2-1.2,1.8-1.8c0.9-1,1.8-2.1,2.6-3.3c0.8-1.1,1.6-2.3,2.3-3.5c0.2-0.4,0.5-0.9,0.7-1.3
		c0,0,0,0,0-0.1c1.6-3.1,2.8-6.4,3.5-9.9c0-0.2,0.1-0.4,0.1-0.6c0.1-0.7,0.2-1.5,0.3-2.2c0-0.1,0-0.2,0-0.3c0.1-0.4,0.1-0.9,0.1-1.3
		c0.1-0.8,0.1-1.6,0.1-2.4c0-0.2,0-0.4,0-0.7c0-0.1,0-0.2,0-0.3c0-0.1,0-0.3,0-0.4c0-0.3,0-0.7,0-1v0c0-0.3,0-0.5,0-0.8
		c0-0.7-0.1-1.3-0.2-2c0-0.4-0.1-0.7-0.1-1.1c-0.1-0.6-0.2-1.3-0.3-1.9c0-0.1,0-0.2-0.1-0.3c0-0.1-0.1-0.2-0.1-0.4
		c-0.4-2.1-1-4.1-1.8-6c-0.1-0.2-0.2-0.4-0.3-0.7c-0.2-0.4-0.4-0.9-0.6-1.3c-0.2-0.5-0.5-1-0.7-1.5c-0.3-0.6-0.6-1.1-0.9-1.7
		c-0.2-0.4-0.5-0.8-0.7-1.2c-0.2-0.3-0.4-0.6-0.6-0.9c0,0,0,0,0,0c-0.1-0.1-0.2-0.3-0.3-0.4c-0.1-0.2-0.2-0.3-0.3-0.5
		c-0.1-0.2-0.3-0.4-0.4-0.6c-0.1-0.1-0.1-0.2-0.2-0.3c0-0.1-0.1-0.1-0.2-0.2c-0.4-0.6-0.9-1.2-1.4-1.8c-0.1-0.1-0.1-0.1-0.2-0.2
		l-0.1-0.1c-0.5-0.6-1-1.1-1.5-1.6c-0.1-0.1-0.2-0.2-0.3-0.3l0,0c-0.7-0.7-1.4-1.4-2.2-2.1c-0.1-0.1-0.2-0.2-0.3-0.3
		c-0.2-0.1-0.3-0.3-0.5-0.4c-0.3-0.3-0.6-0.5-0.9-0.7c-0.1-0.1-0.2-0.1-0.3-0.2h0c-0.2-0.1-0.3-0.2-0.5-0.3c0,0,0,0,0,0
		c-0.3-0.2-0.5-0.4-0.8-0.6c0,0,0,0-0.1,0c-0.2-0.2-0.5-0.3-0.7-0.5c1.4,0.8,2.7,1.6,3.9,2.5c0,0,0,0,0,0c0.2,0.1,0.3,0.2,0.5,0.3h0
		c0.1,0.1,0.2,0.1,0.3,0.2c0.3,0.2,0.6,0.5,0.9,0.7c0.2,0.1,0.3,0.3,0.5,0.4c0.1,0.1,0.2,0.2,0.3,0.3c0.8,0.7,1.5,1.3,2.2,2.1l0,0
		c0.1,0.1,0.2,0.2,0.3,0.3c0.1,0.1,0.2,0.2,0.4,0.4c0.4,0.4,0.8,0.8,1.1,1.3l0.1,0.1c0.4,0.5,0.9,1,1.3,1.6c0.1,0.1,0.2,0.3,0.3,0.4
		c0.1,0.1,0.1,0.1,0.2,0.2c0.1,0.1,0.1,0.2,0.2,0.3c0.2,0.3,0.4,0.6,0.6,0.9c0.1,0.1,0.1,0.1,0.1,0.2c0.1,0.1,0.2,0.3,0.3,0.4
		c0,0,0,0,0,0c0.1,0.2,0.3,0.4,0.4,0.6c0.3,0.5,0.6,1,0.9,1.6c0.3,0.5,0.5,0.9,0.7,1.4c0.3,0.6,0.6,1.2,0.9,1.8
		c0.2,0.4,0.4,0.8,0.5,1.3c0.7,1.8,1.3,3.7,1.8,5.6c0.1,0.3,0.2,0.7,0.2,1c0,0.1,0.1,0.2,0.1,0.4c0,0.1,0.1,0.3,0.1,0.4
		c0.2,1,0.3,1.9,0.4,2.9c0,0.4,0.1,0.8,0.1,1.2c0,0.3,0,0.5,0.1,0.8c0,0.3,0,0.6,0,0.8v0.1c0,0,0,0.1,0,0.1c0,0.3,0,0.5,0,0.8
		C85.3,59.2,85.3,59.3,85.3,59.5z"/>
	<defs>
		<filter id="Adobe_OpacityMaskFilter_4_" filterUnits="userSpaceOnUse" x="0" y="0" width="63.4" height="63.4">
			<feColorMatrix  type="matrix" values="1 0 0 0 0  0 1 0 0 0  0 0 1 0 0  0 0 0 1 0"/>
		</filter>
	</defs>
	<mask maskUnits="userSpaceOnUse" x="0" y="0" width="63.4" height="63.4" id="SVGID_40_">
		<g class="st45">
			<defs>
				<filter id="Adobe_OpacityMaskFilter_5_" filterUnits="userSpaceOnUse" x="0" y="0" width="63.4" height="63.4">
					<feFlood  style="flood-color:white;flood-opacity:1" result="back"/>
					<feBlend  in="SourceGraphic" in2="back" mode="normal"/>
				</filter>
			</defs>
			<mask maskUnits="userSpaceOnUse" x="0" y="0" width="63.4" height="63.4" id="SVGID_40_">
				<g class="st46">
				</g>
			</mask>
			<radialGradient id="SVGID_41_" cx="31.0492" cy="33.6519" r="33.5437" gradientUnits="userSpaceOnUse">
				<stop  offset="0" style="stop-color:#FFFFFF"/>
				<stop  offset="0.7822" style="stop-color:#000000"/>
			</radialGradient>
			<circle class="st47" cx="31.7" cy="31.7" r="31.7"/>
		</g>
	</mask>
	<g>
		<defs>
			<filter id="Adobe_OpacityMaskFilter_6_" filterUnits="userSpaceOnUse" x="0" y="0" width="63.4" height="63.4">
				<feFlood  style="flood-color:white;flood-opacity:1" result="back"/>
				<feBlend  in="SourceGraphic" in2="back" mode="normal"/>
			</filter>
		</defs>
		<mask maskUnits="userSpaceOnUse" x="0" y="0" width="63.4" height="63.4" id="SVGID_42_">
			<g class="st48">
				<defs>
					<filter id="Adobe_OpacityMaskFilter_7_" filterUnits="userSpaceOnUse" x="0" y="0" width="63.4" height="63.4">
						<feFlood  style="flood-color:white;flood-opacity:1" result="back"/>
						<feBlend  in="SourceGraphic" in2="back" mode="normal"/>
					</filter>
				</defs>
				<mask maskUnits="userSpaceOnUse" x="0" y="0" width="63.4" height="63.4" id="SVGID_42_">
					<g class="st49">
					</g>
				</mask>
				<radialGradient id="SVGID_43_" cx="31.3719" cy="32.5223" r="33.2185" gradientUnits="userSpaceOnUse">
					<stop  offset="0" style="stop-color:#FFFFFF"/>
					<stop  offset="1" style="stop-color:#000000"/>
				</radialGradient>
				<path class="st50" d="M58.9,14.6C75,44.7,44.7,75,14.6,58.9C10.3,56.6,6.8,53,4.5,48.7C-11.7,18.7,18.7-11.7,48.7,4.5
					C53,6.8,56.6,10.3,58.9,14.6z"/>
			</g>
		</mask>
		<radialGradient id="SVGID_44_" cx="31.3719" cy="32.5223" r="33.2185" gradientUnits="userSpaceOnUse">
			<stop  offset="0" style="stop-color:#FFFFFF"/>
			<stop  offset="1" style="stop-color:#000000"/>
		</radialGradient>
		<path class="st51" d="M58.9,14.6C75,44.7,44.7,75,14.6,58.9C10.3,56.6,6.8,53,4.5,48.7C-11.7,18.7,18.7-11.7,48.7,4.5
			C53,6.8,56.6,10.3,58.9,14.6z"/>
	</g>
	<defs>
		<filter id="Adobe_OpacityMaskFilter_8_" filterUnits="userSpaceOnUse" x="50.4" y="72.2" width="34.9" height="34.9">
			<feColorMatrix  type="matrix" values="1 0 0 0 0  0 1 0 0 0  0 0 1 0 0  0 0 0 1 0"/>
		</filter>
	</defs>
	<mask maskUnits="userSpaceOnUse" x="50.4" y="72.2" width="34.9" height="34.9" id="SVGID_45_">
		<g class="st52">
			<defs>
				<filter id="Adobe_OpacityMaskFilter_9_" filterUnits="userSpaceOnUse" x="50.4" y="72.2" width="34.9" height="34.9">
					<feFlood  style="flood-color:white;flood-opacity:1" result="back"/>
					<feBlend  in="SourceGraphic" in2="back" mode="normal"/>
				</filter>
			</defs>
			<mask maskUnits="userSpaceOnUse" x="50.4" y="72.2" width="34.9" height="34.9" id="SVGID_45_">
				<g class="st53">
				</g>
			</mask>
			<radialGradient id="SVGID_46_" cx="67.4881" cy="90.7605" r="18.4969" gradientUnits="userSpaceOnUse">
				<stop  offset="0" style="stop-color:#FFFFFF"/>
				<stop  offset="0.7822" style="stop-color:#000000"/>
			</radialGradient>
			<circle class="st54" cx="67.8" cy="89.7" r="17.5"/>
		</g>
	</mask>
	<g>
		<defs>
			<filter id="Adobe_OpacityMaskFilter_10_" filterUnits="userSpaceOnUse" x="50.4" y="72.2" width="34.9" height="34.9">
				<feFlood  style="flood-color:white;flood-opacity:1" result="back"/>
				<feBlend  in="SourceGraphic" in2="back" mode="normal"/>
			</filter>
		</defs>
		<mask maskUnits="userSpaceOnUse" x="50.4" y="72.2" width="34.9" height="34.9" id="SVGID_47_">
			<g class="st55">
				<defs>
					<filter id="Adobe_OpacityMaskFilter_11_" filterUnits="userSpaceOnUse" x="50.4" y="72.2" width="34.9" height="34.9">
						<feFlood  style="flood-color:white;flood-opacity:1" result="back"/>
						<feBlend  in="SourceGraphic" in2="back" mode="normal"/>
					</filter>
				</defs>
				<mask maskUnits="userSpaceOnUse" x="50.4" y="72.2" width="34.9" height="34.9" id="SVGID_47_">
					<g class="st56">
					</g>
				</mask>
				<radialGradient id="SVGID_48_" cx="67.666" cy="90.1376" r="18.3176" gradientUnits="userSpaceOnUse">
					<stop  offset="0" style="stop-color:#FFFFFF"/>
					<stop  offset="1" style="stop-color:#000000"/>
				</radialGradient>
				<path class="st57" d="M82.8,80.3c8.9,16.6-7.8,33.3-24.4,24.4c-2.4-1.3-4.3-3.2-5.6-5.6c-8.9-16.6,7.8-33.3,24.4-24.4
					C79.6,76,81.6,77.9,82.8,80.3z"/>
			</g>
		</mask>
		<radialGradient id="SVGID_49_" cx="67.666" cy="90.1376" r="18.3176" gradientUnits="userSpaceOnUse">
			<stop  offset="0" style="stop-color:#FFFFFF"/>
			<stop  offset="1" style="stop-color:#000000"/>
		</radialGradient>
		<path class="st58" d="M82.8,80.3c8.9,16.6-7.8,33.3-24.4,24.4c-2.4-1.3-4.3-3.2-5.6-5.6c-8.9-16.6,7.8-33.3,24.4-24.4
			C79.6,76,81.6,77.9,82.8,80.3z"/>
	</g>
</g>
</svg>
