<?xml version="1.0" encoding="utf-8"?>
<!-- Generator: Adobe Illustrator 22.1.0, SVG Export Plug-In . SVG Version: 6.00 Build 0)  -->
<svg version="1.1" id="Layer_1" xmlns="http://www.w3.org/2000/svg" xmlns:xlink="http://www.w3.org/1999/xlink" x="0px" y="0px"
	 viewBox="0 0 37.8 43.4" style="enable-background:new 0 0 37.8 43.4;" xml:space="preserve">
<style type="text/css">
	.st0{fill:url(#SVGID_1_);}
	.st1{opacity:0.4;fill:#9F3600;}
	.st2{opacity:0.54;fill:#510B00;}
	.st3{opacity:0.6;fill:#9F3600;}
	.st4{opacity:0.23;fill:#FFFFFF;}
	.st5{opacity:9.000000e-02;fill:#FFFFFF;}
	.st6{filter:url(#Adobe_OpacityMaskFilter);}
	.st7{filter:url(#Adobe_OpacityMaskFilter_1_);}
	.st8{mask:url(#SVGID_2_);fill:url(#SVGID_3_);}
	.st9{opacity:0.6;fill:url(#SVGID_4_);}
	.st10{filter:url(#Adobe_OpacityMaskFilter_2_);}
	.st11{filter:url(#Adobe_OpacityMaskFilter_3_);}
	.st12{mask:url(#SVGID_5_);fill:url(#SVGID_6_);}
	.st13{opacity:0.94;fill:url(#SVGID_7_);}
	.st14{opacity:0.8;fill:#FFFFFF;}
	.st15{filter:url(#Adobe_OpacityMaskFilter_4_);}
	.st16{filter:url(#Adobe_OpacityMaskFilter_5_);}
	.st17{mask:url(#SVGID_8_);fill:url(#SVGID_9_);}
	.st18{filter:url(#Adobe_OpacityMaskFilter_6_);}
	.st19{filter:url(#Adobe_OpacityMaskFilter_7_);}
	.st20{mask:url(#SVGID_10_);fill:url(#SVGID_11_);}
	.st21{opacity:0.78;fill:url(#SVGID_12_);}
	.st22{filter:url(#Adobe_OpacityMaskFilter_8_);}
	.st23{filter:url(#Adobe_OpacityMaskFilter_9_);}
	.st24{mask:url(#SVGID_13_);fill:url(#SVGID_14_);}
	.st25{filter:url(#Adobe_OpacityMaskFilter_10_);}
	.st26{filter:url(#Adobe_OpacityMaskFilter_11_);}
	.st27{mask:url(#SVGID_15_);fill:url(#SVGID_16_);}
	.st28{opacity:0.78;fill:url(#SVGID_17_);}
</style>
<g>
	<radialGradient id="SVGID_1_" cx="14.8492" cy="15.0972" r="14.2406" gradientUnits="userSpaceOnUse">
		<stop  offset="0.1651" style="stop-color:#BDFFE2"/>
		<stop  offset="1" style="stop-color:#9E86A6"/>
	</radialGradient>
	<path class="st0" d="M34.4,22c0,0.1,0,0.2,0,0.4c0,0.1,0,0.2,0,0.3c0,0.1,0,0.3,0,0.4c0,0.1,0,0.1,0,0.2c0,0.1,0,0.2,0,0.3
		c0,0.1,0,0.2,0,0.3c0,0,0,0.1,0,0.1c0,0.1,0,0.1,0,0.1c-0.1,0.4-0.1,0.8-0.2,1.3c-0.2,0.8-0.5,1.6-0.8,2.4h0c0,0,0,0,0,0
		c-0.1,0.3-0.3,0.6-0.4,0.9c-0.1,0.2-0.2,0.3-0.3,0.5c-0.1,0.1-0.1,0.2-0.2,0.4c-0.3,0.5-0.6,1-1,1.4c-0.2,0.2-0.3,0.4-0.5,0.6l0,0
		c0,0-0.1,0.1-0.1,0.1c-0.4,0.4-0.7,0.8-1.1,1.1c-0.1,0.1-0.1,0.1-0.2,0.2c-0.1,0.1-0.2,0.2-0.3,0.2c-0.5,0.4-1.1,0.8-1.7,1.2h0
		c-0.7,0.4-1.5,0.8-2.3,1.1c-0.2,0.1-0.3,0.1-0.5,0.2c-0.1,0-0.3,0.1-0.4,0.1c-0.1,0-0.2,0.1-0.3,0.1c-0.5,0.1-1,0.3-1.6,0.3
		c-0.6,0.1-1.2,0.2-1.8,0.2c-0.2,0-0.3,0-0.5,0c-0.3,0-0.7,0-1,0c-0.6,0-1.2-0.1-1.8-0.2c-0.6-0.1-1.1-0.3-1.7-0.4
		c-0.3-0.1-0.6-0.2-0.9-0.3c-0.2-0.1-0.4-0.2-0.6-0.3c-0.3-0.1-0.5-0.2-0.7-0.4c-0.1-0.1-0.3-0.1-0.4-0.2c0,0-0.1,0-0.1-0.1
		c0,0,0,0-0.1,0h0c0,0-0.1-0.1-0.1-0.1c-0.2-0.1-0.4-0.2-0.5-0.3c0,0,0,0,0,0c-0.1-0.1-0.2-0.1-0.2-0.2c0,0,0,0,0,0
		c-0.5-0.4-1-0.8-1.5-1.3C10,32,9.5,31.5,9.1,31c0,0-0.1-0.1-0.1-0.1c-0.2-0.3-0.4-0.6-0.6-0.8c0,0,0,0,0-0.1
		c-0.2-0.3-0.4-0.6-0.6-1c-0.1-0.1-0.1-0.2-0.2-0.3c0,0,0-0.1-0.1-0.1c0,0,0,0,0,0c0,0,0-0.1-0.1-0.1c0,0,0-0.1,0-0.1
		c-0.1-0.2-0.2-0.4-0.3-0.5c-0.1-0.2-0.2-0.5-0.3-0.7c-0.3-0.9-0.6-1.9-0.8-2.9c0-0.1,0-0.2,0-0.2c0-0.2,0-0.3-0.1-0.5
		c0-0.2,0-0.4,0-0.6c0-0.1,0-0.1,0-0.2c0-0.1,0-0.1,0-0.2c0-0.1,0-0.3,0-0.4c0-0.1,0-0.2,0-0.2c0,0,0-0.1,0-0.1c0-0.2,0-0.5,0-0.7
		c0-0.1,0-0.2,0-0.3c0-0.1,0-0.3,0-0.4v0c0-0.1,0-0.3,0.1-0.4c0-0.1,0-0.1,0-0.2c0-0.1,0.1-0.3,0.1-0.4v0c0-0.1,0-0.2,0.1-0.3
		c0-0.2,0.1-0.4,0.2-0.7v0c0,0,0-0.1,0-0.1c0-0.1,0-0.1,0.1-0.2c0.1-0.2,0.1-0.3,0.2-0.5c0.1-0.3,0.2-0.6,0.3-0.9c0,0,0,0,0-0.1v0
		c0.1-0.3,0.2-0.6,0.4-0.8c0,0,0,0,0,0c0-0.1,0.1-0.2,0.1-0.3c0,0,0,0,0,0c0-0.1,0.1-0.1,0.1-0.1c0.5-0.8,1-1.6,1.6-2.4
		c0.4-0.5,0.9-1,1.4-1.5c0.2-0.1,0.3-0.3,0.5-0.4c0.3-0.3,0.7-0.6,1.1-0.8C13,9.8,13.7,9.3,14.5,9c0,0,0,0,0,0c0,0,0,0,0,0
		c1.7-0.7,3.6-1.2,5.6-1.2c0.1,0,0.1,0,0.2,0c2.1,0,4.2,0.5,6,1.4c0.1,0.1,0.3,0.1,0.4,0.2c0,0,0,0,0,0c0.2,0.1,0.5,0.2,0.7,0.4
		c0,0,0,0,0,0c0.4,0.2,0.8,0.5,1.1,0.8c0,0,0,0,0,0c0.1,0,0.1,0.1,0.2,0.1h0c0,0,0.1,0,0.1,0.1c0.1,0.1,0.2,0.2,0.3,0.3
		c0.1,0.1,0.1,0.1,0.2,0.2c0,0,0.1,0.1,0.1,0.1c0.3,0.2,0.5,0.5,0.8,0.8l0,0c0,0,0.1,0.1,0.1,0.1l0,0c0,0,0.1,0.1,0.1,0.1
		c0.1,0.1,0.2,0.2,0.3,0.3l0.2,0.3c0.1,0.2,0.3,0.3,0.4,0.5c0,0.1,0.1,0.1,0.1,0.2c0,0,0,0.1,0.1,0.1c0,0,0.1,0.1,0.1,0.1
		c0.1,0.1,0.1,0.2,0.2,0.3c0,0,0,0.1,0.1,0.1c0,0.1,0.1,0.1,0.1,0.2c0,0,0,0,0,0c0,0,0.1,0.1,0.1,0.1c0,0,0,0,0,0
		c0.1,0.2,0.2,0.4,0.3,0.6c0,0,0,0.1,0.1,0.1c0,0.1,0.1,0.1,0.1,0.2c0,0.1,0.1,0.1,0.1,0.2c0,0.1,0.1,0.1,0.1,0.2c0,0,0,0,0,0.1
		c0.1,0.1,0.1,0.2,0.2,0.4c0,0,0,0,0,0.1c0,0.1,0.1,0.1,0.1,0.2c0,0.1,0.1,0.2,0.1,0.3c0.2,0.4,0.3,0.8,0.4,1.2
		c0,0.1,0.1,0.3,0.1,0.4c0,0.1,0.1,0.3,0.1,0.4c0,0,0,0.1,0,0.1c0,0.1,0,0.2,0.1,0.3c0,0,0,0.1,0,0.1c0,0,0,0.1,0,0.1
		c0,0,0,0.1,0,0.1c0.1,0.3,0.1,0.6,0.1,1c0,0.1,0,0.3,0,0.4c0,0.1,0,0.2,0,0.3c0,0.1,0,0.2,0,0.3v0c0,0.1,0,0.2,0,0.3
		C34.4,21.9,34.4,22,34.4,22z"/>
	<path class="st1" d="M34.4,22c0,0.1,0,0.2,0,0.4c0,0.1,0,0.2,0,0.3c0,0.1,0,0.3,0,0.4c0,0.1,0,0.1,0,0.2c0,0.1,0,0.2,0,0.3
		c0,0.1,0,0.2,0,0.3c0,0,0,0.1,0,0.1c0,0.1,0,0.1,0,0.1c-0.1,0.4-0.1,0.8-0.2,1.3c-0.2,0.8-0.5,1.6-0.8,2.4h0c0,0,0,0,0,0
		c-0.1,0.3-0.3,0.6-0.4,0.9c-0.1,0.2-0.2,0.3-0.3,0.5c-0.1,0.1-0.1,0.2-0.2,0.4c-0.3,0.5-0.6,1-1,1.4c-0.2,0.2-0.3,0.4-0.5,0.6
		c0.1-0.2,3.5-8,0.8-8c-2.6-0.1-2.8,3.3-6.3,2.8c-3.4-0.5-6.3-4.6-9.1-2c-2.8,2.6-0.1,5.8,2.8,8.9c1.1,1.2,1.5,2.2,1.6,3.1
		c-0.2,0-0.3,0-0.5,0c-1,0-1.9-0.1-2.8-0.3c-0.6-0.1-1.1-0.3-1.7-0.4c-0.3-0.1-0.6-0.2-0.9-0.3c-0.2-0.1-0.4-0.2-0.6-0.3
		c-0.3-0.1-0.5-0.2-0.7-0.4c-0.1-0.1-0.3-0.1-0.4-0.2c0,0-0.1,0-0.1-0.1c0,0,0,0-0.1,0h0c0,0-0.1-0.1-0.1-0.1
		c-0.2-0.1-0.4-0.2-0.5-0.3c0,0,0,0,0,0c-0.1-0.1-0.2-0.1-0.2-0.2c0,0,0,0,0,0c-0.5-0.4-1-0.8-1.5-1.3C10,32,9.5,31.5,9.1,31
		c0,0-0.1-0.1-0.1-0.1c-0.2-0.3-0.4-0.6-0.6-0.8c0,0,0,0,0-0.1c-0.2-0.3-0.4-0.6-0.6-1c-0.1-0.1-0.1-0.2-0.2-0.3c0,0,0-0.1-0.1-0.1
		c0,0,0,0,0,0c0,0,0-0.1-0.1-0.1c0,0,0-0.1,0-0.1c-0.1-0.2-0.2-0.4-0.3-0.5c-0.1-0.2-0.2-0.5-0.3-0.7c-0.4-1-0.6-2-0.8-3.1
		c0-0.2,0-0.3-0.1-0.5c0-0.2,0-0.4,0-0.6c0-0.1,0-0.1,0-0.2c0-0.1,0-0.1,0-0.2c0-0.1,0-0.3,0-0.4c0-0.1,0-0.2,0-0.2c0,0,0-0.1,0-0.1
		c0,0,0,0,0,0c0-0.2,0-0.5,0-0.7c0-0.1,0-0.2,0-0.3c0-0.1,0-0.3,0-0.4v0c0-0.1,0-0.3,0.1-0.4c0-0.1,0-0.1,0-0.2
		c0-0.1,0.1-0.3,0.1-0.4v0c0-0.1,0-0.2,0.1-0.3c0-0.2,0.1-0.4,0.2-0.7v0c0,0,0-0.1,0-0.1c0-0.1,0-0.1,0.1-0.2
		c0.1-0.2,0.1-0.3,0.2-0.5c0.1-0.3,0.2-0.6,0.3-0.9c0,0,0,0,0-0.1v0c0.1-0.3,0.2-0.6,0.4-0.8c0,0,0,0,0,0c0-0.1,0.1-0.2,0.1-0.3
		c0,0,0,0,0,0c0-0.1,0.1-0.1,0.1-0.1c0.5-0.8,1-1.6,1.6-2.4c0.4-0.5,0.9-1,1.4-1.5c0.2-0.1,0.3-0.3,0.5-0.4c0.3-0.2,0.6-0.4,0.9-0.6
		c0.1-0.1,0.1-0.1,0.2-0.2c0.4-0.3,0.8-0.5,1.2-0.7c0.3-0.2,0.7-0.3,1-0.5c0,0,0,0,0,0c0,0,0,0,0,0c1.7-0.7,3.6-1.2,5.6-1.2
		c0.1,0,0.1,0,0.2,0c2.1,0,4,0.5,5.8,1.3c0.1,0,0.1,0.1,0.2,0.1c0.1,0.1,0.3,0.1,0.4,0.2c0,0,0,0,0,0c0.2,0.1,0.5,0.2,0.7,0.4
		c0,0,0,0,0,0c0.3,0.2,0.6,0.4,0.9,0.6c0.1,0,0.1,0.1,0.2,0.1c0,0,0,0,0,0c0.1,0,0.1,0.1,0.2,0.1h0c0,0,0.1,0,0.1,0.1
		c0.1,0.1,0.2,0.2,0.3,0.3c0.1,0.1,0.1,0.1,0.2,0.2c0,0,0.1,0.1,0.1,0.1c0.3,0.2,0.5,0.5,0.8,0.8l0,0c0,0,0.1,0.1,0.1,0.1l0,0
		c0,0,0.1,0.1,0.1,0.1c0.1,0.1,0.2,0.2,0.3,0.3l0.2,0.3c0.1,0.2,0.3,0.3,0.4,0.5c0,0.1,0.1,0.1,0.1,0.2c0,0,0,0.1,0.1,0.1
		c0,0,0.1,0.1,0.1,0.1c0.1,0.1,0.1,0.2,0.2,0.3c0,0,0,0.1,0.1,0.1c0,0.1,0.1,0.1,0.1,0.2c0,0,0,0,0,0c0,0,0.1,0.1,0.1,0.1
		c0,0,0,0,0,0c0.1,0.2,0.2,0.4,0.3,0.6c0,0,0,0.1,0.1,0.1c0,0.1,0.1,0.1,0.1,0.2c0,0.1,0.1,0.1,0.1,0.2c0,0.1,0.1,0.1,0.1,0.2
		c0,0,0,0,0,0.1c0.1,0.1,0.1,0.2,0.2,0.4c0,0,0,0,0,0.1c0,0.1,0.1,0.1,0.1,0.2c0,0.1,0.1,0.2,0.1,0.3c0.2,0.4,0.3,0.8,0.4,1.2
		c0,0.1,0.1,0.3,0.1,0.4c0,0.1,0.1,0.3,0.1,0.4c0,0,0,0.1,0,0.1c0,0.1,0,0.2,0.1,0.3c0,0,0,0.1,0,0.1c0,0,0,0.1,0,0.1
		c0,0,0,0.1,0,0.1c0.1,0.3,0.1,0.6,0.1,1c0,0.1,0,0.3,0,0.4c0,0.1,0,0.2,0,0.3c0,0.1,0,0.2,0,0.3v0c0,0,0,0.1,0,0.1
		c0,0.1,0,0.1,0,0.2C34.4,21.9,34.4,22,34.4,22z"/>
	<path class="st2" d="M19.2,36.3c-0.6,0-1.2-0.1-1.8-0.2c-0.6-0.1-1.1-0.3-1.7-0.4c-0.3-0.1-0.6-0.2-0.9-0.3
		c-0.2-0.1-0.4-0.2-0.6-0.3c-0.3-0.1-0.5-0.2-0.7-0.4c-0.1-0.1-0.3-0.1-0.4-0.2c0,0-0.1,0-0.1-0.1c0,0,0,0-0.1,0h0
		c0,0-0.1-0.1-0.1-0.1c-0.2-0.1-0.4-0.2-0.5-0.3c0,0,0,0,0,0c-0.1-0.1-0.2-0.1-0.2-0.2c0,0,0,0,0,0c-0.5-0.4-1-0.8-1.5-1.3
		C10,32,9.5,31.5,9.1,31c0,0-0.1-0.1-0.1-0.1c-0.2-0.3-0.4-0.6-0.6-0.8c0,0,0,0,0-0.1c-0.2-0.3-0.4-0.6-0.6-1
		c-0.1-0.1-0.1-0.2-0.2-0.3c0,0,0-0.1-0.1-0.1c0,0,0,0,0,0c0,0,0-0.1-0.1-0.1c0,0,0-0.1,0-0.1c-0.1-0.2-0.2-0.4-0.3-0.5
		c-0.1-0.2-0.2-0.5-0.3-0.7c-0.3-0.9-0.6-1.9-0.8-2.9c0.6,1.3,1.6,3,3.4,4.5c3.2,2.8,5.1,2.2,7.8,4.6C18.7,34.5,19.1,35.5,19.2,36.3
		z"/>
	<path class="st3" d="M34.4,21.7c-0.5-0.4-1.2-0.9-2.1-1.2c-2.9-1-4.6,0.8-7.7-0.5c-3.1-1.3,0.6-3.2,0.8-4.8
		c0.2-1.6-4.1-2.4-3.6-4.1c0.5-1.7,4.3,0.6,5.5,0c0.5-0.3,0.8-0.5,1-0.8c0.1,0,0.1,0.1,0.2,0.1c0,0,0,0,0,0c0.1,0,0.1,0.1,0.2,0.1h0
		c0,0,0.1,0,0.1,0.1c0.1,0.1,0.2,0.2,0.3,0.3c0.1,0.1,0.1,0.1,0.2,0.2c0,0,0.1,0.1,0.1,0.1c0.3,0.2,0.5,0.5,0.8,0.8l0,0
		c0,0,0.1,0.1,0.1,0.1l0,0c0,0,0.1,0.1,0.1,0.1c0.1,0.1,0.2,0.2,0.3,0.3l0.2,0.3c0.1,0.2,0.3,0.3,0.4,0.5c0,0.1,0.1,0.1,0.1,0.2
		c0,0,0,0.1,0.1,0.1c0,0,0.1,0.1,0.1,0.1c0.1,0.1,0.1,0.2,0.2,0.3c0,0,0,0.1,0.1,0.1c0,0.1,0.1,0.1,0.1,0.2c0,0,0,0,0,0
		c0,0,0.1,0.1,0.1,0.1c0,0,0,0,0,0c0.1,0.2,0.2,0.4,0.3,0.6c0,0,0,0.1,0.1,0.1c0,0.1,0.1,0.1,0.1,0.2c0,0.1,0.1,0.1,0.1,0.2
		c0,0.1,0.1,0.1,0.1,0.2c0,0,0,0,0,0.1c0.1,0.1,0.1,0.2,0.2,0.4c0,0,0,0,0,0.1c0,0.1,0.1,0.1,0.1,0.2c0,0.1,0.1,0.2,0.1,0.3
		c0.2,0.4,0.3,0.8,0.4,1.2c0,0.1,0.1,0.3,0.1,0.4c0,0.1,0.1,0.3,0.1,0.4c0,0,0,0.1,0,0.1c0,0.1,0,0.2,0.1,0.3c0,0,0,0.1,0,0.1
		c0,0,0,0.1,0,0.1c0,0,0,0.1,0,0.1c0.1,0.3,0.1,0.6,0.1,1c0,0.1,0,0.3,0,0.4c0,0.1,0,0.2,0,0.3c0,0.1,0,0.2,0,0.3v0
		C34.4,21.6,34.4,21.7,34.4,21.7z"/>
	<path class="st4" d="M29.7,32.7c-0.1,0.1-0.1,0.1-0.2,0.2c-0.1,0.1-0.2,0.2-0.3,0.2c-0.5,0.4-1.1,0.8-1.7,1.2h0
		c-0.7,0.4-1.5,0.8-2.3,1.1c-0.2,0.1-0.3,0.1-0.5,0.2c-0.1,0-0.3,0.1-0.4,0.1c-0.1,0-0.2,0.1-0.3,0.1c-0.5,0.1-1,0.3-1.6,0.3
		c0-0.4-0.1-0.9-0.1-1.3c-0.3-2.6-6.4-6.8-4-8.5c2.5-1.7,5.7,1,8.1,1.5c2.4,0.5,2.1-2.2,4.2-2.4C32.3,25.2,30.5,30.5,29.7,32.7z"/>
	<path class="st5" d="M11.9,13.4c-0.9,1.2-2.6,2-3.2,3.8c-0.6,1.8,2.1,4.7-1.2,4.5c-0.6,0-1.1,0-1.5,0c0-0.2,0-0.5,0-0.7
		c0-0.1,0-0.2,0-0.3c0-0.1,0-0.3,0-0.4v0c0-0.1,0-0.3,0.1-0.4c0-0.1,0-0.1,0-0.2c0-0.1,0.1-0.3,0.1-0.4v0c0-0.1,0-0.2,0.1-0.3
		c0-0.2,0.1-0.4,0.2-0.7v0c0,0,0-0.1,0-0.1c0-0.1,0-0.1,0.1-0.2c0.1-0.2,0.1-0.3,0.2-0.5c0.1-0.3,0.2-0.6,0.3-0.9c0,0,0,0,0-0.1v0
		c0.1-0.3,0.2-0.6,0.4-0.8c0,0,0,0,0,0c0-0.1,0.1-0.2,0.1-0.3c0,0,0,0,0,0c0-0.1,0.1-0.1,0.1-0.1c0.5-0.8,1-1.6,1.6-2.4
		c0.4-0.5,0.9-1,1.4-1.5c0.2-0.1,0.3-0.3,0.5-0.4c0.3-0.2,0.6-0.4,0.9-0.6C12.3,11.2,12.5,12.6,11.9,13.4z"/>
	<path class="st2" d="M32.3,18.3c-1.2,0.4-2.3-1.3-3.6-1.9c-1.3-0.6-3.1-1.9-2.1-2.7c0.9-0.8,1.4-1.4,2-1.9c0.6-0.5,1.2,0.9,1.7,2.3
		C30.7,15.4,32.9,18.1,32.3,18.3z"/>
	<path class="st2" d="M28.3,16.6c0.1-0.2-0.5-0.5-1.1-0.9c-0.6-0.4-1-0.8-1.1-0.8c-0.2,0,0.2,0.8,0.9,1.3
		C27.7,16.7,28.2,16.7,28.3,16.6z"/>
	<path class="st2" d="M10.9,31.1c0-0.4,2.6,0.4,4.7,1.5c2.1,1,3.1,3.1,2.6,3.2c-0.4,0-1.6-0.9-4-2.4C12.4,32.3,10.9,31.5,10.9,31.1z
		"/>
	<path class="st2" d="M10.5,31.9c-0.3,0.2,3.4,2.6,3.9,2.4C14.8,34,11.2,31.5,10.5,31.9z"/>
	<path class="st3" d="M21.9,18.9c-0.5,0.2,1.5,2.2,4.2,2.5c2.7,0.3,4.8-0.4,5-0.7c0.2-0.3-2.8,0.2-5-0.1
		C23.9,20.5,22.1,18.8,21.9,18.9z"/>
	<path class="st3" d="M31.6,20.6c-0.4,0.3,1.8,1.2,2.1,1.1C34,21.6,31.9,20.5,31.6,20.6z"/>
	<path class="st2" d="M11.4,28.7c-0.8,0.2,3.3,2.5,4.6,3.2c1.3,0.7,2.1,1.4,2.5,1.4c0.3-0.1-1-1.2-2.1-1.9
		C15.2,30.7,11.9,28.6,11.4,28.7z"/>
	<path class="st3" d="M24,15.5c0,0.2-0.2,0.4-0.4,0.4c-0.2,0-0.4-0.2-0.4-0.4c0-0.2,0.2-0.4,0.4-0.4C23.8,15.1,24,15.2,24,15.5z"/>
	<path class="st3" d="M17.8,20.6c0,0.2-0.2,0.4-0.4,0.4c-0.2,0-0.4-0.2-0.4-0.4s0.2-0.4,0.4-0.4C17.7,20.2,17.8,20.4,17.8,20.6z"/>
	<path class="st5" d="M22.8,23.4c0,0.2-0.2,0.4-0.4,0.4c-0.2,0-0.4-0.2-0.4-0.4c0-0.2,0.2-0.4,0.4-0.4C22.6,23,22.8,23.2,22.8,23.4z
		"/>
	<path class="st5" d="M23,17.2c0,0.2-0.2,0.4-0.4,0.4c-0.2,0-0.4-0.2-0.4-0.4c0-0.2,0.2-0.4,0.4-0.4C22.8,16.8,23,17,23,17.2z"/>
	<path class="st5" d="M14.6,26.2c0,0.2-0.2,0.4-0.4,0.4c-0.2,0-0.4-0.2-0.4-0.4c0-0.2,0.2-0.4,0.4-0.4C14.4,25.8,14.6,26,14.6,26.2z
		"/>
	<circle class="st5" cx="15.1" cy="24.2" r="0.1"/>
	<path class="st5" d="M9.9,26.6c0,0.1-0.1,0.1-0.1,0.1c-0.1,0-0.1-0.1-0.1-0.1c0-0.1,0.1-0.1,0.1-0.1C9.8,26.5,9.9,26.5,9.9,26.6z"
		/>
	<circle class="st5" cx="11.3" cy="29.4" r="0.1"/>
	<circle class="st5" cx="10.6" cy="25.6" r="0.3"/>
	<path class="st5" d="M23.8,24.6c0,0.1-0.1,0.2-0.2,0.2c-0.1,0-0.2-0.1-0.2-0.2c0-0.1,0.1-0.2,0.2-0.2
		C23.7,24.4,23.8,24.5,23.8,24.6z"/>
	<path class="st5" d="M22.8,24.2c0,0.1-0.1,0.2-0.2,0.2c-0.1,0-0.2-0.1-0.2-0.2c0-0.1,0.1-0.2,0.2-0.2C22.7,24,22.8,24.1,22.8,24.2z
		"/>
	<path class="st5" d="M24.6,14.8c0,0.1-0.1,0.2-0.2,0.2c-0.1,0-0.2-0.1-0.2-0.2c0-0.1,0.1-0.2,0.2-0.2
		C24.4,14.6,24.6,14.7,24.6,14.8z"/>
	<path class="st5" d="M21.8,12.7c0,0.1-0.1,0.2-0.2,0.2s-0.2-0.1-0.2-0.2c0-0.1,0.1-0.2,0.2-0.2S21.8,12.6,21.8,12.7z"/>
	<path class="st5" d="M23.8,9.6c0,0.1-0.1,0.2-0.2,0.2c-0.1,0-0.2-0.1-0.2-0.2c0-0.1,0.1-0.2,0.2-0.2C23.7,9.4,23.8,9.5,23.8,9.6z"
		/>
	<path class="st5" d="M27.2,22.2c0,0.1-0.1,0.2-0.2,0.2c-0.1,0-0.2-0.1-0.2-0.2c0-0.1,0.1-0.2,0.2-0.2C27.1,22,27.2,22.1,27.2,22.2z
		"/>
	<path class="st3" d="M8.5,25.9c-0.1-0.3,0.1-0.7,0.5-0.7c0.3-0.1,0.7,0.1,0.7,0.5c0.1,0.3-0.1,0.7-0.5,0.7
		C8.9,26.5,8.6,26.2,8.5,25.9z"/>
	<path class="st3" d="M28.5,22.3c0,0.2-0.2,0.4-0.4,0.4c-0.2,0-0.4-0.2-0.4-0.4c0-0.2,0.2-0.4,0.4-0.4
		C28.3,21.9,28.5,22.1,28.5,22.3z"/>
	<path class="st3" d="M29.2,31c0,0.2-0.2,0.4-0.4,0.4c-0.2,0-0.4-0.2-0.4-0.4c0-0.2,0.2-0.4,0.4-0.4C29,30.6,29.2,30.8,29.2,31z"/>
	<path class="st3" d="M22,34.3c0,0.2-0.2,0.4-0.4,0.4c-0.2,0-0.4-0.2-0.4-0.4c0-0.2,0.2-0.4,0.4-0.4C21.8,33.9,22,34.1,22,34.3z"/>
	<path class="st3" d="M31.6,21.4c0,0.2-0.2,0.4-0.4,0.4s-0.4-0.2-0.4-0.4S31,21,31.2,21S31.6,21.1,31.6,21.4z"/>
	<path class="st3" d="M29.9,29.4c0,0.2-0.2,0.4-0.4,0.4c-0.2,0-0.4-0.2-0.4-0.4s0.2-0.4,0.4-0.4C29.7,29.1,29.9,29.2,29.9,29.4z"/>
	<path class="st3" d="M23.7,14.5c0,0.1-0.1,0.1-0.1,0.1c-0.1,0-0.1-0.1-0.1-0.1c0-0.1,0.1-0.1,0.1-0.1
		C23.6,14.3,23.7,14.4,23.7,14.5z"/>
	<path class="st3" d="M16.1,17c0,0.1-0.1,0.1-0.1,0.1c-0.1,0-0.1-0.1-0.1-0.1c0-0.1,0.1-0.1,0.1-0.1C16,16.9,16.1,17,16.1,17z"/>
	<path class="st3" d="M13.9,23.8c0,0.1-0.1,0.1-0.1,0.1s-0.1-0.1-0.1-0.1c0-0.1,0.1-0.1,0.1-0.1S13.9,23.7,13.9,23.8z"/>
	<path class="st3" d="M10,27.3c0,0.1-0.1,0.3-0.3,0.3c-0.1,0-0.3-0.1-0.3-0.3c0-0.1,0.1-0.3,0.3-0.3C9.9,27,10,27.1,10,27.3z"/>
	<path class="st3" d="M16.8,29.3c0,0.1-0.1,0.3-0.3,0.3c-0.1,0-0.3-0.1-0.3-0.3c0-0.1,0.1-0.3,0.3-0.3
		C16.7,29.1,16.8,29.2,16.8,29.3z"/>
	<circle class="st3" cx="21.8" cy="29.3" r="0.3"/>
	<path class="st3" d="M29.5,22.2c0,0.1-0.1,0.1-0.1,0.1c-0.1,0-0.1-0.1-0.1-0.1c0-0.1,0.1-0.1,0.1-0.1
		C29.4,22.1,29.5,22.1,29.5,22.2z"/>
	<path class="st3" d="M19.5,24.7c0,0.1-0.1,0.1-0.1,0.1c-0.1,0-0.1-0.1-0.1-0.1c0-0.1,0.1-0.1,0.1-0.1
		C19.4,24.6,19.5,24.6,19.5,24.7z"/>
	<path class="st3" d="M26.4,10.6c0,0.1-0.1,0.1-0.1,0.1c-0.1,0-0.1-0.1-0.1-0.1s0.1-0.1,0.1-0.1C26.4,10.4,26.4,10.5,26.4,10.6z"/>
	<path class="st3" d="M27.7,22.9c0,0.1-0.1,0.1-0.1,0.1c-0.1,0-0.1-0.1-0.1-0.1c0-0.1,0.1-0.1,0.1-0.1
		C27.7,22.7,27.7,22.8,27.7,22.9z"/>
	<path class="st3" d="M32.8,23c0,0.1-0.1,0.1-0.1,0.1c-0.1,0-0.1-0.1-0.1-0.1c0-0.1,0.1-0.1,0.1-0.1C32.7,22.9,32.8,22.9,32.8,23z"
		/>
	<path class="st3" d="M25.8,26.8c0,0.1-0.1,0.1-0.1,0.1c-0.1,0-0.1-0.1-0.1-0.1c0-0.1,0.1-0.1,0.1-0.1
		C25.7,26.7,25.8,26.8,25.8,26.8z"/>
	<path class="st3" d="M30.2,27c0,0.1-0.1,0.1-0.1,0.1c-0.1,0-0.1-0.1-0.1-0.1c0-0.1,0.1-0.1,0.1-0.1C30.1,26.8,30.2,26.9,30.2,27z"
		/>
	<path class="st3" d="M23.9,31.9c0,0.1-0.1,0.1-0.1,0.1c-0.1,0-0.1-0.1-0.1-0.1c0-0.1,0.1-0.1,0.1-0.1
		C23.8,31.7,23.9,31.8,23.9,31.9z"/>
	<path class="st3" d="M24.8,14.9C24.8,15,24.8,15,24.8,14.9c-0.1,0.1-0.1,0-0.1,0C24.7,14.9,24.7,14.9,24.8,14.9
		C24.8,14.9,24.8,14.9,24.8,14.9z"/>
	<path class="st3" d="M25.7,10.7C25.7,10.8,25.7,10.8,25.7,10.7c-0.1,0.1-0.1,0-0.1,0C25.6,10.7,25.6,10.6,25.7,10.7
		C25.7,10.6,25.7,10.7,25.7,10.7z"/>
	<path class="st3" d="M22.9,15.1C22.9,15.1,22.9,15.2,22.9,15.1c-0.1,0.1-0.1,0-0.1,0C22.8,15.1,22.8,15,22.9,15.1
		C22.9,15,22.9,15.1,22.9,15.1z"/>
	<defs>
		<filter id="Adobe_OpacityMaskFilter" filterUnits="userSpaceOnUse" x="12.3" y="9.6" width="22.1" height="26.7">
			<feFlood  style="flood-color:white;flood-opacity:1" result="back"/>
			<feBlend  in="SourceGraphic" in2="back" mode="normal"/>
		</filter>
	</defs>
	<mask maskUnits="userSpaceOnUse" x="12.3" y="9.6" width="22.1" height="26.7" id="SVGID_2_">
		<g class="st6">
			<defs>
				<filter id="Adobe_OpacityMaskFilter_1_" filterUnits="userSpaceOnUse" x="12.3" y="9.6" width="22.1" height="26.7">
					<feFlood  style="flood-color:white;flood-opacity:1" result="back"/>
					<feBlend  in="SourceGraphic" in2="back" mode="normal"/>
				</filter>
			</defs>
			<mask maskUnits="userSpaceOnUse" x="12.3" y="9.6" width="22.1" height="26.7" id="SVGID_2_">
				<g class="st7">
				</g>
			</mask>
			<linearGradient id="SVGID_3_" gradientUnits="userSpaceOnUse" x1="31.7308" y1="30.4275" x2="18.8678" y2="21.082">
				<stop  offset="0" style="stop-color:#FFFFFF"/>
				<stop  offset="1" style="stop-color:#000000"/>
			</linearGradient>
			<path class="st8" d="M34.4,22.1c0,0.1,0,0.2,0,0.4c0,0.1,0,0.2,0,0.3c0,0.1,0,0.3,0,0.4c0,0.1,0,0.1,0,0.2c0,0.1,0,0.2,0,0.3
				c0,0.1,0,0.2,0,0.3c0,0.1,0,0.1,0,0.2c0,0.1,0,0.1,0,0.1c-0.2,1.3-0.5,2.5-1.1,3.7h0c-0.1,0.3-0.3,0.6-0.4,0.8
				c-0.1,0.2-0.2,0.3-0.3,0.5c-0.1,0.1-0.2,0.3-0.2,0.4c-0.3,0.5-0.6,1-1,1.4c-0.2,0.2-0.4,0.4-0.6,0.7c-0.5,0.5-1,1.1-1.6,1.5
				c-0.5,0.4-1.1,0.8-1.7,1.2c-0.7,0.4-1.5,0.8-2.3,1.1c-0.2,0.1-0.3,0.1-0.5,0.2c-0.2,0.1-0.3,0.1-0.5,0.2c-0.1,0-0.2,0-0.2,0.1
				c-1.2,0.3-2.5,0.5-3.9,0.5c-1.6,0-3.1-0.3-4.5-0.7c-0.3-0.1-0.6-0.2-0.9-0.3c-0.5-0.2-0.9-0.4-1.4-0.6c-0.1-0.1-0.3-0.1-0.4-0.2
				c0,0,0,0-0.1,0c0,0,0,0,0,0c-0.1,0-0.1-0.1-0.2-0.1c-0.2-0.1-0.3-0.2-0.5-0.3c0.1,0.1,0.2,0.1,0.3,0.2c0.2,0.1,0.4,0.2,0.7,0.3
				c0.2,0.1,0.5,0.2,0.7,0.3c0.3,0.1,0.6,0.2,0.9,0.3c1.4,0.5,2.9,0.7,4.5,0.7c0.8,0,1.6-0.1,2.3-0.2c0.5-0.1,1-0.2,1.6-0.3
				c0.2-0.1,0.5-0.1,0.7-0.2c0.2-0.1,0.3-0.1,0.5-0.2c0.3-0.1,0.6-0.2,0.9-0.4h0c0.9-0.4,1.8-0.9,2.6-1.5h0c0.5-0.4,1-0.8,1.5-1.3h0
				c0.2-0.2,0.4-0.4,0.6-0.7c0.3-0.4,0.7-0.8,1-1.2c0.3-0.4,0.6-0.8,0.8-1.3c0.1-0.2,0.2-0.3,0.3-0.5c0,0,0,0,0,0
				c0.6-1.1,1-2.4,1.3-3.7c0-0.1,0-0.2,0-0.2c0.1-0.3,0.1-0.5,0.1-0.8c0,0,0-0.1,0-0.1c0-0.2,0-0.3,0.1-0.5c0-0.3,0-0.6,0.1-0.9
				c0-0.1,0-0.2,0-0.2c0,0,0-0.1,0-0.1c0-0.1,0-0.1,0-0.2c0-0.1,0-0.2,0-0.4v0c0-0.1,0-0.2,0-0.3c0-0.2,0-0.5-0.1-0.7
				c0-0.1,0-0.3-0.1-0.4c0-0.2-0.1-0.5-0.1-0.7c0,0,0-0.1,0-0.1c0,0,0-0.1,0-0.1c-0.2-0.8-0.4-1.5-0.6-2.2c0-0.1-0.1-0.2-0.1-0.2
				c-0.1-0.2-0.1-0.3-0.2-0.5c-0.1-0.2-0.2-0.4-0.3-0.6c-0.1-0.2-0.2-0.4-0.3-0.6c-0.1-0.2-0.2-0.3-0.3-0.4
				c-0.1-0.1-0.1-0.2-0.2-0.3c0,0,0,0,0,0c0-0.1-0.1-0.1-0.1-0.2c0-0.1-0.1-0.1-0.1-0.2c-0.1-0.1-0.1-0.1-0.2-0.2
				c0,0-0.1-0.1-0.1-0.1c0,0,0-0.1-0.1-0.1c-0.2-0.2-0.3-0.4-0.5-0.6c0,0,0,0-0.1-0.1l0,0c-0.2-0.2-0.4-0.4-0.5-0.6
				c0,0-0.1-0.1-0.1-0.1l0,0c-0.3-0.3-0.5-0.5-0.8-0.8c0,0-0.1-0.1-0.1-0.1c-0.1-0.1-0.1-0.1-0.2-0.2c-0.1-0.1-0.2-0.2-0.3-0.3
				c0,0-0.1,0-0.1-0.1h0c-0.1,0-0.1-0.1-0.2-0.1c0,0,0,0,0,0c-0.1-0.1-0.2-0.1-0.3-0.2c0,0,0,0,0,0c-0.1-0.1-0.2-0.1-0.3-0.2
				c0.5,0.3,1,0.6,1.4,0.9c0,0,0,0,0,0c0.1,0,0.1,0.1,0.2,0.1h0c0,0,0.1,0,0.1,0.1c0.1,0.1,0.2,0.2,0.3,0.3c0.1,0.1,0.1,0.1,0.2,0.2
				c0,0,0.1,0.1,0.1,0.1c0.3,0.2,0.5,0.5,0.8,0.8l0,0c0,0,0.1,0.1,0.1,0.1c0,0,0.1,0.1,0.1,0.1c0.1,0.1,0.3,0.3,0.4,0.5l0,0
				c0.2,0.2,0.3,0.4,0.5,0.6c0,0,0.1,0.1,0.1,0.1c0,0,0,0.1,0.1,0.1c0,0,0.1,0.1,0.1,0.1c0.1,0.1,0.2,0.2,0.2,0.3c0,0,0,0.1,0.1,0.1
				c0,0.1,0.1,0.1,0.1,0.2c0,0,0,0,0,0c0,0.1,0.1,0.1,0.1,0.2c0.1,0.2,0.2,0.4,0.3,0.6c0.1,0.2,0.2,0.3,0.3,0.5
				c0.1,0.2,0.2,0.4,0.3,0.7c0.1,0.2,0.1,0.3,0.2,0.5c0.3,0.7,0.5,1.4,0.7,2.1c0,0.1,0.1,0.3,0.1,0.4c0,0,0,0.1,0,0.1
				c0,0,0,0.1,0,0.1c0.1,0.4,0.1,0.7,0.2,1.1c0,0.1,0,0.3,0,0.4c0,0.1,0,0.2,0,0.3c0,0.1,0,0.2,0,0.3v0c0,0,0,0,0,0
				c0,0.1,0,0.2,0,0.3C34.4,22,34.4,22,34.4,22.1z"/>
		</g>
	</mask>
	<linearGradient id="SVGID_4_" gradientUnits="userSpaceOnUse" x1="31.7308" y1="30.4275" x2="18.8678" y2="21.082">
		<stop  offset="0" style="stop-color:#FFFFFF"/>
		<stop  offset="1" style="stop-color:#FFFFFF"/>
	</linearGradient>
	<path class="st9" d="M34.4,22.1c0,0.1,0,0.2,0,0.4c0,0.1,0,0.2,0,0.3c0,0.1,0,0.3,0,0.4c0,0.1,0,0.1,0,0.2c0,0.1,0,0.2,0,0.3
		c0,0.1,0,0.2,0,0.3c0,0.1,0,0.1,0,0.2c0,0.1,0,0.1,0,0.1c-0.2,1.3-0.5,2.5-1.1,3.7h0c-0.1,0.3-0.3,0.6-0.4,0.8
		c-0.1,0.2-0.2,0.3-0.3,0.5c-0.1,0.1-0.2,0.3-0.2,0.4c-0.3,0.5-0.6,1-1,1.4c-0.2,0.2-0.4,0.4-0.6,0.7c-0.5,0.5-1,1.1-1.6,1.5
		c-0.5,0.4-1.1,0.8-1.7,1.2c-0.7,0.4-1.5,0.8-2.3,1.1c-0.2,0.1-0.3,0.1-0.5,0.2c-0.2,0.1-0.3,0.1-0.5,0.2c-0.1,0-0.2,0-0.2,0.1
		c-1.2,0.3-2.5,0.5-3.9,0.5c-1.6,0-3.1-0.3-4.5-0.7c-0.3-0.1-0.6-0.2-0.9-0.3c-0.5-0.2-0.9-0.4-1.4-0.6c-0.1-0.1-0.3-0.1-0.4-0.2
		c0,0,0,0-0.1,0c0,0,0,0,0,0c-0.1,0-0.1-0.1-0.2-0.1c-0.2-0.1-0.3-0.2-0.5-0.3c0.1,0.1,0.2,0.1,0.3,0.2c0.2,0.1,0.4,0.2,0.7,0.3
		c0.2,0.1,0.5,0.2,0.7,0.3c0.3,0.1,0.6,0.2,0.9,0.3c1.4,0.5,2.9,0.7,4.5,0.7c0.8,0,1.6-0.1,2.3-0.2c0.5-0.1,1-0.2,1.6-0.3
		c0.2-0.1,0.5-0.1,0.7-0.2c0.2-0.1,0.3-0.1,0.5-0.2c0.3-0.1,0.6-0.2,0.9-0.4h0c0.9-0.4,1.8-0.9,2.6-1.5h0c0.5-0.4,1-0.8,1.5-1.3h0
		c0.2-0.2,0.4-0.4,0.6-0.7c0.3-0.4,0.7-0.8,1-1.2c0.3-0.4,0.6-0.8,0.8-1.3c0.1-0.2,0.2-0.3,0.3-0.5c0,0,0,0,0,0
		c0.6-1.1,1-2.4,1.3-3.7c0-0.1,0-0.2,0-0.2c0.1-0.3,0.1-0.5,0.1-0.8c0,0,0-0.1,0-0.1c0-0.2,0-0.3,0.1-0.5c0-0.3,0-0.6,0.1-0.9
		c0-0.1,0-0.2,0-0.2c0,0,0-0.1,0-0.1c0-0.1,0-0.1,0-0.2c0-0.1,0-0.2,0-0.4v0c0-0.1,0-0.2,0-0.3c0-0.2,0-0.5-0.1-0.7
		c0-0.1,0-0.3-0.1-0.4c0-0.2-0.1-0.5-0.1-0.7c0,0,0-0.1,0-0.1c0,0,0-0.1,0-0.1c-0.2-0.8-0.4-1.5-0.6-2.2c0-0.1-0.1-0.2-0.1-0.2
		c-0.1-0.2-0.1-0.3-0.2-0.5c-0.1-0.2-0.2-0.4-0.3-0.6c-0.1-0.2-0.2-0.4-0.3-0.6c-0.1-0.2-0.2-0.3-0.3-0.4c-0.1-0.1-0.1-0.2-0.2-0.3
		c0,0,0,0,0,0c0-0.1-0.1-0.1-0.1-0.2c0-0.1-0.1-0.1-0.1-0.2c-0.1-0.1-0.1-0.1-0.2-0.2c0,0-0.1-0.1-0.1-0.1c0,0,0-0.1-0.1-0.1
		c-0.2-0.2-0.3-0.4-0.5-0.6c0,0,0,0-0.1-0.1l0,0c-0.2-0.2-0.4-0.4-0.5-0.6c0,0-0.1-0.1-0.1-0.1l0,0c-0.3-0.3-0.5-0.5-0.8-0.8
		c0,0-0.1-0.1-0.1-0.1c-0.1-0.1-0.1-0.1-0.2-0.2c-0.1-0.1-0.2-0.2-0.3-0.3c0,0-0.1,0-0.1-0.1h0c-0.1,0-0.1-0.1-0.2-0.1c0,0,0,0,0,0
		c-0.1-0.1-0.2-0.1-0.3-0.2c0,0,0,0,0,0c-0.1-0.1-0.2-0.1-0.3-0.2c0.5,0.3,1,0.6,1.4,0.9c0,0,0,0,0,0c0.1,0,0.1,0.1,0.2,0.1h0
		c0,0,0.1,0,0.1,0.1c0.1,0.1,0.2,0.2,0.3,0.3c0.1,0.1,0.1,0.1,0.2,0.2c0,0,0.1,0.1,0.1,0.1c0.3,0.2,0.5,0.5,0.8,0.8l0,0
		c0,0,0.1,0.1,0.1,0.1c0,0,0.1,0.1,0.1,0.1c0.1,0.1,0.3,0.3,0.4,0.5l0,0c0.2,0.2,0.3,0.4,0.5,0.6c0,0,0.1,0.1,0.1,0.1
		c0,0,0,0.1,0.1,0.1c0,0,0.1,0.1,0.1,0.1c0.1,0.1,0.2,0.2,0.2,0.3c0,0,0,0.1,0.1,0.1c0,0.1,0.1,0.1,0.1,0.2c0,0,0,0,0,0
		c0,0.1,0.1,0.1,0.1,0.2c0.1,0.2,0.2,0.4,0.3,0.6c0.1,0.2,0.2,0.3,0.3,0.5c0.1,0.2,0.2,0.4,0.3,0.7c0.1,0.2,0.1,0.3,0.2,0.5
		c0.3,0.7,0.5,1.4,0.7,2.1c0,0.1,0.1,0.3,0.1,0.4c0,0,0,0.1,0,0.1c0,0,0,0.1,0,0.1c0.1,0.4,0.1,0.7,0.2,1.1c0,0.1,0,0.3,0,0.4
		c0,0.1,0,0.2,0,0.3c0,0.1,0,0.2,0,0.3v0c0,0,0,0,0,0c0,0.1,0,0.2,0,0.3C34.4,22,34.4,22,34.4,22.1z"/>
	<path class="st4" d="M26.1,9.1c-0.3,0.1-0.6,0.3-1.2,0.3c-1.6,0.1-2.4-1.2-3.8-1c-1.4,0.2-1.7,2.7-4.3,2.3
		c-1.5-0.2-2.7-0.8-3.4-1.3c0.3-0.2,0.7-0.3,1-0.5c0,0,0,0,0,0c0,0,0,0,0,0c1.7-0.7,3.6-1.2,5.6-1.2c0.1,0,0.1,0,0.2,0
		C22.4,7.8,24.4,8.3,26.1,9.1z"/>
	<defs>
		<filter id="Adobe_OpacityMaskFilter_2_" filterUnits="userSpaceOnUse" x="8.6" y="8.7" width="16" height="11.7">
			<feColorMatrix  type="matrix" values="1 0 0 0 0  0 1 0 0 0  0 0 1 0 0  0 0 0 1 0"/>
		</filter>
	</defs>
	<mask maskUnits="userSpaceOnUse" x="8.6" y="8.7" width="16" height="11.7" id="SVGID_5_">
		<g class="st10">
			<defs>
				<filter id="Adobe_OpacityMaskFilter_3_" filterUnits="userSpaceOnUse" x="8.6" y="8.7" width="16" height="11.7">
					<feFlood  style="flood-color:white;flood-opacity:1" result="back"/>
					<feBlend  in="SourceGraphic" in2="back" mode="normal"/>
				</filter>
			</defs>
			<mask maskUnits="userSpaceOnUse" x="8.6" y="8.7" width="16" height="11.7" id="SVGID_5_">
				<g class="st11">
				</g>
			</mask>
			
				<linearGradient id="SVGID_6_" gradientUnits="userSpaceOnUse" x1="45.028" y1="-139.6692" x2="46.0125" y2="-132.4385" gradientTransform="matrix(1.0265 -0.5286 0.6244 1.2124 54.8031 203.5412)">
				<stop  offset="0" style="stop-color:#FFFFFF"/>
				<stop  offset="1" style="stop-color:#000000"/>
			</linearGradient>
			<path class="st12" d="M24.3,10.6c1.2,2.4-1.2,6.1-5.5,8.3c-4.3,2.2-8.7,2-9.9-0.3c-1.2-2.4,1.2-6.1,5.5-8.3
				C18.6,8,23.1,8.2,24.3,10.6z"/>
		</g>
	</mask>
	
		<linearGradient id="SVGID_7_" gradientUnits="userSpaceOnUse" x1="45.028" y1="-139.6692" x2="46.0125" y2="-132.4385" gradientTransform="matrix(1.0265 -0.5286 0.6244 1.2124 54.8031 203.5412)">
		<stop  offset="0" style="stop-color:#FFFFFF"/>
		<stop  offset="1" style="stop-color:#FFFFFF"/>
	</linearGradient>
	<path class="st13" d="M24.3,10.6c1.2,2.4-1.2,6.1-5.5,8.3c-4.3,2.2-8.7,2-9.9-0.3c-1.2-2.4,1.2-6.1,5.5-8.3
		C18.6,8,23.1,8.2,24.3,10.6z"/>
	<path class="st14" d="M19.6,9.9c0.3,0.5-1.1,1.7-3,2.7s-3.7,1.4-4,0.9c-0.3-0.5,1.1-1.7,3-2.7C17.6,9.8,19.3,9.4,19.6,9.9z"/>
	<path class="st14" d="M12.1,14.1c0.2,0.4,0,0.8-0.3,1c-0.4,0.2-0.8,0-1-0.3c-0.2-0.4,0-0.8,0.3-1C11.4,13.6,11.9,13.8,12.1,14.1z"
		/>
	<defs>
		<filter id="Adobe_OpacityMaskFilter_4_" filterUnits="userSpaceOnUse" x="0" y="0" width="23.3" height="23.3">
			<feColorMatrix  type="matrix" values="1 0 0 0 0  0 1 0 0 0  0 0 1 0 0  0 0 0 1 0"/>
		</filter>
	</defs>
	<mask maskUnits="userSpaceOnUse" x="0" y="0" width="23.3" height="23.3" id="SVGID_8_">
		<g class="st15">
			<defs>
				<filter id="Adobe_OpacityMaskFilter_5_" filterUnits="userSpaceOnUse" x="0" y="0" width="23.3" height="23.3">
					<feFlood  style="flood-color:white;flood-opacity:1" result="back"/>
					<feBlend  in="SourceGraphic" in2="back" mode="normal"/>
				</filter>
			</defs>
			<mask maskUnits="userSpaceOnUse" x="0" y="0" width="23.3" height="23.3" id="SVGID_8_">
				<g class="st16">
				</g>
			</mask>
			<radialGradient id="SVGID_9_" cx="11.4072" cy="12.3634" r="12.3236" gradientUnits="userSpaceOnUse">
				<stop  offset="0" style="stop-color:#FFFFFF"/>
				<stop  offset="0.7822" style="stop-color:#000000"/>
			</radialGradient>
			<circle class="st17" cx="11.6" cy="11.6" r="11.6"/>
		</g>
	</mask>
	<g>
		<defs>
			<filter id="Adobe_OpacityMaskFilter_6_" filterUnits="userSpaceOnUse" x="0" y="0" width="23.3" height="23.3">
				<feFlood  style="flood-color:white;flood-opacity:1" result="back"/>
				<feBlend  in="SourceGraphic" in2="back" mode="normal"/>
			</filter>
		</defs>
		<mask maskUnits="userSpaceOnUse" x="0" y="0" width="23.3" height="23.3" id="SVGID_10_">
			<g class="st18">
				<defs>
					<filter id="Adobe_OpacityMaskFilter_7_" filterUnits="userSpaceOnUse" x="0" y="0" width="23.3" height="23.3">
						<feFlood  style="flood-color:white;flood-opacity:1" result="back"/>
						<feBlend  in="SourceGraphic" in2="back" mode="normal"/>
					</filter>
				</defs>
				<mask maskUnits="userSpaceOnUse" x="0" y="0" width="23.3" height="23.3" id="SVGID_10_">
					<g class="st19">
					</g>
				</mask>
				<radialGradient id="SVGID_11_" cx="11.5258" cy="11.9484" r="12.2042" gradientUnits="userSpaceOnUse">
					<stop  offset="0" style="stop-color:#FFFFFF"/>
					<stop  offset="1" style="stop-color:#000000"/>
				</radialGradient>
				<path class="st20" d="M21.6,5.4c5.9,11.1-5.2,22.2-16.3,16.3c-1.6-0.8-2.9-2.1-3.7-3.7C-4.3,6.9,6.9-4.3,17.9,1.7
					C19.5,2.5,20.8,3.8,21.6,5.4z"/>
			</g>
		</mask>
		<radialGradient id="SVGID_12_" cx="11.5258" cy="11.9484" r="12.2042" gradientUnits="userSpaceOnUse">
			<stop  offset="0" style="stop-color:#FFFFFF"/>
			<stop  offset="1" style="stop-color:#000000"/>
		</radialGradient>
		<path class="st21" d="M21.6,5.4c5.9,11.1-5.2,22.2-16.3,16.3c-1.6-0.8-2.9-2.1-3.7-3.7C-4.3,6.9,6.9-4.3,17.9,1.7
			C19.5,2.5,20.8,3.8,21.6,5.4z"/>
	</g>
	<defs>
		<filter id="Adobe_OpacityMaskFilter_8_" filterUnits="userSpaceOnUse" x="14.5" y="20.1" width="23.3" height="23.3">
			<feColorMatrix  type="matrix" values="1 0 0 0 0  0 1 0 0 0  0 0 1 0 0  0 0 0 1 0"/>
		</filter>
	</defs>
	<mask maskUnits="userSpaceOnUse" x="14.5" y="20.1" width="23.3" height="23.3" id="SVGID_13_">
		<g class="st22">
			<defs>
				<filter id="Adobe_OpacityMaskFilter_9_" filterUnits="userSpaceOnUse" x="14.5" y="20.1" width="23.3" height="23.3">
					<feFlood  style="flood-color:white;flood-opacity:1" result="back"/>
					<feBlend  in="SourceGraphic" in2="back" mode="normal"/>
				</filter>
			</defs>
			<mask maskUnits="userSpaceOnUse" x="14.5" y="20.1" width="23.3" height="23.3" id="SVGID_13_">
				<g class="st23">
				</g>
			</mask>
			<radialGradient id="SVGID_14_" cx="25.9106" cy="32.4403" r="12.3237" gradientUnits="userSpaceOnUse">
				<stop  offset="0" style="stop-color:#FFFFFF"/>
				<stop  offset="0.7822" style="stop-color:#000000"/>
			</radialGradient>
			<circle class="st24" cx="26.1" cy="31.7" r="11.6"/>
		</g>
	</mask>
	<g>
		<defs>
			<filter id="Adobe_OpacityMaskFilter_10_" filterUnits="userSpaceOnUse" x="14.5" y="20.1" width="23.3" height="23.3">
				<feFlood  style="flood-color:white;flood-opacity:1" result="back"/>
				<feBlend  in="SourceGraphic" in2="back" mode="normal"/>
			</filter>
		</defs>
		<mask maskUnits="userSpaceOnUse" x="14.5" y="20.1" width="23.3" height="23.3" id="SVGID_15_">
			<g class="st25">
				<defs>
					<filter id="Adobe_OpacityMaskFilter_11_" filterUnits="userSpaceOnUse" x="14.5" y="20.1" width="23.3" height="23.3">
						<feFlood  style="flood-color:white;flood-opacity:1" result="back"/>
						<feBlend  in="SourceGraphic" in2="back" mode="normal"/>
					</filter>
				</defs>
				<mask maskUnits="userSpaceOnUse" x="14.5" y="20.1" width="23.3" height="23.3" id="SVGID_15_">
					<g class="st26">
					</g>
				</mask>
				<radialGradient id="SVGID_16_" cx="26.0293" cy="32.0254" r="12.2042" gradientUnits="userSpaceOnUse">
					<stop  offset="0" style="stop-color:#FFFFFF"/>
					<stop  offset="1" style="stop-color:#000000"/>
				</radialGradient>
				<path class="st27" d="M36.1,25.4c5.9,11.1-5.2,22.2-16.3,16.3c-1.6-0.8-2.9-2.1-3.7-3.7c-5.9-11.1,5.2-22.2,16.3-16.3
					C34,22.6,35.3,23.9,36.1,25.4z"/>
			</g>
		</mask>
		<radialGradient id="SVGID_17_" cx="26.0293" cy="32.0254" r="12.2042" gradientUnits="userSpaceOnUse">
			<stop  offset="0" style="stop-color:#FFFFFF"/>
			<stop  offset="1" style="stop-color:#000000"/>
		</radialGradient>
		<path class="st28" d="M36.1,25.4c5.9,11.1-5.2,22.2-16.3,16.3c-1.6-0.8-2.9-2.1-3.7-3.7c-5.9-11.1,5.2-22.2,16.3-16.3
			C34,22.6,35.3,23.9,36.1,25.4z"/>
	</g>
</g>
</svg>
